G75*
%MOIN*%
%OFA0B0*%
%FSLAX25Y25*%
%IPPOS*%
%LPD*%
%AMOC8*
5,1,8,0,0,1.08239X$1,22.5*
%
%ADD10C,0.13800*%
%ADD11R,0.03300X0.05800*%
%ADD12C,0.08200*%
D10*
X0064514Y0124965D03*
X0144514Y0124965D03*
X0176719Y0124965D03*
X0256719Y0124965D03*
X0288924Y0124965D03*
X0368924Y0124965D03*
X0401129Y0124965D03*
X0481129Y0124965D03*
X0481129Y0237169D03*
X0401129Y0237169D03*
X0368924Y0237169D03*
X0288924Y0237169D03*
X0256719Y0237169D03*
X0176719Y0237169D03*
X0144514Y0237169D03*
X0064514Y0237169D03*
X0064514Y0349374D03*
X0144514Y0349374D03*
X0176719Y0349374D03*
X0256719Y0349374D03*
X0288924Y0349374D03*
X0368924Y0349374D03*
X0401129Y0349374D03*
X0481129Y0349374D03*
D11*
X0442900Y0286874D03*
X0439357Y0286874D03*
X0330696Y0286874D03*
X0327152Y0286874D03*
X0218491Y0286874D03*
X0214948Y0286874D03*
X0106286Y0286874D03*
X0102743Y0286874D03*
X0102743Y0174669D03*
X0106286Y0174669D03*
X0214948Y0174669D03*
X0218491Y0174669D03*
X0327152Y0174669D03*
X0330696Y0174669D03*
X0439357Y0174669D03*
X0442900Y0174669D03*
X0442900Y0062465D03*
X0439357Y0062465D03*
X0330696Y0062465D03*
X0327152Y0062465D03*
X0218491Y0062465D03*
X0214948Y0062465D03*
X0106286Y0062465D03*
X0102743Y0062465D03*
D12*
X0079514Y0039965D03*
X0089514Y0039965D03*
X0099514Y0039965D03*
X0109514Y0039965D03*
X0119514Y0039965D03*
X0129514Y0039965D03*
X0191719Y0039965D03*
X0201719Y0039965D03*
X0211719Y0039965D03*
X0221719Y0039965D03*
X0231719Y0039965D03*
X0241719Y0039965D03*
X0303924Y0039965D03*
X0313924Y0039965D03*
X0323924Y0039965D03*
X0333924Y0039965D03*
X0343924Y0039965D03*
X0353924Y0039965D03*
X0416129Y0039965D03*
X0426129Y0039965D03*
X0436129Y0039965D03*
X0446129Y0039965D03*
X0456129Y0039965D03*
X0466129Y0039965D03*
X0466129Y0152169D03*
X0456129Y0152169D03*
X0446129Y0152169D03*
X0436129Y0152169D03*
X0426129Y0152169D03*
X0416129Y0152169D03*
X0353924Y0152169D03*
X0343924Y0152169D03*
X0333924Y0152169D03*
X0323924Y0152169D03*
X0313924Y0152169D03*
X0303924Y0152169D03*
X0241719Y0152169D03*
X0231719Y0152169D03*
X0221719Y0152169D03*
X0211719Y0152169D03*
X0201719Y0152169D03*
X0191719Y0152169D03*
X0129514Y0152169D03*
X0119514Y0152169D03*
X0109514Y0152169D03*
X0099514Y0152169D03*
X0089514Y0152169D03*
X0079514Y0152169D03*
X0079514Y0264374D03*
X0089514Y0264374D03*
X0099514Y0264374D03*
X0109514Y0264374D03*
X0119514Y0264374D03*
X0129514Y0264374D03*
X0191719Y0264374D03*
X0201719Y0264374D03*
X0211719Y0264374D03*
X0221719Y0264374D03*
X0231719Y0264374D03*
X0241719Y0264374D03*
X0303924Y0264374D03*
X0313924Y0264374D03*
X0323924Y0264374D03*
X0333924Y0264374D03*
X0343924Y0264374D03*
X0353924Y0264374D03*
X0416129Y0264374D03*
X0426129Y0264374D03*
X0436129Y0264374D03*
X0446129Y0264374D03*
X0456129Y0264374D03*
X0466129Y0264374D03*
M02*
