G75*
%MOIN*%
%OFA0B0*%
%FSLAX25Y25*%
%IPPOS*%
%LPD*%
%AMOC8*
5,1,8,0,0,1.08239X$1,22.5*
%
%ADD10C,0.00800*%
%ADD11C,0.00000*%
D10*
X0054514Y0034965D02*
X0154514Y0034965D01*
X0154514Y0134965D01*
X0054514Y0134965D01*
X0054514Y0034965D01*
X0166719Y0034965D02*
X0266719Y0034965D01*
X0266719Y0134965D01*
X0166719Y0134965D01*
X0166719Y0034965D01*
X0278924Y0034965D02*
X0378924Y0034965D01*
X0378924Y0134965D01*
X0278924Y0134965D01*
X0278924Y0034965D01*
X0391129Y0034965D02*
X0491129Y0034965D01*
X0491129Y0134965D01*
X0391129Y0134965D01*
X0391129Y0034965D01*
X0391129Y0147169D02*
X0491129Y0147169D01*
X0491129Y0247169D01*
X0391129Y0247169D01*
X0391129Y0147169D01*
X0378924Y0147169D02*
X0278924Y0147169D01*
X0278924Y0247169D01*
X0378924Y0247169D01*
X0378924Y0147169D01*
X0266719Y0147169D02*
X0166719Y0147169D01*
X0166719Y0247169D01*
X0266719Y0247169D01*
X0266719Y0147169D01*
X0154514Y0147169D02*
X0054514Y0147169D01*
X0054514Y0247169D01*
X0154514Y0247169D01*
X0154514Y0147169D01*
X0154514Y0259374D02*
X0054514Y0259374D01*
X0054514Y0359374D01*
X0154514Y0359374D01*
X0154514Y0259374D01*
X0166719Y0259374D02*
X0266719Y0259374D01*
X0266719Y0359374D01*
X0166719Y0359374D01*
X0166719Y0259374D01*
X0278924Y0259374D02*
X0378924Y0259374D01*
X0378924Y0359374D01*
X0278924Y0359374D01*
X0278924Y0259374D01*
X0391129Y0259374D02*
X0491129Y0259374D01*
X0491129Y0359374D01*
X0391129Y0359374D01*
X0391129Y0259374D01*
D11*
X0394629Y0237169D02*
X0394631Y0237330D01*
X0394637Y0237490D01*
X0394647Y0237651D01*
X0394661Y0237811D01*
X0394679Y0237971D01*
X0394700Y0238130D01*
X0394726Y0238289D01*
X0394756Y0238447D01*
X0394789Y0238604D01*
X0394827Y0238761D01*
X0394868Y0238916D01*
X0394913Y0239070D01*
X0394962Y0239223D01*
X0395015Y0239375D01*
X0395071Y0239526D01*
X0395132Y0239675D01*
X0395195Y0239823D01*
X0395263Y0239969D01*
X0395334Y0240113D01*
X0395408Y0240255D01*
X0395486Y0240396D01*
X0395568Y0240534D01*
X0395653Y0240671D01*
X0395741Y0240805D01*
X0395833Y0240937D01*
X0395928Y0241067D01*
X0396026Y0241195D01*
X0396127Y0241320D01*
X0396231Y0241442D01*
X0396338Y0241562D01*
X0396448Y0241679D01*
X0396561Y0241794D01*
X0396677Y0241905D01*
X0396796Y0242014D01*
X0396917Y0242119D01*
X0397041Y0242222D01*
X0397167Y0242322D01*
X0397295Y0242418D01*
X0397426Y0242511D01*
X0397560Y0242601D01*
X0397695Y0242688D01*
X0397833Y0242771D01*
X0397972Y0242851D01*
X0398114Y0242927D01*
X0398257Y0243000D01*
X0398402Y0243069D01*
X0398549Y0243135D01*
X0398697Y0243197D01*
X0398847Y0243255D01*
X0398998Y0243310D01*
X0399151Y0243361D01*
X0399305Y0243408D01*
X0399460Y0243451D01*
X0399616Y0243490D01*
X0399772Y0243526D01*
X0399930Y0243557D01*
X0400088Y0243585D01*
X0400247Y0243609D01*
X0400407Y0243629D01*
X0400567Y0243645D01*
X0400727Y0243657D01*
X0400888Y0243665D01*
X0401049Y0243669D01*
X0401209Y0243669D01*
X0401370Y0243665D01*
X0401531Y0243657D01*
X0401691Y0243645D01*
X0401851Y0243629D01*
X0402011Y0243609D01*
X0402170Y0243585D01*
X0402328Y0243557D01*
X0402486Y0243526D01*
X0402642Y0243490D01*
X0402798Y0243451D01*
X0402953Y0243408D01*
X0403107Y0243361D01*
X0403260Y0243310D01*
X0403411Y0243255D01*
X0403561Y0243197D01*
X0403709Y0243135D01*
X0403856Y0243069D01*
X0404001Y0243000D01*
X0404144Y0242927D01*
X0404286Y0242851D01*
X0404425Y0242771D01*
X0404563Y0242688D01*
X0404698Y0242601D01*
X0404832Y0242511D01*
X0404963Y0242418D01*
X0405091Y0242322D01*
X0405217Y0242222D01*
X0405341Y0242119D01*
X0405462Y0242014D01*
X0405581Y0241905D01*
X0405697Y0241794D01*
X0405810Y0241679D01*
X0405920Y0241562D01*
X0406027Y0241442D01*
X0406131Y0241320D01*
X0406232Y0241195D01*
X0406330Y0241067D01*
X0406425Y0240937D01*
X0406517Y0240805D01*
X0406605Y0240671D01*
X0406690Y0240534D01*
X0406772Y0240396D01*
X0406850Y0240255D01*
X0406924Y0240113D01*
X0406995Y0239969D01*
X0407063Y0239823D01*
X0407126Y0239675D01*
X0407187Y0239526D01*
X0407243Y0239375D01*
X0407296Y0239223D01*
X0407345Y0239070D01*
X0407390Y0238916D01*
X0407431Y0238761D01*
X0407469Y0238604D01*
X0407502Y0238447D01*
X0407532Y0238289D01*
X0407558Y0238130D01*
X0407579Y0237971D01*
X0407597Y0237811D01*
X0407611Y0237651D01*
X0407621Y0237490D01*
X0407627Y0237330D01*
X0407629Y0237169D01*
X0407627Y0237008D01*
X0407621Y0236848D01*
X0407611Y0236687D01*
X0407597Y0236527D01*
X0407579Y0236367D01*
X0407558Y0236208D01*
X0407532Y0236049D01*
X0407502Y0235891D01*
X0407469Y0235734D01*
X0407431Y0235577D01*
X0407390Y0235422D01*
X0407345Y0235268D01*
X0407296Y0235115D01*
X0407243Y0234963D01*
X0407187Y0234812D01*
X0407126Y0234663D01*
X0407063Y0234515D01*
X0406995Y0234369D01*
X0406924Y0234225D01*
X0406850Y0234083D01*
X0406772Y0233942D01*
X0406690Y0233804D01*
X0406605Y0233667D01*
X0406517Y0233533D01*
X0406425Y0233401D01*
X0406330Y0233271D01*
X0406232Y0233143D01*
X0406131Y0233018D01*
X0406027Y0232896D01*
X0405920Y0232776D01*
X0405810Y0232659D01*
X0405697Y0232544D01*
X0405581Y0232433D01*
X0405462Y0232324D01*
X0405341Y0232219D01*
X0405217Y0232116D01*
X0405091Y0232016D01*
X0404963Y0231920D01*
X0404832Y0231827D01*
X0404698Y0231737D01*
X0404563Y0231650D01*
X0404425Y0231567D01*
X0404286Y0231487D01*
X0404144Y0231411D01*
X0404001Y0231338D01*
X0403856Y0231269D01*
X0403709Y0231203D01*
X0403561Y0231141D01*
X0403411Y0231083D01*
X0403260Y0231028D01*
X0403107Y0230977D01*
X0402953Y0230930D01*
X0402798Y0230887D01*
X0402642Y0230848D01*
X0402486Y0230812D01*
X0402328Y0230781D01*
X0402170Y0230753D01*
X0402011Y0230729D01*
X0401851Y0230709D01*
X0401691Y0230693D01*
X0401531Y0230681D01*
X0401370Y0230673D01*
X0401209Y0230669D01*
X0401049Y0230669D01*
X0400888Y0230673D01*
X0400727Y0230681D01*
X0400567Y0230693D01*
X0400407Y0230709D01*
X0400247Y0230729D01*
X0400088Y0230753D01*
X0399930Y0230781D01*
X0399772Y0230812D01*
X0399616Y0230848D01*
X0399460Y0230887D01*
X0399305Y0230930D01*
X0399151Y0230977D01*
X0398998Y0231028D01*
X0398847Y0231083D01*
X0398697Y0231141D01*
X0398549Y0231203D01*
X0398402Y0231269D01*
X0398257Y0231338D01*
X0398114Y0231411D01*
X0397972Y0231487D01*
X0397833Y0231567D01*
X0397695Y0231650D01*
X0397560Y0231737D01*
X0397426Y0231827D01*
X0397295Y0231920D01*
X0397167Y0232016D01*
X0397041Y0232116D01*
X0396917Y0232219D01*
X0396796Y0232324D01*
X0396677Y0232433D01*
X0396561Y0232544D01*
X0396448Y0232659D01*
X0396338Y0232776D01*
X0396231Y0232896D01*
X0396127Y0233018D01*
X0396026Y0233143D01*
X0395928Y0233271D01*
X0395833Y0233401D01*
X0395741Y0233533D01*
X0395653Y0233667D01*
X0395568Y0233804D01*
X0395486Y0233942D01*
X0395408Y0234083D01*
X0395334Y0234225D01*
X0395263Y0234369D01*
X0395195Y0234515D01*
X0395132Y0234663D01*
X0395071Y0234812D01*
X0395015Y0234963D01*
X0394962Y0235115D01*
X0394913Y0235268D01*
X0394868Y0235422D01*
X0394827Y0235577D01*
X0394789Y0235734D01*
X0394756Y0235891D01*
X0394726Y0236049D01*
X0394700Y0236208D01*
X0394679Y0236367D01*
X0394661Y0236527D01*
X0394647Y0236687D01*
X0394637Y0236848D01*
X0394631Y0237008D01*
X0394629Y0237169D01*
X0362424Y0237169D02*
X0362426Y0237330D01*
X0362432Y0237490D01*
X0362442Y0237651D01*
X0362456Y0237811D01*
X0362474Y0237971D01*
X0362495Y0238130D01*
X0362521Y0238289D01*
X0362551Y0238447D01*
X0362584Y0238604D01*
X0362622Y0238761D01*
X0362663Y0238916D01*
X0362708Y0239070D01*
X0362757Y0239223D01*
X0362810Y0239375D01*
X0362866Y0239526D01*
X0362927Y0239675D01*
X0362990Y0239823D01*
X0363058Y0239969D01*
X0363129Y0240113D01*
X0363203Y0240255D01*
X0363281Y0240396D01*
X0363363Y0240534D01*
X0363448Y0240671D01*
X0363536Y0240805D01*
X0363628Y0240937D01*
X0363723Y0241067D01*
X0363821Y0241195D01*
X0363922Y0241320D01*
X0364026Y0241442D01*
X0364133Y0241562D01*
X0364243Y0241679D01*
X0364356Y0241794D01*
X0364472Y0241905D01*
X0364591Y0242014D01*
X0364712Y0242119D01*
X0364836Y0242222D01*
X0364962Y0242322D01*
X0365090Y0242418D01*
X0365221Y0242511D01*
X0365355Y0242601D01*
X0365490Y0242688D01*
X0365628Y0242771D01*
X0365767Y0242851D01*
X0365909Y0242927D01*
X0366052Y0243000D01*
X0366197Y0243069D01*
X0366344Y0243135D01*
X0366492Y0243197D01*
X0366642Y0243255D01*
X0366793Y0243310D01*
X0366946Y0243361D01*
X0367100Y0243408D01*
X0367255Y0243451D01*
X0367411Y0243490D01*
X0367567Y0243526D01*
X0367725Y0243557D01*
X0367883Y0243585D01*
X0368042Y0243609D01*
X0368202Y0243629D01*
X0368362Y0243645D01*
X0368522Y0243657D01*
X0368683Y0243665D01*
X0368844Y0243669D01*
X0369004Y0243669D01*
X0369165Y0243665D01*
X0369326Y0243657D01*
X0369486Y0243645D01*
X0369646Y0243629D01*
X0369806Y0243609D01*
X0369965Y0243585D01*
X0370123Y0243557D01*
X0370281Y0243526D01*
X0370437Y0243490D01*
X0370593Y0243451D01*
X0370748Y0243408D01*
X0370902Y0243361D01*
X0371055Y0243310D01*
X0371206Y0243255D01*
X0371356Y0243197D01*
X0371504Y0243135D01*
X0371651Y0243069D01*
X0371796Y0243000D01*
X0371939Y0242927D01*
X0372081Y0242851D01*
X0372220Y0242771D01*
X0372358Y0242688D01*
X0372493Y0242601D01*
X0372627Y0242511D01*
X0372758Y0242418D01*
X0372886Y0242322D01*
X0373012Y0242222D01*
X0373136Y0242119D01*
X0373257Y0242014D01*
X0373376Y0241905D01*
X0373492Y0241794D01*
X0373605Y0241679D01*
X0373715Y0241562D01*
X0373822Y0241442D01*
X0373926Y0241320D01*
X0374027Y0241195D01*
X0374125Y0241067D01*
X0374220Y0240937D01*
X0374312Y0240805D01*
X0374400Y0240671D01*
X0374485Y0240534D01*
X0374567Y0240396D01*
X0374645Y0240255D01*
X0374719Y0240113D01*
X0374790Y0239969D01*
X0374858Y0239823D01*
X0374921Y0239675D01*
X0374982Y0239526D01*
X0375038Y0239375D01*
X0375091Y0239223D01*
X0375140Y0239070D01*
X0375185Y0238916D01*
X0375226Y0238761D01*
X0375264Y0238604D01*
X0375297Y0238447D01*
X0375327Y0238289D01*
X0375353Y0238130D01*
X0375374Y0237971D01*
X0375392Y0237811D01*
X0375406Y0237651D01*
X0375416Y0237490D01*
X0375422Y0237330D01*
X0375424Y0237169D01*
X0375422Y0237008D01*
X0375416Y0236848D01*
X0375406Y0236687D01*
X0375392Y0236527D01*
X0375374Y0236367D01*
X0375353Y0236208D01*
X0375327Y0236049D01*
X0375297Y0235891D01*
X0375264Y0235734D01*
X0375226Y0235577D01*
X0375185Y0235422D01*
X0375140Y0235268D01*
X0375091Y0235115D01*
X0375038Y0234963D01*
X0374982Y0234812D01*
X0374921Y0234663D01*
X0374858Y0234515D01*
X0374790Y0234369D01*
X0374719Y0234225D01*
X0374645Y0234083D01*
X0374567Y0233942D01*
X0374485Y0233804D01*
X0374400Y0233667D01*
X0374312Y0233533D01*
X0374220Y0233401D01*
X0374125Y0233271D01*
X0374027Y0233143D01*
X0373926Y0233018D01*
X0373822Y0232896D01*
X0373715Y0232776D01*
X0373605Y0232659D01*
X0373492Y0232544D01*
X0373376Y0232433D01*
X0373257Y0232324D01*
X0373136Y0232219D01*
X0373012Y0232116D01*
X0372886Y0232016D01*
X0372758Y0231920D01*
X0372627Y0231827D01*
X0372493Y0231737D01*
X0372358Y0231650D01*
X0372220Y0231567D01*
X0372081Y0231487D01*
X0371939Y0231411D01*
X0371796Y0231338D01*
X0371651Y0231269D01*
X0371504Y0231203D01*
X0371356Y0231141D01*
X0371206Y0231083D01*
X0371055Y0231028D01*
X0370902Y0230977D01*
X0370748Y0230930D01*
X0370593Y0230887D01*
X0370437Y0230848D01*
X0370281Y0230812D01*
X0370123Y0230781D01*
X0369965Y0230753D01*
X0369806Y0230729D01*
X0369646Y0230709D01*
X0369486Y0230693D01*
X0369326Y0230681D01*
X0369165Y0230673D01*
X0369004Y0230669D01*
X0368844Y0230669D01*
X0368683Y0230673D01*
X0368522Y0230681D01*
X0368362Y0230693D01*
X0368202Y0230709D01*
X0368042Y0230729D01*
X0367883Y0230753D01*
X0367725Y0230781D01*
X0367567Y0230812D01*
X0367411Y0230848D01*
X0367255Y0230887D01*
X0367100Y0230930D01*
X0366946Y0230977D01*
X0366793Y0231028D01*
X0366642Y0231083D01*
X0366492Y0231141D01*
X0366344Y0231203D01*
X0366197Y0231269D01*
X0366052Y0231338D01*
X0365909Y0231411D01*
X0365767Y0231487D01*
X0365628Y0231567D01*
X0365490Y0231650D01*
X0365355Y0231737D01*
X0365221Y0231827D01*
X0365090Y0231920D01*
X0364962Y0232016D01*
X0364836Y0232116D01*
X0364712Y0232219D01*
X0364591Y0232324D01*
X0364472Y0232433D01*
X0364356Y0232544D01*
X0364243Y0232659D01*
X0364133Y0232776D01*
X0364026Y0232896D01*
X0363922Y0233018D01*
X0363821Y0233143D01*
X0363723Y0233271D01*
X0363628Y0233401D01*
X0363536Y0233533D01*
X0363448Y0233667D01*
X0363363Y0233804D01*
X0363281Y0233942D01*
X0363203Y0234083D01*
X0363129Y0234225D01*
X0363058Y0234369D01*
X0362990Y0234515D01*
X0362927Y0234663D01*
X0362866Y0234812D01*
X0362810Y0234963D01*
X0362757Y0235115D01*
X0362708Y0235268D01*
X0362663Y0235422D01*
X0362622Y0235577D01*
X0362584Y0235734D01*
X0362551Y0235891D01*
X0362521Y0236049D01*
X0362495Y0236208D01*
X0362474Y0236367D01*
X0362456Y0236527D01*
X0362442Y0236687D01*
X0362432Y0236848D01*
X0362426Y0237008D01*
X0362424Y0237169D01*
X0282424Y0237169D02*
X0282426Y0237330D01*
X0282432Y0237490D01*
X0282442Y0237651D01*
X0282456Y0237811D01*
X0282474Y0237971D01*
X0282495Y0238130D01*
X0282521Y0238289D01*
X0282551Y0238447D01*
X0282584Y0238604D01*
X0282622Y0238761D01*
X0282663Y0238916D01*
X0282708Y0239070D01*
X0282757Y0239223D01*
X0282810Y0239375D01*
X0282866Y0239526D01*
X0282927Y0239675D01*
X0282990Y0239823D01*
X0283058Y0239969D01*
X0283129Y0240113D01*
X0283203Y0240255D01*
X0283281Y0240396D01*
X0283363Y0240534D01*
X0283448Y0240671D01*
X0283536Y0240805D01*
X0283628Y0240937D01*
X0283723Y0241067D01*
X0283821Y0241195D01*
X0283922Y0241320D01*
X0284026Y0241442D01*
X0284133Y0241562D01*
X0284243Y0241679D01*
X0284356Y0241794D01*
X0284472Y0241905D01*
X0284591Y0242014D01*
X0284712Y0242119D01*
X0284836Y0242222D01*
X0284962Y0242322D01*
X0285090Y0242418D01*
X0285221Y0242511D01*
X0285355Y0242601D01*
X0285490Y0242688D01*
X0285628Y0242771D01*
X0285767Y0242851D01*
X0285909Y0242927D01*
X0286052Y0243000D01*
X0286197Y0243069D01*
X0286344Y0243135D01*
X0286492Y0243197D01*
X0286642Y0243255D01*
X0286793Y0243310D01*
X0286946Y0243361D01*
X0287100Y0243408D01*
X0287255Y0243451D01*
X0287411Y0243490D01*
X0287567Y0243526D01*
X0287725Y0243557D01*
X0287883Y0243585D01*
X0288042Y0243609D01*
X0288202Y0243629D01*
X0288362Y0243645D01*
X0288522Y0243657D01*
X0288683Y0243665D01*
X0288844Y0243669D01*
X0289004Y0243669D01*
X0289165Y0243665D01*
X0289326Y0243657D01*
X0289486Y0243645D01*
X0289646Y0243629D01*
X0289806Y0243609D01*
X0289965Y0243585D01*
X0290123Y0243557D01*
X0290281Y0243526D01*
X0290437Y0243490D01*
X0290593Y0243451D01*
X0290748Y0243408D01*
X0290902Y0243361D01*
X0291055Y0243310D01*
X0291206Y0243255D01*
X0291356Y0243197D01*
X0291504Y0243135D01*
X0291651Y0243069D01*
X0291796Y0243000D01*
X0291939Y0242927D01*
X0292081Y0242851D01*
X0292220Y0242771D01*
X0292358Y0242688D01*
X0292493Y0242601D01*
X0292627Y0242511D01*
X0292758Y0242418D01*
X0292886Y0242322D01*
X0293012Y0242222D01*
X0293136Y0242119D01*
X0293257Y0242014D01*
X0293376Y0241905D01*
X0293492Y0241794D01*
X0293605Y0241679D01*
X0293715Y0241562D01*
X0293822Y0241442D01*
X0293926Y0241320D01*
X0294027Y0241195D01*
X0294125Y0241067D01*
X0294220Y0240937D01*
X0294312Y0240805D01*
X0294400Y0240671D01*
X0294485Y0240534D01*
X0294567Y0240396D01*
X0294645Y0240255D01*
X0294719Y0240113D01*
X0294790Y0239969D01*
X0294858Y0239823D01*
X0294921Y0239675D01*
X0294982Y0239526D01*
X0295038Y0239375D01*
X0295091Y0239223D01*
X0295140Y0239070D01*
X0295185Y0238916D01*
X0295226Y0238761D01*
X0295264Y0238604D01*
X0295297Y0238447D01*
X0295327Y0238289D01*
X0295353Y0238130D01*
X0295374Y0237971D01*
X0295392Y0237811D01*
X0295406Y0237651D01*
X0295416Y0237490D01*
X0295422Y0237330D01*
X0295424Y0237169D01*
X0295422Y0237008D01*
X0295416Y0236848D01*
X0295406Y0236687D01*
X0295392Y0236527D01*
X0295374Y0236367D01*
X0295353Y0236208D01*
X0295327Y0236049D01*
X0295297Y0235891D01*
X0295264Y0235734D01*
X0295226Y0235577D01*
X0295185Y0235422D01*
X0295140Y0235268D01*
X0295091Y0235115D01*
X0295038Y0234963D01*
X0294982Y0234812D01*
X0294921Y0234663D01*
X0294858Y0234515D01*
X0294790Y0234369D01*
X0294719Y0234225D01*
X0294645Y0234083D01*
X0294567Y0233942D01*
X0294485Y0233804D01*
X0294400Y0233667D01*
X0294312Y0233533D01*
X0294220Y0233401D01*
X0294125Y0233271D01*
X0294027Y0233143D01*
X0293926Y0233018D01*
X0293822Y0232896D01*
X0293715Y0232776D01*
X0293605Y0232659D01*
X0293492Y0232544D01*
X0293376Y0232433D01*
X0293257Y0232324D01*
X0293136Y0232219D01*
X0293012Y0232116D01*
X0292886Y0232016D01*
X0292758Y0231920D01*
X0292627Y0231827D01*
X0292493Y0231737D01*
X0292358Y0231650D01*
X0292220Y0231567D01*
X0292081Y0231487D01*
X0291939Y0231411D01*
X0291796Y0231338D01*
X0291651Y0231269D01*
X0291504Y0231203D01*
X0291356Y0231141D01*
X0291206Y0231083D01*
X0291055Y0231028D01*
X0290902Y0230977D01*
X0290748Y0230930D01*
X0290593Y0230887D01*
X0290437Y0230848D01*
X0290281Y0230812D01*
X0290123Y0230781D01*
X0289965Y0230753D01*
X0289806Y0230729D01*
X0289646Y0230709D01*
X0289486Y0230693D01*
X0289326Y0230681D01*
X0289165Y0230673D01*
X0289004Y0230669D01*
X0288844Y0230669D01*
X0288683Y0230673D01*
X0288522Y0230681D01*
X0288362Y0230693D01*
X0288202Y0230709D01*
X0288042Y0230729D01*
X0287883Y0230753D01*
X0287725Y0230781D01*
X0287567Y0230812D01*
X0287411Y0230848D01*
X0287255Y0230887D01*
X0287100Y0230930D01*
X0286946Y0230977D01*
X0286793Y0231028D01*
X0286642Y0231083D01*
X0286492Y0231141D01*
X0286344Y0231203D01*
X0286197Y0231269D01*
X0286052Y0231338D01*
X0285909Y0231411D01*
X0285767Y0231487D01*
X0285628Y0231567D01*
X0285490Y0231650D01*
X0285355Y0231737D01*
X0285221Y0231827D01*
X0285090Y0231920D01*
X0284962Y0232016D01*
X0284836Y0232116D01*
X0284712Y0232219D01*
X0284591Y0232324D01*
X0284472Y0232433D01*
X0284356Y0232544D01*
X0284243Y0232659D01*
X0284133Y0232776D01*
X0284026Y0232896D01*
X0283922Y0233018D01*
X0283821Y0233143D01*
X0283723Y0233271D01*
X0283628Y0233401D01*
X0283536Y0233533D01*
X0283448Y0233667D01*
X0283363Y0233804D01*
X0283281Y0233942D01*
X0283203Y0234083D01*
X0283129Y0234225D01*
X0283058Y0234369D01*
X0282990Y0234515D01*
X0282927Y0234663D01*
X0282866Y0234812D01*
X0282810Y0234963D01*
X0282757Y0235115D01*
X0282708Y0235268D01*
X0282663Y0235422D01*
X0282622Y0235577D01*
X0282584Y0235734D01*
X0282551Y0235891D01*
X0282521Y0236049D01*
X0282495Y0236208D01*
X0282474Y0236367D01*
X0282456Y0236527D01*
X0282442Y0236687D01*
X0282432Y0236848D01*
X0282426Y0237008D01*
X0282424Y0237169D01*
X0250219Y0237169D02*
X0250221Y0237330D01*
X0250227Y0237490D01*
X0250237Y0237651D01*
X0250251Y0237811D01*
X0250269Y0237971D01*
X0250290Y0238130D01*
X0250316Y0238289D01*
X0250346Y0238447D01*
X0250379Y0238604D01*
X0250417Y0238761D01*
X0250458Y0238916D01*
X0250503Y0239070D01*
X0250552Y0239223D01*
X0250605Y0239375D01*
X0250661Y0239526D01*
X0250722Y0239675D01*
X0250785Y0239823D01*
X0250853Y0239969D01*
X0250924Y0240113D01*
X0250998Y0240255D01*
X0251076Y0240396D01*
X0251158Y0240534D01*
X0251243Y0240671D01*
X0251331Y0240805D01*
X0251423Y0240937D01*
X0251518Y0241067D01*
X0251616Y0241195D01*
X0251717Y0241320D01*
X0251821Y0241442D01*
X0251928Y0241562D01*
X0252038Y0241679D01*
X0252151Y0241794D01*
X0252267Y0241905D01*
X0252386Y0242014D01*
X0252507Y0242119D01*
X0252631Y0242222D01*
X0252757Y0242322D01*
X0252885Y0242418D01*
X0253016Y0242511D01*
X0253150Y0242601D01*
X0253285Y0242688D01*
X0253423Y0242771D01*
X0253562Y0242851D01*
X0253704Y0242927D01*
X0253847Y0243000D01*
X0253992Y0243069D01*
X0254139Y0243135D01*
X0254287Y0243197D01*
X0254437Y0243255D01*
X0254588Y0243310D01*
X0254741Y0243361D01*
X0254895Y0243408D01*
X0255050Y0243451D01*
X0255206Y0243490D01*
X0255362Y0243526D01*
X0255520Y0243557D01*
X0255678Y0243585D01*
X0255837Y0243609D01*
X0255997Y0243629D01*
X0256157Y0243645D01*
X0256317Y0243657D01*
X0256478Y0243665D01*
X0256639Y0243669D01*
X0256799Y0243669D01*
X0256960Y0243665D01*
X0257121Y0243657D01*
X0257281Y0243645D01*
X0257441Y0243629D01*
X0257601Y0243609D01*
X0257760Y0243585D01*
X0257918Y0243557D01*
X0258076Y0243526D01*
X0258232Y0243490D01*
X0258388Y0243451D01*
X0258543Y0243408D01*
X0258697Y0243361D01*
X0258850Y0243310D01*
X0259001Y0243255D01*
X0259151Y0243197D01*
X0259299Y0243135D01*
X0259446Y0243069D01*
X0259591Y0243000D01*
X0259734Y0242927D01*
X0259876Y0242851D01*
X0260015Y0242771D01*
X0260153Y0242688D01*
X0260288Y0242601D01*
X0260422Y0242511D01*
X0260553Y0242418D01*
X0260681Y0242322D01*
X0260807Y0242222D01*
X0260931Y0242119D01*
X0261052Y0242014D01*
X0261171Y0241905D01*
X0261287Y0241794D01*
X0261400Y0241679D01*
X0261510Y0241562D01*
X0261617Y0241442D01*
X0261721Y0241320D01*
X0261822Y0241195D01*
X0261920Y0241067D01*
X0262015Y0240937D01*
X0262107Y0240805D01*
X0262195Y0240671D01*
X0262280Y0240534D01*
X0262362Y0240396D01*
X0262440Y0240255D01*
X0262514Y0240113D01*
X0262585Y0239969D01*
X0262653Y0239823D01*
X0262716Y0239675D01*
X0262777Y0239526D01*
X0262833Y0239375D01*
X0262886Y0239223D01*
X0262935Y0239070D01*
X0262980Y0238916D01*
X0263021Y0238761D01*
X0263059Y0238604D01*
X0263092Y0238447D01*
X0263122Y0238289D01*
X0263148Y0238130D01*
X0263169Y0237971D01*
X0263187Y0237811D01*
X0263201Y0237651D01*
X0263211Y0237490D01*
X0263217Y0237330D01*
X0263219Y0237169D01*
X0263217Y0237008D01*
X0263211Y0236848D01*
X0263201Y0236687D01*
X0263187Y0236527D01*
X0263169Y0236367D01*
X0263148Y0236208D01*
X0263122Y0236049D01*
X0263092Y0235891D01*
X0263059Y0235734D01*
X0263021Y0235577D01*
X0262980Y0235422D01*
X0262935Y0235268D01*
X0262886Y0235115D01*
X0262833Y0234963D01*
X0262777Y0234812D01*
X0262716Y0234663D01*
X0262653Y0234515D01*
X0262585Y0234369D01*
X0262514Y0234225D01*
X0262440Y0234083D01*
X0262362Y0233942D01*
X0262280Y0233804D01*
X0262195Y0233667D01*
X0262107Y0233533D01*
X0262015Y0233401D01*
X0261920Y0233271D01*
X0261822Y0233143D01*
X0261721Y0233018D01*
X0261617Y0232896D01*
X0261510Y0232776D01*
X0261400Y0232659D01*
X0261287Y0232544D01*
X0261171Y0232433D01*
X0261052Y0232324D01*
X0260931Y0232219D01*
X0260807Y0232116D01*
X0260681Y0232016D01*
X0260553Y0231920D01*
X0260422Y0231827D01*
X0260288Y0231737D01*
X0260153Y0231650D01*
X0260015Y0231567D01*
X0259876Y0231487D01*
X0259734Y0231411D01*
X0259591Y0231338D01*
X0259446Y0231269D01*
X0259299Y0231203D01*
X0259151Y0231141D01*
X0259001Y0231083D01*
X0258850Y0231028D01*
X0258697Y0230977D01*
X0258543Y0230930D01*
X0258388Y0230887D01*
X0258232Y0230848D01*
X0258076Y0230812D01*
X0257918Y0230781D01*
X0257760Y0230753D01*
X0257601Y0230729D01*
X0257441Y0230709D01*
X0257281Y0230693D01*
X0257121Y0230681D01*
X0256960Y0230673D01*
X0256799Y0230669D01*
X0256639Y0230669D01*
X0256478Y0230673D01*
X0256317Y0230681D01*
X0256157Y0230693D01*
X0255997Y0230709D01*
X0255837Y0230729D01*
X0255678Y0230753D01*
X0255520Y0230781D01*
X0255362Y0230812D01*
X0255206Y0230848D01*
X0255050Y0230887D01*
X0254895Y0230930D01*
X0254741Y0230977D01*
X0254588Y0231028D01*
X0254437Y0231083D01*
X0254287Y0231141D01*
X0254139Y0231203D01*
X0253992Y0231269D01*
X0253847Y0231338D01*
X0253704Y0231411D01*
X0253562Y0231487D01*
X0253423Y0231567D01*
X0253285Y0231650D01*
X0253150Y0231737D01*
X0253016Y0231827D01*
X0252885Y0231920D01*
X0252757Y0232016D01*
X0252631Y0232116D01*
X0252507Y0232219D01*
X0252386Y0232324D01*
X0252267Y0232433D01*
X0252151Y0232544D01*
X0252038Y0232659D01*
X0251928Y0232776D01*
X0251821Y0232896D01*
X0251717Y0233018D01*
X0251616Y0233143D01*
X0251518Y0233271D01*
X0251423Y0233401D01*
X0251331Y0233533D01*
X0251243Y0233667D01*
X0251158Y0233804D01*
X0251076Y0233942D01*
X0250998Y0234083D01*
X0250924Y0234225D01*
X0250853Y0234369D01*
X0250785Y0234515D01*
X0250722Y0234663D01*
X0250661Y0234812D01*
X0250605Y0234963D01*
X0250552Y0235115D01*
X0250503Y0235268D01*
X0250458Y0235422D01*
X0250417Y0235577D01*
X0250379Y0235734D01*
X0250346Y0235891D01*
X0250316Y0236049D01*
X0250290Y0236208D01*
X0250269Y0236367D01*
X0250251Y0236527D01*
X0250237Y0236687D01*
X0250227Y0236848D01*
X0250221Y0237008D01*
X0250219Y0237169D01*
X0170219Y0237169D02*
X0170221Y0237330D01*
X0170227Y0237490D01*
X0170237Y0237651D01*
X0170251Y0237811D01*
X0170269Y0237971D01*
X0170290Y0238130D01*
X0170316Y0238289D01*
X0170346Y0238447D01*
X0170379Y0238604D01*
X0170417Y0238761D01*
X0170458Y0238916D01*
X0170503Y0239070D01*
X0170552Y0239223D01*
X0170605Y0239375D01*
X0170661Y0239526D01*
X0170722Y0239675D01*
X0170785Y0239823D01*
X0170853Y0239969D01*
X0170924Y0240113D01*
X0170998Y0240255D01*
X0171076Y0240396D01*
X0171158Y0240534D01*
X0171243Y0240671D01*
X0171331Y0240805D01*
X0171423Y0240937D01*
X0171518Y0241067D01*
X0171616Y0241195D01*
X0171717Y0241320D01*
X0171821Y0241442D01*
X0171928Y0241562D01*
X0172038Y0241679D01*
X0172151Y0241794D01*
X0172267Y0241905D01*
X0172386Y0242014D01*
X0172507Y0242119D01*
X0172631Y0242222D01*
X0172757Y0242322D01*
X0172885Y0242418D01*
X0173016Y0242511D01*
X0173150Y0242601D01*
X0173285Y0242688D01*
X0173423Y0242771D01*
X0173562Y0242851D01*
X0173704Y0242927D01*
X0173847Y0243000D01*
X0173992Y0243069D01*
X0174139Y0243135D01*
X0174287Y0243197D01*
X0174437Y0243255D01*
X0174588Y0243310D01*
X0174741Y0243361D01*
X0174895Y0243408D01*
X0175050Y0243451D01*
X0175206Y0243490D01*
X0175362Y0243526D01*
X0175520Y0243557D01*
X0175678Y0243585D01*
X0175837Y0243609D01*
X0175997Y0243629D01*
X0176157Y0243645D01*
X0176317Y0243657D01*
X0176478Y0243665D01*
X0176639Y0243669D01*
X0176799Y0243669D01*
X0176960Y0243665D01*
X0177121Y0243657D01*
X0177281Y0243645D01*
X0177441Y0243629D01*
X0177601Y0243609D01*
X0177760Y0243585D01*
X0177918Y0243557D01*
X0178076Y0243526D01*
X0178232Y0243490D01*
X0178388Y0243451D01*
X0178543Y0243408D01*
X0178697Y0243361D01*
X0178850Y0243310D01*
X0179001Y0243255D01*
X0179151Y0243197D01*
X0179299Y0243135D01*
X0179446Y0243069D01*
X0179591Y0243000D01*
X0179734Y0242927D01*
X0179876Y0242851D01*
X0180015Y0242771D01*
X0180153Y0242688D01*
X0180288Y0242601D01*
X0180422Y0242511D01*
X0180553Y0242418D01*
X0180681Y0242322D01*
X0180807Y0242222D01*
X0180931Y0242119D01*
X0181052Y0242014D01*
X0181171Y0241905D01*
X0181287Y0241794D01*
X0181400Y0241679D01*
X0181510Y0241562D01*
X0181617Y0241442D01*
X0181721Y0241320D01*
X0181822Y0241195D01*
X0181920Y0241067D01*
X0182015Y0240937D01*
X0182107Y0240805D01*
X0182195Y0240671D01*
X0182280Y0240534D01*
X0182362Y0240396D01*
X0182440Y0240255D01*
X0182514Y0240113D01*
X0182585Y0239969D01*
X0182653Y0239823D01*
X0182716Y0239675D01*
X0182777Y0239526D01*
X0182833Y0239375D01*
X0182886Y0239223D01*
X0182935Y0239070D01*
X0182980Y0238916D01*
X0183021Y0238761D01*
X0183059Y0238604D01*
X0183092Y0238447D01*
X0183122Y0238289D01*
X0183148Y0238130D01*
X0183169Y0237971D01*
X0183187Y0237811D01*
X0183201Y0237651D01*
X0183211Y0237490D01*
X0183217Y0237330D01*
X0183219Y0237169D01*
X0183217Y0237008D01*
X0183211Y0236848D01*
X0183201Y0236687D01*
X0183187Y0236527D01*
X0183169Y0236367D01*
X0183148Y0236208D01*
X0183122Y0236049D01*
X0183092Y0235891D01*
X0183059Y0235734D01*
X0183021Y0235577D01*
X0182980Y0235422D01*
X0182935Y0235268D01*
X0182886Y0235115D01*
X0182833Y0234963D01*
X0182777Y0234812D01*
X0182716Y0234663D01*
X0182653Y0234515D01*
X0182585Y0234369D01*
X0182514Y0234225D01*
X0182440Y0234083D01*
X0182362Y0233942D01*
X0182280Y0233804D01*
X0182195Y0233667D01*
X0182107Y0233533D01*
X0182015Y0233401D01*
X0181920Y0233271D01*
X0181822Y0233143D01*
X0181721Y0233018D01*
X0181617Y0232896D01*
X0181510Y0232776D01*
X0181400Y0232659D01*
X0181287Y0232544D01*
X0181171Y0232433D01*
X0181052Y0232324D01*
X0180931Y0232219D01*
X0180807Y0232116D01*
X0180681Y0232016D01*
X0180553Y0231920D01*
X0180422Y0231827D01*
X0180288Y0231737D01*
X0180153Y0231650D01*
X0180015Y0231567D01*
X0179876Y0231487D01*
X0179734Y0231411D01*
X0179591Y0231338D01*
X0179446Y0231269D01*
X0179299Y0231203D01*
X0179151Y0231141D01*
X0179001Y0231083D01*
X0178850Y0231028D01*
X0178697Y0230977D01*
X0178543Y0230930D01*
X0178388Y0230887D01*
X0178232Y0230848D01*
X0178076Y0230812D01*
X0177918Y0230781D01*
X0177760Y0230753D01*
X0177601Y0230729D01*
X0177441Y0230709D01*
X0177281Y0230693D01*
X0177121Y0230681D01*
X0176960Y0230673D01*
X0176799Y0230669D01*
X0176639Y0230669D01*
X0176478Y0230673D01*
X0176317Y0230681D01*
X0176157Y0230693D01*
X0175997Y0230709D01*
X0175837Y0230729D01*
X0175678Y0230753D01*
X0175520Y0230781D01*
X0175362Y0230812D01*
X0175206Y0230848D01*
X0175050Y0230887D01*
X0174895Y0230930D01*
X0174741Y0230977D01*
X0174588Y0231028D01*
X0174437Y0231083D01*
X0174287Y0231141D01*
X0174139Y0231203D01*
X0173992Y0231269D01*
X0173847Y0231338D01*
X0173704Y0231411D01*
X0173562Y0231487D01*
X0173423Y0231567D01*
X0173285Y0231650D01*
X0173150Y0231737D01*
X0173016Y0231827D01*
X0172885Y0231920D01*
X0172757Y0232016D01*
X0172631Y0232116D01*
X0172507Y0232219D01*
X0172386Y0232324D01*
X0172267Y0232433D01*
X0172151Y0232544D01*
X0172038Y0232659D01*
X0171928Y0232776D01*
X0171821Y0232896D01*
X0171717Y0233018D01*
X0171616Y0233143D01*
X0171518Y0233271D01*
X0171423Y0233401D01*
X0171331Y0233533D01*
X0171243Y0233667D01*
X0171158Y0233804D01*
X0171076Y0233942D01*
X0170998Y0234083D01*
X0170924Y0234225D01*
X0170853Y0234369D01*
X0170785Y0234515D01*
X0170722Y0234663D01*
X0170661Y0234812D01*
X0170605Y0234963D01*
X0170552Y0235115D01*
X0170503Y0235268D01*
X0170458Y0235422D01*
X0170417Y0235577D01*
X0170379Y0235734D01*
X0170346Y0235891D01*
X0170316Y0236049D01*
X0170290Y0236208D01*
X0170269Y0236367D01*
X0170251Y0236527D01*
X0170237Y0236687D01*
X0170227Y0236848D01*
X0170221Y0237008D01*
X0170219Y0237169D01*
X0138014Y0237169D02*
X0138016Y0237330D01*
X0138022Y0237490D01*
X0138032Y0237651D01*
X0138046Y0237811D01*
X0138064Y0237971D01*
X0138085Y0238130D01*
X0138111Y0238289D01*
X0138141Y0238447D01*
X0138174Y0238604D01*
X0138212Y0238761D01*
X0138253Y0238916D01*
X0138298Y0239070D01*
X0138347Y0239223D01*
X0138400Y0239375D01*
X0138456Y0239526D01*
X0138517Y0239675D01*
X0138580Y0239823D01*
X0138648Y0239969D01*
X0138719Y0240113D01*
X0138793Y0240255D01*
X0138871Y0240396D01*
X0138953Y0240534D01*
X0139038Y0240671D01*
X0139126Y0240805D01*
X0139218Y0240937D01*
X0139313Y0241067D01*
X0139411Y0241195D01*
X0139512Y0241320D01*
X0139616Y0241442D01*
X0139723Y0241562D01*
X0139833Y0241679D01*
X0139946Y0241794D01*
X0140062Y0241905D01*
X0140181Y0242014D01*
X0140302Y0242119D01*
X0140426Y0242222D01*
X0140552Y0242322D01*
X0140680Y0242418D01*
X0140811Y0242511D01*
X0140945Y0242601D01*
X0141080Y0242688D01*
X0141218Y0242771D01*
X0141357Y0242851D01*
X0141499Y0242927D01*
X0141642Y0243000D01*
X0141787Y0243069D01*
X0141934Y0243135D01*
X0142082Y0243197D01*
X0142232Y0243255D01*
X0142383Y0243310D01*
X0142536Y0243361D01*
X0142690Y0243408D01*
X0142845Y0243451D01*
X0143001Y0243490D01*
X0143157Y0243526D01*
X0143315Y0243557D01*
X0143473Y0243585D01*
X0143632Y0243609D01*
X0143792Y0243629D01*
X0143952Y0243645D01*
X0144112Y0243657D01*
X0144273Y0243665D01*
X0144434Y0243669D01*
X0144594Y0243669D01*
X0144755Y0243665D01*
X0144916Y0243657D01*
X0145076Y0243645D01*
X0145236Y0243629D01*
X0145396Y0243609D01*
X0145555Y0243585D01*
X0145713Y0243557D01*
X0145871Y0243526D01*
X0146027Y0243490D01*
X0146183Y0243451D01*
X0146338Y0243408D01*
X0146492Y0243361D01*
X0146645Y0243310D01*
X0146796Y0243255D01*
X0146946Y0243197D01*
X0147094Y0243135D01*
X0147241Y0243069D01*
X0147386Y0243000D01*
X0147529Y0242927D01*
X0147671Y0242851D01*
X0147810Y0242771D01*
X0147948Y0242688D01*
X0148083Y0242601D01*
X0148217Y0242511D01*
X0148348Y0242418D01*
X0148476Y0242322D01*
X0148602Y0242222D01*
X0148726Y0242119D01*
X0148847Y0242014D01*
X0148966Y0241905D01*
X0149082Y0241794D01*
X0149195Y0241679D01*
X0149305Y0241562D01*
X0149412Y0241442D01*
X0149516Y0241320D01*
X0149617Y0241195D01*
X0149715Y0241067D01*
X0149810Y0240937D01*
X0149902Y0240805D01*
X0149990Y0240671D01*
X0150075Y0240534D01*
X0150157Y0240396D01*
X0150235Y0240255D01*
X0150309Y0240113D01*
X0150380Y0239969D01*
X0150448Y0239823D01*
X0150511Y0239675D01*
X0150572Y0239526D01*
X0150628Y0239375D01*
X0150681Y0239223D01*
X0150730Y0239070D01*
X0150775Y0238916D01*
X0150816Y0238761D01*
X0150854Y0238604D01*
X0150887Y0238447D01*
X0150917Y0238289D01*
X0150943Y0238130D01*
X0150964Y0237971D01*
X0150982Y0237811D01*
X0150996Y0237651D01*
X0151006Y0237490D01*
X0151012Y0237330D01*
X0151014Y0237169D01*
X0151012Y0237008D01*
X0151006Y0236848D01*
X0150996Y0236687D01*
X0150982Y0236527D01*
X0150964Y0236367D01*
X0150943Y0236208D01*
X0150917Y0236049D01*
X0150887Y0235891D01*
X0150854Y0235734D01*
X0150816Y0235577D01*
X0150775Y0235422D01*
X0150730Y0235268D01*
X0150681Y0235115D01*
X0150628Y0234963D01*
X0150572Y0234812D01*
X0150511Y0234663D01*
X0150448Y0234515D01*
X0150380Y0234369D01*
X0150309Y0234225D01*
X0150235Y0234083D01*
X0150157Y0233942D01*
X0150075Y0233804D01*
X0149990Y0233667D01*
X0149902Y0233533D01*
X0149810Y0233401D01*
X0149715Y0233271D01*
X0149617Y0233143D01*
X0149516Y0233018D01*
X0149412Y0232896D01*
X0149305Y0232776D01*
X0149195Y0232659D01*
X0149082Y0232544D01*
X0148966Y0232433D01*
X0148847Y0232324D01*
X0148726Y0232219D01*
X0148602Y0232116D01*
X0148476Y0232016D01*
X0148348Y0231920D01*
X0148217Y0231827D01*
X0148083Y0231737D01*
X0147948Y0231650D01*
X0147810Y0231567D01*
X0147671Y0231487D01*
X0147529Y0231411D01*
X0147386Y0231338D01*
X0147241Y0231269D01*
X0147094Y0231203D01*
X0146946Y0231141D01*
X0146796Y0231083D01*
X0146645Y0231028D01*
X0146492Y0230977D01*
X0146338Y0230930D01*
X0146183Y0230887D01*
X0146027Y0230848D01*
X0145871Y0230812D01*
X0145713Y0230781D01*
X0145555Y0230753D01*
X0145396Y0230729D01*
X0145236Y0230709D01*
X0145076Y0230693D01*
X0144916Y0230681D01*
X0144755Y0230673D01*
X0144594Y0230669D01*
X0144434Y0230669D01*
X0144273Y0230673D01*
X0144112Y0230681D01*
X0143952Y0230693D01*
X0143792Y0230709D01*
X0143632Y0230729D01*
X0143473Y0230753D01*
X0143315Y0230781D01*
X0143157Y0230812D01*
X0143001Y0230848D01*
X0142845Y0230887D01*
X0142690Y0230930D01*
X0142536Y0230977D01*
X0142383Y0231028D01*
X0142232Y0231083D01*
X0142082Y0231141D01*
X0141934Y0231203D01*
X0141787Y0231269D01*
X0141642Y0231338D01*
X0141499Y0231411D01*
X0141357Y0231487D01*
X0141218Y0231567D01*
X0141080Y0231650D01*
X0140945Y0231737D01*
X0140811Y0231827D01*
X0140680Y0231920D01*
X0140552Y0232016D01*
X0140426Y0232116D01*
X0140302Y0232219D01*
X0140181Y0232324D01*
X0140062Y0232433D01*
X0139946Y0232544D01*
X0139833Y0232659D01*
X0139723Y0232776D01*
X0139616Y0232896D01*
X0139512Y0233018D01*
X0139411Y0233143D01*
X0139313Y0233271D01*
X0139218Y0233401D01*
X0139126Y0233533D01*
X0139038Y0233667D01*
X0138953Y0233804D01*
X0138871Y0233942D01*
X0138793Y0234083D01*
X0138719Y0234225D01*
X0138648Y0234369D01*
X0138580Y0234515D01*
X0138517Y0234663D01*
X0138456Y0234812D01*
X0138400Y0234963D01*
X0138347Y0235115D01*
X0138298Y0235268D01*
X0138253Y0235422D01*
X0138212Y0235577D01*
X0138174Y0235734D01*
X0138141Y0235891D01*
X0138111Y0236049D01*
X0138085Y0236208D01*
X0138064Y0236367D01*
X0138046Y0236527D01*
X0138032Y0236687D01*
X0138022Y0236848D01*
X0138016Y0237008D01*
X0138014Y0237169D01*
X0058014Y0237169D02*
X0058016Y0237330D01*
X0058022Y0237490D01*
X0058032Y0237651D01*
X0058046Y0237811D01*
X0058064Y0237971D01*
X0058085Y0238130D01*
X0058111Y0238289D01*
X0058141Y0238447D01*
X0058174Y0238604D01*
X0058212Y0238761D01*
X0058253Y0238916D01*
X0058298Y0239070D01*
X0058347Y0239223D01*
X0058400Y0239375D01*
X0058456Y0239526D01*
X0058517Y0239675D01*
X0058580Y0239823D01*
X0058648Y0239969D01*
X0058719Y0240113D01*
X0058793Y0240255D01*
X0058871Y0240396D01*
X0058953Y0240534D01*
X0059038Y0240671D01*
X0059126Y0240805D01*
X0059218Y0240937D01*
X0059313Y0241067D01*
X0059411Y0241195D01*
X0059512Y0241320D01*
X0059616Y0241442D01*
X0059723Y0241562D01*
X0059833Y0241679D01*
X0059946Y0241794D01*
X0060062Y0241905D01*
X0060181Y0242014D01*
X0060302Y0242119D01*
X0060426Y0242222D01*
X0060552Y0242322D01*
X0060680Y0242418D01*
X0060811Y0242511D01*
X0060945Y0242601D01*
X0061080Y0242688D01*
X0061218Y0242771D01*
X0061357Y0242851D01*
X0061499Y0242927D01*
X0061642Y0243000D01*
X0061787Y0243069D01*
X0061934Y0243135D01*
X0062082Y0243197D01*
X0062232Y0243255D01*
X0062383Y0243310D01*
X0062536Y0243361D01*
X0062690Y0243408D01*
X0062845Y0243451D01*
X0063001Y0243490D01*
X0063157Y0243526D01*
X0063315Y0243557D01*
X0063473Y0243585D01*
X0063632Y0243609D01*
X0063792Y0243629D01*
X0063952Y0243645D01*
X0064112Y0243657D01*
X0064273Y0243665D01*
X0064434Y0243669D01*
X0064594Y0243669D01*
X0064755Y0243665D01*
X0064916Y0243657D01*
X0065076Y0243645D01*
X0065236Y0243629D01*
X0065396Y0243609D01*
X0065555Y0243585D01*
X0065713Y0243557D01*
X0065871Y0243526D01*
X0066027Y0243490D01*
X0066183Y0243451D01*
X0066338Y0243408D01*
X0066492Y0243361D01*
X0066645Y0243310D01*
X0066796Y0243255D01*
X0066946Y0243197D01*
X0067094Y0243135D01*
X0067241Y0243069D01*
X0067386Y0243000D01*
X0067529Y0242927D01*
X0067671Y0242851D01*
X0067810Y0242771D01*
X0067948Y0242688D01*
X0068083Y0242601D01*
X0068217Y0242511D01*
X0068348Y0242418D01*
X0068476Y0242322D01*
X0068602Y0242222D01*
X0068726Y0242119D01*
X0068847Y0242014D01*
X0068966Y0241905D01*
X0069082Y0241794D01*
X0069195Y0241679D01*
X0069305Y0241562D01*
X0069412Y0241442D01*
X0069516Y0241320D01*
X0069617Y0241195D01*
X0069715Y0241067D01*
X0069810Y0240937D01*
X0069902Y0240805D01*
X0069990Y0240671D01*
X0070075Y0240534D01*
X0070157Y0240396D01*
X0070235Y0240255D01*
X0070309Y0240113D01*
X0070380Y0239969D01*
X0070448Y0239823D01*
X0070511Y0239675D01*
X0070572Y0239526D01*
X0070628Y0239375D01*
X0070681Y0239223D01*
X0070730Y0239070D01*
X0070775Y0238916D01*
X0070816Y0238761D01*
X0070854Y0238604D01*
X0070887Y0238447D01*
X0070917Y0238289D01*
X0070943Y0238130D01*
X0070964Y0237971D01*
X0070982Y0237811D01*
X0070996Y0237651D01*
X0071006Y0237490D01*
X0071012Y0237330D01*
X0071014Y0237169D01*
X0071012Y0237008D01*
X0071006Y0236848D01*
X0070996Y0236687D01*
X0070982Y0236527D01*
X0070964Y0236367D01*
X0070943Y0236208D01*
X0070917Y0236049D01*
X0070887Y0235891D01*
X0070854Y0235734D01*
X0070816Y0235577D01*
X0070775Y0235422D01*
X0070730Y0235268D01*
X0070681Y0235115D01*
X0070628Y0234963D01*
X0070572Y0234812D01*
X0070511Y0234663D01*
X0070448Y0234515D01*
X0070380Y0234369D01*
X0070309Y0234225D01*
X0070235Y0234083D01*
X0070157Y0233942D01*
X0070075Y0233804D01*
X0069990Y0233667D01*
X0069902Y0233533D01*
X0069810Y0233401D01*
X0069715Y0233271D01*
X0069617Y0233143D01*
X0069516Y0233018D01*
X0069412Y0232896D01*
X0069305Y0232776D01*
X0069195Y0232659D01*
X0069082Y0232544D01*
X0068966Y0232433D01*
X0068847Y0232324D01*
X0068726Y0232219D01*
X0068602Y0232116D01*
X0068476Y0232016D01*
X0068348Y0231920D01*
X0068217Y0231827D01*
X0068083Y0231737D01*
X0067948Y0231650D01*
X0067810Y0231567D01*
X0067671Y0231487D01*
X0067529Y0231411D01*
X0067386Y0231338D01*
X0067241Y0231269D01*
X0067094Y0231203D01*
X0066946Y0231141D01*
X0066796Y0231083D01*
X0066645Y0231028D01*
X0066492Y0230977D01*
X0066338Y0230930D01*
X0066183Y0230887D01*
X0066027Y0230848D01*
X0065871Y0230812D01*
X0065713Y0230781D01*
X0065555Y0230753D01*
X0065396Y0230729D01*
X0065236Y0230709D01*
X0065076Y0230693D01*
X0064916Y0230681D01*
X0064755Y0230673D01*
X0064594Y0230669D01*
X0064434Y0230669D01*
X0064273Y0230673D01*
X0064112Y0230681D01*
X0063952Y0230693D01*
X0063792Y0230709D01*
X0063632Y0230729D01*
X0063473Y0230753D01*
X0063315Y0230781D01*
X0063157Y0230812D01*
X0063001Y0230848D01*
X0062845Y0230887D01*
X0062690Y0230930D01*
X0062536Y0230977D01*
X0062383Y0231028D01*
X0062232Y0231083D01*
X0062082Y0231141D01*
X0061934Y0231203D01*
X0061787Y0231269D01*
X0061642Y0231338D01*
X0061499Y0231411D01*
X0061357Y0231487D01*
X0061218Y0231567D01*
X0061080Y0231650D01*
X0060945Y0231737D01*
X0060811Y0231827D01*
X0060680Y0231920D01*
X0060552Y0232016D01*
X0060426Y0232116D01*
X0060302Y0232219D01*
X0060181Y0232324D01*
X0060062Y0232433D01*
X0059946Y0232544D01*
X0059833Y0232659D01*
X0059723Y0232776D01*
X0059616Y0232896D01*
X0059512Y0233018D01*
X0059411Y0233143D01*
X0059313Y0233271D01*
X0059218Y0233401D01*
X0059126Y0233533D01*
X0059038Y0233667D01*
X0058953Y0233804D01*
X0058871Y0233942D01*
X0058793Y0234083D01*
X0058719Y0234225D01*
X0058648Y0234369D01*
X0058580Y0234515D01*
X0058517Y0234663D01*
X0058456Y0234812D01*
X0058400Y0234963D01*
X0058347Y0235115D01*
X0058298Y0235268D01*
X0058253Y0235422D01*
X0058212Y0235577D01*
X0058174Y0235734D01*
X0058141Y0235891D01*
X0058111Y0236049D01*
X0058085Y0236208D01*
X0058064Y0236367D01*
X0058046Y0236527D01*
X0058032Y0236687D01*
X0058022Y0236848D01*
X0058016Y0237008D01*
X0058014Y0237169D01*
X0058014Y0349374D02*
X0058016Y0349535D01*
X0058022Y0349695D01*
X0058032Y0349856D01*
X0058046Y0350016D01*
X0058064Y0350176D01*
X0058085Y0350335D01*
X0058111Y0350494D01*
X0058141Y0350652D01*
X0058174Y0350809D01*
X0058212Y0350966D01*
X0058253Y0351121D01*
X0058298Y0351275D01*
X0058347Y0351428D01*
X0058400Y0351580D01*
X0058456Y0351731D01*
X0058517Y0351880D01*
X0058580Y0352028D01*
X0058648Y0352174D01*
X0058719Y0352318D01*
X0058793Y0352460D01*
X0058871Y0352601D01*
X0058953Y0352739D01*
X0059038Y0352876D01*
X0059126Y0353010D01*
X0059218Y0353142D01*
X0059313Y0353272D01*
X0059411Y0353400D01*
X0059512Y0353525D01*
X0059616Y0353647D01*
X0059723Y0353767D01*
X0059833Y0353884D01*
X0059946Y0353999D01*
X0060062Y0354110D01*
X0060181Y0354219D01*
X0060302Y0354324D01*
X0060426Y0354427D01*
X0060552Y0354527D01*
X0060680Y0354623D01*
X0060811Y0354716D01*
X0060945Y0354806D01*
X0061080Y0354893D01*
X0061218Y0354976D01*
X0061357Y0355056D01*
X0061499Y0355132D01*
X0061642Y0355205D01*
X0061787Y0355274D01*
X0061934Y0355340D01*
X0062082Y0355402D01*
X0062232Y0355460D01*
X0062383Y0355515D01*
X0062536Y0355566D01*
X0062690Y0355613D01*
X0062845Y0355656D01*
X0063001Y0355695D01*
X0063157Y0355731D01*
X0063315Y0355762D01*
X0063473Y0355790D01*
X0063632Y0355814D01*
X0063792Y0355834D01*
X0063952Y0355850D01*
X0064112Y0355862D01*
X0064273Y0355870D01*
X0064434Y0355874D01*
X0064594Y0355874D01*
X0064755Y0355870D01*
X0064916Y0355862D01*
X0065076Y0355850D01*
X0065236Y0355834D01*
X0065396Y0355814D01*
X0065555Y0355790D01*
X0065713Y0355762D01*
X0065871Y0355731D01*
X0066027Y0355695D01*
X0066183Y0355656D01*
X0066338Y0355613D01*
X0066492Y0355566D01*
X0066645Y0355515D01*
X0066796Y0355460D01*
X0066946Y0355402D01*
X0067094Y0355340D01*
X0067241Y0355274D01*
X0067386Y0355205D01*
X0067529Y0355132D01*
X0067671Y0355056D01*
X0067810Y0354976D01*
X0067948Y0354893D01*
X0068083Y0354806D01*
X0068217Y0354716D01*
X0068348Y0354623D01*
X0068476Y0354527D01*
X0068602Y0354427D01*
X0068726Y0354324D01*
X0068847Y0354219D01*
X0068966Y0354110D01*
X0069082Y0353999D01*
X0069195Y0353884D01*
X0069305Y0353767D01*
X0069412Y0353647D01*
X0069516Y0353525D01*
X0069617Y0353400D01*
X0069715Y0353272D01*
X0069810Y0353142D01*
X0069902Y0353010D01*
X0069990Y0352876D01*
X0070075Y0352739D01*
X0070157Y0352601D01*
X0070235Y0352460D01*
X0070309Y0352318D01*
X0070380Y0352174D01*
X0070448Y0352028D01*
X0070511Y0351880D01*
X0070572Y0351731D01*
X0070628Y0351580D01*
X0070681Y0351428D01*
X0070730Y0351275D01*
X0070775Y0351121D01*
X0070816Y0350966D01*
X0070854Y0350809D01*
X0070887Y0350652D01*
X0070917Y0350494D01*
X0070943Y0350335D01*
X0070964Y0350176D01*
X0070982Y0350016D01*
X0070996Y0349856D01*
X0071006Y0349695D01*
X0071012Y0349535D01*
X0071014Y0349374D01*
X0071012Y0349213D01*
X0071006Y0349053D01*
X0070996Y0348892D01*
X0070982Y0348732D01*
X0070964Y0348572D01*
X0070943Y0348413D01*
X0070917Y0348254D01*
X0070887Y0348096D01*
X0070854Y0347939D01*
X0070816Y0347782D01*
X0070775Y0347627D01*
X0070730Y0347473D01*
X0070681Y0347320D01*
X0070628Y0347168D01*
X0070572Y0347017D01*
X0070511Y0346868D01*
X0070448Y0346720D01*
X0070380Y0346574D01*
X0070309Y0346430D01*
X0070235Y0346288D01*
X0070157Y0346147D01*
X0070075Y0346009D01*
X0069990Y0345872D01*
X0069902Y0345738D01*
X0069810Y0345606D01*
X0069715Y0345476D01*
X0069617Y0345348D01*
X0069516Y0345223D01*
X0069412Y0345101D01*
X0069305Y0344981D01*
X0069195Y0344864D01*
X0069082Y0344749D01*
X0068966Y0344638D01*
X0068847Y0344529D01*
X0068726Y0344424D01*
X0068602Y0344321D01*
X0068476Y0344221D01*
X0068348Y0344125D01*
X0068217Y0344032D01*
X0068083Y0343942D01*
X0067948Y0343855D01*
X0067810Y0343772D01*
X0067671Y0343692D01*
X0067529Y0343616D01*
X0067386Y0343543D01*
X0067241Y0343474D01*
X0067094Y0343408D01*
X0066946Y0343346D01*
X0066796Y0343288D01*
X0066645Y0343233D01*
X0066492Y0343182D01*
X0066338Y0343135D01*
X0066183Y0343092D01*
X0066027Y0343053D01*
X0065871Y0343017D01*
X0065713Y0342986D01*
X0065555Y0342958D01*
X0065396Y0342934D01*
X0065236Y0342914D01*
X0065076Y0342898D01*
X0064916Y0342886D01*
X0064755Y0342878D01*
X0064594Y0342874D01*
X0064434Y0342874D01*
X0064273Y0342878D01*
X0064112Y0342886D01*
X0063952Y0342898D01*
X0063792Y0342914D01*
X0063632Y0342934D01*
X0063473Y0342958D01*
X0063315Y0342986D01*
X0063157Y0343017D01*
X0063001Y0343053D01*
X0062845Y0343092D01*
X0062690Y0343135D01*
X0062536Y0343182D01*
X0062383Y0343233D01*
X0062232Y0343288D01*
X0062082Y0343346D01*
X0061934Y0343408D01*
X0061787Y0343474D01*
X0061642Y0343543D01*
X0061499Y0343616D01*
X0061357Y0343692D01*
X0061218Y0343772D01*
X0061080Y0343855D01*
X0060945Y0343942D01*
X0060811Y0344032D01*
X0060680Y0344125D01*
X0060552Y0344221D01*
X0060426Y0344321D01*
X0060302Y0344424D01*
X0060181Y0344529D01*
X0060062Y0344638D01*
X0059946Y0344749D01*
X0059833Y0344864D01*
X0059723Y0344981D01*
X0059616Y0345101D01*
X0059512Y0345223D01*
X0059411Y0345348D01*
X0059313Y0345476D01*
X0059218Y0345606D01*
X0059126Y0345738D01*
X0059038Y0345872D01*
X0058953Y0346009D01*
X0058871Y0346147D01*
X0058793Y0346288D01*
X0058719Y0346430D01*
X0058648Y0346574D01*
X0058580Y0346720D01*
X0058517Y0346868D01*
X0058456Y0347017D01*
X0058400Y0347168D01*
X0058347Y0347320D01*
X0058298Y0347473D01*
X0058253Y0347627D01*
X0058212Y0347782D01*
X0058174Y0347939D01*
X0058141Y0348096D01*
X0058111Y0348254D01*
X0058085Y0348413D01*
X0058064Y0348572D01*
X0058046Y0348732D01*
X0058032Y0348892D01*
X0058022Y0349053D01*
X0058016Y0349213D01*
X0058014Y0349374D01*
X0138014Y0349374D02*
X0138016Y0349535D01*
X0138022Y0349695D01*
X0138032Y0349856D01*
X0138046Y0350016D01*
X0138064Y0350176D01*
X0138085Y0350335D01*
X0138111Y0350494D01*
X0138141Y0350652D01*
X0138174Y0350809D01*
X0138212Y0350966D01*
X0138253Y0351121D01*
X0138298Y0351275D01*
X0138347Y0351428D01*
X0138400Y0351580D01*
X0138456Y0351731D01*
X0138517Y0351880D01*
X0138580Y0352028D01*
X0138648Y0352174D01*
X0138719Y0352318D01*
X0138793Y0352460D01*
X0138871Y0352601D01*
X0138953Y0352739D01*
X0139038Y0352876D01*
X0139126Y0353010D01*
X0139218Y0353142D01*
X0139313Y0353272D01*
X0139411Y0353400D01*
X0139512Y0353525D01*
X0139616Y0353647D01*
X0139723Y0353767D01*
X0139833Y0353884D01*
X0139946Y0353999D01*
X0140062Y0354110D01*
X0140181Y0354219D01*
X0140302Y0354324D01*
X0140426Y0354427D01*
X0140552Y0354527D01*
X0140680Y0354623D01*
X0140811Y0354716D01*
X0140945Y0354806D01*
X0141080Y0354893D01*
X0141218Y0354976D01*
X0141357Y0355056D01*
X0141499Y0355132D01*
X0141642Y0355205D01*
X0141787Y0355274D01*
X0141934Y0355340D01*
X0142082Y0355402D01*
X0142232Y0355460D01*
X0142383Y0355515D01*
X0142536Y0355566D01*
X0142690Y0355613D01*
X0142845Y0355656D01*
X0143001Y0355695D01*
X0143157Y0355731D01*
X0143315Y0355762D01*
X0143473Y0355790D01*
X0143632Y0355814D01*
X0143792Y0355834D01*
X0143952Y0355850D01*
X0144112Y0355862D01*
X0144273Y0355870D01*
X0144434Y0355874D01*
X0144594Y0355874D01*
X0144755Y0355870D01*
X0144916Y0355862D01*
X0145076Y0355850D01*
X0145236Y0355834D01*
X0145396Y0355814D01*
X0145555Y0355790D01*
X0145713Y0355762D01*
X0145871Y0355731D01*
X0146027Y0355695D01*
X0146183Y0355656D01*
X0146338Y0355613D01*
X0146492Y0355566D01*
X0146645Y0355515D01*
X0146796Y0355460D01*
X0146946Y0355402D01*
X0147094Y0355340D01*
X0147241Y0355274D01*
X0147386Y0355205D01*
X0147529Y0355132D01*
X0147671Y0355056D01*
X0147810Y0354976D01*
X0147948Y0354893D01*
X0148083Y0354806D01*
X0148217Y0354716D01*
X0148348Y0354623D01*
X0148476Y0354527D01*
X0148602Y0354427D01*
X0148726Y0354324D01*
X0148847Y0354219D01*
X0148966Y0354110D01*
X0149082Y0353999D01*
X0149195Y0353884D01*
X0149305Y0353767D01*
X0149412Y0353647D01*
X0149516Y0353525D01*
X0149617Y0353400D01*
X0149715Y0353272D01*
X0149810Y0353142D01*
X0149902Y0353010D01*
X0149990Y0352876D01*
X0150075Y0352739D01*
X0150157Y0352601D01*
X0150235Y0352460D01*
X0150309Y0352318D01*
X0150380Y0352174D01*
X0150448Y0352028D01*
X0150511Y0351880D01*
X0150572Y0351731D01*
X0150628Y0351580D01*
X0150681Y0351428D01*
X0150730Y0351275D01*
X0150775Y0351121D01*
X0150816Y0350966D01*
X0150854Y0350809D01*
X0150887Y0350652D01*
X0150917Y0350494D01*
X0150943Y0350335D01*
X0150964Y0350176D01*
X0150982Y0350016D01*
X0150996Y0349856D01*
X0151006Y0349695D01*
X0151012Y0349535D01*
X0151014Y0349374D01*
X0151012Y0349213D01*
X0151006Y0349053D01*
X0150996Y0348892D01*
X0150982Y0348732D01*
X0150964Y0348572D01*
X0150943Y0348413D01*
X0150917Y0348254D01*
X0150887Y0348096D01*
X0150854Y0347939D01*
X0150816Y0347782D01*
X0150775Y0347627D01*
X0150730Y0347473D01*
X0150681Y0347320D01*
X0150628Y0347168D01*
X0150572Y0347017D01*
X0150511Y0346868D01*
X0150448Y0346720D01*
X0150380Y0346574D01*
X0150309Y0346430D01*
X0150235Y0346288D01*
X0150157Y0346147D01*
X0150075Y0346009D01*
X0149990Y0345872D01*
X0149902Y0345738D01*
X0149810Y0345606D01*
X0149715Y0345476D01*
X0149617Y0345348D01*
X0149516Y0345223D01*
X0149412Y0345101D01*
X0149305Y0344981D01*
X0149195Y0344864D01*
X0149082Y0344749D01*
X0148966Y0344638D01*
X0148847Y0344529D01*
X0148726Y0344424D01*
X0148602Y0344321D01*
X0148476Y0344221D01*
X0148348Y0344125D01*
X0148217Y0344032D01*
X0148083Y0343942D01*
X0147948Y0343855D01*
X0147810Y0343772D01*
X0147671Y0343692D01*
X0147529Y0343616D01*
X0147386Y0343543D01*
X0147241Y0343474D01*
X0147094Y0343408D01*
X0146946Y0343346D01*
X0146796Y0343288D01*
X0146645Y0343233D01*
X0146492Y0343182D01*
X0146338Y0343135D01*
X0146183Y0343092D01*
X0146027Y0343053D01*
X0145871Y0343017D01*
X0145713Y0342986D01*
X0145555Y0342958D01*
X0145396Y0342934D01*
X0145236Y0342914D01*
X0145076Y0342898D01*
X0144916Y0342886D01*
X0144755Y0342878D01*
X0144594Y0342874D01*
X0144434Y0342874D01*
X0144273Y0342878D01*
X0144112Y0342886D01*
X0143952Y0342898D01*
X0143792Y0342914D01*
X0143632Y0342934D01*
X0143473Y0342958D01*
X0143315Y0342986D01*
X0143157Y0343017D01*
X0143001Y0343053D01*
X0142845Y0343092D01*
X0142690Y0343135D01*
X0142536Y0343182D01*
X0142383Y0343233D01*
X0142232Y0343288D01*
X0142082Y0343346D01*
X0141934Y0343408D01*
X0141787Y0343474D01*
X0141642Y0343543D01*
X0141499Y0343616D01*
X0141357Y0343692D01*
X0141218Y0343772D01*
X0141080Y0343855D01*
X0140945Y0343942D01*
X0140811Y0344032D01*
X0140680Y0344125D01*
X0140552Y0344221D01*
X0140426Y0344321D01*
X0140302Y0344424D01*
X0140181Y0344529D01*
X0140062Y0344638D01*
X0139946Y0344749D01*
X0139833Y0344864D01*
X0139723Y0344981D01*
X0139616Y0345101D01*
X0139512Y0345223D01*
X0139411Y0345348D01*
X0139313Y0345476D01*
X0139218Y0345606D01*
X0139126Y0345738D01*
X0139038Y0345872D01*
X0138953Y0346009D01*
X0138871Y0346147D01*
X0138793Y0346288D01*
X0138719Y0346430D01*
X0138648Y0346574D01*
X0138580Y0346720D01*
X0138517Y0346868D01*
X0138456Y0347017D01*
X0138400Y0347168D01*
X0138347Y0347320D01*
X0138298Y0347473D01*
X0138253Y0347627D01*
X0138212Y0347782D01*
X0138174Y0347939D01*
X0138141Y0348096D01*
X0138111Y0348254D01*
X0138085Y0348413D01*
X0138064Y0348572D01*
X0138046Y0348732D01*
X0138032Y0348892D01*
X0138022Y0349053D01*
X0138016Y0349213D01*
X0138014Y0349374D01*
X0170219Y0349374D02*
X0170221Y0349535D01*
X0170227Y0349695D01*
X0170237Y0349856D01*
X0170251Y0350016D01*
X0170269Y0350176D01*
X0170290Y0350335D01*
X0170316Y0350494D01*
X0170346Y0350652D01*
X0170379Y0350809D01*
X0170417Y0350966D01*
X0170458Y0351121D01*
X0170503Y0351275D01*
X0170552Y0351428D01*
X0170605Y0351580D01*
X0170661Y0351731D01*
X0170722Y0351880D01*
X0170785Y0352028D01*
X0170853Y0352174D01*
X0170924Y0352318D01*
X0170998Y0352460D01*
X0171076Y0352601D01*
X0171158Y0352739D01*
X0171243Y0352876D01*
X0171331Y0353010D01*
X0171423Y0353142D01*
X0171518Y0353272D01*
X0171616Y0353400D01*
X0171717Y0353525D01*
X0171821Y0353647D01*
X0171928Y0353767D01*
X0172038Y0353884D01*
X0172151Y0353999D01*
X0172267Y0354110D01*
X0172386Y0354219D01*
X0172507Y0354324D01*
X0172631Y0354427D01*
X0172757Y0354527D01*
X0172885Y0354623D01*
X0173016Y0354716D01*
X0173150Y0354806D01*
X0173285Y0354893D01*
X0173423Y0354976D01*
X0173562Y0355056D01*
X0173704Y0355132D01*
X0173847Y0355205D01*
X0173992Y0355274D01*
X0174139Y0355340D01*
X0174287Y0355402D01*
X0174437Y0355460D01*
X0174588Y0355515D01*
X0174741Y0355566D01*
X0174895Y0355613D01*
X0175050Y0355656D01*
X0175206Y0355695D01*
X0175362Y0355731D01*
X0175520Y0355762D01*
X0175678Y0355790D01*
X0175837Y0355814D01*
X0175997Y0355834D01*
X0176157Y0355850D01*
X0176317Y0355862D01*
X0176478Y0355870D01*
X0176639Y0355874D01*
X0176799Y0355874D01*
X0176960Y0355870D01*
X0177121Y0355862D01*
X0177281Y0355850D01*
X0177441Y0355834D01*
X0177601Y0355814D01*
X0177760Y0355790D01*
X0177918Y0355762D01*
X0178076Y0355731D01*
X0178232Y0355695D01*
X0178388Y0355656D01*
X0178543Y0355613D01*
X0178697Y0355566D01*
X0178850Y0355515D01*
X0179001Y0355460D01*
X0179151Y0355402D01*
X0179299Y0355340D01*
X0179446Y0355274D01*
X0179591Y0355205D01*
X0179734Y0355132D01*
X0179876Y0355056D01*
X0180015Y0354976D01*
X0180153Y0354893D01*
X0180288Y0354806D01*
X0180422Y0354716D01*
X0180553Y0354623D01*
X0180681Y0354527D01*
X0180807Y0354427D01*
X0180931Y0354324D01*
X0181052Y0354219D01*
X0181171Y0354110D01*
X0181287Y0353999D01*
X0181400Y0353884D01*
X0181510Y0353767D01*
X0181617Y0353647D01*
X0181721Y0353525D01*
X0181822Y0353400D01*
X0181920Y0353272D01*
X0182015Y0353142D01*
X0182107Y0353010D01*
X0182195Y0352876D01*
X0182280Y0352739D01*
X0182362Y0352601D01*
X0182440Y0352460D01*
X0182514Y0352318D01*
X0182585Y0352174D01*
X0182653Y0352028D01*
X0182716Y0351880D01*
X0182777Y0351731D01*
X0182833Y0351580D01*
X0182886Y0351428D01*
X0182935Y0351275D01*
X0182980Y0351121D01*
X0183021Y0350966D01*
X0183059Y0350809D01*
X0183092Y0350652D01*
X0183122Y0350494D01*
X0183148Y0350335D01*
X0183169Y0350176D01*
X0183187Y0350016D01*
X0183201Y0349856D01*
X0183211Y0349695D01*
X0183217Y0349535D01*
X0183219Y0349374D01*
X0183217Y0349213D01*
X0183211Y0349053D01*
X0183201Y0348892D01*
X0183187Y0348732D01*
X0183169Y0348572D01*
X0183148Y0348413D01*
X0183122Y0348254D01*
X0183092Y0348096D01*
X0183059Y0347939D01*
X0183021Y0347782D01*
X0182980Y0347627D01*
X0182935Y0347473D01*
X0182886Y0347320D01*
X0182833Y0347168D01*
X0182777Y0347017D01*
X0182716Y0346868D01*
X0182653Y0346720D01*
X0182585Y0346574D01*
X0182514Y0346430D01*
X0182440Y0346288D01*
X0182362Y0346147D01*
X0182280Y0346009D01*
X0182195Y0345872D01*
X0182107Y0345738D01*
X0182015Y0345606D01*
X0181920Y0345476D01*
X0181822Y0345348D01*
X0181721Y0345223D01*
X0181617Y0345101D01*
X0181510Y0344981D01*
X0181400Y0344864D01*
X0181287Y0344749D01*
X0181171Y0344638D01*
X0181052Y0344529D01*
X0180931Y0344424D01*
X0180807Y0344321D01*
X0180681Y0344221D01*
X0180553Y0344125D01*
X0180422Y0344032D01*
X0180288Y0343942D01*
X0180153Y0343855D01*
X0180015Y0343772D01*
X0179876Y0343692D01*
X0179734Y0343616D01*
X0179591Y0343543D01*
X0179446Y0343474D01*
X0179299Y0343408D01*
X0179151Y0343346D01*
X0179001Y0343288D01*
X0178850Y0343233D01*
X0178697Y0343182D01*
X0178543Y0343135D01*
X0178388Y0343092D01*
X0178232Y0343053D01*
X0178076Y0343017D01*
X0177918Y0342986D01*
X0177760Y0342958D01*
X0177601Y0342934D01*
X0177441Y0342914D01*
X0177281Y0342898D01*
X0177121Y0342886D01*
X0176960Y0342878D01*
X0176799Y0342874D01*
X0176639Y0342874D01*
X0176478Y0342878D01*
X0176317Y0342886D01*
X0176157Y0342898D01*
X0175997Y0342914D01*
X0175837Y0342934D01*
X0175678Y0342958D01*
X0175520Y0342986D01*
X0175362Y0343017D01*
X0175206Y0343053D01*
X0175050Y0343092D01*
X0174895Y0343135D01*
X0174741Y0343182D01*
X0174588Y0343233D01*
X0174437Y0343288D01*
X0174287Y0343346D01*
X0174139Y0343408D01*
X0173992Y0343474D01*
X0173847Y0343543D01*
X0173704Y0343616D01*
X0173562Y0343692D01*
X0173423Y0343772D01*
X0173285Y0343855D01*
X0173150Y0343942D01*
X0173016Y0344032D01*
X0172885Y0344125D01*
X0172757Y0344221D01*
X0172631Y0344321D01*
X0172507Y0344424D01*
X0172386Y0344529D01*
X0172267Y0344638D01*
X0172151Y0344749D01*
X0172038Y0344864D01*
X0171928Y0344981D01*
X0171821Y0345101D01*
X0171717Y0345223D01*
X0171616Y0345348D01*
X0171518Y0345476D01*
X0171423Y0345606D01*
X0171331Y0345738D01*
X0171243Y0345872D01*
X0171158Y0346009D01*
X0171076Y0346147D01*
X0170998Y0346288D01*
X0170924Y0346430D01*
X0170853Y0346574D01*
X0170785Y0346720D01*
X0170722Y0346868D01*
X0170661Y0347017D01*
X0170605Y0347168D01*
X0170552Y0347320D01*
X0170503Y0347473D01*
X0170458Y0347627D01*
X0170417Y0347782D01*
X0170379Y0347939D01*
X0170346Y0348096D01*
X0170316Y0348254D01*
X0170290Y0348413D01*
X0170269Y0348572D01*
X0170251Y0348732D01*
X0170237Y0348892D01*
X0170227Y0349053D01*
X0170221Y0349213D01*
X0170219Y0349374D01*
X0250219Y0349374D02*
X0250221Y0349535D01*
X0250227Y0349695D01*
X0250237Y0349856D01*
X0250251Y0350016D01*
X0250269Y0350176D01*
X0250290Y0350335D01*
X0250316Y0350494D01*
X0250346Y0350652D01*
X0250379Y0350809D01*
X0250417Y0350966D01*
X0250458Y0351121D01*
X0250503Y0351275D01*
X0250552Y0351428D01*
X0250605Y0351580D01*
X0250661Y0351731D01*
X0250722Y0351880D01*
X0250785Y0352028D01*
X0250853Y0352174D01*
X0250924Y0352318D01*
X0250998Y0352460D01*
X0251076Y0352601D01*
X0251158Y0352739D01*
X0251243Y0352876D01*
X0251331Y0353010D01*
X0251423Y0353142D01*
X0251518Y0353272D01*
X0251616Y0353400D01*
X0251717Y0353525D01*
X0251821Y0353647D01*
X0251928Y0353767D01*
X0252038Y0353884D01*
X0252151Y0353999D01*
X0252267Y0354110D01*
X0252386Y0354219D01*
X0252507Y0354324D01*
X0252631Y0354427D01*
X0252757Y0354527D01*
X0252885Y0354623D01*
X0253016Y0354716D01*
X0253150Y0354806D01*
X0253285Y0354893D01*
X0253423Y0354976D01*
X0253562Y0355056D01*
X0253704Y0355132D01*
X0253847Y0355205D01*
X0253992Y0355274D01*
X0254139Y0355340D01*
X0254287Y0355402D01*
X0254437Y0355460D01*
X0254588Y0355515D01*
X0254741Y0355566D01*
X0254895Y0355613D01*
X0255050Y0355656D01*
X0255206Y0355695D01*
X0255362Y0355731D01*
X0255520Y0355762D01*
X0255678Y0355790D01*
X0255837Y0355814D01*
X0255997Y0355834D01*
X0256157Y0355850D01*
X0256317Y0355862D01*
X0256478Y0355870D01*
X0256639Y0355874D01*
X0256799Y0355874D01*
X0256960Y0355870D01*
X0257121Y0355862D01*
X0257281Y0355850D01*
X0257441Y0355834D01*
X0257601Y0355814D01*
X0257760Y0355790D01*
X0257918Y0355762D01*
X0258076Y0355731D01*
X0258232Y0355695D01*
X0258388Y0355656D01*
X0258543Y0355613D01*
X0258697Y0355566D01*
X0258850Y0355515D01*
X0259001Y0355460D01*
X0259151Y0355402D01*
X0259299Y0355340D01*
X0259446Y0355274D01*
X0259591Y0355205D01*
X0259734Y0355132D01*
X0259876Y0355056D01*
X0260015Y0354976D01*
X0260153Y0354893D01*
X0260288Y0354806D01*
X0260422Y0354716D01*
X0260553Y0354623D01*
X0260681Y0354527D01*
X0260807Y0354427D01*
X0260931Y0354324D01*
X0261052Y0354219D01*
X0261171Y0354110D01*
X0261287Y0353999D01*
X0261400Y0353884D01*
X0261510Y0353767D01*
X0261617Y0353647D01*
X0261721Y0353525D01*
X0261822Y0353400D01*
X0261920Y0353272D01*
X0262015Y0353142D01*
X0262107Y0353010D01*
X0262195Y0352876D01*
X0262280Y0352739D01*
X0262362Y0352601D01*
X0262440Y0352460D01*
X0262514Y0352318D01*
X0262585Y0352174D01*
X0262653Y0352028D01*
X0262716Y0351880D01*
X0262777Y0351731D01*
X0262833Y0351580D01*
X0262886Y0351428D01*
X0262935Y0351275D01*
X0262980Y0351121D01*
X0263021Y0350966D01*
X0263059Y0350809D01*
X0263092Y0350652D01*
X0263122Y0350494D01*
X0263148Y0350335D01*
X0263169Y0350176D01*
X0263187Y0350016D01*
X0263201Y0349856D01*
X0263211Y0349695D01*
X0263217Y0349535D01*
X0263219Y0349374D01*
X0263217Y0349213D01*
X0263211Y0349053D01*
X0263201Y0348892D01*
X0263187Y0348732D01*
X0263169Y0348572D01*
X0263148Y0348413D01*
X0263122Y0348254D01*
X0263092Y0348096D01*
X0263059Y0347939D01*
X0263021Y0347782D01*
X0262980Y0347627D01*
X0262935Y0347473D01*
X0262886Y0347320D01*
X0262833Y0347168D01*
X0262777Y0347017D01*
X0262716Y0346868D01*
X0262653Y0346720D01*
X0262585Y0346574D01*
X0262514Y0346430D01*
X0262440Y0346288D01*
X0262362Y0346147D01*
X0262280Y0346009D01*
X0262195Y0345872D01*
X0262107Y0345738D01*
X0262015Y0345606D01*
X0261920Y0345476D01*
X0261822Y0345348D01*
X0261721Y0345223D01*
X0261617Y0345101D01*
X0261510Y0344981D01*
X0261400Y0344864D01*
X0261287Y0344749D01*
X0261171Y0344638D01*
X0261052Y0344529D01*
X0260931Y0344424D01*
X0260807Y0344321D01*
X0260681Y0344221D01*
X0260553Y0344125D01*
X0260422Y0344032D01*
X0260288Y0343942D01*
X0260153Y0343855D01*
X0260015Y0343772D01*
X0259876Y0343692D01*
X0259734Y0343616D01*
X0259591Y0343543D01*
X0259446Y0343474D01*
X0259299Y0343408D01*
X0259151Y0343346D01*
X0259001Y0343288D01*
X0258850Y0343233D01*
X0258697Y0343182D01*
X0258543Y0343135D01*
X0258388Y0343092D01*
X0258232Y0343053D01*
X0258076Y0343017D01*
X0257918Y0342986D01*
X0257760Y0342958D01*
X0257601Y0342934D01*
X0257441Y0342914D01*
X0257281Y0342898D01*
X0257121Y0342886D01*
X0256960Y0342878D01*
X0256799Y0342874D01*
X0256639Y0342874D01*
X0256478Y0342878D01*
X0256317Y0342886D01*
X0256157Y0342898D01*
X0255997Y0342914D01*
X0255837Y0342934D01*
X0255678Y0342958D01*
X0255520Y0342986D01*
X0255362Y0343017D01*
X0255206Y0343053D01*
X0255050Y0343092D01*
X0254895Y0343135D01*
X0254741Y0343182D01*
X0254588Y0343233D01*
X0254437Y0343288D01*
X0254287Y0343346D01*
X0254139Y0343408D01*
X0253992Y0343474D01*
X0253847Y0343543D01*
X0253704Y0343616D01*
X0253562Y0343692D01*
X0253423Y0343772D01*
X0253285Y0343855D01*
X0253150Y0343942D01*
X0253016Y0344032D01*
X0252885Y0344125D01*
X0252757Y0344221D01*
X0252631Y0344321D01*
X0252507Y0344424D01*
X0252386Y0344529D01*
X0252267Y0344638D01*
X0252151Y0344749D01*
X0252038Y0344864D01*
X0251928Y0344981D01*
X0251821Y0345101D01*
X0251717Y0345223D01*
X0251616Y0345348D01*
X0251518Y0345476D01*
X0251423Y0345606D01*
X0251331Y0345738D01*
X0251243Y0345872D01*
X0251158Y0346009D01*
X0251076Y0346147D01*
X0250998Y0346288D01*
X0250924Y0346430D01*
X0250853Y0346574D01*
X0250785Y0346720D01*
X0250722Y0346868D01*
X0250661Y0347017D01*
X0250605Y0347168D01*
X0250552Y0347320D01*
X0250503Y0347473D01*
X0250458Y0347627D01*
X0250417Y0347782D01*
X0250379Y0347939D01*
X0250346Y0348096D01*
X0250316Y0348254D01*
X0250290Y0348413D01*
X0250269Y0348572D01*
X0250251Y0348732D01*
X0250237Y0348892D01*
X0250227Y0349053D01*
X0250221Y0349213D01*
X0250219Y0349374D01*
X0282424Y0349374D02*
X0282426Y0349535D01*
X0282432Y0349695D01*
X0282442Y0349856D01*
X0282456Y0350016D01*
X0282474Y0350176D01*
X0282495Y0350335D01*
X0282521Y0350494D01*
X0282551Y0350652D01*
X0282584Y0350809D01*
X0282622Y0350966D01*
X0282663Y0351121D01*
X0282708Y0351275D01*
X0282757Y0351428D01*
X0282810Y0351580D01*
X0282866Y0351731D01*
X0282927Y0351880D01*
X0282990Y0352028D01*
X0283058Y0352174D01*
X0283129Y0352318D01*
X0283203Y0352460D01*
X0283281Y0352601D01*
X0283363Y0352739D01*
X0283448Y0352876D01*
X0283536Y0353010D01*
X0283628Y0353142D01*
X0283723Y0353272D01*
X0283821Y0353400D01*
X0283922Y0353525D01*
X0284026Y0353647D01*
X0284133Y0353767D01*
X0284243Y0353884D01*
X0284356Y0353999D01*
X0284472Y0354110D01*
X0284591Y0354219D01*
X0284712Y0354324D01*
X0284836Y0354427D01*
X0284962Y0354527D01*
X0285090Y0354623D01*
X0285221Y0354716D01*
X0285355Y0354806D01*
X0285490Y0354893D01*
X0285628Y0354976D01*
X0285767Y0355056D01*
X0285909Y0355132D01*
X0286052Y0355205D01*
X0286197Y0355274D01*
X0286344Y0355340D01*
X0286492Y0355402D01*
X0286642Y0355460D01*
X0286793Y0355515D01*
X0286946Y0355566D01*
X0287100Y0355613D01*
X0287255Y0355656D01*
X0287411Y0355695D01*
X0287567Y0355731D01*
X0287725Y0355762D01*
X0287883Y0355790D01*
X0288042Y0355814D01*
X0288202Y0355834D01*
X0288362Y0355850D01*
X0288522Y0355862D01*
X0288683Y0355870D01*
X0288844Y0355874D01*
X0289004Y0355874D01*
X0289165Y0355870D01*
X0289326Y0355862D01*
X0289486Y0355850D01*
X0289646Y0355834D01*
X0289806Y0355814D01*
X0289965Y0355790D01*
X0290123Y0355762D01*
X0290281Y0355731D01*
X0290437Y0355695D01*
X0290593Y0355656D01*
X0290748Y0355613D01*
X0290902Y0355566D01*
X0291055Y0355515D01*
X0291206Y0355460D01*
X0291356Y0355402D01*
X0291504Y0355340D01*
X0291651Y0355274D01*
X0291796Y0355205D01*
X0291939Y0355132D01*
X0292081Y0355056D01*
X0292220Y0354976D01*
X0292358Y0354893D01*
X0292493Y0354806D01*
X0292627Y0354716D01*
X0292758Y0354623D01*
X0292886Y0354527D01*
X0293012Y0354427D01*
X0293136Y0354324D01*
X0293257Y0354219D01*
X0293376Y0354110D01*
X0293492Y0353999D01*
X0293605Y0353884D01*
X0293715Y0353767D01*
X0293822Y0353647D01*
X0293926Y0353525D01*
X0294027Y0353400D01*
X0294125Y0353272D01*
X0294220Y0353142D01*
X0294312Y0353010D01*
X0294400Y0352876D01*
X0294485Y0352739D01*
X0294567Y0352601D01*
X0294645Y0352460D01*
X0294719Y0352318D01*
X0294790Y0352174D01*
X0294858Y0352028D01*
X0294921Y0351880D01*
X0294982Y0351731D01*
X0295038Y0351580D01*
X0295091Y0351428D01*
X0295140Y0351275D01*
X0295185Y0351121D01*
X0295226Y0350966D01*
X0295264Y0350809D01*
X0295297Y0350652D01*
X0295327Y0350494D01*
X0295353Y0350335D01*
X0295374Y0350176D01*
X0295392Y0350016D01*
X0295406Y0349856D01*
X0295416Y0349695D01*
X0295422Y0349535D01*
X0295424Y0349374D01*
X0295422Y0349213D01*
X0295416Y0349053D01*
X0295406Y0348892D01*
X0295392Y0348732D01*
X0295374Y0348572D01*
X0295353Y0348413D01*
X0295327Y0348254D01*
X0295297Y0348096D01*
X0295264Y0347939D01*
X0295226Y0347782D01*
X0295185Y0347627D01*
X0295140Y0347473D01*
X0295091Y0347320D01*
X0295038Y0347168D01*
X0294982Y0347017D01*
X0294921Y0346868D01*
X0294858Y0346720D01*
X0294790Y0346574D01*
X0294719Y0346430D01*
X0294645Y0346288D01*
X0294567Y0346147D01*
X0294485Y0346009D01*
X0294400Y0345872D01*
X0294312Y0345738D01*
X0294220Y0345606D01*
X0294125Y0345476D01*
X0294027Y0345348D01*
X0293926Y0345223D01*
X0293822Y0345101D01*
X0293715Y0344981D01*
X0293605Y0344864D01*
X0293492Y0344749D01*
X0293376Y0344638D01*
X0293257Y0344529D01*
X0293136Y0344424D01*
X0293012Y0344321D01*
X0292886Y0344221D01*
X0292758Y0344125D01*
X0292627Y0344032D01*
X0292493Y0343942D01*
X0292358Y0343855D01*
X0292220Y0343772D01*
X0292081Y0343692D01*
X0291939Y0343616D01*
X0291796Y0343543D01*
X0291651Y0343474D01*
X0291504Y0343408D01*
X0291356Y0343346D01*
X0291206Y0343288D01*
X0291055Y0343233D01*
X0290902Y0343182D01*
X0290748Y0343135D01*
X0290593Y0343092D01*
X0290437Y0343053D01*
X0290281Y0343017D01*
X0290123Y0342986D01*
X0289965Y0342958D01*
X0289806Y0342934D01*
X0289646Y0342914D01*
X0289486Y0342898D01*
X0289326Y0342886D01*
X0289165Y0342878D01*
X0289004Y0342874D01*
X0288844Y0342874D01*
X0288683Y0342878D01*
X0288522Y0342886D01*
X0288362Y0342898D01*
X0288202Y0342914D01*
X0288042Y0342934D01*
X0287883Y0342958D01*
X0287725Y0342986D01*
X0287567Y0343017D01*
X0287411Y0343053D01*
X0287255Y0343092D01*
X0287100Y0343135D01*
X0286946Y0343182D01*
X0286793Y0343233D01*
X0286642Y0343288D01*
X0286492Y0343346D01*
X0286344Y0343408D01*
X0286197Y0343474D01*
X0286052Y0343543D01*
X0285909Y0343616D01*
X0285767Y0343692D01*
X0285628Y0343772D01*
X0285490Y0343855D01*
X0285355Y0343942D01*
X0285221Y0344032D01*
X0285090Y0344125D01*
X0284962Y0344221D01*
X0284836Y0344321D01*
X0284712Y0344424D01*
X0284591Y0344529D01*
X0284472Y0344638D01*
X0284356Y0344749D01*
X0284243Y0344864D01*
X0284133Y0344981D01*
X0284026Y0345101D01*
X0283922Y0345223D01*
X0283821Y0345348D01*
X0283723Y0345476D01*
X0283628Y0345606D01*
X0283536Y0345738D01*
X0283448Y0345872D01*
X0283363Y0346009D01*
X0283281Y0346147D01*
X0283203Y0346288D01*
X0283129Y0346430D01*
X0283058Y0346574D01*
X0282990Y0346720D01*
X0282927Y0346868D01*
X0282866Y0347017D01*
X0282810Y0347168D01*
X0282757Y0347320D01*
X0282708Y0347473D01*
X0282663Y0347627D01*
X0282622Y0347782D01*
X0282584Y0347939D01*
X0282551Y0348096D01*
X0282521Y0348254D01*
X0282495Y0348413D01*
X0282474Y0348572D01*
X0282456Y0348732D01*
X0282442Y0348892D01*
X0282432Y0349053D01*
X0282426Y0349213D01*
X0282424Y0349374D01*
X0362424Y0349374D02*
X0362426Y0349535D01*
X0362432Y0349695D01*
X0362442Y0349856D01*
X0362456Y0350016D01*
X0362474Y0350176D01*
X0362495Y0350335D01*
X0362521Y0350494D01*
X0362551Y0350652D01*
X0362584Y0350809D01*
X0362622Y0350966D01*
X0362663Y0351121D01*
X0362708Y0351275D01*
X0362757Y0351428D01*
X0362810Y0351580D01*
X0362866Y0351731D01*
X0362927Y0351880D01*
X0362990Y0352028D01*
X0363058Y0352174D01*
X0363129Y0352318D01*
X0363203Y0352460D01*
X0363281Y0352601D01*
X0363363Y0352739D01*
X0363448Y0352876D01*
X0363536Y0353010D01*
X0363628Y0353142D01*
X0363723Y0353272D01*
X0363821Y0353400D01*
X0363922Y0353525D01*
X0364026Y0353647D01*
X0364133Y0353767D01*
X0364243Y0353884D01*
X0364356Y0353999D01*
X0364472Y0354110D01*
X0364591Y0354219D01*
X0364712Y0354324D01*
X0364836Y0354427D01*
X0364962Y0354527D01*
X0365090Y0354623D01*
X0365221Y0354716D01*
X0365355Y0354806D01*
X0365490Y0354893D01*
X0365628Y0354976D01*
X0365767Y0355056D01*
X0365909Y0355132D01*
X0366052Y0355205D01*
X0366197Y0355274D01*
X0366344Y0355340D01*
X0366492Y0355402D01*
X0366642Y0355460D01*
X0366793Y0355515D01*
X0366946Y0355566D01*
X0367100Y0355613D01*
X0367255Y0355656D01*
X0367411Y0355695D01*
X0367567Y0355731D01*
X0367725Y0355762D01*
X0367883Y0355790D01*
X0368042Y0355814D01*
X0368202Y0355834D01*
X0368362Y0355850D01*
X0368522Y0355862D01*
X0368683Y0355870D01*
X0368844Y0355874D01*
X0369004Y0355874D01*
X0369165Y0355870D01*
X0369326Y0355862D01*
X0369486Y0355850D01*
X0369646Y0355834D01*
X0369806Y0355814D01*
X0369965Y0355790D01*
X0370123Y0355762D01*
X0370281Y0355731D01*
X0370437Y0355695D01*
X0370593Y0355656D01*
X0370748Y0355613D01*
X0370902Y0355566D01*
X0371055Y0355515D01*
X0371206Y0355460D01*
X0371356Y0355402D01*
X0371504Y0355340D01*
X0371651Y0355274D01*
X0371796Y0355205D01*
X0371939Y0355132D01*
X0372081Y0355056D01*
X0372220Y0354976D01*
X0372358Y0354893D01*
X0372493Y0354806D01*
X0372627Y0354716D01*
X0372758Y0354623D01*
X0372886Y0354527D01*
X0373012Y0354427D01*
X0373136Y0354324D01*
X0373257Y0354219D01*
X0373376Y0354110D01*
X0373492Y0353999D01*
X0373605Y0353884D01*
X0373715Y0353767D01*
X0373822Y0353647D01*
X0373926Y0353525D01*
X0374027Y0353400D01*
X0374125Y0353272D01*
X0374220Y0353142D01*
X0374312Y0353010D01*
X0374400Y0352876D01*
X0374485Y0352739D01*
X0374567Y0352601D01*
X0374645Y0352460D01*
X0374719Y0352318D01*
X0374790Y0352174D01*
X0374858Y0352028D01*
X0374921Y0351880D01*
X0374982Y0351731D01*
X0375038Y0351580D01*
X0375091Y0351428D01*
X0375140Y0351275D01*
X0375185Y0351121D01*
X0375226Y0350966D01*
X0375264Y0350809D01*
X0375297Y0350652D01*
X0375327Y0350494D01*
X0375353Y0350335D01*
X0375374Y0350176D01*
X0375392Y0350016D01*
X0375406Y0349856D01*
X0375416Y0349695D01*
X0375422Y0349535D01*
X0375424Y0349374D01*
X0375422Y0349213D01*
X0375416Y0349053D01*
X0375406Y0348892D01*
X0375392Y0348732D01*
X0375374Y0348572D01*
X0375353Y0348413D01*
X0375327Y0348254D01*
X0375297Y0348096D01*
X0375264Y0347939D01*
X0375226Y0347782D01*
X0375185Y0347627D01*
X0375140Y0347473D01*
X0375091Y0347320D01*
X0375038Y0347168D01*
X0374982Y0347017D01*
X0374921Y0346868D01*
X0374858Y0346720D01*
X0374790Y0346574D01*
X0374719Y0346430D01*
X0374645Y0346288D01*
X0374567Y0346147D01*
X0374485Y0346009D01*
X0374400Y0345872D01*
X0374312Y0345738D01*
X0374220Y0345606D01*
X0374125Y0345476D01*
X0374027Y0345348D01*
X0373926Y0345223D01*
X0373822Y0345101D01*
X0373715Y0344981D01*
X0373605Y0344864D01*
X0373492Y0344749D01*
X0373376Y0344638D01*
X0373257Y0344529D01*
X0373136Y0344424D01*
X0373012Y0344321D01*
X0372886Y0344221D01*
X0372758Y0344125D01*
X0372627Y0344032D01*
X0372493Y0343942D01*
X0372358Y0343855D01*
X0372220Y0343772D01*
X0372081Y0343692D01*
X0371939Y0343616D01*
X0371796Y0343543D01*
X0371651Y0343474D01*
X0371504Y0343408D01*
X0371356Y0343346D01*
X0371206Y0343288D01*
X0371055Y0343233D01*
X0370902Y0343182D01*
X0370748Y0343135D01*
X0370593Y0343092D01*
X0370437Y0343053D01*
X0370281Y0343017D01*
X0370123Y0342986D01*
X0369965Y0342958D01*
X0369806Y0342934D01*
X0369646Y0342914D01*
X0369486Y0342898D01*
X0369326Y0342886D01*
X0369165Y0342878D01*
X0369004Y0342874D01*
X0368844Y0342874D01*
X0368683Y0342878D01*
X0368522Y0342886D01*
X0368362Y0342898D01*
X0368202Y0342914D01*
X0368042Y0342934D01*
X0367883Y0342958D01*
X0367725Y0342986D01*
X0367567Y0343017D01*
X0367411Y0343053D01*
X0367255Y0343092D01*
X0367100Y0343135D01*
X0366946Y0343182D01*
X0366793Y0343233D01*
X0366642Y0343288D01*
X0366492Y0343346D01*
X0366344Y0343408D01*
X0366197Y0343474D01*
X0366052Y0343543D01*
X0365909Y0343616D01*
X0365767Y0343692D01*
X0365628Y0343772D01*
X0365490Y0343855D01*
X0365355Y0343942D01*
X0365221Y0344032D01*
X0365090Y0344125D01*
X0364962Y0344221D01*
X0364836Y0344321D01*
X0364712Y0344424D01*
X0364591Y0344529D01*
X0364472Y0344638D01*
X0364356Y0344749D01*
X0364243Y0344864D01*
X0364133Y0344981D01*
X0364026Y0345101D01*
X0363922Y0345223D01*
X0363821Y0345348D01*
X0363723Y0345476D01*
X0363628Y0345606D01*
X0363536Y0345738D01*
X0363448Y0345872D01*
X0363363Y0346009D01*
X0363281Y0346147D01*
X0363203Y0346288D01*
X0363129Y0346430D01*
X0363058Y0346574D01*
X0362990Y0346720D01*
X0362927Y0346868D01*
X0362866Y0347017D01*
X0362810Y0347168D01*
X0362757Y0347320D01*
X0362708Y0347473D01*
X0362663Y0347627D01*
X0362622Y0347782D01*
X0362584Y0347939D01*
X0362551Y0348096D01*
X0362521Y0348254D01*
X0362495Y0348413D01*
X0362474Y0348572D01*
X0362456Y0348732D01*
X0362442Y0348892D01*
X0362432Y0349053D01*
X0362426Y0349213D01*
X0362424Y0349374D01*
X0394629Y0349374D02*
X0394631Y0349535D01*
X0394637Y0349695D01*
X0394647Y0349856D01*
X0394661Y0350016D01*
X0394679Y0350176D01*
X0394700Y0350335D01*
X0394726Y0350494D01*
X0394756Y0350652D01*
X0394789Y0350809D01*
X0394827Y0350966D01*
X0394868Y0351121D01*
X0394913Y0351275D01*
X0394962Y0351428D01*
X0395015Y0351580D01*
X0395071Y0351731D01*
X0395132Y0351880D01*
X0395195Y0352028D01*
X0395263Y0352174D01*
X0395334Y0352318D01*
X0395408Y0352460D01*
X0395486Y0352601D01*
X0395568Y0352739D01*
X0395653Y0352876D01*
X0395741Y0353010D01*
X0395833Y0353142D01*
X0395928Y0353272D01*
X0396026Y0353400D01*
X0396127Y0353525D01*
X0396231Y0353647D01*
X0396338Y0353767D01*
X0396448Y0353884D01*
X0396561Y0353999D01*
X0396677Y0354110D01*
X0396796Y0354219D01*
X0396917Y0354324D01*
X0397041Y0354427D01*
X0397167Y0354527D01*
X0397295Y0354623D01*
X0397426Y0354716D01*
X0397560Y0354806D01*
X0397695Y0354893D01*
X0397833Y0354976D01*
X0397972Y0355056D01*
X0398114Y0355132D01*
X0398257Y0355205D01*
X0398402Y0355274D01*
X0398549Y0355340D01*
X0398697Y0355402D01*
X0398847Y0355460D01*
X0398998Y0355515D01*
X0399151Y0355566D01*
X0399305Y0355613D01*
X0399460Y0355656D01*
X0399616Y0355695D01*
X0399772Y0355731D01*
X0399930Y0355762D01*
X0400088Y0355790D01*
X0400247Y0355814D01*
X0400407Y0355834D01*
X0400567Y0355850D01*
X0400727Y0355862D01*
X0400888Y0355870D01*
X0401049Y0355874D01*
X0401209Y0355874D01*
X0401370Y0355870D01*
X0401531Y0355862D01*
X0401691Y0355850D01*
X0401851Y0355834D01*
X0402011Y0355814D01*
X0402170Y0355790D01*
X0402328Y0355762D01*
X0402486Y0355731D01*
X0402642Y0355695D01*
X0402798Y0355656D01*
X0402953Y0355613D01*
X0403107Y0355566D01*
X0403260Y0355515D01*
X0403411Y0355460D01*
X0403561Y0355402D01*
X0403709Y0355340D01*
X0403856Y0355274D01*
X0404001Y0355205D01*
X0404144Y0355132D01*
X0404286Y0355056D01*
X0404425Y0354976D01*
X0404563Y0354893D01*
X0404698Y0354806D01*
X0404832Y0354716D01*
X0404963Y0354623D01*
X0405091Y0354527D01*
X0405217Y0354427D01*
X0405341Y0354324D01*
X0405462Y0354219D01*
X0405581Y0354110D01*
X0405697Y0353999D01*
X0405810Y0353884D01*
X0405920Y0353767D01*
X0406027Y0353647D01*
X0406131Y0353525D01*
X0406232Y0353400D01*
X0406330Y0353272D01*
X0406425Y0353142D01*
X0406517Y0353010D01*
X0406605Y0352876D01*
X0406690Y0352739D01*
X0406772Y0352601D01*
X0406850Y0352460D01*
X0406924Y0352318D01*
X0406995Y0352174D01*
X0407063Y0352028D01*
X0407126Y0351880D01*
X0407187Y0351731D01*
X0407243Y0351580D01*
X0407296Y0351428D01*
X0407345Y0351275D01*
X0407390Y0351121D01*
X0407431Y0350966D01*
X0407469Y0350809D01*
X0407502Y0350652D01*
X0407532Y0350494D01*
X0407558Y0350335D01*
X0407579Y0350176D01*
X0407597Y0350016D01*
X0407611Y0349856D01*
X0407621Y0349695D01*
X0407627Y0349535D01*
X0407629Y0349374D01*
X0407627Y0349213D01*
X0407621Y0349053D01*
X0407611Y0348892D01*
X0407597Y0348732D01*
X0407579Y0348572D01*
X0407558Y0348413D01*
X0407532Y0348254D01*
X0407502Y0348096D01*
X0407469Y0347939D01*
X0407431Y0347782D01*
X0407390Y0347627D01*
X0407345Y0347473D01*
X0407296Y0347320D01*
X0407243Y0347168D01*
X0407187Y0347017D01*
X0407126Y0346868D01*
X0407063Y0346720D01*
X0406995Y0346574D01*
X0406924Y0346430D01*
X0406850Y0346288D01*
X0406772Y0346147D01*
X0406690Y0346009D01*
X0406605Y0345872D01*
X0406517Y0345738D01*
X0406425Y0345606D01*
X0406330Y0345476D01*
X0406232Y0345348D01*
X0406131Y0345223D01*
X0406027Y0345101D01*
X0405920Y0344981D01*
X0405810Y0344864D01*
X0405697Y0344749D01*
X0405581Y0344638D01*
X0405462Y0344529D01*
X0405341Y0344424D01*
X0405217Y0344321D01*
X0405091Y0344221D01*
X0404963Y0344125D01*
X0404832Y0344032D01*
X0404698Y0343942D01*
X0404563Y0343855D01*
X0404425Y0343772D01*
X0404286Y0343692D01*
X0404144Y0343616D01*
X0404001Y0343543D01*
X0403856Y0343474D01*
X0403709Y0343408D01*
X0403561Y0343346D01*
X0403411Y0343288D01*
X0403260Y0343233D01*
X0403107Y0343182D01*
X0402953Y0343135D01*
X0402798Y0343092D01*
X0402642Y0343053D01*
X0402486Y0343017D01*
X0402328Y0342986D01*
X0402170Y0342958D01*
X0402011Y0342934D01*
X0401851Y0342914D01*
X0401691Y0342898D01*
X0401531Y0342886D01*
X0401370Y0342878D01*
X0401209Y0342874D01*
X0401049Y0342874D01*
X0400888Y0342878D01*
X0400727Y0342886D01*
X0400567Y0342898D01*
X0400407Y0342914D01*
X0400247Y0342934D01*
X0400088Y0342958D01*
X0399930Y0342986D01*
X0399772Y0343017D01*
X0399616Y0343053D01*
X0399460Y0343092D01*
X0399305Y0343135D01*
X0399151Y0343182D01*
X0398998Y0343233D01*
X0398847Y0343288D01*
X0398697Y0343346D01*
X0398549Y0343408D01*
X0398402Y0343474D01*
X0398257Y0343543D01*
X0398114Y0343616D01*
X0397972Y0343692D01*
X0397833Y0343772D01*
X0397695Y0343855D01*
X0397560Y0343942D01*
X0397426Y0344032D01*
X0397295Y0344125D01*
X0397167Y0344221D01*
X0397041Y0344321D01*
X0396917Y0344424D01*
X0396796Y0344529D01*
X0396677Y0344638D01*
X0396561Y0344749D01*
X0396448Y0344864D01*
X0396338Y0344981D01*
X0396231Y0345101D01*
X0396127Y0345223D01*
X0396026Y0345348D01*
X0395928Y0345476D01*
X0395833Y0345606D01*
X0395741Y0345738D01*
X0395653Y0345872D01*
X0395568Y0346009D01*
X0395486Y0346147D01*
X0395408Y0346288D01*
X0395334Y0346430D01*
X0395263Y0346574D01*
X0395195Y0346720D01*
X0395132Y0346868D01*
X0395071Y0347017D01*
X0395015Y0347168D01*
X0394962Y0347320D01*
X0394913Y0347473D01*
X0394868Y0347627D01*
X0394827Y0347782D01*
X0394789Y0347939D01*
X0394756Y0348096D01*
X0394726Y0348254D01*
X0394700Y0348413D01*
X0394679Y0348572D01*
X0394661Y0348732D01*
X0394647Y0348892D01*
X0394637Y0349053D01*
X0394631Y0349213D01*
X0394629Y0349374D01*
X0474629Y0349374D02*
X0474631Y0349535D01*
X0474637Y0349695D01*
X0474647Y0349856D01*
X0474661Y0350016D01*
X0474679Y0350176D01*
X0474700Y0350335D01*
X0474726Y0350494D01*
X0474756Y0350652D01*
X0474789Y0350809D01*
X0474827Y0350966D01*
X0474868Y0351121D01*
X0474913Y0351275D01*
X0474962Y0351428D01*
X0475015Y0351580D01*
X0475071Y0351731D01*
X0475132Y0351880D01*
X0475195Y0352028D01*
X0475263Y0352174D01*
X0475334Y0352318D01*
X0475408Y0352460D01*
X0475486Y0352601D01*
X0475568Y0352739D01*
X0475653Y0352876D01*
X0475741Y0353010D01*
X0475833Y0353142D01*
X0475928Y0353272D01*
X0476026Y0353400D01*
X0476127Y0353525D01*
X0476231Y0353647D01*
X0476338Y0353767D01*
X0476448Y0353884D01*
X0476561Y0353999D01*
X0476677Y0354110D01*
X0476796Y0354219D01*
X0476917Y0354324D01*
X0477041Y0354427D01*
X0477167Y0354527D01*
X0477295Y0354623D01*
X0477426Y0354716D01*
X0477560Y0354806D01*
X0477695Y0354893D01*
X0477833Y0354976D01*
X0477972Y0355056D01*
X0478114Y0355132D01*
X0478257Y0355205D01*
X0478402Y0355274D01*
X0478549Y0355340D01*
X0478697Y0355402D01*
X0478847Y0355460D01*
X0478998Y0355515D01*
X0479151Y0355566D01*
X0479305Y0355613D01*
X0479460Y0355656D01*
X0479616Y0355695D01*
X0479772Y0355731D01*
X0479930Y0355762D01*
X0480088Y0355790D01*
X0480247Y0355814D01*
X0480407Y0355834D01*
X0480567Y0355850D01*
X0480727Y0355862D01*
X0480888Y0355870D01*
X0481049Y0355874D01*
X0481209Y0355874D01*
X0481370Y0355870D01*
X0481531Y0355862D01*
X0481691Y0355850D01*
X0481851Y0355834D01*
X0482011Y0355814D01*
X0482170Y0355790D01*
X0482328Y0355762D01*
X0482486Y0355731D01*
X0482642Y0355695D01*
X0482798Y0355656D01*
X0482953Y0355613D01*
X0483107Y0355566D01*
X0483260Y0355515D01*
X0483411Y0355460D01*
X0483561Y0355402D01*
X0483709Y0355340D01*
X0483856Y0355274D01*
X0484001Y0355205D01*
X0484144Y0355132D01*
X0484286Y0355056D01*
X0484425Y0354976D01*
X0484563Y0354893D01*
X0484698Y0354806D01*
X0484832Y0354716D01*
X0484963Y0354623D01*
X0485091Y0354527D01*
X0485217Y0354427D01*
X0485341Y0354324D01*
X0485462Y0354219D01*
X0485581Y0354110D01*
X0485697Y0353999D01*
X0485810Y0353884D01*
X0485920Y0353767D01*
X0486027Y0353647D01*
X0486131Y0353525D01*
X0486232Y0353400D01*
X0486330Y0353272D01*
X0486425Y0353142D01*
X0486517Y0353010D01*
X0486605Y0352876D01*
X0486690Y0352739D01*
X0486772Y0352601D01*
X0486850Y0352460D01*
X0486924Y0352318D01*
X0486995Y0352174D01*
X0487063Y0352028D01*
X0487126Y0351880D01*
X0487187Y0351731D01*
X0487243Y0351580D01*
X0487296Y0351428D01*
X0487345Y0351275D01*
X0487390Y0351121D01*
X0487431Y0350966D01*
X0487469Y0350809D01*
X0487502Y0350652D01*
X0487532Y0350494D01*
X0487558Y0350335D01*
X0487579Y0350176D01*
X0487597Y0350016D01*
X0487611Y0349856D01*
X0487621Y0349695D01*
X0487627Y0349535D01*
X0487629Y0349374D01*
X0487627Y0349213D01*
X0487621Y0349053D01*
X0487611Y0348892D01*
X0487597Y0348732D01*
X0487579Y0348572D01*
X0487558Y0348413D01*
X0487532Y0348254D01*
X0487502Y0348096D01*
X0487469Y0347939D01*
X0487431Y0347782D01*
X0487390Y0347627D01*
X0487345Y0347473D01*
X0487296Y0347320D01*
X0487243Y0347168D01*
X0487187Y0347017D01*
X0487126Y0346868D01*
X0487063Y0346720D01*
X0486995Y0346574D01*
X0486924Y0346430D01*
X0486850Y0346288D01*
X0486772Y0346147D01*
X0486690Y0346009D01*
X0486605Y0345872D01*
X0486517Y0345738D01*
X0486425Y0345606D01*
X0486330Y0345476D01*
X0486232Y0345348D01*
X0486131Y0345223D01*
X0486027Y0345101D01*
X0485920Y0344981D01*
X0485810Y0344864D01*
X0485697Y0344749D01*
X0485581Y0344638D01*
X0485462Y0344529D01*
X0485341Y0344424D01*
X0485217Y0344321D01*
X0485091Y0344221D01*
X0484963Y0344125D01*
X0484832Y0344032D01*
X0484698Y0343942D01*
X0484563Y0343855D01*
X0484425Y0343772D01*
X0484286Y0343692D01*
X0484144Y0343616D01*
X0484001Y0343543D01*
X0483856Y0343474D01*
X0483709Y0343408D01*
X0483561Y0343346D01*
X0483411Y0343288D01*
X0483260Y0343233D01*
X0483107Y0343182D01*
X0482953Y0343135D01*
X0482798Y0343092D01*
X0482642Y0343053D01*
X0482486Y0343017D01*
X0482328Y0342986D01*
X0482170Y0342958D01*
X0482011Y0342934D01*
X0481851Y0342914D01*
X0481691Y0342898D01*
X0481531Y0342886D01*
X0481370Y0342878D01*
X0481209Y0342874D01*
X0481049Y0342874D01*
X0480888Y0342878D01*
X0480727Y0342886D01*
X0480567Y0342898D01*
X0480407Y0342914D01*
X0480247Y0342934D01*
X0480088Y0342958D01*
X0479930Y0342986D01*
X0479772Y0343017D01*
X0479616Y0343053D01*
X0479460Y0343092D01*
X0479305Y0343135D01*
X0479151Y0343182D01*
X0478998Y0343233D01*
X0478847Y0343288D01*
X0478697Y0343346D01*
X0478549Y0343408D01*
X0478402Y0343474D01*
X0478257Y0343543D01*
X0478114Y0343616D01*
X0477972Y0343692D01*
X0477833Y0343772D01*
X0477695Y0343855D01*
X0477560Y0343942D01*
X0477426Y0344032D01*
X0477295Y0344125D01*
X0477167Y0344221D01*
X0477041Y0344321D01*
X0476917Y0344424D01*
X0476796Y0344529D01*
X0476677Y0344638D01*
X0476561Y0344749D01*
X0476448Y0344864D01*
X0476338Y0344981D01*
X0476231Y0345101D01*
X0476127Y0345223D01*
X0476026Y0345348D01*
X0475928Y0345476D01*
X0475833Y0345606D01*
X0475741Y0345738D01*
X0475653Y0345872D01*
X0475568Y0346009D01*
X0475486Y0346147D01*
X0475408Y0346288D01*
X0475334Y0346430D01*
X0475263Y0346574D01*
X0475195Y0346720D01*
X0475132Y0346868D01*
X0475071Y0347017D01*
X0475015Y0347168D01*
X0474962Y0347320D01*
X0474913Y0347473D01*
X0474868Y0347627D01*
X0474827Y0347782D01*
X0474789Y0347939D01*
X0474756Y0348096D01*
X0474726Y0348254D01*
X0474700Y0348413D01*
X0474679Y0348572D01*
X0474661Y0348732D01*
X0474647Y0348892D01*
X0474637Y0349053D01*
X0474631Y0349213D01*
X0474629Y0349374D01*
X0474629Y0237169D02*
X0474631Y0237330D01*
X0474637Y0237490D01*
X0474647Y0237651D01*
X0474661Y0237811D01*
X0474679Y0237971D01*
X0474700Y0238130D01*
X0474726Y0238289D01*
X0474756Y0238447D01*
X0474789Y0238604D01*
X0474827Y0238761D01*
X0474868Y0238916D01*
X0474913Y0239070D01*
X0474962Y0239223D01*
X0475015Y0239375D01*
X0475071Y0239526D01*
X0475132Y0239675D01*
X0475195Y0239823D01*
X0475263Y0239969D01*
X0475334Y0240113D01*
X0475408Y0240255D01*
X0475486Y0240396D01*
X0475568Y0240534D01*
X0475653Y0240671D01*
X0475741Y0240805D01*
X0475833Y0240937D01*
X0475928Y0241067D01*
X0476026Y0241195D01*
X0476127Y0241320D01*
X0476231Y0241442D01*
X0476338Y0241562D01*
X0476448Y0241679D01*
X0476561Y0241794D01*
X0476677Y0241905D01*
X0476796Y0242014D01*
X0476917Y0242119D01*
X0477041Y0242222D01*
X0477167Y0242322D01*
X0477295Y0242418D01*
X0477426Y0242511D01*
X0477560Y0242601D01*
X0477695Y0242688D01*
X0477833Y0242771D01*
X0477972Y0242851D01*
X0478114Y0242927D01*
X0478257Y0243000D01*
X0478402Y0243069D01*
X0478549Y0243135D01*
X0478697Y0243197D01*
X0478847Y0243255D01*
X0478998Y0243310D01*
X0479151Y0243361D01*
X0479305Y0243408D01*
X0479460Y0243451D01*
X0479616Y0243490D01*
X0479772Y0243526D01*
X0479930Y0243557D01*
X0480088Y0243585D01*
X0480247Y0243609D01*
X0480407Y0243629D01*
X0480567Y0243645D01*
X0480727Y0243657D01*
X0480888Y0243665D01*
X0481049Y0243669D01*
X0481209Y0243669D01*
X0481370Y0243665D01*
X0481531Y0243657D01*
X0481691Y0243645D01*
X0481851Y0243629D01*
X0482011Y0243609D01*
X0482170Y0243585D01*
X0482328Y0243557D01*
X0482486Y0243526D01*
X0482642Y0243490D01*
X0482798Y0243451D01*
X0482953Y0243408D01*
X0483107Y0243361D01*
X0483260Y0243310D01*
X0483411Y0243255D01*
X0483561Y0243197D01*
X0483709Y0243135D01*
X0483856Y0243069D01*
X0484001Y0243000D01*
X0484144Y0242927D01*
X0484286Y0242851D01*
X0484425Y0242771D01*
X0484563Y0242688D01*
X0484698Y0242601D01*
X0484832Y0242511D01*
X0484963Y0242418D01*
X0485091Y0242322D01*
X0485217Y0242222D01*
X0485341Y0242119D01*
X0485462Y0242014D01*
X0485581Y0241905D01*
X0485697Y0241794D01*
X0485810Y0241679D01*
X0485920Y0241562D01*
X0486027Y0241442D01*
X0486131Y0241320D01*
X0486232Y0241195D01*
X0486330Y0241067D01*
X0486425Y0240937D01*
X0486517Y0240805D01*
X0486605Y0240671D01*
X0486690Y0240534D01*
X0486772Y0240396D01*
X0486850Y0240255D01*
X0486924Y0240113D01*
X0486995Y0239969D01*
X0487063Y0239823D01*
X0487126Y0239675D01*
X0487187Y0239526D01*
X0487243Y0239375D01*
X0487296Y0239223D01*
X0487345Y0239070D01*
X0487390Y0238916D01*
X0487431Y0238761D01*
X0487469Y0238604D01*
X0487502Y0238447D01*
X0487532Y0238289D01*
X0487558Y0238130D01*
X0487579Y0237971D01*
X0487597Y0237811D01*
X0487611Y0237651D01*
X0487621Y0237490D01*
X0487627Y0237330D01*
X0487629Y0237169D01*
X0487627Y0237008D01*
X0487621Y0236848D01*
X0487611Y0236687D01*
X0487597Y0236527D01*
X0487579Y0236367D01*
X0487558Y0236208D01*
X0487532Y0236049D01*
X0487502Y0235891D01*
X0487469Y0235734D01*
X0487431Y0235577D01*
X0487390Y0235422D01*
X0487345Y0235268D01*
X0487296Y0235115D01*
X0487243Y0234963D01*
X0487187Y0234812D01*
X0487126Y0234663D01*
X0487063Y0234515D01*
X0486995Y0234369D01*
X0486924Y0234225D01*
X0486850Y0234083D01*
X0486772Y0233942D01*
X0486690Y0233804D01*
X0486605Y0233667D01*
X0486517Y0233533D01*
X0486425Y0233401D01*
X0486330Y0233271D01*
X0486232Y0233143D01*
X0486131Y0233018D01*
X0486027Y0232896D01*
X0485920Y0232776D01*
X0485810Y0232659D01*
X0485697Y0232544D01*
X0485581Y0232433D01*
X0485462Y0232324D01*
X0485341Y0232219D01*
X0485217Y0232116D01*
X0485091Y0232016D01*
X0484963Y0231920D01*
X0484832Y0231827D01*
X0484698Y0231737D01*
X0484563Y0231650D01*
X0484425Y0231567D01*
X0484286Y0231487D01*
X0484144Y0231411D01*
X0484001Y0231338D01*
X0483856Y0231269D01*
X0483709Y0231203D01*
X0483561Y0231141D01*
X0483411Y0231083D01*
X0483260Y0231028D01*
X0483107Y0230977D01*
X0482953Y0230930D01*
X0482798Y0230887D01*
X0482642Y0230848D01*
X0482486Y0230812D01*
X0482328Y0230781D01*
X0482170Y0230753D01*
X0482011Y0230729D01*
X0481851Y0230709D01*
X0481691Y0230693D01*
X0481531Y0230681D01*
X0481370Y0230673D01*
X0481209Y0230669D01*
X0481049Y0230669D01*
X0480888Y0230673D01*
X0480727Y0230681D01*
X0480567Y0230693D01*
X0480407Y0230709D01*
X0480247Y0230729D01*
X0480088Y0230753D01*
X0479930Y0230781D01*
X0479772Y0230812D01*
X0479616Y0230848D01*
X0479460Y0230887D01*
X0479305Y0230930D01*
X0479151Y0230977D01*
X0478998Y0231028D01*
X0478847Y0231083D01*
X0478697Y0231141D01*
X0478549Y0231203D01*
X0478402Y0231269D01*
X0478257Y0231338D01*
X0478114Y0231411D01*
X0477972Y0231487D01*
X0477833Y0231567D01*
X0477695Y0231650D01*
X0477560Y0231737D01*
X0477426Y0231827D01*
X0477295Y0231920D01*
X0477167Y0232016D01*
X0477041Y0232116D01*
X0476917Y0232219D01*
X0476796Y0232324D01*
X0476677Y0232433D01*
X0476561Y0232544D01*
X0476448Y0232659D01*
X0476338Y0232776D01*
X0476231Y0232896D01*
X0476127Y0233018D01*
X0476026Y0233143D01*
X0475928Y0233271D01*
X0475833Y0233401D01*
X0475741Y0233533D01*
X0475653Y0233667D01*
X0475568Y0233804D01*
X0475486Y0233942D01*
X0475408Y0234083D01*
X0475334Y0234225D01*
X0475263Y0234369D01*
X0475195Y0234515D01*
X0475132Y0234663D01*
X0475071Y0234812D01*
X0475015Y0234963D01*
X0474962Y0235115D01*
X0474913Y0235268D01*
X0474868Y0235422D01*
X0474827Y0235577D01*
X0474789Y0235734D01*
X0474756Y0235891D01*
X0474726Y0236049D01*
X0474700Y0236208D01*
X0474679Y0236367D01*
X0474661Y0236527D01*
X0474647Y0236687D01*
X0474637Y0236848D01*
X0474631Y0237008D01*
X0474629Y0237169D01*
X0474629Y0124965D02*
X0474631Y0125126D01*
X0474637Y0125286D01*
X0474647Y0125447D01*
X0474661Y0125607D01*
X0474679Y0125767D01*
X0474700Y0125926D01*
X0474726Y0126085D01*
X0474756Y0126243D01*
X0474789Y0126400D01*
X0474827Y0126557D01*
X0474868Y0126712D01*
X0474913Y0126866D01*
X0474962Y0127019D01*
X0475015Y0127171D01*
X0475071Y0127322D01*
X0475132Y0127471D01*
X0475195Y0127619D01*
X0475263Y0127765D01*
X0475334Y0127909D01*
X0475408Y0128051D01*
X0475486Y0128192D01*
X0475568Y0128330D01*
X0475653Y0128467D01*
X0475741Y0128601D01*
X0475833Y0128733D01*
X0475928Y0128863D01*
X0476026Y0128991D01*
X0476127Y0129116D01*
X0476231Y0129238D01*
X0476338Y0129358D01*
X0476448Y0129475D01*
X0476561Y0129590D01*
X0476677Y0129701D01*
X0476796Y0129810D01*
X0476917Y0129915D01*
X0477041Y0130018D01*
X0477167Y0130118D01*
X0477295Y0130214D01*
X0477426Y0130307D01*
X0477560Y0130397D01*
X0477695Y0130484D01*
X0477833Y0130567D01*
X0477972Y0130647D01*
X0478114Y0130723D01*
X0478257Y0130796D01*
X0478402Y0130865D01*
X0478549Y0130931D01*
X0478697Y0130993D01*
X0478847Y0131051D01*
X0478998Y0131106D01*
X0479151Y0131157D01*
X0479305Y0131204D01*
X0479460Y0131247D01*
X0479616Y0131286D01*
X0479772Y0131322D01*
X0479930Y0131353D01*
X0480088Y0131381D01*
X0480247Y0131405D01*
X0480407Y0131425D01*
X0480567Y0131441D01*
X0480727Y0131453D01*
X0480888Y0131461D01*
X0481049Y0131465D01*
X0481209Y0131465D01*
X0481370Y0131461D01*
X0481531Y0131453D01*
X0481691Y0131441D01*
X0481851Y0131425D01*
X0482011Y0131405D01*
X0482170Y0131381D01*
X0482328Y0131353D01*
X0482486Y0131322D01*
X0482642Y0131286D01*
X0482798Y0131247D01*
X0482953Y0131204D01*
X0483107Y0131157D01*
X0483260Y0131106D01*
X0483411Y0131051D01*
X0483561Y0130993D01*
X0483709Y0130931D01*
X0483856Y0130865D01*
X0484001Y0130796D01*
X0484144Y0130723D01*
X0484286Y0130647D01*
X0484425Y0130567D01*
X0484563Y0130484D01*
X0484698Y0130397D01*
X0484832Y0130307D01*
X0484963Y0130214D01*
X0485091Y0130118D01*
X0485217Y0130018D01*
X0485341Y0129915D01*
X0485462Y0129810D01*
X0485581Y0129701D01*
X0485697Y0129590D01*
X0485810Y0129475D01*
X0485920Y0129358D01*
X0486027Y0129238D01*
X0486131Y0129116D01*
X0486232Y0128991D01*
X0486330Y0128863D01*
X0486425Y0128733D01*
X0486517Y0128601D01*
X0486605Y0128467D01*
X0486690Y0128330D01*
X0486772Y0128192D01*
X0486850Y0128051D01*
X0486924Y0127909D01*
X0486995Y0127765D01*
X0487063Y0127619D01*
X0487126Y0127471D01*
X0487187Y0127322D01*
X0487243Y0127171D01*
X0487296Y0127019D01*
X0487345Y0126866D01*
X0487390Y0126712D01*
X0487431Y0126557D01*
X0487469Y0126400D01*
X0487502Y0126243D01*
X0487532Y0126085D01*
X0487558Y0125926D01*
X0487579Y0125767D01*
X0487597Y0125607D01*
X0487611Y0125447D01*
X0487621Y0125286D01*
X0487627Y0125126D01*
X0487629Y0124965D01*
X0487627Y0124804D01*
X0487621Y0124644D01*
X0487611Y0124483D01*
X0487597Y0124323D01*
X0487579Y0124163D01*
X0487558Y0124004D01*
X0487532Y0123845D01*
X0487502Y0123687D01*
X0487469Y0123530D01*
X0487431Y0123373D01*
X0487390Y0123218D01*
X0487345Y0123064D01*
X0487296Y0122911D01*
X0487243Y0122759D01*
X0487187Y0122608D01*
X0487126Y0122459D01*
X0487063Y0122311D01*
X0486995Y0122165D01*
X0486924Y0122021D01*
X0486850Y0121879D01*
X0486772Y0121738D01*
X0486690Y0121600D01*
X0486605Y0121463D01*
X0486517Y0121329D01*
X0486425Y0121197D01*
X0486330Y0121067D01*
X0486232Y0120939D01*
X0486131Y0120814D01*
X0486027Y0120692D01*
X0485920Y0120572D01*
X0485810Y0120455D01*
X0485697Y0120340D01*
X0485581Y0120229D01*
X0485462Y0120120D01*
X0485341Y0120015D01*
X0485217Y0119912D01*
X0485091Y0119812D01*
X0484963Y0119716D01*
X0484832Y0119623D01*
X0484698Y0119533D01*
X0484563Y0119446D01*
X0484425Y0119363D01*
X0484286Y0119283D01*
X0484144Y0119207D01*
X0484001Y0119134D01*
X0483856Y0119065D01*
X0483709Y0118999D01*
X0483561Y0118937D01*
X0483411Y0118879D01*
X0483260Y0118824D01*
X0483107Y0118773D01*
X0482953Y0118726D01*
X0482798Y0118683D01*
X0482642Y0118644D01*
X0482486Y0118608D01*
X0482328Y0118577D01*
X0482170Y0118549D01*
X0482011Y0118525D01*
X0481851Y0118505D01*
X0481691Y0118489D01*
X0481531Y0118477D01*
X0481370Y0118469D01*
X0481209Y0118465D01*
X0481049Y0118465D01*
X0480888Y0118469D01*
X0480727Y0118477D01*
X0480567Y0118489D01*
X0480407Y0118505D01*
X0480247Y0118525D01*
X0480088Y0118549D01*
X0479930Y0118577D01*
X0479772Y0118608D01*
X0479616Y0118644D01*
X0479460Y0118683D01*
X0479305Y0118726D01*
X0479151Y0118773D01*
X0478998Y0118824D01*
X0478847Y0118879D01*
X0478697Y0118937D01*
X0478549Y0118999D01*
X0478402Y0119065D01*
X0478257Y0119134D01*
X0478114Y0119207D01*
X0477972Y0119283D01*
X0477833Y0119363D01*
X0477695Y0119446D01*
X0477560Y0119533D01*
X0477426Y0119623D01*
X0477295Y0119716D01*
X0477167Y0119812D01*
X0477041Y0119912D01*
X0476917Y0120015D01*
X0476796Y0120120D01*
X0476677Y0120229D01*
X0476561Y0120340D01*
X0476448Y0120455D01*
X0476338Y0120572D01*
X0476231Y0120692D01*
X0476127Y0120814D01*
X0476026Y0120939D01*
X0475928Y0121067D01*
X0475833Y0121197D01*
X0475741Y0121329D01*
X0475653Y0121463D01*
X0475568Y0121600D01*
X0475486Y0121738D01*
X0475408Y0121879D01*
X0475334Y0122021D01*
X0475263Y0122165D01*
X0475195Y0122311D01*
X0475132Y0122459D01*
X0475071Y0122608D01*
X0475015Y0122759D01*
X0474962Y0122911D01*
X0474913Y0123064D01*
X0474868Y0123218D01*
X0474827Y0123373D01*
X0474789Y0123530D01*
X0474756Y0123687D01*
X0474726Y0123845D01*
X0474700Y0124004D01*
X0474679Y0124163D01*
X0474661Y0124323D01*
X0474647Y0124483D01*
X0474637Y0124644D01*
X0474631Y0124804D01*
X0474629Y0124965D01*
X0394629Y0124965D02*
X0394631Y0125126D01*
X0394637Y0125286D01*
X0394647Y0125447D01*
X0394661Y0125607D01*
X0394679Y0125767D01*
X0394700Y0125926D01*
X0394726Y0126085D01*
X0394756Y0126243D01*
X0394789Y0126400D01*
X0394827Y0126557D01*
X0394868Y0126712D01*
X0394913Y0126866D01*
X0394962Y0127019D01*
X0395015Y0127171D01*
X0395071Y0127322D01*
X0395132Y0127471D01*
X0395195Y0127619D01*
X0395263Y0127765D01*
X0395334Y0127909D01*
X0395408Y0128051D01*
X0395486Y0128192D01*
X0395568Y0128330D01*
X0395653Y0128467D01*
X0395741Y0128601D01*
X0395833Y0128733D01*
X0395928Y0128863D01*
X0396026Y0128991D01*
X0396127Y0129116D01*
X0396231Y0129238D01*
X0396338Y0129358D01*
X0396448Y0129475D01*
X0396561Y0129590D01*
X0396677Y0129701D01*
X0396796Y0129810D01*
X0396917Y0129915D01*
X0397041Y0130018D01*
X0397167Y0130118D01*
X0397295Y0130214D01*
X0397426Y0130307D01*
X0397560Y0130397D01*
X0397695Y0130484D01*
X0397833Y0130567D01*
X0397972Y0130647D01*
X0398114Y0130723D01*
X0398257Y0130796D01*
X0398402Y0130865D01*
X0398549Y0130931D01*
X0398697Y0130993D01*
X0398847Y0131051D01*
X0398998Y0131106D01*
X0399151Y0131157D01*
X0399305Y0131204D01*
X0399460Y0131247D01*
X0399616Y0131286D01*
X0399772Y0131322D01*
X0399930Y0131353D01*
X0400088Y0131381D01*
X0400247Y0131405D01*
X0400407Y0131425D01*
X0400567Y0131441D01*
X0400727Y0131453D01*
X0400888Y0131461D01*
X0401049Y0131465D01*
X0401209Y0131465D01*
X0401370Y0131461D01*
X0401531Y0131453D01*
X0401691Y0131441D01*
X0401851Y0131425D01*
X0402011Y0131405D01*
X0402170Y0131381D01*
X0402328Y0131353D01*
X0402486Y0131322D01*
X0402642Y0131286D01*
X0402798Y0131247D01*
X0402953Y0131204D01*
X0403107Y0131157D01*
X0403260Y0131106D01*
X0403411Y0131051D01*
X0403561Y0130993D01*
X0403709Y0130931D01*
X0403856Y0130865D01*
X0404001Y0130796D01*
X0404144Y0130723D01*
X0404286Y0130647D01*
X0404425Y0130567D01*
X0404563Y0130484D01*
X0404698Y0130397D01*
X0404832Y0130307D01*
X0404963Y0130214D01*
X0405091Y0130118D01*
X0405217Y0130018D01*
X0405341Y0129915D01*
X0405462Y0129810D01*
X0405581Y0129701D01*
X0405697Y0129590D01*
X0405810Y0129475D01*
X0405920Y0129358D01*
X0406027Y0129238D01*
X0406131Y0129116D01*
X0406232Y0128991D01*
X0406330Y0128863D01*
X0406425Y0128733D01*
X0406517Y0128601D01*
X0406605Y0128467D01*
X0406690Y0128330D01*
X0406772Y0128192D01*
X0406850Y0128051D01*
X0406924Y0127909D01*
X0406995Y0127765D01*
X0407063Y0127619D01*
X0407126Y0127471D01*
X0407187Y0127322D01*
X0407243Y0127171D01*
X0407296Y0127019D01*
X0407345Y0126866D01*
X0407390Y0126712D01*
X0407431Y0126557D01*
X0407469Y0126400D01*
X0407502Y0126243D01*
X0407532Y0126085D01*
X0407558Y0125926D01*
X0407579Y0125767D01*
X0407597Y0125607D01*
X0407611Y0125447D01*
X0407621Y0125286D01*
X0407627Y0125126D01*
X0407629Y0124965D01*
X0407627Y0124804D01*
X0407621Y0124644D01*
X0407611Y0124483D01*
X0407597Y0124323D01*
X0407579Y0124163D01*
X0407558Y0124004D01*
X0407532Y0123845D01*
X0407502Y0123687D01*
X0407469Y0123530D01*
X0407431Y0123373D01*
X0407390Y0123218D01*
X0407345Y0123064D01*
X0407296Y0122911D01*
X0407243Y0122759D01*
X0407187Y0122608D01*
X0407126Y0122459D01*
X0407063Y0122311D01*
X0406995Y0122165D01*
X0406924Y0122021D01*
X0406850Y0121879D01*
X0406772Y0121738D01*
X0406690Y0121600D01*
X0406605Y0121463D01*
X0406517Y0121329D01*
X0406425Y0121197D01*
X0406330Y0121067D01*
X0406232Y0120939D01*
X0406131Y0120814D01*
X0406027Y0120692D01*
X0405920Y0120572D01*
X0405810Y0120455D01*
X0405697Y0120340D01*
X0405581Y0120229D01*
X0405462Y0120120D01*
X0405341Y0120015D01*
X0405217Y0119912D01*
X0405091Y0119812D01*
X0404963Y0119716D01*
X0404832Y0119623D01*
X0404698Y0119533D01*
X0404563Y0119446D01*
X0404425Y0119363D01*
X0404286Y0119283D01*
X0404144Y0119207D01*
X0404001Y0119134D01*
X0403856Y0119065D01*
X0403709Y0118999D01*
X0403561Y0118937D01*
X0403411Y0118879D01*
X0403260Y0118824D01*
X0403107Y0118773D01*
X0402953Y0118726D01*
X0402798Y0118683D01*
X0402642Y0118644D01*
X0402486Y0118608D01*
X0402328Y0118577D01*
X0402170Y0118549D01*
X0402011Y0118525D01*
X0401851Y0118505D01*
X0401691Y0118489D01*
X0401531Y0118477D01*
X0401370Y0118469D01*
X0401209Y0118465D01*
X0401049Y0118465D01*
X0400888Y0118469D01*
X0400727Y0118477D01*
X0400567Y0118489D01*
X0400407Y0118505D01*
X0400247Y0118525D01*
X0400088Y0118549D01*
X0399930Y0118577D01*
X0399772Y0118608D01*
X0399616Y0118644D01*
X0399460Y0118683D01*
X0399305Y0118726D01*
X0399151Y0118773D01*
X0398998Y0118824D01*
X0398847Y0118879D01*
X0398697Y0118937D01*
X0398549Y0118999D01*
X0398402Y0119065D01*
X0398257Y0119134D01*
X0398114Y0119207D01*
X0397972Y0119283D01*
X0397833Y0119363D01*
X0397695Y0119446D01*
X0397560Y0119533D01*
X0397426Y0119623D01*
X0397295Y0119716D01*
X0397167Y0119812D01*
X0397041Y0119912D01*
X0396917Y0120015D01*
X0396796Y0120120D01*
X0396677Y0120229D01*
X0396561Y0120340D01*
X0396448Y0120455D01*
X0396338Y0120572D01*
X0396231Y0120692D01*
X0396127Y0120814D01*
X0396026Y0120939D01*
X0395928Y0121067D01*
X0395833Y0121197D01*
X0395741Y0121329D01*
X0395653Y0121463D01*
X0395568Y0121600D01*
X0395486Y0121738D01*
X0395408Y0121879D01*
X0395334Y0122021D01*
X0395263Y0122165D01*
X0395195Y0122311D01*
X0395132Y0122459D01*
X0395071Y0122608D01*
X0395015Y0122759D01*
X0394962Y0122911D01*
X0394913Y0123064D01*
X0394868Y0123218D01*
X0394827Y0123373D01*
X0394789Y0123530D01*
X0394756Y0123687D01*
X0394726Y0123845D01*
X0394700Y0124004D01*
X0394679Y0124163D01*
X0394661Y0124323D01*
X0394647Y0124483D01*
X0394637Y0124644D01*
X0394631Y0124804D01*
X0394629Y0124965D01*
X0362424Y0124965D02*
X0362426Y0125126D01*
X0362432Y0125286D01*
X0362442Y0125447D01*
X0362456Y0125607D01*
X0362474Y0125767D01*
X0362495Y0125926D01*
X0362521Y0126085D01*
X0362551Y0126243D01*
X0362584Y0126400D01*
X0362622Y0126557D01*
X0362663Y0126712D01*
X0362708Y0126866D01*
X0362757Y0127019D01*
X0362810Y0127171D01*
X0362866Y0127322D01*
X0362927Y0127471D01*
X0362990Y0127619D01*
X0363058Y0127765D01*
X0363129Y0127909D01*
X0363203Y0128051D01*
X0363281Y0128192D01*
X0363363Y0128330D01*
X0363448Y0128467D01*
X0363536Y0128601D01*
X0363628Y0128733D01*
X0363723Y0128863D01*
X0363821Y0128991D01*
X0363922Y0129116D01*
X0364026Y0129238D01*
X0364133Y0129358D01*
X0364243Y0129475D01*
X0364356Y0129590D01*
X0364472Y0129701D01*
X0364591Y0129810D01*
X0364712Y0129915D01*
X0364836Y0130018D01*
X0364962Y0130118D01*
X0365090Y0130214D01*
X0365221Y0130307D01*
X0365355Y0130397D01*
X0365490Y0130484D01*
X0365628Y0130567D01*
X0365767Y0130647D01*
X0365909Y0130723D01*
X0366052Y0130796D01*
X0366197Y0130865D01*
X0366344Y0130931D01*
X0366492Y0130993D01*
X0366642Y0131051D01*
X0366793Y0131106D01*
X0366946Y0131157D01*
X0367100Y0131204D01*
X0367255Y0131247D01*
X0367411Y0131286D01*
X0367567Y0131322D01*
X0367725Y0131353D01*
X0367883Y0131381D01*
X0368042Y0131405D01*
X0368202Y0131425D01*
X0368362Y0131441D01*
X0368522Y0131453D01*
X0368683Y0131461D01*
X0368844Y0131465D01*
X0369004Y0131465D01*
X0369165Y0131461D01*
X0369326Y0131453D01*
X0369486Y0131441D01*
X0369646Y0131425D01*
X0369806Y0131405D01*
X0369965Y0131381D01*
X0370123Y0131353D01*
X0370281Y0131322D01*
X0370437Y0131286D01*
X0370593Y0131247D01*
X0370748Y0131204D01*
X0370902Y0131157D01*
X0371055Y0131106D01*
X0371206Y0131051D01*
X0371356Y0130993D01*
X0371504Y0130931D01*
X0371651Y0130865D01*
X0371796Y0130796D01*
X0371939Y0130723D01*
X0372081Y0130647D01*
X0372220Y0130567D01*
X0372358Y0130484D01*
X0372493Y0130397D01*
X0372627Y0130307D01*
X0372758Y0130214D01*
X0372886Y0130118D01*
X0373012Y0130018D01*
X0373136Y0129915D01*
X0373257Y0129810D01*
X0373376Y0129701D01*
X0373492Y0129590D01*
X0373605Y0129475D01*
X0373715Y0129358D01*
X0373822Y0129238D01*
X0373926Y0129116D01*
X0374027Y0128991D01*
X0374125Y0128863D01*
X0374220Y0128733D01*
X0374312Y0128601D01*
X0374400Y0128467D01*
X0374485Y0128330D01*
X0374567Y0128192D01*
X0374645Y0128051D01*
X0374719Y0127909D01*
X0374790Y0127765D01*
X0374858Y0127619D01*
X0374921Y0127471D01*
X0374982Y0127322D01*
X0375038Y0127171D01*
X0375091Y0127019D01*
X0375140Y0126866D01*
X0375185Y0126712D01*
X0375226Y0126557D01*
X0375264Y0126400D01*
X0375297Y0126243D01*
X0375327Y0126085D01*
X0375353Y0125926D01*
X0375374Y0125767D01*
X0375392Y0125607D01*
X0375406Y0125447D01*
X0375416Y0125286D01*
X0375422Y0125126D01*
X0375424Y0124965D01*
X0375422Y0124804D01*
X0375416Y0124644D01*
X0375406Y0124483D01*
X0375392Y0124323D01*
X0375374Y0124163D01*
X0375353Y0124004D01*
X0375327Y0123845D01*
X0375297Y0123687D01*
X0375264Y0123530D01*
X0375226Y0123373D01*
X0375185Y0123218D01*
X0375140Y0123064D01*
X0375091Y0122911D01*
X0375038Y0122759D01*
X0374982Y0122608D01*
X0374921Y0122459D01*
X0374858Y0122311D01*
X0374790Y0122165D01*
X0374719Y0122021D01*
X0374645Y0121879D01*
X0374567Y0121738D01*
X0374485Y0121600D01*
X0374400Y0121463D01*
X0374312Y0121329D01*
X0374220Y0121197D01*
X0374125Y0121067D01*
X0374027Y0120939D01*
X0373926Y0120814D01*
X0373822Y0120692D01*
X0373715Y0120572D01*
X0373605Y0120455D01*
X0373492Y0120340D01*
X0373376Y0120229D01*
X0373257Y0120120D01*
X0373136Y0120015D01*
X0373012Y0119912D01*
X0372886Y0119812D01*
X0372758Y0119716D01*
X0372627Y0119623D01*
X0372493Y0119533D01*
X0372358Y0119446D01*
X0372220Y0119363D01*
X0372081Y0119283D01*
X0371939Y0119207D01*
X0371796Y0119134D01*
X0371651Y0119065D01*
X0371504Y0118999D01*
X0371356Y0118937D01*
X0371206Y0118879D01*
X0371055Y0118824D01*
X0370902Y0118773D01*
X0370748Y0118726D01*
X0370593Y0118683D01*
X0370437Y0118644D01*
X0370281Y0118608D01*
X0370123Y0118577D01*
X0369965Y0118549D01*
X0369806Y0118525D01*
X0369646Y0118505D01*
X0369486Y0118489D01*
X0369326Y0118477D01*
X0369165Y0118469D01*
X0369004Y0118465D01*
X0368844Y0118465D01*
X0368683Y0118469D01*
X0368522Y0118477D01*
X0368362Y0118489D01*
X0368202Y0118505D01*
X0368042Y0118525D01*
X0367883Y0118549D01*
X0367725Y0118577D01*
X0367567Y0118608D01*
X0367411Y0118644D01*
X0367255Y0118683D01*
X0367100Y0118726D01*
X0366946Y0118773D01*
X0366793Y0118824D01*
X0366642Y0118879D01*
X0366492Y0118937D01*
X0366344Y0118999D01*
X0366197Y0119065D01*
X0366052Y0119134D01*
X0365909Y0119207D01*
X0365767Y0119283D01*
X0365628Y0119363D01*
X0365490Y0119446D01*
X0365355Y0119533D01*
X0365221Y0119623D01*
X0365090Y0119716D01*
X0364962Y0119812D01*
X0364836Y0119912D01*
X0364712Y0120015D01*
X0364591Y0120120D01*
X0364472Y0120229D01*
X0364356Y0120340D01*
X0364243Y0120455D01*
X0364133Y0120572D01*
X0364026Y0120692D01*
X0363922Y0120814D01*
X0363821Y0120939D01*
X0363723Y0121067D01*
X0363628Y0121197D01*
X0363536Y0121329D01*
X0363448Y0121463D01*
X0363363Y0121600D01*
X0363281Y0121738D01*
X0363203Y0121879D01*
X0363129Y0122021D01*
X0363058Y0122165D01*
X0362990Y0122311D01*
X0362927Y0122459D01*
X0362866Y0122608D01*
X0362810Y0122759D01*
X0362757Y0122911D01*
X0362708Y0123064D01*
X0362663Y0123218D01*
X0362622Y0123373D01*
X0362584Y0123530D01*
X0362551Y0123687D01*
X0362521Y0123845D01*
X0362495Y0124004D01*
X0362474Y0124163D01*
X0362456Y0124323D01*
X0362442Y0124483D01*
X0362432Y0124644D01*
X0362426Y0124804D01*
X0362424Y0124965D01*
X0282424Y0124965D02*
X0282426Y0125126D01*
X0282432Y0125286D01*
X0282442Y0125447D01*
X0282456Y0125607D01*
X0282474Y0125767D01*
X0282495Y0125926D01*
X0282521Y0126085D01*
X0282551Y0126243D01*
X0282584Y0126400D01*
X0282622Y0126557D01*
X0282663Y0126712D01*
X0282708Y0126866D01*
X0282757Y0127019D01*
X0282810Y0127171D01*
X0282866Y0127322D01*
X0282927Y0127471D01*
X0282990Y0127619D01*
X0283058Y0127765D01*
X0283129Y0127909D01*
X0283203Y0128051D01*
X0283281Y0128192D01*
X0283363Y0128330D01*
X0283448Y0128467D01*
X0283536Y0128601D01*
X0283628Y0128733D01*
X0283723Y0128863D01*
X0283821Y0128991D01*
X0283922Y0129116D01*
X0284026Y0129238D01*
X0284133Y0129358D01*
X0284243Y0129475D01*
X0284356Y0129590D01*
X0284472Y0129701D01*
X0284591Y0129810D01*
X0284712Y0129915D01*
X0284836Y0130018D01*
X0284962Y0130118D01*
X0285090Y0130214D01*
X0285221Y0130307D01*
X0285355Y0130397D01*
X0285490Y0130484D01*
X0285628Y0130567D01*
X0285767Y0130647D01*
X0285909Y0130723D01*
X0286052Y0130796D01*
X0286197Y0130865D01*
X0286344Y0130931D01*
X0286492Y0130993D01*
X0286642Y0131051D01*
X0286793Y0131106D01*
X0286946Y0131157D01*
X0287100Y0131204D01*
X0287255Y0131247D01*
X0287411Y0131286D01*
X0287567Y0131322D01*
X0287725Y0131353D01*
X0287883Y0131381D01*
X0288042Y0131405D01*
X0288202Y0131425D01*
X0288362Y0131441D01*
X0288522Y0131453D01*
X0288683Y0131461D01*
X0288844Y0131465D01*
X0289004Y0131465D01*
X0289165Y0131461D01*
X0289326Y0131453D01*
X0289486Y0131441D01*
X0289646Y0131425D01*
X0289806Y0131405D01*
X0289965Y0131381D01*
X0290123Y0131353D01*
X0290281Y0131322D01*
X0290437Y0131286D01*
X0290593Y0131247D01*
X0290748Y0131204D01*
X0290902Y0131157D01*
X0291055Y0131106D01*
X0291206Y0131051D01*
X0291356Y0130993D01*
X0291504Y0130931D01*
X0291651Y0130865D01*
X0291796Y0130796D01*
X0291939Y0130723D01*
X0292081Y0130647D01*
X0292220Y0130567D01*
X0292358Y0130484D01*
X0292493Y0130397D01*
X0292627Y0130307D01*
X0292758Y0130214D01*
X0292886Y0130118D01*
X0293012Y0130018D01*
X0293136Y0129915D01*
X0293257Y0129810D01*
X0293376Y0129701D01*
X0293492Y0129590D01*
X0293605Y0129475D01*
X0293715Y0129358D01*
X0293822Y0129238D01*
X0293926Y0129116D01*
X0294027Y0128991D01*
X0294125Y0128863D01*
X0294220Y0128733D01*
X0294312Y0128601D01*
X0294400Y0128467D01*
X0294485Y0128330D01*
X0294567Y0128192D01*
X0294645Y0128051D01*
X0294719Y0127909D01*
X0294790Y0127765D01*
X0294858Y0127619D01*
X0294921Y0127471D01*
X0294982Y0127322D01*
X0295038Y0127171D01*
X0295091Y0127019D01*
X0295140Y0126866D01*
X0295185Y0126712D01*
X0295226Y0126557D01*
X0295264Y0126400D01*
X0295297Y0126243D01*
X0295327Y0126085D01*
X0295353Y0125926D01*
X0295374Y0125767D01*
X0295392Y0125607D01*
X0295406Y0125447D01*
X0295416Y0125286D01*
X0295422Y0125126D01*
X0295424Y0124965D01*
X0295422Y0124804D01*
X0295416Y0124644D01*
X0295406Y0124483D01*
X0295392Y0124323D01*
X0295374Y0124163D01*
X0295353Y0124004D01*
X0295327Y0123845D01*
X0295297Y0123687D01*
X0295264Y0123530D01*
X0295226Y0123373D01*
X0295185Y0123218D01*
X0295140Y0123064D01*
X0295091Y0122911D01*
X0295038Y0122759D01*
X0294982Y0122608D01*
X0294921Y0122459D01*
X0294858Y0122311D01*
X0294790Y0122165D01*
X0294719Y0122021D01*
X0294645Y0121879D01*
X0294567Y0121738D01*
X0294485Y0121600D01*
X0294400Y0121463D01*
X0294312Y0121329D01*
X0294220Y0121197D01*
X0294125Y0121067D01*
X0294027Y0120939D01*
X0293926Y0120814D01*
X0293822Y0120692D01*
X0293715Y0120572D01*
X0293605Y0120455D01*
X0293492Y0120340D01*
X0293376Y0120229D01*
X0293257Y0120120D01*
X0293136Y0120015D01*
X0293012Y0119912D01*
X0292886Y0119812D01*
X0292758Y0119716D01*
X0292627Y0119623D01*
X0292493Y0119533D01*
X0292358Y0119446D01*
X0292220Y0119363D01*
X0292081Y0119283D01*
X0291939Y0119207D01*
X0291796Y0119134D01*
X0291651Y0119065D01*
X0291504Y0118999D01*
X0291356Y0118937D01*
X0291206Y0118879D01*
X0291055Y0118824D01*
X0290902Y0118773D01*
X0290748Y0118726D01*
X0290593Y0118683D01*
X0290437Y0118644D01*
X0290281Y0118608D01*
X0290123Y0118577D01*
X0289965Y0118549D01*
X0289806Y0118525D01*
X0289646Y0118505D01*
X0289486Y0118489D01*
X0289326Y0118477D01*
X0289165Y0118469D01*
X0289004Y0118465D01*
X0288844Y0118465D01*
X0288683Y0118469D01*
X0288522Y0118477D01*
X0288362Y0118489D01*
X0288202Y0118505D01*
X0288042Y0118525D01*
X0287883Y0118549D01*
X0287725Y0118577D01*
X0287567Y0118608D01*
X0287411Y0118644D01*
X0287255Y0118683D01*
X0287100Y0118726D01*
X0286946Y0118773D01*
X0286793Y0118824D01*
X0286642Y0118879D01*
X0286492Y0118937D01*
X0286344Y0118999D01*
X0286197Y0119065D01*
X0286052Y0119134D01*
X0285909Y0119207D01*
X0285767Y0119283D01*
X0285628Y0119363D01*
X0285490Y0119446D01*
X0285355Y0119533D01*
X0285221Y0119623D01*
X0285090Y0119716D01*
X0284962Y0119812D01*
X0284836Y0119912D01*
X0284712Y0120015D01*
X0284591Y0120120D01*
X0284472Y0120229D01*
X0284356Y0120340D01*
X0284243Y0120455D01*
X0284133Y0120572D01*
X0284026Y0120692D01*
X0283922Y0120814D01*
X0283821Y0120939D01*
X0283723Y0121067D01*
X0283628Y0121197D01*
X0283536Y0121329D01*
X0283448Y0121463D01*
X0283363Y0121600D01*
X0283281Y0121738D01*
X0283203Y0121879D01*
X0283129Y0122021D01*
X0283058Y0122165D01*
X0282990Y0122311D01*
X0282927Y0122459D01*
X0282866Y0122608D01*
X0282810Y0122759D01*
X0282757Y0122911D01*
X0282708Y0123064D01*
X0282663Y0123218D01*
X0282622Y0123373D01*
X0282584Y0123530D01*
X0282551Y0123687D01*
X0282521Y0123845D01*
X0282495Y0124004D01*
X0282474Y0124163D01*
X0282456Y0124323D01*
X0282442Y0124483D01*
X0282432Y0124644D01*
X0282426Y0124804D01*
X0282424Y0124965D01*
X0250219Y0124965D02*
X0250221Y0125126D01*
X0250227Y0125286D01*
X0250237Y0125447D01*
X0250251Y0125607D01*
X0250269Y0125767D01*
X0250290Y0125926D01*
X0250316Y0126085D01*
X0250346Y0126243D01*
X0250379Y0126400D01*
X0250417Y0126557D01*
X0250458Y0126712D01*
X0250503Y0126866D01*
X0250552Y0127019D01*
X0250605Y0127171D01*
X0250661Y0127322D01*
X0250722Y0127471D01*
X0250785Y0127619D01*
X0250853Y0127765D01*
X0250924Y0127909D01*
X0250998Y0128051D01*
X0251076Y0128192D01*
X0251158Y0128330D01*
X0251243Y0128467D01*
X0251331Y0128601D01*
X0251423Y0128733D01*
X0251518Y0128863D01*
X0251616Y0128991D01*
X0251717Y0129116D01*
X0251821Y0129238D01*
X0251928Y0129358D01*
X0252038Y0129475D01*
X0252151Y0129590D01*
X0252267Y0129701D01*
X0252386Y0129810D01*
X0252507Y0129915D01*
X0252631Y0130018D01*
X0252757Y0130118D01*
X0252885Y0130214D01*
X0253016Y0130307D01*
X0253150Y0130397D01*
X0253285Y0130484D01*
X0253423Y0130567D01*
X0253562Y0130647D01*
X0253704Y0130723D01*
X0253847Y0130796D01*
X0253992Y0130865D01*
X0254139Y0130931D01*
X0254287Y0130993D01*
X0254437Y0131051D01*
X0254588Y0131106D01*
X0254741Y0131157D01*
X0254895Y0131204D01*
X0255050Y0131247D01*
X0255206Y0131286D01*
X0255362Y0131322D01*
X0255520Y0131353D01*
X0255678Y0131381D01*
X0255837Y0131405D01*
X0255997Y0131425D01*
X0256157Y0131441D01*
X0256317Y0131453D01*
X0256478Y0131461D01*
X0256639Y0131465D01*
X0256799Y0131465D01*
X0256960Y0131461D01*
X0257121Y0131453D01*
X0257281Y0131441D01*
X0257441Y0131425D01*
X0257601Y0131405D01*
X0257760Y0131381D01*
X0257918Y0131353D01*
X0258076Y0131322D01*
X0258232Y0131286D01*
X0258388Y0131247D01*
X0258543Y0131204D01*
X0258697Y0131157D01*
X0258850Y0131106D01*
X0259001Y0131051D01*
X0259151Y0130993D01*
X0259299Y0130931D01*
X0259446Y0130865D01*
X0259591Y0130796D01*
X0259734Y0130723D01*
X0259876Y0130647D01*
X0260015Y0130567D01*
X0260153Y0130484D01*
X0260288Y0130397D01*
X0260422Y0130307D01*
X0260553Y0130214D01*
X0260681Y0130118D01*
X0260807Y0130018D01*
X0260931Y0129915D01*
X0261052Y0129810D01*
X0261171Y0129701D01*
X0261287Y0129590D01*
X0261400Y0129475D01*
X0261510Y0129358D01*
X0261617Y0129238D01*
X0261721Y0129116D01*
X0261822Y0128991D01*
X0261920Y0128863D01*
X0262015Y0128733D01*
X0262107Y0128601D01*
X0262195Y0128467D01*
X0262280Y0128330D01*
X0262362Y0128192D01*
X0262440Y0128051D01*
X0262514Y0127909D01*
X0262585Y0127765D01*
X0262653Y0127619D01*
X0262716Y0127471D01*
X0262777Y0127322D01*
X0262833Y0127171D01*
X0262886Y0127019D01*
X0262935Y0126866D01*
X0262980Y0126712D01*
X0263021Y0126557D01*
X0263059Y0126400D01*
X0263092Y0126243D01*
X0263122Y0126085D01*
X0263148Y0125926D01*
X0263169Y0125767D01*
X0263187Y0125607D01*
X0263201Y0125447D01*
X0263211Y0125286D01*
X0263217Y0125126D01*
X0263219Y0124965D01*
X0263217Y0124804D01*
X0263211Y0124644D01*
X0263201Y0124483D01*
X0263187Y0124323D01*
X0263169Y0124163D01*
X0263148Y0124004D01*
X0263122Y0123845D01*
X0263092Y0123687D01*
X0263059Y0123530D01*
X0263021Y0123373D01*
X0262980Y0123218D01*
X0262935Y0123064D01*
X0262886Y0122911D01*
X0262833Y0122759D01*
X0262777Y0122608D01*
X0262716Y0122459D01*
X0262653Y0122311D01*
X0262585Y0122165D01*
X0262514Y0122021D01*
X0262440Y0121879D01*
X0262362Y0121738D01*
X0262280Y0121600D01*
X0262195Y0121463D01*
X0262107Y0121329D01*
X0262015Y0121197D01*
X0261920Y0121067D01*
X0261822Y0120939D01*
X0261721Y0120814D01*
X0261617Y0120692D01*
X0261510Y0120572D01*
X0261400Y0120455D01*
X0261287Y0120340D01*
X0261171Y0120229D01*
X0261052Y0120120D01*
X0260931Y0120015D01*
X0260807Y0119912D01*
X0260681Y0119812D01*
X0260553Y0119716D01*
X0260422Y0119623D01*
X0260288Y0119533D01*
X0260153Y0119446D01*
X0260015Y0119363D01*
X0259876Y0119283D01*
X0259734Y0119207D01*
X0259591Y0119134D01*
X0259446Y0119065D01*
X0259299Y0118999D01*
X0259151Y0118937D01*
X0259001Y0118879D01*
X0258850Y0118824D01*
X0258697Y0118773D01*
X0258543Y0118726D01*
X0258388Y0118683D01*
X0258232Y0118644D01*
X0258076Y0118608D01*
X0257918Y0118577D01*
X0257760Y0118549D01*
X0257601Y0118525D01*
X0257441Y0118505D01*
X0257281Y0118489D01*
X0257121Y0118477D01*
X0256960Y0118469D01*
X0256799Y0118465D01*
X0256639Y0118465D01*
X0256478Y0118469D01*
X0256317Y0118477D01*
X0256157Y0118489D01*
X0255997Y0118505D01*
X0255837Y0118525D01*
X0255678Y0118549D01*
X0255520Y0118577D01*
X0255362Y0118608D01*
X0255206Y0118644D01*
X0255050Y0118683D01*
X0254895Y0118726D01*
X0254741Y0118773D01*
X0254588Y0118824D01*
X0254437Y0118879D01*
X0254287Y0118937D01*
X0254139Y0118999D01*
X0253992Y0119065D01*
X0253847Y0119134D01*
X0253704Y0119207D01*
X0253562Y0119283D01*
X0253423Y0119363D01*
X0253285Y0119446D01*
X0253150Y0119533D01*
X0253016Y0119623D01*
X0252885Y0119716D01*
X0252757Y0119812D01*
X0252631Y0119912D01*
X0252507Y0120015D01*
X0252386Y0120120D01*
X0252267Y0120229D01*
X0252151Y0120340D01*
X0252038Y0120455D01*
X0251928Y0120572D01*
X0251821Y0120692D01*
X0251717Y0120814D01*
X0251616Y0120939D01*
X0251518Y0121067D01*
X0251423Y0121197D01*
X0251331Y0121329D01*
X0251243Y0121463D01*
X0251158Y0121600D01*
X0251076Y0121738D01*
X0250998Y0121879D01*
X0250924Y0122021D01*
X0250853Y0122165D01*
X0250785Y0122311D01*
X0250722Y0122459D01*
X0250661Y0122608D01*
X0250605Y0122759D01*
X0250552Y0122911D01*
X0250503Y0123064D01*
X0250458Y0123218D01*
X0250417Y0123373D01*
X0250379Y0123530D01*
X0250346Y0123687D01*
X0250316Y0123845D01*
X0250290Y0124004D01*
X0250269Y0124163D01*
X0250251Y0124323D01*
X0250237Y0124483D01*
X0250227Y0124644D01*
X0250221Y0124804D01*
X0250219Y0124965D01*
X0170219Y0124965D02*
X0170221Y0125126D01*
X0170227Y0125286D01*
X0170237Y0125447D01*
X0170251Y0125607D01*
X0170269Y0125767D01*
X0170290Y0125926D01*
X0170316Y0126085D01*
X0170346Y0126243D01*
X0170379Y0126400D01*
X0170417Y0126557D01*
X0170458Y0126712D01*
X0170503Y0126866D01*
X0170552Y0127019D01*
X0170605Y0127171D01*
X0170661Y0127322D01*
X0170722Y0127471D01*
X0170785Y0127619D01*
X0170853Y0127765D01*
X0170924Y0127909D01*
X0170998Y0128051D01*
X0171076Y0128192D01*
X0171158Y0128330D01*
X0171243Y0128467D01*
X0171331Y0128601D01*
X0171423Y0128733D01*
X0171518Y0128863D01*
X0171616Y0128991D01*
X0171717Y0129116D01*
X0171821Y0129238D01*
X0171928Y0129358D01*
X0172038Y0129475D01*
X0172151Y0129590D01*
X0172267Y0129701D01*
X0172386Y0129810D01*
X0172507Y0129915D01*
X0172631Y0130018D01*
X0172757Y0130118D01*
X0172885Y0130214D01*
X0173016Y0130307D01*
X0173150Y0130397D01*
X0173285Y0130484D01*
X0173423Y0130567D01*
X0173562Y0130647D01*
X0173704Y0130723D01*
X0173847Y0130796D01*
X0173992Y0130865D01*
X0174139Y0130931D01*
X0174287Y0130993D01*
X0174437Y0131051D01*
X0174588Y0131106D01*
X0174741Y0131157D01*
X0174895Y0131204D01*
X0175050Y0131247D01*
X0175206Y0131286D01*
X0175362Y0131322D01*
X0175520Y0131353D01*
X0175678Y0131381D01*
X0175837Y0131405D01*
X0175997Y0131425D01*
X0176157Y0131441D01*
X0176317Y0131453D01*
X0176478Y0131461D01*
X0176639Y0131465D01*
X0176799Y0131465D01*
X0176960Y0131461D01*
X0177121Y0131453D01*
X0177281Y0131441D01*
X0177441Y0131425D01*
X0177601Y0131405D01*
X0177760Y0131381D01*
X0177918Y0131353D01*
X0178076Y0131322D01*
X0178232Y0131286D01*
X0178388Y0131247D01*
X0178543Y0131204D01*
X0178697Y0131157D01*
X0178850Y0131106D01*
X0179001Y0131051D01*
X0179151Y0130993D01*
X0179299Y0130931D01*
X0179446Y0130865D01*
X0179591Y0130796D01*
X0179734Y0130723D01*
X0179876Y0130647D01*
X0180015Y0130567D01*
X0180153Y0130484D01*
X0180288Y0130397D01*
X0180422Y0130307D01*
X0180553Y0130214D01*
X0180681Y0130118D01*
X0180807Y0130018D01*
X0180931Y0129915D01*
X0181052Y0129810D01*
X0181171Y0129701D01*
X0181287Y0129590D01*
X0181400Y0129475D01*
X0181510Y0129358D01*
X0181617Y0129238D01*
X0181721Y0129116D01*
X0181822Y0128991D01*
X0181920Y0128863D01*
X0182015Y0128733D01*
X0182107Y0128601D01*
X0182195Y0128467D01*
X0182280Y0128330D01*
X0182362Y0128192D01*
X0182440Y0128051D01*
X0182514Y0127909D01*
X0182585Y0127765D01*
X0182653Y0127619D01*
X0182716Y0127471D01*
X0182777Y0127322D01*
X0182833Y0127171D01*
X0182886Y0127019D01*
X0182935Y0126866D01*
X0182980Y0126712D01*
X0183021Y0126557D01*
X0183059Y0126400D01*
X0183092Y0126243D01*
X0183122Y0126085D01*
X0183148Y0125926D01*
X0183169Y0125767D01*
X0183187Y0125607D01*
X0183201Y0125447D01*
X0183211Y0125286D01*
X0183217Y0125126D01*
X0183219Y0124965D01*
X0183217Y0124804D01*
X0183211Y0124644D01*
X0183201Y0124483D01*
X0183187Y0124323D01*
X0183169Y0124163D01*
X0183148Y0124004D01*
X0183122Y0123845D01*
X0183092Y0123687D01*
X0183059Y0123530D01*
X0183021Y0123373D01*
X0182980Y0123218D01*
X0182935Y0123064D01*
X0182886Y0122911D01*
X0182833Y0122759D01*
X0182777Y0122608D01*
X0182716Y0122459D01*
X0182653Y0122311D01*
X0182585Y0122165D01*
X0182514Y0122021D01*
X0182440Y0121879D01*
X0182362Y0121738D01*
X0182280Y0121600D01*
X0182195Y0121463D01*
X0182107Y0121329D01*
X0182015Y0121197D01*
X0181920Y0121067D01*
X0181822Y0120939D01*
X0181721Y0120814D01*
X0181617Y0120692D01*
X0181510Y0120572D01*
X0181400Y0120455D01*
X0181287Y0120340D01*
X0181171Y0120229D01*
X0181052Y0120120D01*
X0180931Y0120015D01*
X0180807Y0119912D01*
X0180681Y0119812D01*
X0180553Y0119716D01*
X0180422Y0119623D01*
X0180288Y0119533D01*
X0180153Y0119446D01*
X0180015Y0119363D01*
X0179876Y0119283D01*
X0179734Y0119207D01*
X0179591Y0119134D01*
X0179446Y0119065D01*
X0179299Y0118999D01*
X0179151Y0118937D01*
X0179001Y0118879D01*
X0178850Y0118824D01*
X0178697Y0118773D01*
X0178543Y0118726D01*
X0178388Y0118683D01*
X0178232Y0118644D01*
X0178076Y0118608D01*
X0177918Y0118577D01*
X0177760Y0118549D01*
X0177601Y0118525D01*
X0177441Y0118505D01*
X0177281Y0118489D01*
X0177121Y0118477D01*
X0176960Y0118469D01*
X0176799Y0118465D01*
X0176639Y0118465D01*
X0176478Y0118469D01*
X0176317Y0118477D01*
X0176157Y0118489D01*
X0175997Y0118505D01*
X0175837Y0118525D01*
X0175678Y0118549D01*
X0175520Y0118577D01*
X0175362Y0118608D01*
X0175206Y0118644D01*
X0175050Y0118683D01*
X0174895Y0118726D01*
X0174741Y0118773D01*
X0174588Y0118824D01*
X0174437Y0118879D01*
X0174287Y0118937D01*
X0174139Y0118999D01*
X0173992Y0119065D01*
X0173847Y0119134D01*
X0173704Y0119207D01*
X0173562Y0119283D01*
X0173423Y0119363D01*
X0173285Y0119446D01*
X0173150Y0119533D01*
X0173016Y0119623D01*
X0172885Y0119716D01*
X0172757Y0119812D01*
X0172631Y0119912D01*
X0172507Y0120015D01*
X0172386Y0120120D01*
X0172267Y0120229D01*
X0172151Y0120340D01*
X0172038Y0120455D01*
X0171928Y0120572D01*
X0171821Y0120692D01*
X0171717Y0120814D01*
X0171616Y0120939D01*
X0171518Y0121067D01*
X0171423Y0121197D01*
X0171331Y0121329D01*
X0171243Y0121463D01*
X0171158Y0121600D01*
X0171076Y0121738D01*
X0170998Y0121879D01*
X0170924Y0122021D01*
X0170853Y0122165D01*
X0170785Y0122311D01*
X0170722Y0122459D01*
X0170661Y0122608D01*
X0170605Y0122759D01*
X0170552Y0122911D01*
X0170503Y0123064D01*
X0170458Y0123218D01*
X0170417Y0123373D01*
X0170379Y0123530D01*
X0170346Y0123687D01*
X0170316Y0123845D01*
X0170290Y0124004D01*
X0170269Y0124163D01*
X0170251Y0124323D01*
X0170237Y0124483D01*
X0170227Y0124644D01*
X0170221Y0124804D01*
X0170219Y0124965D01*
X0138014Y0124965D02*
X0138016Y0125126D01*
X0138022Y0125286D01*
X0138032Y0125447D01*
X0138046Y0125607D01*
X0138064Y0125767D01*
X0138085Y0125926D01*
X0138111Y0126085D01*
X0138141Y0126243D01*
X0138174Y0126400D01*
X0138212Y0126557D01*
X0138253Y0126712D01*
X0138298Y0126866D01*
X0138347Y0127019D01*
X0138400Y0127171D01*
X0138456Y0127322D01*
X0138517Y0127471D01*
X0138580Y0127619D01*
X0138648Y0127765D01*
X0138719Y0127909D01*
X0138793Y0128051D01*
X0138871Y0128192D01*
X0138953Y0128330D01*
X0139038Y0128467D01*
X0139126Y0128601D01*
X0139218Y0128733D01*
X0139313Y0128863D01*
X0139411Y0128991D01*
X0139512Y0129116D01*
X0139616Y0129238D01*
X0139723Y0129358D01*
X0139833Y0129475D01*
X0139946Y0129590D01*
X0140062Y0129701D01*
X0140181Y0129810D01*
X0140302Y0129915D01*
X0140426Y0130018D01*
X0140552Y0130118D01*
X0140680Y0130214D01*
X0140811Y0130307D01*
X0140945Y0130397D01*
X0141080Y0130484D01*
X0141218Y0130567D01*
X0141357Y0130647D01*
X0141499Y0130723D01*
X0141642Y0130796D01*
X0141787Y0130865D01*
X0141934Y0130931D01*
X0142082Y0130993D01*
X0142232Y0131051D01*
X0142383Y0131106D01*
X0142536Y0131157D01*
X0142690Y0131204D01*
X0142845Y0131247D01*
X0143001Y0131286D01*
X0143157Y0131322D01*
X0143315Y0131353D01*
X0143473Y0131381D01*
X0143632Y0131405D01*
X0143792Y0131425D01*
X0143952Y0131441D01*
X0144112Y0131453D01*
X0144273Y0131461D01*
X0144434Y0131465D01*
X0144594Y0131465D01*
X0144755Y0131461D01*
X0144916Y0131453D01*
X0145076Y0131441D01*
X0145236Y0131425D01*
X0145396Y0131405D01*
X0145555Y0131381D01*
X0145713Y0131353D01*
X0145871Y0131322D01*
X0146027Y0131286D01*
X0146183Y0131247D01*
X0146338Y0131204D01*
X0146492Y0131157D01*
X0146645Y0131106D01*
X0146796Y0131051D01*
X0146946Y0130993D01*
X0147094Y0130931D01*
X0147241Y0130865D01*
X0147386Y0130796D01*
X0147529Y0130723D01*
X0147671Y0130647D01*
X0147810Y0130567D01*
X0147948Y0130484D01*
X0148083Y0130397D01*
X0148217Y0130307D01*
X0148348Y0130214D01*
X0148476Y0130118D01*
X0148602Y0130018D01*
X0148726Y0129915D01*
X0148847Y0129810D01*
X0148966Y0129701D01*
X0149082Y0129590D01*
X0149195Y0129475D01*
X0149305Y0129358D01*
X0149412Y0129238D01*
X0149516Y0129116D01*
X0149617Y0128991D01*
X0149715Y0128863D01*
X0149810Y0128733D01*
X0149902Y0128601D01*
X0149990Y0128467D01*
X0150075Y0128330D01*
X0150157Y0128192D01*
X0150235Y0128051D01*
X0150309Y0127909D01*
X0150380Y0127765D01*
X0150448Y0127619D01*
X0150511Y0127471D01*
X0150572Y0127322D01*
X0150628Y0127171D01*
X0150681Y0127019D01*
X0150730Y0126866D01*
X0150775Y0126712D01*
X0150816Y0126557D01*
X0150854Y0126400D01*
X0150887Y0126243D01*
X0150917Y0126085D01*
X0150943Y0125926D01*
X0150964Y0125767D01*
X0150982Y0125607D01*
X0150996Y0125447D01*
X0151006Y0125286D01*
X0151012Y0125126D01*
X0151014Y0124965D01*
X0151012Y0124804D01*
X0151006Y0124644D01*
X0150996Y0124483D01*
X0150982Y0124323D01*
X0150964Y0124163D01*
X0150943Y0124004D01*
X0150917Y0123845D01*
X0150887Y0123687D01*
X0150854Y0123530D01*
X0150816Y0123373D01*
X0150775Y0123218D01*
X0150730Y0123064D01*
X0150681Y0122911D01*
X0150628Y0122759D01*
X0150572Y0122608D01*
X0150511Y0122459D01*
X0150448Y0122311D01*
X0150380Y0122165D01*
X0150309Y0122021D01*
X0150235Y0121879D01*
X0150157Y0121738D01*
X0150075Y0121600D01*
X0149990Y0121463D01*
X0149902Y0121329D01*
X0149810Y0121197D01*
X0149715Y0121067D01*
X0149617Y0120939D01*
X0149516Y0120814D01*
X0149412Y0120692D01*
X0149305Y0120572D01*
X0149195Y0120455D01*
X0149082Y0120340D01*
X0148966Y0120229D01*
X0148847Y0120120D01*
X0148726Y0120015D01*
X0148602Y0119912D01*
X0148476Y0119812D01*
X0148348Y0119716D01*
X0148217Y0119623D01*
X0148083Y0119533D01*
X0147948Y0119446D01*
X0147810Y0119363D01*
X0147671Y0119283D01*
X0147529Y0119207D01*
X0147386Y0119134D01*
X0147241Y0119065D01*
X0147094Y0118999D01*
X0146946Y0118937D01*
X0146796Y0118879D01*
X0146645Y0118824D01*
X0146492Y0118773D01*
X0146338Y0118726D01*
X0146183Y0118683D01*
X0146027Y0118644D01*
X0145871Y0118608D01*
X0145713Y0118577D01*
X0145555Y0118549D01*
X0145396Y0118525D01*
X0145236Y0118505D01*
X0145076Y0118489D01*
X0144916Y0118477D01*
X0144755Y0118469D01*
X0144594Y0118465D01*
X0144434Y0118465D01*
X0144273Y0118469D01*
X0144112Y0118477D01*
X0143952Y0118489D01*
X0143792Y0118505D01*
X0143632Y0118525D01*
X0143473Y0118549D01*
X0143315Y0118577D01*
X0143157Y0118608D01*
X0143001Y0118644D01*
X0142845Y0118683D01*
X0142690Y0118726D01*
X0142536Y0118773D01*
X0142383Y0118824D01*
X0142232Y0118879D01*
X0142082Y0118937D01*
X0141934Y0118999D01*
X0141787Y0119065D01*
X0141642Y0119134D01*
X0141499Y0119207D01*
X0141357Y0119283D01*
X0141218Y0119363D01*
X0141080Y0119446D01*
X0140945Y0119533D01*
X0140811Y0119623D01*
X0140680Y0119716D01*
X0140552Y0119812D01*
X0140426Y0119912D01*
X0140302Y0120015D01*
X0140181Y0120120D01*
X0140062Y0120229D01*
X0139946Y0120340D01*
X0139833Y0120455D01*
X0139723Y0120572D01*
X0139616Y0120692D01*
X0139512Y0120814D01*
X0139411Y0120939D01*
X0139313Y0121067D01*
X0139218Y0121197D01*
X0139126Y0121329D01*
X0139038Y0121463D01*
X0138953Y0121600D01*
X0138871Y0121738D01*
X0138793Y0121879D01*
X0138719Y0122021D01*
X0138648Y0122165D01*
X0138580Y0122311D01*
X0138517Y0122459D01*
X0138456Y0122608D01*
X0138400Y0122759D01*
X0138347Y0122911D01*
X0138298Y0123064D01*
X0138253Y0123218D01*
X0138212Y0123373D01*
X0138174Y0123530D01*
X0138141Y0123687D01*
X0138111Y0123845D01*
X0138085Y0124004D01*
X0138064Y0124163D01*
X0138046Y0124323D01*
X0138032Y0124483D01*
X0138022Y0124644D01*
X0138016Y0124804D01*
X0138014Y0124965D01*
X0058014Y0124965D02*
X0058016Y0125126D01*
X0058022Y0125286D01*
X0058032Y0125447D01*
X0058046Y0125607D01*
X0058064Y0125767D01*
X0058085Y0125926D01*
X0058111Y0126085D01*
X0058141Y0126243D01*
X0058174Y0126400D01*
X0058212Y0126557D01*
X0058253Y0126712D01*
X0058298Y0126866D01*
X0058347Y0127019D01*
X0058400Y0127171D01*
X0058456Y0127322D01*
X0058517Y0127471D01*
X0058580Y0127619D01*
X0058648Y0127765D01*
X0058719Y0127909D01*
X0058793Y0128051D01*
X0058871Y0128192D01*
X0058953Y0128330D01*
X0059038Y0128467D01*
X0059126Y0128601D01*
X0059218Y0128733D01*
X0059313Y0128863D01*
X0059411Y0128991D01*
X0059512Y0129116D01*
X0059616Y0129238D01*
X0059723Y0129358D01*
X0059833Y0129475D01*
X0059946Y0129590D01*
X0060062Y0129701D01*
X0060181Y0129810D01*
X0060302Y0129915D01*
X0060426Y0130018D01*
X0060552Y0130118D01*
X0060680Y0130214D01*
X0060811Y0130307D01*
X0060945Y0130397D01*
X0061080Y0130484D01*
X0061218Y0130567D01*
X0061357Y0130647D01*
X0061499Y0130723D01*
X0061642Y0130796D01*
X0061787Y0130865D01*
X0061934Y0130931D01*
X0062082Y0130993D01*
X0062232Y0131051D01*
X0062383Y0131106D01*
X0062536Y0131157D01*
X0062690Y0131204D01*
X0062845Y0131247D01*
X0063001Y0131286D01*
X0063157Y0131322D01*
X0063315Y0131353D01*
X0063473Y0131381D01*
X0063632Y0131405D01*
X0063792Y0131425D01*
X0063952Y0131441D01*
X0064112Y0131453D01*
X0064273Y0131461D01*
X0064434Y0131465D01*
X0064594Y0131465D01*
X0064755Y0131461D01*
X0064916Y0131453D01*
X0065076Y0131441D01*
X0065236Y0131425D01*
X0065396Y0131405D01*
X0065555Y0131381D01*
X0065713Y0131353D01*
X0065871Y0131322D01*
X0066027Y0131286D01*
X0066183Y0131247D01*
X0066338Y0131204D01*
X0066492Y0131157D01*
X0066645Y0131106D01*
X0066796Y0131051D01*
X0066946Y0130993D01*
X0067094Y0130931D01*
X0067241Y0130865D01*
X0067386Y0130796D01*
X0067529Y0130723D01*
X0067671Y0130647D01*
X0067810Y0130567D01*
X0067948Y0130484D01*
X0068083Y0130397D01*
X0068217Y0130307D01*
X0068348Y0130214D01*
X0068476Y0130118D01*
X0068602Y0130018D01*
X0068726Y0129915D01*
X0068847Y0129810D01*
X0068966Y0129701D01*
X0069082Y0129590D01*
X0069195Y0129475D01*
X0069305Y0129358D01*
X0069412Y0129238D01*
X0069516Y0129116D01*
X0069617Y0128991D01*
X0069715Y0128863D01*
X0069810Y0128733D01*
X0069902Y0128601D01*
X0069990Y0128467D01*
X0070075Y0128330D01*
X0070157Y0128192D01*
X0070235Y0128051D01*
X0070309Y0127909D01*
X0070380Y0127765D01*
X0070448Y0127619D01*
X0070511Y0127471D01*
X0070572Y0127322D01*
X0070628Y0127171D01*
X0070681Y0127019D01*
X0070730Y0126866D01*
X0070775Y0126712D01*
X0070816Y0126557D01*
X0070854Y0126400D01*
X0070887Y0126243D01*
X0070917Y0126085D01*
X0070943Y0125926D01*
X0070964Y0125767D01*
X0070982Y0125607D01*
X0070996Y0125447D01*
X0071006Y0125286D01*
X0071012Y0125126D01*
X0071014Y0124965D01*
X0071012Y0124804D01*
X0071006Y0124644D01*
X0070996Y0124483D01*
X0070982Y0124323D01*
X0070964Y0124163D01*
X0070943Y0124004D01*
X0070917Y0123845D01*
X0070887Y0123687D01*
X0070854Y0123530D01*
X0070816Y0123373D01*
X0070775Y0123218D01*
X0070730Y0123064D01*
X0070681Y0122911D01*
X0070628Y0122759D01*
X0070572Y0122608D01*
X0070511Y0122459D01*
X0070448Y0122311D01*
X0070380Y0122165D01*
X0070309Y0122021D01*
X0070235Y0121879D01*
X0070157Y0121738D01*
X0070075Y0121600D01*
X0069990Y0121463D01*
X0069902Y0121329D01*
X0069810Y0121197D01*
X0069715Y0121067D01*
X0069617Y0120939D01*
X0069516Y0120814D01*
X0069412Y0120692D01*
X0069305Y0120572D01*
X0069195Y0120455D01*
X0069082Y0120340D01*
X0068966Y0120229D01*
X0068847Y0120120D01*
X0068726Y0120015D01*
X0068602Y0119912D01*
X0068476Y0119812D01*
X0068348Y0119716D01*
X0068217Y0119623D01*
X0068083Y0119533D01*
X0067948Y0119446D01*
X0067810Y0119363D01*
X0067671Y0119283D01*
X0067529Y0119207D01*
X0067386Y0119134D01*
X0067241Y0119065D01*
X0067094Y0118999D01*
X0066946Y0118937D01*
X0066796Y0118879D01*
X0066645Y0118824D01*
X0066492Y0118773D01*
X0066338Y0118726D01*
X0066183Y0118683D01*
X0066027Y0118644D01*
X0065871Y0118608D01*
X0065713Y0118577D01*
X0065555Y0118549D01*
X0065396Y0118525D01*
X0065236Y0118505D01*
X0065076Y0118489D01*
X0064916Y0118477D01*
X0064755Y0118469D01*
X0064594Y0118465D01*
X0064434Y0118465D01*
X0064273Y0118469D01*
X0064112Y0118477D01*
X0063952Y0118489D01*
X0063792Y0118505D01*
X0063632Y0118525D01*
X0063473Y0118549D01*
X0063315Y0118577D01*
X0063157Y0118608D01*
X0063001Y0118644D01*
X0062845Y0118683D01*
X0062690Y0118726D01*
X0062536Y0118773D01*
X0062383Y0118824D01*
X0062232Y0118879D01*
X0062082Y0118937D01*
X0061934Y0118999D01*
X0061787Y0119065D01*
X0061642Y0119134D01*
X0061499Y0119207D01*
X0061357Y0119283D01*
X0061218Y0119363D01*
X0061080Y0119446D01*
X0060945Y0119533D01*
X0060811Y0119623D01*
X0060680Y0119716D01*
X0060552Y0119812D01*
X0060426Y0119912D01*
X0060302Y0120015D01*
X0060181Y0120120D01*
X0060062Y0120229D01*
X0059946Y0120340D01*
X0059833Y0120455D01*
X0059723Y0120572D01*
X0059616Y0120692D01*
X0059512Y0120814D01*
X0059411Y0120939D01*
X0059313Y0121067D01*
X0059218Y0121197D01*
X0059126Y0121329D01*
X0059038Y0121463D01*
X0058953Y0121600D01*
X0058871Y0121738D01*
X0058793Y0121879D01*
X0058719Y0122021D01*
X0058648Y0122165D01*
X0058580Y0122311D01*
X0058517Y0122459D01*
X0058456Y0122608D01*
X0058400Y0122759D01*
X0058347Y0122911D01*
X0058298Y0123064D01*
X0058253Y0123218D01*
X0058212Y0123373D01*
X0058174Y0123530D01*
X0058141Y0123687D01*
X0058111Y0123845D01*
X0058085Y0124004D01*
X0058064Y0124163D01*
X0058046Y0124323D01*
X0058032Y0124483D01*
X0058022Y0124644D01*
X0058016Y0124804D01*
X0058014Y0124965D01*
M02*
