%
M48
M72
T01C0.0150
T02C0.0400
T03C0.1300
%
T01
X8951Y6496
X9801Y6246
X9951Y7496
X9451Y7496
X8201Y8246
X8201Y9296
X6451Y8496
X10951Y7496
X12451Y7496
X11476Y9021
X13451Y10496
X14451Y8996
X14451Y8496
X12451Y5996
X17672Y8496
X19422Y8246
X19422Y9296
X20672Y7496
X21172Y7496
X22172Y7496
X23672Y7496
X22697Y9021
X24672Y10496
X25672Y8996
X25672Y8496
X23672Y5996
X21022Y6246
X20172Y6496
X28892Y8496
X30642Y8246
X31892Y7496
X32392Y7496
X33392Y7496
X34892Y7496
X33917Y9021
X35892Y10496
X36892Y8996
X36892Y8496
X34892Y5996
X32242Y6246
X31392Y6496
X30642Y9296
X40113Y8496
X41863Y8246
X43113Y7496
X43613Y7496
X44613Y7496
X46113Y7496
X45138Y9021
X47113Y10496
X48113Y8996
X48113Y8496
X46113Y5996
X43463Y6246
X42613Y6496
X41863Y9296
X46113Y17217
X46113Y18717
X44613Y18717
X43613Y18717
X43113Y18717
X42613Y17717
X43463Y17467
X41863Y19467
X41863Y20517
X40113Y19717
X36892Y19717
X36892Y20217
X35892Y21717
X33917Y20242
X33392Y18717
X32392Y18717
X31892Y18717
X31392Y17717
X32242Y17467
X30642Y19467
X30642Y20517
X28892Y19717
X25672Y19717
X25672Y20217
X24672Y21717
X22697Y20242
X22172Y18717
X21172Y18717
X20672Y18717
X20172Y17717
X21022Y17467
X19422Y19467
X19422Y20517
X17672Y19717
X14451Y19717
X14451Y20217
X13451Y21717
X11476Y20242
X10951Y18717
X9951Y18717
X9451Y18717
X8951Y17717
X9801Y17467
X8201Y19467
X8201Y20517
X6451Y19717
X12451Y18717
X12451Y17217
X23672Y17217
X23672Y18717
X34892Y18717
X34892Y17217
X45138Y20242
X47113Y21717
X48113Y20217
X48113Y19717
X46113Y28437
X46113Y29937
X44613Y29937
X43613Y29937
X43113Y29937
X41863Y30687
X41863Y31737
X40113Y30937
X42613Y28937
X43463Y28687
X45138Y31462
X47113Y32937
X48113Y31437
X48113Y30937
X36892Y30937
X36892Y31437
X35892Y32937
X33917Y31462
X33392Y29937
X32392Y29937
X31892Y29937
X30642Y30687
X30642Y31737
X28892Y30937
X31392Y28937
X32242Y28687
X34892Y28437
X34892Y29937
X25672Y30937
X25672Y31437
X24672Y32937
X22697Y31462
X22172Y29937
X21172Y29937
X20672Y29937
X20172Y28937
X21022Y28687
X19422Y30687
X19422Y31737
X17672Y30937
X14451Y30937
X14451Y31437
X13451Y32937
X11476Y31462
X10951Y29937
X9951Y29937
X9451Y29937
X8201Y30687
X8201Y31737
X6451Y30937
X8951Y28937
X9801Y28687
X12451Y28437
X12451Y29937
X23672Y29937
X23672Y28437
T02
X7951Y3996
X8951Y3996
X9951Y3996
X10951Y3996
X11951Y3996
X12951Y3996
X19172Y3996
X20172Y3996
X21172Y3996
X22172Y3996
X23172Y3996
X24172Y3996
X30392Y3996
X31392Y3996
X32392Y3996
X33392Y3996
X34392Y3996
X35392Y3996
X41613Y3996
X42613Y3996
X43613Y3996
X44613Y3996
X45613Y3996
X46613Y3996
X46613Y15217
X45613Y15217
X44613Y15217
X43613Y15217
X42613Y15217
X41613Y15217
X35392Y15217
X34392Y15217
X33392Y15217
X32392Y15217
X31392Y15217
X30392Y15217
X24172Y15217
X23172Y15217
X22172Y15217
X21172Y15217
X20172Y15217
X19172Y15217
X12951Y15217
X11951Y15217
X10951Y15217
X9951Y15217
X8951Y15217
X7951Y15217
X7951Y26437
X8951Y26437
X9951Y26437
X10951Y26437
X11951Y26437
X12951Y26437
X19172Y26437
X20172Y26437
X21172Y26437
X22172Y26437
X23172Y26437
X24172Y26437
X30392Y26437
X31392Y26437
X32392Y26437
X33392Y26437
X34392Y26437
X35392Y26437
X41613Y26437
X42613Y26437
X43613Y26437
X44613Y26437
X45613Y26437
X46613Y26437
T03
X48113Y23717
X40113Y23717
X36892Y23717
X28892Y23717
X25672Y23717
X17672Y23717
X14451Y23717
X6451Y23717
X6451Y34937
X14451Y34937
X17672Y34937
X25672Y34937
X28892Y34937
X36892Y34937
X40113Y34937
X48113Y34937
X48113Y12496
X40113Y12496
X36892Y12496
X28892Y12496
X25672Y12496
X17672Y12496
X14451Y12496
X6451Y12496
M30
