G75*
%MOIN*%
%OFA0B0*%
%FSLAX25Y25*%
%IPPOS*%
%LPD*%
%AMOC8*
5,1,8,0,0,1.08239X$1,22.5*
%
%ADD10R,0.02500X0.05000*%
%ADD11C,0.07400*%
%ADD12C,0.02900*%
%ADD13C,0.00700*%
%ADD14C,0.01000*%
D10*
X0102743Y0062465D03*
X0106286Y0062465D03*
X0214948Y0062465D03*
X0218491Y0062465D03*
X0327152Y0062465D03*
X0330696Y0062465D03*
X0439357Y0062465D03*
X0442900Y0062465D03*
X0442900Y0174669D03*
X0439357Y0174669D03*
X0330696Y0174669D03*
X0327152Y0174669D03*
X0218491Y0174669D03*
X0214948Y0174669D03*
X0106286Y0174669D03*
X0102743Y0174669D03*
X0102743Y0286874D03*
X0106286Y0286874D03*
X0214948Y0286874D03*
X0218491Y0286874D03*
X0327152Y0286874D03*
X0330696Y0286874D03*
X0439357Y0286874D03*
X0442900Y0286874D03*
D11*
X0446129Y0264374D03*
X0456129Y0264374D03*
X0466129Y0264374D03*
X0436129Y0264374D03*
X0426129Y0264374D03*
X0416129Y0264374D03*
X0353924Y0264374D03*
X0343924Y0264374D03*
X0333924Y0264374D03*
X0323924Y0264374D03*
X0313924Y0264374D03*
X0303924Y0264374D03*
X0241719Y0264374D03*
X0231719Y0264374D03*
X0221719Y0264374D03*
X0211719Y0264374D03*
X0201719Y0264374D03*
X0191719Y0264374D03*
X0129514Y0264374D03*
X0119514Y0264374D03*
X0109514Y0264374D03*
X0099514Y0264374D03*
X0089514Y0264374D03*
X0079514Y0264374D03*
X0079514Y0152169D03*
X0089514Y0152169D03*
X0099514Y0152169D03*
X0109514Y0152169D03*
X0119514Y0152169D03*
X0129514Y0152169D03*
X0191719Y0152169D03*
X0201719Y0152169D03*
X0211719Y0152169D03*
X0221719Y0152169D03*
X0231719Y0152169D03*
X0241719Y0152169D03*
X0303924Y0152169D03*
X0313924Y0152169D03*
X0323924Y0152169D03*
X0333924Y0152169D03*
X0343924Y0152169D03*
X0353924Y0152169D03*
X0416129Y0152169D03*
X0426129Y0152169D03*
X0436129Y0152169D03*
X0446129Y0152169D03*
X0456129Y0152169D03*
X0466129Y0152169D03*
X0466129Y0039965D03*
X0456129Y0039965D03*
X0446129Y0039965D03*
X0436129Y0039965D03*
X0426129Y0039965D03*
X0416129Y0039965D03*
X0353924Y0039965D03*
X0343924Y0039965D03*
X0333924Y0039965D03*
X0323924Y0039965D03*
X0313924Y0039965D03*
X0303924Y0039965D03*
X0241719Y0039965D03*
X0231719Y0039965D03*
X0221719Y0039965D03*
X0211719Y0039965D03*
X0201719Y0039965D03*
X0191719Y0039965D03*
X0129514Y0039965D03*
X0119514Y0039965D03*
X0109514Y0039965D03*
X0099514Y0039965D03*
X0089514Y0039965D03*
X0079514Y0039965D03*
D12*
X0098014Y0062465D03*
X0089514Y0064965D03*
X0094514Y0074965D03*
X0099514Y0074965D03*
X0109514Y0074965D03*
X0124514Y0074965D03*
X0114764Y0090215D03*
X0134514Y0104965D03*
X0144514Y0089965D03*
X0144514Y0084965D03*
X0124514Y0059965D03*
X0082014Y0082465D03*
X0082014Y0092965D03*
X0064514Y0084965D03*
X0176719Y0084965D03*
X0194219Y0082465D03*
X0194219Y0092965D03*
X0206719Y0074965D03*
X0211719Y0074965D03*
X0221719Y0074965D03*
X0236719Y0074965D03*
X0226969Y0090215D03*
X0246719Y0104965D03*
X0256719Y0089965D03*
X0256719Y0084965D03*
X0236719Y0059965D03*
X0210219Y0062465D03*
X0201719Y0064965D03*
X0288924Y0084965D03*
X0306424Y0082465D03*
X0318924Y0074965D03*
X0323924Y0074965D03*
X0333924Y0074965D03*
X0348924Y0074965D03*
X0339174Y0090215D03*
X0358924Y0104965D03*
X0368924Y0089965D03*
X0368924Y0084965D03*
X0348924Y0059965D03*
X0322424Y0062465D03*
X0313924Y0064965D03*
X0306424Y0092965D03*
X0401129Y0084965D03*
X0418629Y0082465D03*
X0431129Y0074965D03*
X0436129Y0074965D03*
X0446129Y0074965D03*
X0461129Y0074965D03*
X0451379Y0090215D03*
X0471129Y0104965D03*
X0481129Y0089965D03*
X0481129Y0084965D03*
X0461129Y0059965D03*
X0434629Y0062465D03*
X0426129Y0064965D03*
X0418629Y0092965D03*
X0461129Y0172169D03*
X0461129Y0187169D03*
X0446129Y0187169D03*
X0436129Y0187169D03*
X0431129Y0187169D03*
X0426129Y0177169D03*
X0434629Y0174669D03*
X0418629Y0194669D03*
X0418629Y0205169D03*
X0401129Y0197169D03*
X0368924Y0197169D03*
X0368924Y0202169D03*
X0358924Y0217169D03*
X0339174Y0202419D03*
X0333924Y0187169D03*
X0323924Y0187169D03*
X0318924Y0187169D03*
X0313924Y0177169D03*
X0322424Y0174669D03*
X0306424Y0194669D03*
X0306424Y0205169D03*
X0288924Y0197169D03*
X0256719Y0197169D03*
X0256719Y0202169D03*
X0246719Y0217169D03*
X0226969Y0202419D03*
X0221719Y0187169D03*
X0211719Y0187169D03*
X0206719Y0187169D03*
X0201719Y0177169D03*
X0210219Y0174669D03*
X0194219Y0194669D03*
X0194219Y0205169D03*
X0176719Y0197169D03*
X0144514Y0197169D03*
X0144514Y0202169D03*
X0134514Y0217169D03*
X0114764Y0202419D03*
X0109514Y0187169D03*
X0099514Y0187169D03*
X0094514Y0187169D03*
X0089514Y0177169D03*
X0098014Y0174669D03*
X0082014Y0194669D03*
X0082014Y0205169D03*
X0064514Y0197169D03*
X0124514Y0187169D03*
X0124514Y0172169D03*
X0236719Y0172169D03*
X0236719Y0187169D03*
X0348924Y0187169D03*
X0348924Y0172169D03*
X0451379Y0202419D03*
X0471129Y0217169D03*
X0481129Y0202169D03*
X0481129Y0197169D03*
X0461129Y0284374D03*
X0461129Y0299374D03*
X0446129Y0299374D03*
X0436129Y0299374D03*
X0431129Y0299374D03*
X0418629Y0306874D03*
X0418629Y0317374D03*
X0401129Y0309374D03*
X0426129Y0289374D03*
X0434629Y0286874D03*
X0451379Y0314624D03*
X0471129Y0329374D03*
X0481129Y0314374D03*
X0481129Y0309374D03*
X0368924Y0309374D03*
X0368924Y0314374D03*
X0358924Y0329374D03*
X0339174Y0314624D03*
X0333924Y0299374D03*
X0323924Y0299374D03*
X0318924Y0299374D03*
X0306424Y0306874D03*
X0306424Y0317374D03*
X0288924Y0309374D03*
X0313924Y0289374D03*
X0322424Y0286874D03*
X0348924Y0284374D03*
X0348924Y0299374D03*
X0256719Y0309374D03*
X0256719Y0314374D03*
X0246719Y0329374D03*
X0226969Y0314624D03*
X0221719Y0299374D03*
X0211719Y0299374D03*
X0206719Y0299374D03*
X0201719Y0289374D03*
X0210219Y0286874D03*
X0194219Y0306874D03*
X0194219Y0317374D03*
X0176719Y0309374D03*
X0144514Y0309374D03*
X0144514Y0314374D03*
X0134514Y0329374D03*
X0114764Y0314624D03*
X0109514Y0299374D03*
X0099514Y0299374D03*
X0094514Y0299374D03*
X0082014Y0306874D03*
X0082014Y0317374D03*
X0064514Y0309374D03*
X0089514Y0289374D03*
X0098014Y0286874D03*
X0124514Y0284374D03*
X0124514Y0299374D03*
X0236719Y0299374D03*
X0236719Y0284374D03*
D13*
X0251719Y0294374D02*
X0211719Y0294374D01*
X0211719Y0299374D01*
X0211719Y0294374D02*
X0196719Y0294374D01*
X0196719Y0284374D01*
X0211719Y0269374D01*
X0211719Y0264374D01*
X0221719Y0264374D02*
X0221719Y0269374D01*
X0206719Y0284374D01*
X0206719Y0289374D01*
X0201719Y0289374D01*
X0206719Y0289374D02*
X0208719Y0291374D01*
X0258719Y0291374D01*
X0261719Y0294374D01*
X0261719Y0309374D01*
X0256719Y0314374D01*
X0256719Y0309374D02*
X0256719Y0299374D01*
X0251719Y0294374D01*
X0221719Y0299374D02*
X0221719Y0309374D01*
X0226969Y0314624D01*
X0196719Y0294374D02*
X0181719Y0294374D01*
X0176719Y0299374D01*
X0176719Y0309374D01*
X0149514Y0309374D02*
X0149514Y0294374D01*
X0146514Y0291374D01*
X0096514Y0291374D01*
X0094514Y0289374D01*
X0094514Y0284374D01*
X0109514Y0269374D01*
X0109514Y0264374D01*
X0099514Y0264374D02*
X0099514Y0269374D01*
X0084514Y0284374D01*
X0084514Y0294374D01*
X0069514Y0294374D01*
X0064514Y0299374D01*
X0064514Y0309374D01*
X0084514Y0294374D02*
X0099514Y0294374D01*
X0099514Y0299374D01*
X0099514Y0294374D02*
X0139514Y0294374D01*
X0144514Y0299374D01*
X0144514Y0309374D01*
X0144514Y0314374D02*
X0149514Y0309374D01*
X0114764Y0314624D02*
X0109514Y0309374D01*
X0109514Y0299374D01*
X0102743Y0286874D02*
X0098014Y0286874D01*
X0094514Y0289374D02*
X0089514Y0289374D01*
X0114764Y0202419D02*
X0109514Y0197169D01*
X0109514Y0187169D01*
X0099514Y0187169D02*
X0099514Y0182169D01*
X0084514Y0182169D01*
X0084514Y0172169D01*
X0099514Y0157169D01*
X0099514Y0152169D01*
X0109514Y0152169D02*
X0109514Y0157169D01*
X0094514Y0172169D01*
X0094514Y0177169D01*
X0089514Y0177169D01*
X0094514Y0177169D02*
X0096514Y0179169D01*
X0146514Y0179169D01*
X0149514Y0182169D01*
X0149514Y0197169D01*
X0144514Y0202169D01*
X0144514Y0197169D02*
X0144514Y0187169D01*
X0139514Y0182169D01*
X0099514Y0182169D01*
X0098014Y0174669D02*
X0102743Y0174669D01*
X0084514Y0182169D02*
X0069514Y0182169D01*
X0064514Y0187169D01*
X0064514Y0197169D01*
X0176719Y0197169D02*
X0176719Y0187169D01*
X0181719Y0182169D01*
X0196719Y0182169D01*
X0196719Y0172169D01*
X0211719Y0157169D01*
X0211719Y0152169D01*
X0221719Y0152169D02*
X0221719Y0157169D01*
X0206719Y0172169D01*
X0206719Y0177169D01*
X0201719Y0177169D01*
X0206719Y0177169D02*
X0208719Y0179169D01*
X0258719Y0179169D01*
X0261719Y0182169D01*
X0261719Y0197169D01*
X0256719Y0202169D01*
X0256719Y0197169D02*
X0256719Y0187169D01*
X0251719Y0182169D01*
X0211719Y0182169D01*
X0211719Y0187169D01*
X0211719Y0182169D02*
X0196719Y0182169D01*
X0210219Y0174669D02*
X0214948Y0174669D01*
X0221719Y0187169D02*
X0221719Y0197169D01*
X0226969Y0202419D01*
X0288924Y0197169D02*
X0288924Y0187169D01*
X0293924Y0182169D01*
X0308924Y0182169D01*
X0308924Y0172169D01*
X0323924Y0157169D01*
X0323924Y0152169D01*
X0333924Y0152169D02*
X0333924Y0157169D01*
X0318924Y0172169D01*
X0318924Y0177169D01*
X0313924Y0177169D01*
X0318924Y0177169D02*
X0320924Y0179169D01*
X0370924Y0179169D01*
X0373924Y0182169D01*
X0373924Y0197169D01*
X0368924Y0202169D01*
X0368924Y0197169D02*
X0368924Y0187169D01*
X0363924Y0182169D01*
X0323924Y0182169D01*
X0323924Y0187169D01*
X0323924Y0182169D02*
X0308924Y0182169D01*
X0322424Y0174669D02*
X0327152Y0174669D01*
X0333924Y0187169D02*
X0333924Y0197169D01*
X0339174Y0202419D01*
X0401129Y0197169D02*
X0401129Y0187169D01*
X0406129Y0182169D01*
X0421129Y0182169D01*
X0421129Y0172169D01*
X0436129Y0157169D01*
X0436129Y0152169D01*
X0446129Y0152169D02*
X0446129Y0157169D01*
X0431129Y0172169D01*
X0431129Y0177169D01*
X0426129Y0177169D01*
X0431129Y0177169D02*
X0433129Y0179169D01*
X0483129Y0179169D01*
X0486129Y0182169D01*
X0486129Y0197169D01*
X0481129Y0202169D01*
X0481129Y0197169D02*
X0481129Y0187169D01*
X0476129Y0182169D01*
X0436129Y0182169D01*
X0436129Y0187169D01*
X0436129Y0182169D02*
X0421129Y0182169D01*
X0434629Y0174669D02*
X0439357Y0174669D01*
X0446129Y0187169D02*
X0446129Y0197169D01*
X0451379Y0202419D01*
X0446129Y0264374D02*
X0446129Y0269374D01*
X0431129Y0284374D01*
X0431129Y0289374D01*
X0426129Y0289374D01*
X0431129Y0289374D02*
X0433129Y0291374D01*
X0483129Y0291374D01*
X0486129Y0294374D01*
X0486129Y0309374D01*
X0481129Y0314374D01*
X0481129Y0309374D02*
X0481129Y0299374D01*
X0476129Y0294374D01*
X0436129Y0294374D01*
X0436129Y0299374D01*
X0436129Y0294374D02*
X0421129Y0294374D01*
X0421129Y0284374D01*
X0436129Y0269374D01*
X0436129Y0264374D01*
X0434629Y0286874D02*
X0439357Y0286874D01*
X0446129Y0299374D02*
X0446129Y0309374D01*
X0451379Y0314624D01*
X0421129Y0294374D02*
X0406129Y0294374D01*
X0401129Y0299374D01*
X0401129Y0309374D01*
X0373924Y0309374D02*
X0373924Y0294374D01*
X0370924Y0291374D01*
X0320924Y0291374D01*
X0318924Y0289374D01*
X0318924Y0284374D01*
X0333924Y0269374D01*
X0333924Y0264374D01*
X0323924Y0264374D02*
X0323924Y0269374D01*
X0308924Y0284374D01*
X0308924Y0294374D01*
X0293924Y0294374D01*
X0288924Y0299374D01*
X0288924Y0309374D01*
X0308924Y0294374D02*
X0323924Y0294374D01*
X0323924Y0299374D01*
X0323924Y0294374D02*
X0363924Y0294374D01*
X0368924Y0299374D01*
X0368924Y0309374D01*
X0368924Y0314374D02*
X0373924Y0309374D01*
X0339174Y0314624D02*
X0333924Y0309374D01*
X0333924Y0299374D01*
X0327152Y0286874D02*
X0322424Y0286874D01*
X0318924Y0289374D02*
X0313924Y0289374D01*
X0214948Y0286874D02*
X0210219Y0286874D01*
X0226969Y0090215D02*
X0221719Y0084965D01*
X0221719Y0074965D01*
X0211719Y0074965D02*
X0211719Y0069965D01*
X0196719Y0069965D01*
X0196719Y0059965D01*
X0211719Y0044965D01*
X0211719Y0039965D01*
X0221719Y0039965D02*
X0221719Y0044965D01*
X0206719Y0059965D01*
X0206719Y0064965D01*
X0201719Y0064965D01*
X0206719Y0064965D02*
X0208719Y0066965D01*
X0258719Y0066965D01*
X0261719Y0069965D01*
X0261719Y0084965D01*
X0256719Y0089965D01*
X0256719Y0084965D02*
X0256719Y0074965D01*
X0251719Y0069965D01*
X0211719Y0069965D01*
X0210219Y0062465D02*
X0214948Y0062465D01*
X0196719Y0069965D02*
X0181719Y0069965D01*
X0176719Y0074965D01*
X0176719Y0084965D01*
X0149514Y0084965D02*
X0149514Y0069965D01*
X0146514Y0066965D01*
X0096514Y0066965D01*
X0094514Y0064965D01*
X0094514Y0059965D01*
X0109514Y0044965D01*
X0109514Y0039965D01*
X0099514Y0039965D02*
X0099514Y0044965D01*
X0084514Y0059965D01*
X0084514Y0069965D01*
X0069514Y0069965D01*
X0064514Y0074965D01*
X0064514Y0084965D01*
X0084514Y0069965D02*
X0099514Y0069965D01*
X0099514Y0074965D01*
X0099514Y0069965D02*
X0139514Y0069965D01*
X0144514Y0074965D01*
X0144514Y0084965D01*
X0144514Y0089965D02*
X0149514Y0084965D01*
X0114764Y0090215D02*
X0109514Y0084965D01*
X0109514Y0074965D01*
X0094514Y0064965D02*
X0089514Y0064965D01*
X0098014Y0062465D02*
X0102743Y0062465D01*
X0288924Y0074965D02*
X0288924Y0084965D01*
X0288924Y0074965D02*
X0293924Y0069965D01*
X0308924Y0069965D01*
X0308924Y0059965D01*
X0323924Y0044965D01*
X0323924Y0039965D01*
X0333924Y0039965D02*
X0333924Y0044965D01*
X0318924Y0059965D01*
X0318924Y0064965D01*
X0313924Y0064965D01*
X0318924Y0064965D02*
X0320924Y0066965D01*
X0370924Y0066965D01*
X0373924Y0069965D01*
X0373924Y0084965D01*
X0368924Y0089965D01*
X0368924Y0084965D02*
X0368924Y0074965D01*
X0363924Y0069965D01*
X0323924Y0069965D01*
X0323924Y0074965D01*
X0323924Y0069965D02*
X0308924Y0069965D01*
X0322424Y0062465D02*
X0327152Y0062465D01*
X0333924Y0074965D02*
X0333924Y0084965D01*
X0339174Y0090215D01*
X0401129Y0084965D02*
X0401129Y0074965D01*
X0406129Y0069965D01*
X0421129Y0069965D01*
X0421129Y0059965D01*
X0436129Y0044965D01*
X0436129Y0039965D01*
X0446129Y0039965D02*
X0446129Y0044965D01*
X0431129Y0059965D01*
X0431129Y0064965D01*
X0426129Y0064965D01*
X0431129Y0064965D02*
X0433129Y0066965D01*
X0483129Y0066965D01*
X0486129Y0069965D01*
X0486129Y0084965D01*
X0481129Y0089965D01*
X0481129Y0084965D02*
X0481129Y0074965D01*
X0476129Y0069965D01*
X0436129Y0069965D01*
X0436129Y0074965D01*
X0436129Y0069965D02*
X0421129Y0069965D01*
X0434629Y0062465D02*
X0439357Y0062465D01*
X0446129Y0074965D02*
X0446129Y0084965D01*
X0451379Y0090215D01*
D14*
X0056614Y0119848D02*
X0056614Y0037065D01*
X0075194Y0037065D01*
X0075067Y0037239D01*
X0074695Y0037968D01*
X0074442Y0038747D01*
X0074329Y0039465D01*
X0079014Y0039465D01*
X0079014Y0040465D01*
X0079014Y0045150D01*
X0078297Y0045037D01*
X0077518Y0044784D01*
X0076789Y0044412D01*
X0076127Y0043931D01*
X0075548Y0043352D01*
X0075067Y0042690D01*
X0074695Y0041961D01*
X0074442Y0041182D01*
X0074329Y0040465D01*
X0079014Y0040465D01*
X0080014Y0040465D01*
X0080014Y0045150D01*
X0080732Y0045037D01*
X0081511Y0044784D01*
X0082240Y0044412D01*
X0082902Y0043931D01*
X0083481Y0043352D01*
X0083962Y0042690D01*
X0084333Y0041961D01*
X0084405Y0041740D01*
X0084937Y0043023D01*
X0086456Y0044542D01*
X0088440Y0045365D01*
X0090589Y0045365D01*
X0092573Y0044542D01*
X0094092Y0043023D01*
X0094514Y0042004D01*
X0094937Y0043023D01*
X0096456Y0044542D01*
X0096867Y0044713D01*
X0083665Y0057915D01*
X0082464Y0059115D01*
X0082464Y0067915D01*
X0068665Y0067915D01*
X0063665Y0072915D01*
X0062464Y0074115D01*
X0062464Y0082560D01*
X0061844Y0083180D01*
X0061364Y0084338D01*
X0061364Y0085591D01*
X0061844Y0086749D01*
X0062730Y0087635D01*
X0063888Y0088115D01*
X0065141Y0088115D01*
X0066299Y0087635D01*
X0067185Y0086749D01*
X0067664Y0085591D01*
X0067664Y0084338D01*
X0067185Y0083180D01*
X0066564Y0082560D01*
X0066564Y0075814D01*
X0070364Y0072015D01*
X0097464Y0072015D01*
X0097464Y0072560D01*
X0096844Y0073180D01*
X0096364Y0074338D01*
X0096364Y0075591D01*
X0096844Y0076749D01*
X0097730Y0077635D01*
X0098888Y0078115D01*
X0100141Y0078115D01*
X0101299Y0077635D01*
X0102185Y0076749D01*
X0102664Y0075591D01*
X0102664Y0074338D01*
X0102185Y0073180D01*
X0101564Y0072560D01*
X0101564Y0072015D01*
X0108405Y0072015D01*
X0107730Y0072294D01*
X0106844Y0073180D01*
X0106364Y0074338D01*
X0106364Y0075591D01*
X0106844Y0076749D01*
X0107464Y0077369D01*
X0107464Y0085814D01*
X0111614Y0089964D01*
X0111614Y0090841D01*
X0112094Y0091999D01*
X0112980Y0092885D01*
X0114138Y0093365D01*
X0115391Y0093365D01*
X0116549Y0092885D01*
X0117435Y0091999D01*
X0117914Y0090841D01*
X0117914Y0089588D01*
X0117435Y0088430D01*
X0116549Y0087544D01*
X0115391Y0087065D01*
X0114514Y0087065D01*
X0111564Y0084115D01*
X0111564Y0077369D01*
X0112185Y0076749D01*
X0112664Y0075591D01*
X0112664Y0074338D01*
X0112185Y0073180D01*
X0111299Y0072294D01*
X0110624Y0072015D01*
X0138665Y0072015D01*
X0142464Y0075814D01*
X0142464Y0082560D01*
X0141844Y0083180D01*
X0141364Y0084338D01*
X0141364Y0085591D01*
X0141844Y0086749D01*
X0142560Y0087465D01*
X0141844Y0088180D01*
X0141364Y0089338D01*
X0141364Y0090591D01*
X0141844Y0091749D01*
X0142730Y0092635D01*
X0143888Y0093115D01*
X0145141Y0093115D01*
X0146299Y0092635D01*
X0147185Y0091749D01*
X0147664Y0090591D01*
X0147664Y0089714D01*
X0150364Y0087015D01*
X0150364Y0087015D01*
X0151564Y0085814D01*
X0151564Y0069115D01*
X0148564Y0066115D01*
X0148564Y0066115D01*
X0147364Y0064915D01*
X0109036Y0064915D01*
X0109036Y0062590D01*
X0106411Y0062590D01*
X0106411Y0062340D01*
X0109036Y0062340D01*
X0109036Y0059767D01*
X0108934Y0059386D01*
X0108736Y0059044D01*
X0108457Y0058764D01*
X0108115Y0058567D01*
X0107734Y0058465D01*
X0106411Y0058465D01*
X0106411Y0062339D01*
X0106161Y0062339D01*
X0106161Y0058465D01*
X0104897Y0058465D01*
X0104697Y0058265D01*
X0100789Y0058265D01*
X0099793Y0059260D01*
X0099793Y0059792D01*
X0098641Y0059315D01*
X0098064Y0059315D01*
X0111564Y0045814D01*
X0111564Y0044960D01*
X0112573Y0044542D01*
X0114092Y0043023D01*
X0114514Y0042004D01*
X0114937Y0043023D01*
X0116456Y0044542D01*
X0118440Y0045365D01*
X0120589Y0045365D01*
X0122573Y0044542D01*
X0124092Y0043023D01*
X0124514Y0042004D01*
X0124937Y0043023D01*
X0126456Y0044542D01*
X0128440Y0045365D01*
X0130589Y0045365D01*
X0132573Y0044542D01*
X0134092Y0043023D01*
X0134914Y0041039D01*
X0134914Y0038890D01*
X0134158Y0037065D01*
X0152414Y0037065D01*
X0152414Y0119848D01*
X0151826Y0118829D01*
X0151826Y0118829D01*
X0149287Y0116698D01*
X0149287Y0116698D01*
X0146172Y0115565D01*
X0142857Y0115565D01*
X0139742Y0116698D01*
X0139742Y0116698D01*
X0137203Y0118829D01*
X0137203Y0118829D01*
X0135545Y0121700D01*
X0135545Y0121700D01*
X0134969Y0124965D01*
X0134969Y0124965D01*
X0135545Y0128229D01*
X0135545Y0128229D01*
X0137203Y0131100D01*
X0137203Y0131100D01*
X0139305Y0132865D01*
X0069723Y0132865D01*
X0071826Y0131100D01*
X0071826Y0131100D01*
X0073484Y0128229D01*
X0073484Y0128229D01*
X0074059Y0124965D01*
X0074059Y0124965D01*
X0073484Y0121700D01*
X0073484Y0121700D01*
X0071826Y0118829D01*
X0071826Y0118829D01*
X0069287Y0116698D01*
X0069287Y0116698D01*
X0066172Y0115565D01*
X0062857Y0115565D01*
X0059742Y0116698D01*
X0059742Y0116698D01*
X0057203Y0118829D01*
X0057203Y0118829D01*
X0056614Y0119848D01*
X0056614Y0119838D02*
X0056620Y0119838D01*
X0056614Y0118840D02*
X0057197Y0118840D01*
X0056614Y0117841D02*
X0058380Y0117841D01*
X0059570Y0116842D02*
X0056614Y0116842D01*
X0056614Y0115844D02*
X0062089Y0115844D01*
X0066940Y0115844D02*
X0142089Y0115844D01*
X0139570Y0116842D02*
X0069459Y0116842D01*
X0070649Y0117841D02*
X0138380Y0117841D01*
X0137197Y0118840D02*
X0071832Y0118840D01*
X0071826Y0118829D02*
X0071826Y0118829D01*
X0072409Y0119838D02*
X0136620Y0119838D01*
X0136044Y0120837D02*
X0072985Y0120837D01*
X0073508Y0121835D02*
X0135521Y0121835D01*
X0135345Y0122834D02*
X0073684Y0122834D01*
X0073860Y0123832D02*
X0135169Y0123832D01*
X0134993Y0124831D02*
X0074036Y0124831D01*
X0073907Y0125829D02*
X0135122Y0125829D01*
X0135298Y0126828D02*
X0073731Y0126828D01*
X0073555Y0127826D02*
X0135474Y0127826D01*
X0135889Y0128825D02*
X0073140Y0128825D01*
X0072564Y0129823D02*
X0136465Y0129823D01*
X0137042Y0130822D02*
X0071987Y0130822D01*
X0070968Y0131820D02*
X0138061Y0131820D01*
X0137203Y0131100D02*
X0137203Y0131100D01*
X0139251Y0132819D02*
X0069778Y0132819D01*
X0056614Y0114845D02*
X0152414Y0114845D01*
X0152414Y0113847D02*
X0056614Y0113847D01*
X0056614Y0112848D02*
X0152414Y0112848D01*
X0152414Y0111850D02*
X0056614Y0111850D01*
X0056614Y0110851D02*
X0152414Y0110851D01*
X0152414Y0109853D02*
X0056614Y0109853D01*
X0056614Y0108854D02*
X0152414Y0108854D01*
X0152414Y0107856D02*
X0056614Y0107856D01*
X0056614Y0106857D02*
X0152414Y0106857D01*
X0152414Y0105859D02*
X0056614Y0105859D01*
X0056614Y0104860D02*
X0152414Y0104860D01*
X0152414Y0103862D02*
X0056614Y0103862D01*
X0056614Y0102863D02*
X0152414Y0102863D01*
X0152414Y0101865D02*
X0056614Y0101865D01*
X0056614Y0100866D02*
X0152414Y0100866D01*
X0152414Y0099868D02*
X0056614Y0099868D01*
X0056614Y0098869D02*
X0152414Y0098869D01*
X0152414Y0097871D02*
X0056614Y0097871D01*
X0056614Y0096872D02*
X0152414Y0096872D01*
X0152414Y0095874D02*
X0056614Y0095874D01*
X0056614Y0094875D02*
X0152414Y0094875D01*
X0152414Y0093877D02*
X0056614Y0093877D01*
X0056614Y0092878D02*
X0112973Y0092878D01*
X0112045Y0091880D02*
X0056614Y0091880D01*
X0056614Y0090881D02*
X0111631Y0090881D01*
X0111533Y0089883D02*
X0056614Y0089883D01*
X0056614Y0088884D02*
X0110535Y0088884D01*
X0109536Y0087886D02*
X0065694Y0087886D01*
X0067047Y0086887D02*
X0108538Y0086887D01*
X0107539Y0085889D02*
X0067541Y0085889D01*
X0067664Y0084890D02*
X0107464Y0084890D01*
X0107464Y0083892D02*
X0067480Y0083892D01*
X0066898Y0082893D02*
X0107464Y0082893D01*
X0107464Y0081895D02*
X0066564Y0081895D01*
X0066564Y0080896D02*
X0107464Y0080896D01*
X0107464Y0079898D02*
X0066564Y0079898D01*
X0066564Y0078899D02*
X0107464Y0078899D01*
X0107464Y0077901D02*
X0100658Y0077901D01*
X0102032Y0076902D02*
X0106997Y0076902D01*
X0106494Y0075904D02*
X0102535Y0075904D01*
X0102664Y0074905D02*
X0106364Y0074905D01*
X0106543Y0073907D02*
X0102486Y0073907D01*
X0101913Y0072908D02*
X0107116Y0072908D01*
X0111913Y0072908D02*
X0139559Y0072908D01*
X0140557Y0073907D02*
X0112486Y0073907D01*
X0112664Y0074905D02*
X0141556Y0074905D01*
X0142464Y0075904D02*
X0112535Y0075904D01*
X0112032Y0076902D02*
X0142464Y0076902D01*
X0142464Y0077901D02*
X0111564Y0077901D01*
X0111564Y0078899D02*
X0142464Y0078899D01*
X0142464Y0079898D02*
X0111564Y0079898D01*
X0111564Y0080896D02*
X0142464Y0080896D01*
X0142464Y0081895D02*
X0111564Y0081895D01*
X0111564Y0082893D02*
X0142131Y0082893D01*
X0141549Y0083892D02*
X0111564Y0083892D01*
X0112339Y0084890D02*
X0141364Y0084890D01*
X0141488Y0085889D02*
X0113338Y0085889D01*
X0114336Y0086887D02*
X0141982Y0086887D01*
X0142139Y0087886D02*
X0116890Y0087886D01*
X0117623Y0088884D02*
X0141552Y0088884D01*
X0141364Y0089883D02*
X0117914Y0089883D01*
X0117898Y0090881D02*
X0141485Y0090881D01*
X0141975Y0091880D02*
X0117484Y0091880D01*
X0116556Y0092878D02*
X0143317Y0092878D01*
X0145712Y0092878D02*
X0152414Y0092878D01*
X0152414Y0091880D02*
X0147054Y0091880D01*
X0147544Y0090881D02*
X0152414Y0090881D01*
X0152414Y0089883D02*
X0147664Y0089883D01*
X0148494Y0088884D02*
X0152414Y0088884D01*
X0152414Y0087886D02*
X0149492Y0087886D01*
X0150491Y0086887D02*
X0152414Y0086887D01*
X0152414Y0085889D02*
X0151489Y0085889D01*
X0151564Y0084890D02*
X0152414Y0084890D01*
X0152414Y0083892D02*
X0151564Y0083892D01*
X0151564Y0082893D02*
X0152414Y0082893D01*
X0152414Y0081895D02*
X0151564Y0081895D01*
X0151564Y0080896D02*
X0152414Y0080896D01*
X0152414Y0079898D02*
X0151564Y0079898D01*
X0151564Y0078899D02*
X0152414Y0078899D01*
X0152414Y0077901D02*
X0151564Y0077901D01*
X0151564Y0076902D02*
X0152414Y0076902D01*
X0152414Y0075904D02*
X0151564Y0075904D01*
X0151564Y0074905D02*
X0152414Y0074905D01*
X0152414Y0073907D02*
X0151564Y0073907D01*
X0151564Y0072908D02*
X0152414Y0072908D01*
X0152414Y0071909D02*
X0151564Y0071909D01*
X0151564Y0070911D02*
X0152414Y0070911D01*
X0152414Y0069912D02*
X0151564Y0069912D01*
X0151363Y0068914D02*
X0152414Y0068914D01*
X0152414Y0067915D02*
X0150364Y0067915D01*
X0149366Y0066917D02*
X0152414Y0066917D01*
X0152414Y0065918D02*
X0148367Y0065918D01*
X0147369Y0064920D02*
X0152414Y0064920D01*
X0152414Y0063921D02*
X0109036Y0063921D01*
X0109036Y0062923D02*
X0152414Y0062923D01*
X0152414Y0061924D02*
X0109036Y0061924D01*
X0109036Y0060926D02*
X0152414Y0060926D01*
X0152414Y0059927D02*
X0109036Y0059927D01*
X0108622Y0058929D02*
X0152414Y0058929D01*
X0152414Y0057930D02*
X0099448Y0057930D01*
X0100124Y0058929D02*
X0098449Y0058929D01*
X0100446Y0056932D02*
X0152414Y0056932D01*
X0152414Y0055933D02*
X0101445Y0055933D01*
X0102443Y0054935D02*
X0152414Y0054935D01*
X0152414Y0053936D02*
X0103442Y0053936D01*
X0104440Y0052938D02*
X0152414Y0052938D01*
X0152414Y0051939D02*
X0105439Y0051939D01*
X0106437Y0050941D02*
X0152414Y0050941D01*
X0152414Y0049942D02*
X0107436Y0049942D01*
X0108434Y0048944D02*
X0152414Y0048944D01*
X0152414Y0047945D02*
X0109433Y0047945D01*
X0110431Y0046947D02*
X0152414Y0046947D01*
X0152414Y0045948D02*
X0111430Y0045948D01*
X0111590Y0044950D02*
X0117439Y0044950D01*
X0115864Y0043951D02*
X0113165Y0043951D01*
X0114122Y0042953D02*
X0114907Y0042953D01*
X0121590Y0044950D02*
X0127439Y0044950D01*
X0125864Y0043951D02*
X0123165Y0043951D01*
X0124122Y0042953D02*
X0124907Y0042953D01*
X0131590Y0044950D02*
X0152414Y0044950D01*
X0152414Y0043951D02*
X0133165Y0043951D01*
X0134122Y0042953D02*
X0152414Y0042953D01*
X0152414Y0041954D02*
X0134535Y0041954D01*
X0134914Y0040956D02*
X0152414Y0040956D01*
X0152414Y0039957D02*
X0134914Y0039957D01*
X0134914Y0038959D02*
X0152414Y0038959D01*
X0152414Y0037960D02*
X0134529Y0037960D01*
X0106411Y0058929D02*
X0106161Y0058929D01*
X0106161Y0059927D02*
X0106411Y0059927D01*
X0106411Y0060926D02*
X0106161Y0060926D01*
X0106161Y0061924D02*
X0106411Y0061924D01*
X0097116Y0072908D02*
X0069470Y0072908D01*
X0068472Y0073907D02*
X0096543Y0073907D01*
X0096364Y0074905D02*
X0067473Y0074905D01*
X0066564Y0075904D02*
X0096494Y0075904D01*
X0096997Y0076902D02*
X0066564Y0076902D01*
X0066564Y0077901D02*
X0098371Y0077901D01*
X0082464Y0066917D02*
X0056614Y0066917D01*
X0056614Y0067915D02*
X0068664Y0067915D01*
X0067666Y0068914D02*
X0056614Y0068914D01*
X0056614Y0069912D02*
X0066667Y0069912D01*
X0065669Y0070911D02*
X0056614Y0070911D01*
X0056614Y0071909D02*
X0064670Y0071909D01*
X0063672Y0072908D02*
X0056614Y0072908D01*
X0056614Y0073907D02*
X0062673Y0073907D01*
X0062464Y0074905D02*
X0056614Y0074905D01*
X0056614Y0075904D02*
X0062464Y0075904D01*
X0062464Y0076902D02*
X0056614Y0076902D01*
X0056614Y0077901D02*
X0062464Y0077901D01*
X0062464Y0078899D02*
X0056614Y0078899D01*
X0056614Y0079898D02*
X0062464Y0079898D01*
X0062464Y0080896D02*
X0056614Y0080896D01*
X0056614Y0081895D02*
X0062464Y0081895D01*
X0062131Y0082893D02*
X0056614Y0082893D01*
X0056614Y0083892D02*
X0061549Y0083892D01*
X0061364Y0084890D02*
X0056614Y0084890D01*
X0056614Y0085889D02*
X0061488Y0085889D01*
X0061982Y0086887D02*
X0056614Y0086887D01*
X0056614Y0087886D02*
X0063335Y0087886D01*
X0056614Y0065918D02*
X0082464Y0065918D01*
X0082464Y0064920D02*
X0056614Y0064920D01*
X0056614Y0063921D02*
X0082464Y0063921D01*
X0082464Y0062923D02*
X0056614Y0062923D01*
X0056614Y0061924D02*
X0082464Y0061924D01*
X0082464Y0060926D02*
X0056614Y0060926D01*
X0056614Y0059927D02*
X0082464Y0059927D01*
X0082651Y0058929D02*
X0056614Y0058929D01*
X0056614Y0057930D02*
X0083650Y0057930D01*
X0084648Y0056932D02*
X0056614Y0056932D01*
X0056614Y0055933D02*
X0085647Y0055933D01*
X0086645Y0054935D02*
X0056614Y0054935D01*
X0056614Y0053936D02*
X0087644Y0053936D01*
X0088642Y0052938D02*
X0056614Y0052938D01*
X0056614Y0051939D02*
X0089641Y0051939D01*
X0090639Y0050941D02*
X0056614Y0050941D01*
X0056614Y0049942D02*
X0091638Y0049942D01*
X0092636Y0048944D02*
X0056614Y0048944D01*
X0056614Y0047945D02*
X0093635Y0047945D01*
X0094633Y0046947D02*
X0056614Y0046947D01*
X0056614Y0045948D02*
X0095632Y0045948D01*
X0096630Y0044950D02*
X0091590Y0044950D01*
X0093165Y0043951D02*
X0095864Y0043951D01*
X0094907Y0042953D02*
X0094122Y0042953D01*
X0087439Y0044950D02*
X0080999Y0044950D01*
X0080014Y0044950D02*
X0079014Y0044950D01*
X0078030Y0044950D02*
X0056614Y0044950D01*
X0056614Y0043951D02*
X0076155Y0043951D01*
X0075258Y0042953D02*
X0056614Y0042953D01*
X0056614Y0041954D02*
X0074693Y0041954D01*
X0074407Y0040956D02*
X0056614Y0040956D01*
X0056614Y0039957D02*
X0079014Y0039957D01*
X0079014Y0040956D02*
X0080014Y0040956D01*
X0080014Y0041954D02*
X0079014Y0041954D01*
X0079014Y0042953D02*
X0080014Y0042953D01*
X0080014Y0043951D02*
X0079014Y0043951D01*
X0082874Y0043951D02*
X0085864Y0043951D01*
X0084907Y0042953D02*
X0083771Y0042953D01*
X0084336Y0041954D02*
X0084494Y0041954D01*
X0074409Y0038959D02*
X0056614Y0038959D01*
X0056614Y0037960D02*
X0074700Y0037960D01*
X0168819Y0037960D02*
X0186904Y0037960D01*
X0186900Y0037968D02*
X0187272Y0037239D01*
X0187399Y0037065D01*
X0168819Y0037065D01*
X0168819Y0119848D01*
X0169407Y0118829D01*
X0171947Y0116698D01*
X0175062Y0115565D01*
X0178377Y0115565D01*
X0181492Y0116698D01*
X0181492Y0116698D01*
X0184031Y0118829D01*
X0185689Y0121700D01*
X0186264Y0124965D01*
X0185689Y0128229D01*
X0184031Y0131100D01*
X0181928Y0132865D01*
X0251510Y0132865D01*
X0249407Y0131100D01*
X0247750Y0128229D01*
X0247174Y0124965D01*
X0247750Y0121700D01*
X0249407Y0118829D01*
X0251947Y0116698D01*
X0255062Y0115565D01*
X0258377Y0115565D01*
X0261492Y0116698D01*
X0264031Y0118829D01*
X0264031Y0118829D01*
X0264031Y0118829D01*
X0264619Y0119848D01*
X0264619Y0037065D01*
X0246363Y0037065D01*
X0247119Y0038890D01*
X0247119Y0041039D01*
X0246297Y0043023D01*
X0244778Y0044542D01*
X0242793Y0045365D01*
X0240645Y0045365D01*
X0238660Y0044542D01*
X0237141Y0043023D01*
X0236719Y0042004D01*
X0236297Y0043023D01*
X0234778Y0044542D01*
X0232793Y0045365D01*
X0230645Y0045365D01*
X0228660Y0044542D01*
X0227141Y0043023D01*
X0226719Y0042004D01*
X0226297Y0043023D01*
X0224778Y0044542D01*
X0223769Y0044960D01*
X0223769Y0045814D01*
X0210268Y0059315D01*
X0210846Y0059315D01*
X0211998Y0059792D01*
X0211998Y0059260D01*
X0212993Y0058265D01*
X0216902Y0058265D01*
X0217102Y0058465D01*
X0218366Y0058465D01*
X0218366Y0062339D01*
X0218616Y0062339D01*
X0218616Y0058465D01*
X0219938Y0058465D01*
X0220320Y0058567D01*
X0220662Y0058764D01*
X0220941Y0059044D01*
X0221139Y0059386D01*
X0221241Y0059767D01*
X0221241Y0062340D01*
X0218616Y0062340D01*
X0218616Y0062590D01*
X0221241Y0062590D01*
X0221241Y0064915D01*
X0259568Y0064915D01*
X0260769Y0066115D01*
X0260769Y0066115D01*
X0263769Y0069115D01*
X0263769Y0085814D01*
X0262568Y0087015D01*
X0259869Y0089714D01*
X0259869Y0090591D01*
X0259390Y0091749D01*
X0258503Y0092635D01*
X0257346Y0093115D01*
X0256093Y0093115D01*
X0254935Y0092635D01*
X0254049Y0091749D01*
X0253569Y0090591D01*
X0253569Y0089338D01*
X0254049Y0088180D01*
X0254764Y0087465D01*
X0254049Y0086749D01*
X0253569Y0085591D01*
X0253569Y0084338D01*
X0254049Y0083180D01*
X0254669Y0082560D01*
X0254669Y0075814D01*
X0250870Y0072015D01*
X0222829Y0072015D01*
X0223503Y0072294D01*
X0224390Y0073180D01*
X0224869Y0074338D01*
X0224869Y0075591D01*
X0224390Y0076749D01*
X0223769Y0077369D01*
X0223769Y0084115D01*
X0226718Y0087065D01*
X0227596Y0087065D01*
X0228753Y0087544D01*
X0229640Y0088430D01*
X0230119Y0089588D01*
X0230119Y0090841D01*
X0229640Y0091999D01*
X0228753Y0092885D01*
X0227596Y0093365D01*
X0226343Y0093365D01*
X0225185Y0092885D01*
X0224299Y0091999D01*
X0223819Y0090841D01*
X0223819Y0089964D01*
X0219669Y0085814D01*
X0219669Y0077369D01*
X0219049Y0076749D01*
X0218569Y0075591D01*
X0218569Y0074338D01*
X0219049Y0073180D01*
X0219935Y0072294D01*
X0220610Y0072015D01*
X0213769Y0072015D01*
X0213769Y0072560D01*
X0214390Y0073180D01*
X0214869Y0074338D01*
X0214869Y0075591D01*
X0214390Y0076749D01*
X0213503Y0077635D01*
X0212346Y0078115D01*
X0211093Y0078115D01*
X0209935Y0077635D01*
X0209049Y0076749D01*
X0208569Y0075591D01*
X0208569Y0074338D01*
X0209049Y0073180D01*
X0209669Y0072560D01*
X0209669Y0072015D01*
X0182568Y0072015D01*
X0178769Y0075814D01*
X0178769Y0082560D01*
X0179390Y0083180D01*
X0179869Y0084338D01*
X0179869Y0085591D01*
X0179390Y0086749D01*
X0178503Y0087635D01*
X0177346Y0088115D01*
X0176093Y0088115D01*
X0174935Y0087635D01*
X0174049Y0086749D01*
X0173569Y0085591D01*
X0173569Y0084338D01*
X0174049Y0083180D01*
X0174669Y0082560D01*
X0174669Y0074115D01*
X0175870Y0072915D01*
X0180870Y0067915D01*
X0194669Y0067915D01*
X0194669Y0059115D01*
X0195870Y0057915D01*
X0209072Y0044713D01*
X0208660Y0044542D01*
X0207141Y0043023D01*
X0206719Y0042004D01*
X0206297Y0043023D01*
X0204778Y0044542D01*
X0202793Y0045365D01*
X0200645Y0045365D01*
X0198660Y0044542D01*
X0197141Y0043023D01*
X0196610Y0041740D01*
X0196538Y0041961D01*
X0196167Y0042690D01*
X0195685Y0043352D01*
X0195107Y0043931D01*
X0194445Y0044412D01*
X0193715Y0044784D01*
X0192937Y0045037D01*
X0192219Y0045150D01*
X0192219Y0040465D01*
X0191219Y0040465D01*
X0191219Y0045150D01*
X0190501Y0045037D01*
X0189723Y0044784D01*
X0188994Y0044412D01*
X0188332Y0043931D01*
X0187753Y0043352D01*
X0187272Y0042690D01*
X0186900Y0041961D01*
X0186647Y0041182D01*
X0186534Y0040465D01*
X0191219Y0040465D01*
X0191219Y0039465D01*
X0186534Y0039465D01*
X0186647Y0038747D01*
X0186900Y0037968D01*
X0186614Y0038959D02*
X0168819Y0038959D01*
X0168819Y0039957D02*
X0191219Y0039957D01*
X0191219Y0040956D02*
X0192219Y0040956D01*
X0192219Y0041954D02*
X0191219Y0041954D01*
X0191219Y0042953D02*
X0192219Y0042953D01*
X0192219Y0043951D02*
X0191219Y0043951D01*
X0191219Y0044950D02*
X0192219Y0044950D01*
X0193204Y0044950D02*
X0199643Y0044950D01*
X0198069Y0043951D02*
X0195079Y0043951D01*
X0195976Y0042953D02*
X0197112Y0042953D01*
X0196698Y0041954D02*
X0196540Y0041954D01*
X0190234Y0044950D02*
X0168819Y0044950D01*
X0168819Y0045948D02*
X0207836Y0045948D01*
X0206838Y0046947D02*
X0168819Y0046947D01*
X0168819Y0047945D02*
X0205839Y0047945D01*
X0204841Y0048944D02*
X0168819Y0048944D01*
X0168819Y0049942D02*
X0203842Y0049942D01*
X0202844Y0050941D02*
X0168819Y0050941D01*
X0168819Y0051939D02*
X0201845Y0051939D01*
X0200847Y0052938D02*
X0168819Y0052938D01*
X0168819Y0053936D02*
X0199848Y0053936D01*
X0198850Y0054935D02*
X0168819Y0054935D01*
X0168819Y0055933D02*
X0197851Y0055933D01*
X0196853Y0056932D02*
X0168819Y0056932D01*
X0168819Y0057930D02*
X0195854Y0057930D01*
X0194856Y0058929D02*
X0168819Y0058929D01*
X0168819Y0059927D02*
X0194669Y0059927D01*
X0194669Y0060926D02*
X0168819Y0060926D01*
X0168819Y0061924D02*
X0194669Y0061924D01*
X0194669Y0062923D02*
X0168819Y0062923D01*
X0168819Y0063921D02*
X0194669Y0063921D01*
X0194669Y0064920D02*
X0168819Y0064920D01*
X0168819Y0065918D02*
X0194669Y0065918D01*
X0194669Y0066917D02*
X0168819Y0066917D01*
X0168819Y0067915D02*
X0180869Y0067915D01*
X0179871Y0068914D02*
X0168819Y0068914D01*
X0168819Y0069912D02*
X0178872Y0069912D01*
X0177874Y0070911D02*
X0168819Y0070911D01*
X0168819Y0071909D02*
X0176875Y0071909D01*
X0175877Y0072908D02*
X0168819Y0072908D01*
X0168819Y0073907D02*
X0174878Y0073907D01*
X0174669Y0074905D02*
X0168819Y0074905D01*
X0168819Y0075904D02*
X0174669Y0075904D01*
X0174669Y0076902D02*
X0168819Y0076902D01*
X0168819Y0077901D02*
X0174669Y0077901D01*
X0174669Y0078899D02*
X0168819Y0078899D01*
X0168819Y0079898D02*
X0174669Y0079898D01*
X0174669Y0080896D02*
X0168819Y0080896D01*
X0168819Y0081895D02*
X0174669Y0081895D01*
X0174336Y0082893D02*
X0168819Y0082893D01*
X0168819Y0083892D02*
X0173754Y0083892D01*
X0173569Y0084890D02*
X0168819Y0084890D01*
X0168819Y0085889D02*
X0173692Y0085889D01*
X0174187Y0086887D02*
X0168819Y0086887D01*
X0168819Y0087886D02*
X0175540Y0087886D01*
X0177898Y0087886D02*
X0221741Y0087886D01*
X0222740Y0088884D02*
X0168819Y0088884D01*
X0168819Y0089883D02*
X0223738Y0089883D01*
X0223836Y0090881D02*
X0168819Y0090881D01*
X0168819Y0091880D02*
X0224249Y0091880D01*
X0225178Y0092878D02*
X0168819Y0092878D01*
X0168819Y0093877D02*
X0264619Y0093877D01*
X0264619Y0094875D02*
X0168819Y0094875D01*
X0168819Y0095874D02*
X0264619Y0095874D01*
X0264619Y0096872D02*
X0168819Y0096872D01*
X0168819Y0097871D02*
X0264619Y0097871D01*
X0264619Y0098869D02*
X0168819Y0098869D01*
X0168819Y0099868D02*
X0264619Y0099868D01*
X0264619Y0100866D02*
X0168819Y0100866D01*
X0168819Y0101865D02*
X0264619Y0101865D01*
X0264619Y0102863D02*
X0168819Y0102863D01*
X0168819Y0103862D02*
X0264619Y0103862D01*
X0264619Y0104860D02*
X0168819Y0104860D01*
X0168819Y0105859D02*
X0264619Y0105859D01*
X0264619Y0106857D02*
X0168819Y0106857D01*
X0168819Y0107856D02*
X0264619Y0107856D01*
X0264619Y0108854D02*
X0168819Y0108854D01*
X0168819Y0109853D02*
X0264619Y0109853D01*
X0264619Y0110851D02*
X0168819Y0110851D01*
X0168819Y0111850D02*
X0264619Y0111850D01*
X0264619Y0112848D02*
X0168819Y0112848D01*
X0168819Y0113847D02*
X0264619Y0113847D01*
X0264619Y0114845D02*
X0168819Y0114845D01*
X0168819Y0115844D02*
X0174294Y0115844D01*
X0171947Y0116698D02*
X0171947Y0116698D01*
X0171775Y0116842D02*
X0168819Y0116842D01*
X0168819Y0117841D02*
X0170585Y0117841D01*
X0169407Y0118829D02*
X0169407Y0118829D01*
X0169401Y0118840D02*
X0168819Y0118840D01*
X0168819Y0119838D02*
X0168825Y0119838D01*
X0179144Y0115844D02*
X0254294Y0115844D01*
X0251947Y0116698D02*
X0251947Y0116698D01*
X0251775Y0116842D02*
X0181663Y0116842D01*
X0182853Y0117841D02*
X0250585Y0117841D01*
X0249407Y0118829D02*
X0249407Y0118829D01*
X0249401Y0118840D02*
X0184037Y0118840D01*
X0184031Y0118829D02*
X0184031Y0118829D01*
X0184614Y0119838D02*
X0248825Y0119838D01*
X0248248Y0120837D02*
X0185190Y0120837D01*
X0185712Y0121835D02*
X0247726Y0121835D01*
X0247750Y0121700D02*
X0247750Y0121700D01*
X0247550Y0122834D02*
X0185888Y0122834D01*
X0186064Y0123832D02*
X0247374Y0123832D01*
X0247198Y0124831D02*
X0186241Y0124831D01*
X0186264Y0124965D02*
X0186264Y0124965D01*
X0186112Y0125829D02*
X0247327Y0125829D01*
X0247174Y0124965D02*
X0247174Y0124965D01*
X0247503Y0126828D02*
X0185936Y0126828D01*
X0185760Y0127826D02*
X0247679Y0127826D01*
X0247750Y0128229D02*
X0247750Y0128229D01*
X0248094Y0128825D02*
X0185345Y0128825D01*
X0185689Y0128229D02*
X0185689Y0128229D01*
X0184768Y0129823D02*
X0248670Y0129823D01*
X0249247Y0130822D02*
X0184192Y0130822D01*
X0184031Y0131100D02*
X0184031Y0131100D01*
X0183173Y0131820D02*
X0250266Y0131820D01*
X0249407Y0131100D02*
X0249407Y0131100D01*
X0251456Y0132819D02*
X0181983Y0132819D01*
X0187399Y0149269D02*
X0168819Y0149269D01*
X0168819Y0232053D01*
X0169407Y0231034D01*
X0171947Y0228903D01*
X0175062Y0227769D01*
X0178377Y0227769D01*
X0181492Y0228903D01*
X0184031Y0231034D01*
X0185689Y0233905D01*
X0186264Y0237169D01*
X0186264Y0237169D01*
X0185689Y0240434D01*
X0184031Y0243305D01*
X0181928Y0245069D01*
X0251510Y0245069D01*
X0249407Y0243305D01*
X0249407Y0243305D01*
X0249407Y0243305D01*
X0247750Y0240434D01*
X0247174Y0237169D01*
X0247750Y0233905D01*
X0247750Y0233905D01*
X0249407Y0231034D01*
X0251947Y0228903D01*
X0255062Y0227769D01*
X0258377Y0227769D01*
X0261492Y0228903D01*
X0264031Y0231034D01*
X0264619Y0232053D01*
X0264619Y0149269D01*
X0246363Y0149269D01*
X0247119Y0151095D01*
X0247119Y0153243D01*
X0246297Y0155228D01*
X0244778Y0156747D01*
X0242793Y0157569D01*
X0240645Y0157569D01*
X0238660Y0156747D01*
X0237141Y0155228D01*
X0236719Y0154209D01*
X0236297Y0155228D01*
X0234778Y0156747D01*
X0232793Y0157569D01*
X0230645Y0157569D01*
X0228660Y0156747D01*
X0227141Y0155228D01*
X0226719Y0154209D01*
X0226297Y0155228D01*
X0224778Y0156747D01*
X0223769Y0157165D01*
X0223769Y0158018D01*
X0210268Y0171519D01*
X0210846Y0171519D01*
X0211998Y0171996D01*
X0211998Y0171465D01*
X0212993Y0170469D01*
X0216902Y0170469D01*
X0217102Y0170669D01*
X0218366Y0170669D01*
X0218366Y0174544D01*
X0218616Y0174544D01*
X0218616Y0170669D01*
X0219938Y0170669D01*
X0220320Y0170772D01*
X0220662Y0170969D01*
X0220941Y0171248D01*
X0221139Y0171590D01*
X0221241Y0171972D01*
X0221241Y0174544D01*
X0218616Y0174544D01*
X0218616Y0174794D01*
X0221241Y0174794D01*
X0221241Y0177119D01*
X0259568Y0177119D01*
X0260769Y0178320D01*
X0263769Y0181320D01*
X0263769Y0198018D01*
X0262568Y0199219D01*
X0259869Y0201918D01*
X0259869Y0202796D01*
X0259390Y0203954D01*
X0258503Y0204840D01*
X0257346Y0205319D01*
X0256093Y0205319D01*
X0254935Y0204840D01*
X0254049Y0203954D01*
X0253569Y0202796D01*
X0253569Y0201543D01*
X0254049Y0200385D01*
X0254764Y0199669D01*
X0254049Y0198954D01*
X0253569Y0197796D01*
X0253569Y0196543D01*
X0254049Y0195385D01*
X0254669Y0194765D01*
X0254669Y0188018D01*
X0250870Y0184219D01*
X0222829Y0184219D01*
X0223503Y0184499D01*
X0224390Y0185385D01*
X0224869Y0186543D01*
X0224869Y0187796D01*
X0224390Y0188954D01*
X0223769Y0189574D01*
X0223769Y0196320D01*
X0226718Y0199269D01*
X0227596Y0199269D01*
X0228753Y0199749D01*
X0229640Y0200635D01*
X0230119Y0201793D01*
X0230119Y0203046D01*
X0229640Y0204204D01*
X0228753Y0205090D01*
X0227596Y0205569D01*
X0226343Y0205569D01*
X0225185Y0205090D01*
X0224299Y0204204D01*
X0223819Y0203046D01*
X0223819Y0202168D01*
X0219669Y0198018D01*
X0219669Y0189574D01*
X0219049Y0188954D01*
X0218569Y0187796D01*
X0218569Y0186543D01*
X0219049Y0185385D01*
X0219935Y0184499D01*
X0220610Y0184219D01*
X0213769Y0184219D01*
X0213769Y0184765D01*
X0214390Y0185385D01*
X0214869Y0186543D01*
X0214869Y0187796D01*
X0214390Y0188954D01*
X0213503Y0189840D01*
X0212346Y0190319D01*
X0211093Y0190319D01*
X0209935Y0189840D01*
X0209049Y0188954D01*
X0208569Y0187796D01*
X0208569Y0186543D01*
X0209049Y0185385D01*
X0209669Y0184765D01*
X0209669Y0184219D01*
X0182568Y0184219D01*
X0178769Y0188018D01*
X0178769Y0194765D01*
X0179390Y0195385D01*
X0179869Y0196543D01*
X0179869Y0197796D01*
X0179390Y0198954D01*
X0178503Y0199840D01*
X0177346Y0200319D01*
X0176093Y0200319D01*
X0174935Y0199840D01*
X0174049Y0198954D01*
X0173569Y0197796D01*
X0173569Y0196543D01*
X0174049Y0195385D01*
X0174669Y0194765D01*
X0174669Y0186320D01*
X0175870Y0185119D01*
X0180870Y0180119D01*
X0194669Y0180119D01*
X0194669Y0171320D01*
X0195870Y0170119D01*
X0209072Y0156918D01*
X0208660Y0156747D01*
X0207141Y0155228D01*
X0206719Y0154209D01*
X0206297Y0155228D01*
X0204778Y0156747D01*
X0202793Y0157569D01*
X0200645Y0157569D01*
X0198660Y0156747D01*
X0197141Y0155228D01*
X0196610Y0153945D01*
X0196538Y0154165D01*
X0196167Y0154895D01*
X0195685Y0155557D01*
X0195107Y0156136D01*
X0194445Y0156617D01*
X0193715Y0156988D01*
X0192937Y0157241D01*
X0192219Y0157355D01*
X0192219Y0152669D01*
X0191219Y0152669D01*
X0191219Y0151669D01*
X0186534Y0151669D01*
X0186647Y0150952D01*
X0186900Y0150173D01*
X0187272Y0149444D01*
X0187399Y0149269D01*
X0187094Y0149793D02*
X0168819Y0149793D01*
X0168819Y0150792D02*
X0186699Y0150792D01*
X0186534Y0152669D02*
X0191219Y0152669D01*
X0191219Y0157355D01*
X0190501Y0157241D01*
X0189723Y0156988D01*
X0188994Y0156617D01*
X0188332Y0156136D01*
X0187753Y0155557D01*
X0187272Y0154895D01*
X0186900Y0154165D01*
X0186647Y0153387D01*
X0186534Y0152669D01*
X0186552Y0152789D02*
X0168819Y0152789D01*
X0168819Y0153787D02*
X0186777Y0153787D01*
X0187216Y0154786D02*
X0168819Y0154786D01*
X0168819Y0155784D02*
X0187980Y0155784D01*
X0189320Y0156783D02*
X0168819Y0156783D01*
X0168819Y0157781D02*
X0208208Y0157781D01*
X0208747Y0156783D02*
X0204692Y0156783D01*
X0205741Y0155784D02*
X0207698Y0155784D01*
X0206958Y0154786D02*
X0206480Y0154786D01*
X0207209Y0158780D02*
X0168819Y0158780D01*
X0168819Y0159778D02*
X0206211Y0159778D01*
X0205212Y0160777D02*
X0168819Y0160777D01*
X0168819Y0161776D02*
X0204214Y0161776D01*
X0203215Y0162774D02*
X0168819Y0162774D01*
X0168819Y0163773D02*
X0202217Y0163773D01*
X0201218Y0164771D02*
X0168819Y0164771D01*
X0168819Y0165770D02*
X0200220Y0165770D01*
X0199221Y0166768D02*
X0168819Y0166768D01*
X0168819Y0167767D02*
X0198223Y0167767D01*
X0197224Y0168765D02*
X0168819Y0168765D01*
X0168819Y0169764D02*
X0196226Y0169764D01*
X0195227Y0170762D02*
X0168819Y0170762D01*
X0168819Y0171761D02*
X0194669Y0171761D01*
X0194669Y0172759D02*
X0168819Y0172759D01*
X0168819Y0173758D02*
X0194669Y0173758D01*
X0194669Y0174756D02*
X0168819Y0174756D01*
X0168819Y0175755D02*
X0194669Y0175755D01*
X0194669Y0176753D02*
X0168819Y0176753D01*
X0168819Y0177752D02*
X0194669Y0177752D01*
X0194669Y0178750D02*
X0168819Y0178750D01*
X0168819Y0179749D02*
X0194669Y0179749D01*
X0182046Y0184741D02*
X0209669Y0184741D01*
X0208902Y0185740D02*
X0181048Y0185740D01*
X0180049Y0186738D02*
X0208569Y0186738D01*
X0208569Y0187737D02*
X0179051Y0187737D01*
X0178769Y0188735D02*
X0208958Y0188735D01*
X0209829Y0189734D02*
X0178769Y0189734D01*
X0178769Y0190732D02*
X0219669Y0190732D01*
X0219669Y0189734D02*
X0213609Y0189734D01*
X0214480Y0188735D02*
X0218958Y0188735D01*
X0218569Y0187737D02*
X0214869Y0187737D01*
X0214869Y0186738D02*
X0218569Y0186738D01*
X0218902Y0185740D02*
X0214537Y0185740D01*
X0213769Y0184741D02*
X0219692Y0184741D01*
X0223746Y0184741D02*
X0251392Y0184741D01*
X0252391Y0185740D02*
X0224537Y0185740D01*
X0224869Y0186738D02*
X0253389Y0186738D01*
X0254388Y0187737D02*
X0224869Y0187737D01*
X0224480Y0188735D02*
X0254669Y0188735D01*
X0254669Y0189734D02*
X0223769Y0189734D01*
X0223769Y0190732D02*
X0254669Y0190732D01*
X0254669Y0191731D02*
X0223769Y0191731D01*
X0223769Y0192729D02*
X0254669Y0192729D01*
X0254669Y0193728D02*
X0223769Y0193728D01*
X0223769Y0194726D02*
X0254669Y0194726D01*
X0253908Y0195725D02*
X0223769Y0195725D01*
X0224172Y0196723D02*
X0253569Y0196723D01*
X0253569Y0197722D02*
X0225171Y0197722D01*
X0226169Y0198720D02*
X0253952Y0198720D01*
X0254715Y0199719D02*
X0228681Y0199719D01*
X0229674Y0200717D02*
X0253911Y0200717D01*
X0253569Y0201716D02*
X0230087Y0201716D01*
X0230119Y0202714D02*
X0253569Y0202714D01*
X0253949Y0203713D02*
X0229843Y0203713D01*
X0229132Y0204711D02*
X0254807Y0204711D01*
X0258632Y0204711D02*
X0264619Y0204711D01*
X0264619Y0203713D02*
X0259489Y0203713D01*
X0259869Y0202714D02*
X0264619Y0202714D01*
X0264619Y0201716D02*
X0260072Y0201716D01*
X0261070Y0200717D02*
X0264619Y0200717D01*
X0264619Y0199719D02*
X0262069Y0199719D01*
X0263067Y0198720D02*
X0264619Y0198720D01*
X0264619Y0197722D02*
X0263769Y0197722D01*
X0263769Y0196723D02*
X0264619Y0196723D01*
X0264619Y0195725D02*
X0263769Y0195725D01*
X0263769Y0194726D02*
X0264619Y0194726D01*
X0264619Y0193728D02*
X0263769Y0193728D01*
X0263769Y0192729D02*
X0264619Y0192729D01*
X0264619Y0191731D02*
X0263769Y0191731D01*
X0263769Y0190732D02*
X0264619Y0190732D01*
X0264619Y0189734D02*
X0263769Y0189734D01*
X0263769Y0188735D02*
X0264619Y0188735D01*
X0264619Y0187737D02*
X0263769Y0187737D01*
X0263769Y0186738D02*
X0264619Y0186738D01*
X0264619Y0185740D02*
X0263769Y0185740D01*
X0263769Y0184741D02*
X0264619Y0184741D01*
X0264619Y0183743D02*
X0263769Y0183743D01*
X0263769Y0182744D02*
X0264619Y0182744D01*
X0264619Y0181746D02*
X0263769Y0181746D01*
X0263196Y0180747D02*
X0264619Y0180747D01*
X0264619Y0179749D02*
X0262198Y0179749D01*
X0261199Y0178750D02*
X0264619Y0178750D01*
X0264619Y0177752D02*
X0260201Y0177752D01*
X0264619Y0176753D02*
X0221241Y0176753D01*
X0221241Y0175755D02*
X0264619Y0175755D01*
X0264619Y0174756D02*
X0218616Y0174756D01*
X0218616Y0173758D02*
X0218366Y0173758D01*
X0218366Y0172759D02*
X0218616Y0172759D01*
X0218616Y0171761D02*
X0218366Y0171761D01*
X0218366Y0170762D02*
X0218616Y0170762D01*
X0220285Y0170762D02*
X0264619Y0170762D01*
X0264619Y0169764D02*
X0212024Y0169764D01*
X0212701Y0170762D02*
X0211025Y0170762D01*
X0211428Y0171761D02*
X0211998Y0171761D01*
X0213022Y0168765D02*
X0264619Y0168765D01*
X0264619Y0167767D02*
X0214021Y0167767D01*
X0215020Y0166768D02*
X0264619Y0166768D01*
X0264619Y0165770D02*
X0216018Y0165770D01*
X0217017Y0164771D02*
X0264619Y0164771D01*
X0264619Y0163773D02*
X0218015Y0163773D01*
X0219014Y0162774D02*
X0264619Y0162774D01*
X0264619Y0161776D02*
X0220012Y0161776D01*
X0221011Y0160777D02*
X0264619Y0160777D01*
X0264619Y0159778D02*
X0222009Y0159778D01*
X0223008Y0158780D02*
X0264619Y0158780D01*
X0264619Y0157781D02*
X0223769Y0157781D01*
X0224692Y0156783D02*
X0228747Y0156783D01*
X0227698Y0155784D02*
X0225741Y0155784D01*
X0226480Y0154786D02*
X0226958Y0154786D01*
X0234692Y0156783D02*
X0238747Y0156783D01*
X0237698Y0155784D02*
X0235741Y0155784D01*
X0236480Y0154786D02*
X0236958Y0154786D01*
X0244692Y0156783D02*
X0264619Y0156783D01*
X0264619Y0155784D02*
X0245741Y0155784D01*
X0246480Y0154786D02*
X0264619Y0154786D01*
X0264619Y0153787D02*
X0246894Y0153787D01*
X0247119Y0152789D02*
X0264619Y0152789D01*
X0264619Y0151790D02*
X0247119Y0151790D01*
X0246994Y0150792D02*
X0264619Y0150792D01*
X0264619Y0149793D02*
X0246580Y0149793D01*
X0264619Y0171761D02*
X0221184Y0171761D01*
X0221241Y0172759D02*
X0264619Y0172759D01*
X0264619Y0173758D02*
X0221241Y0173758D01*
X0219669Y0191731D02*
X0178769Y0191731D01*
X0178769Y0192729D02*
X0219669Y0192729D01*
X0219669Y0193728D02*
X0178769Y0193728D01*
X0178769Y0194726D02*
X0219669Y0194726D01*
X0219669Y0195725D02*
X0179530Y0195725D01*
X0179869Y0196723D02*
X0219669Y0196723D01*
X0219669Y0197722D02*
X0179869Y0197722D01*
X0179486Y0198720D02*
X0220371Y0198720D01*
X0221370Y0199719D02*
X0178624Y0199719D01*
X0174814Y0199719D02*
X0168819Y0199719D01*
X0168819Y0200717D02*
X0222368Y0200717D01*
X0223367Y0201716D02*
X0168819Y0201716D01*
X0168819Y0202714D02*
X0223819Y0202714D01*
X0224095Y0203713D02*
X0168819Y0203713D01*
X0168819Y0204711D02*
X0224807Y0204711D01*
X0249407Y0231034D02*
X0249407Y0231034D01*
X0249838Y0230673D02*
X0183601Y0230673D01*
X0184031Y0231034D02*
X0184031Y0231034D01*
X0184031Y0231034D01*
X0184399Y0231671D02*
X0249039Y0231671D01*
X0248463Y0232670D02*
X0184976Y0232670D01*
X0185552Y0233668D02*
X0247886Y0233668D01*
X0247615Y0234667D02*
X0185823Y0234667D01*
X0185689Y0233905D02*
X0185689Y0233905D01*
X0185999Y0235665D02*
X0247439Y0235665D01*
X0247263Y0236664D02*
X0186175Y0236664D01*
X0186177Y0237662D02*
X0247261Y0237662D01*
X0247174Y0237169D02*
X0247174Y0237169D01*
X0247437Y0238661D02*
X0186001Y0238661D01*
X0185825Y0239659D02*
X0247613Y0239659D01*
X0247750Y0240434D02*
X0247750Y0240434D01*
X0247879Y0240658D02*
X0185559Y0240658D01*
X0185689Y0240434D02*
X0185689Y0240434D01*
X0184983Y0241656D02*
X0248456Y0241656D01*
X0249032Y0242655D02*
X0184406Y0242655D01*
X0184031Y0243305D02*
X0184031Y0243305D01*
X0183615Y0243653D02*
X0249823Y0243653D01*
X0251013Y0244652D02*
X0182425Y0244652D01*
X0182411Y0229674D02*
X0251028Y0229674D01*
X0251947Y0228903D02*
X0251947Y0228903D01*
X0252571Y0228676D02*
X0180867Y0228676D01*
X0181492Y0228903D02*
X0181492Y0228903D01*
X0172571Y0228676D02*
X0168819Y0228676D01*
X0168819Y0229674D02*
X0171028Y0229674D01*
X0171947Y0228903D02*
X0171947Y0228903D01*
X0169838Y0230673D02*
X0168819Y0230673D01*
X0169407Y0231034D02*
X0169407Y0231034D01*
X0169039Y0231671D02*
X0168819Y0231671D01*
X0168819Y0227677D02*
X0264619Y0227677D01*
X0264619Y0226679D02*
X0168819Y0226679D01*
X0168819Y0225680D02*
X0264619Y0225680D01*
X0264619Y0224682D02*
X0168819Y0224682D01*
X0168819Y0223683D02*
X0264619Y0223683D01*
X0264619Y0222685D02*
X0168819Y0222685D01*
X0168819Y0221686D02*
X0264619Y0221686D01*
X0264619Y0220688D02*
X0168819Y0220688D01*
X0168819Y0219689D02*
X0264619Y0219689D01*
X0264619Y0218691D02*
X0168819Y0218691D01*
X0168819Y0217692D02*
X0264619Y0217692D01*
X0264619Y0216694D02*
X0168819Y0216694D01*
X0168819Y0215695D02*
X0264619Y0215695D01*
X0264619Y0214697D02*
X0168819Y0214697D01*
X0168819Y0213698D02*
X0264619Y0213698D01*
X0264619Y0212700D02*
X0168819Y0212700D01*
X0168819Y0211701D02*
X0264619Y0211701D01*
X0264619Y0210703D02*
X0168819Y0210703D01*
X0168819Y0209704D02*
X0264619Y0209704D01*
X0264619Y0208706D02*
X0168819Y0208706D01*
X0168819Y0207707D02*
X0264619Y0207707D01*
X0264619Y0206709D02*
X0168819Y0206709D01*
X0168819Y0205710D02*
X0264619Y0205710D01*
X0281024Y0205710D02*
X0376824Y0205710D01*
X0376824Y0206709D02*
X0281024Y0206709D01*
X0281024Y0207707D02*
X0376824Y0207707D01*
X0376824Y0208706D02*
X0281024Y0208706D01*
X0281024Y0209704D02*
X0376824Y0209704D01*
X0376824Y0210703D02*
X0281024Y0210703D01*
X0281024Y0211701D02*
X0376824Y0211701D01*
X0376824Y0212700D02*
X0281024Y0212700D01*
X0281024Y0213698D02*
X0376824Y0213698D01*
X0376824Y0214697D02*
X0281024Y0214697D01*
X0281024Y0215695D02*
X0376824Y0215695D01*
X0376824Y0216694D02*
X0281024Y0216694D01*
X0281024Y0217692D02*
X0376824Y0217692D01*
X0376824Y0218691D02*
X0281024Y0218691D01*
X0281024Y0219689D02*
X0376824Y0219689D01*
X0376824Y0220688D02*
X0281024Y0220688D01*
X0281024Y0221686D02*
X0376824Y0221686D01*
X0376824Y0222685D02*
X0281024Y0222685D01*
X0281024Y0223683D02*
X0376824Y0223683D01*
X0376824Y0224682D02*
X0281024Y0224682D01*
X0281024Y0225680D02*
X0376824Y0225680D01*
X0376824Y0226679D02*
X0281024Y0226679D01*
X0281024Y0227677D02*
X0376824Y0227677D01*
X0376824Y0228676D02*
X0373072Y0228676D01*
X0373696Y0228903D02*
X0373696Y0228903D01*
X0370581Y0227769D01*
X0367266Y0227769D01*
X0364151Y0228903D01*
X0364151Y0228903D01*
X0361612Y0231034D01*
X0361612Y0231034D01*
X0359955Y0233905D01*
X0359955Y0233905D01*
X0359379Y0237169D01*
X0359379Y0237169D01*
X0359955Y0240434D01*
X0359955Y0240434D01*
X0361612Y0243305D01*
X0361612Y0243305D01*
X0361612Y0243305D01*
X0363715Y0245069D01*
X0294133Y0245069D01*
X0296236Y0243305D01*
X0296236Y0243305D01*
X0297893Y0240434D01*
X0297893Y0240434D01*
X0298469Y0237169D01*
X0298469Y0237169D01*
X0297893Y0233905D01*
X0297893Y0233905D01*
X0296236Y0231034D01*
X0296236Y0231034D01*
X0296236Y0231034D01*
X0293696Y0228903D01*
X0290581Y0227769D01*
X0287266Y0227769D01*
X0284151Y0228903D01*
X0284151Y0228903D01*
X0281612Y0231034D01*
X0281612Y0231034D01*
X0281024Y0232053D01*
X0281024Y0149269D01*
X0299603Y0149269D01*
X0299476Y0149444D01*
X0299105Y0150173D01*
X0298852Y0150952D01*
X0298738Y0151669D01*
X0303424Y0151669D01*
X0303424Y0152669D01*
X0298738Y0152669D01*
X0298852Y0153387D01*
X0299105Y0154165D01*
X0299476Y0154895D01*
X0299958Y0155557D01*
X0300536Y0156136D01*
X0301198Y0156617D01*
X0301928Y0156988D01*
X0302706Y0157241D01*
X0303424Y0157355D01*
X0303424Y0152669D01*
X0304424Y0152669D01*
X0304424Y0157355D01*
X0305142Y0157241D01*
X0305920Y0156988D01*
X0306649Y0156617D01*
X0307311Y0156136D01*
X0307890Y0155557D01*
X0308371Y0154895D01*
X0308743Y0154165D01*
X0308814Y0153945D01*
X0309346Y0155228D01*
X0310865Y0156747D01*
X0312850Y0157569D01*
X0314998Y0157569D01*
X0316983Y0156747D01*
X0318502Y0155228D01*
X0318924Y0154209D01*
X0319346Y0155228D01*
X0320865Y0156747D01*
X0321276Y0156918D01*
X0308075Y0170119D01*
X0306874Y0171320D01*
X0306874Y0180119D01*
X0293075Y0180119D01*
X0288075Y0185119D01*
X0286874Y0186320D01*
X0286874Y0194765D01*
X0286253Y0195385D01*
X0285774Y0196543D01*
X0285774Y0197796D01*
X0286253Y0198954D01*
X0287140Y0199840D01*
X0288297Y0200319D01*
X0289550Y0200319D01*
X0290708Y0199840D01*
X0291594Y0198954D01*
X0292074Y0197796D01*
X0292074Y0196543D01*
X0291594Y0195385D01*
X0290974Y0194765D01*
X0290974Y0188018D01*
X0294773Y0184219D01*
X0321874Y0184219D01*
X0321874Y0184765D01*
X0321253Y0185385D01*
X0320774Y0186543D01*
X0320774Y0187796D01*
X0321253Y0188954D01*
X0322140Y0189840D01*
X0323297Y0190319D01*
X0324550Y0190319D01*
X0325708Y0189840D01*
X0326594Y0188954D01*
X0327074Y0187796D01*
X0327074Y0186543D01*
X0326594Y0185385D01*
X0325974Y0184765D01*
X0325974Y0184219D01*
X0332815Y0184219D01*
X0332140Y0184499D01*
X0331253Y0185385D01*
X0330774Y0186543D01*
X0330774Y0187796D01*
X0331253Y0188954D01*
X0331874Y0189574D01*
X0331874Y0198018D01*
X0336024Y0202168D01*
X0336024Y0203046D01*
X0336503Y0204204D01*
X0337390Y0205090D01*
X0338547Y0205569D01*
X0339800Y0205569D01*
X0340958Y0205090D01*
X0341844Y0204204D01*
X0342324Y0203046D01*
X0342324Y0201793D01*
X0341844Y0200635D01*
X0340958Y0199749D01*
X0339800Y0199269D01*
X0338923Y0199269D01*
X0335974Y0196320D01*
X0335974Y0189574D01*
X0336594Y0188954D01*
X0337074Y0187796D01*
X0337074Y0186543D01*
X0336594Y0185385D01*
X0335708Y0184499D01*
X0335033Y0184219D01*
X0363075Y0184219D01*
X0366874Y0188018D01*
X0366874Y0194765D01*
X0366253Y0195385D01*
X0365774Y0196543D01*
X0365774Y0197796D01*
X0366253Y0198954D01*
X0366969Y0199669D01*
X0366253Y0200385D01*
X0365774Y0201543D01*
X0365774Y0202796D01*
X0366253Y0203954D01*
X0367140Y0204840D01*
X0368297Y0205319D01*
X0369550Y0205319D01*
X0370708Y0204840D01*
X0371594Y0203954D01*
X0372074Y0202796D01*
X0372074Y0201918D01*
X0374773Y0199219D01*
X0375974Y0198018D01*
X0375974Y0181320D01*
X0372974Y0178320D01*
X0371773Y0177119D01*
X0333446Y0177119D01*
X0333446Y0174794D01*
X0330821Y0174794D01*
X0330821Y0174544D01*
X0333446Y0174544D01*
X0333446Y0171972D01*
X0333343Y0171590D01*
X0333146Y0171248D01*
X0332867Y0170969D01*
X0332525Y0170772D01*
X0332143Y0170669D01*
X0330821Y0170669D01*
X0330821Y0174544D01*
X0330571Y0174544D01*
X0330571Y0170669D01*
X0329306Y0170669D01*
X0329106Y0170469D01*
X0325198Y0170469D01*
X0324202Y0171465D01*
X0324202Y0171996D01*
X0323050Y0171519D01*
X0322473Y0171519D01*
X0335974Y0158018D01*
X0335974Y0157165D01*
X0336983Y0156747D01*
X0338502Y0155228D01*
X0338924Y0154209D01*
X0339346Y0155228D01*
X0340865Y0156747D01*
X0342850Y0157569D01*
X0344998Y0157569D01*
X0346983Y0156747D01*
X0348502Y0155228D01*
X0348924Y0154209D01*
X0349346Y0155228D01*
X0350865Y0156747D01*
X0352850Y0157569D01*
X0354998Y0157569D01*
X0356983Y0156747D01*
X0358502Y0155228D01*
X0359324Y0153243D01*
X0359324Y0151095D01*
X0358568Y0149269D01*
X0376824Y0149269D01*
X0376824Y0232053D01*
X0376236Y0231034D01*
X0376236Y0231034D01*
X0376236Y0231034D01*
X0373696Y0228903D01*
X0374615Y0229674D02*
X0376824Y0229674D01*
X0376824Y0230673D02*
X0375805Y0230673D01*
X0376604Y0231671D02*
X0376824Y0231671D01*
X0364776Y0228676D02*
X0293072Y0228676D01*
X0294615Y0229674D02*
X0363232Y0229674D01*
X0362042Y0230673D02*
X0295805Y0230673D01*
X0296604Y0231671D02*
X0361244Y0231671D01*
X0360667Y0232670D02*
X0297180Y0232670D01*
X0297757Y0233668D02*
X0360091Y0233668D01*
X0359820Y0234667D02*
X0298028Y0234667D01*
X0298204Y0235665D02*
X0359644Y0235665D01*
X0359468Y0236664D02*
X0298380Y0236664D01*
X0298382Y0237662D02*
X0359466Y0237662D01*
X0359642Y0238661D02*
X0298206Y0238661D01*
X0298030Y0239659D02*
X0359818Y0239659D01*
X0360084Y0240658D02*
X0297764Y0240658D01*
X0297187Y0241656D02*
X0360660Y0241656D01*
X0361237Y0242655D02*
X0296611Y0242655D01*
X0295820Y0243653D02*
X0362028Y0243653D01*
X0363218Y0244652D02*
X0294630Y0244652D01*
X0299603Y0261474D02*
X0281024Y0261474D01*
X0281024Y0344257D01*
X0281612Y0343239D01*
X0281612Y0343239D01*
X0284151Y0341108D01*
X0287266Y0339974D01*
X0290581Y0339974D01*
X0293696Y0341108D01*
X0293696Y0341108D01*
X0296236Y0343239D01*
X0297893Y0346109D01*
X0297893Y0346109D01*
X0298469Y0349374D01*
X0297893Y0352639D01*
X0296236Y0355509D01*
X0296236Y0355509D01*
X0294133Y0357274D01*
X0363715Y0357274D01*
X0361612Y0355509D01*
X0359955Y0352639D01*
X0359955Y0352639D01*
X0359379Y0349374D01*
X0359955Y0346109D01*
X0361612Y0343239D01*
X0361612Y0343239D01*
X0364151Y0341108D01*
X0364151Y0341108D01*
X0367266Y0339974D01*
X0370581Y0339974D01*
X0373696Y0341108D01*
X0373696Y0341108D01*
X0376236Y0343239D01*
X0376824Y0344257D01*
X0376824Y0261474D01*
X0358568Y0261474D01*
X0359324Y0263300D01*
X0359324Y0265448D01*
X0358502Y0267433D01*
X0356983Y0268952D01*
X0354998Y0269774D01*
X0352850Y0269774D01*
X0350865Y0268952D01*
X0349346Y0267433D01*
X0348924Y0266414D01*
X0348502Y0267433D01*
X0346983Y0268952D01*
X0344998Y0269774D01*
X0342850Y0269774D01*
X0340865Y0268952D01*
X0339346Y0267433D01*
X0338924Y0266414D01*
X0338502Y0267433D01*
X0336983Y0268952D01*
X0335974Y0269370D01*
X0335974Y0270223D01*
X0322473Y0283724D01*
X0323050Y0283724D01*
X0324202Y0284201D01*
X0324202Y0283670D01*
X0325198Y0282674D01*
X0329106Y0282674D01*
X0329306Y0282874D01*
X0330571Y0282874D01*
X0330571Y0286749D01*
X0330821Y0286749D01*
X0330821Y0286999D01*
X0333446Y0286999D01*
X0333446Y0289324D01*
X0371773Y0289324D01*
X0372974Y0290525D01*
X0375974Y0293525D01*
X0375974Y0310223D01*
X0374773Y0311424D01*
X0372074Y0314123D01*
X0372074Y0315001D01*
X0371594Y0316158D01*
X0370708Y0317044D01*
X0369550Y0317524D01*
X0368297Y0317524D01*
X0367140Y0317044D01*
X0366253Y0316158D01*
X0365774Y0315001D01*
X0365774Y0313747D01*
X0366253Y0312590D01*
X0366969Y0311874D01*
X0366253Y0311158D01*
X0365774Y0310001D01*
X0365774Y0308747D01*
X0366253Y0307590D01*
X0366874Y0306969D01*
X0366874Y0300223D01*
X0363075Y0296424D01*
X0335033Y0296424D01*
X0335708Y0296704D01*
X0336594Y0297590D01*
X0337074Y0298747D01*
X0337074Y0300001D01*
X0336594Y0301158D01*
X0335974Y0301779D01*
X0335974Y0308525D01*
X0338923Y0311474D01*
X0339800Y0311474D01*
X0340958Y0311954D01*
X0341844Y0312840D01*
X0342324Y0313997D01*
X0342324Y0315251D01*
X0341844Y0316408D01*
X0340958Y0317294D01*
X0339800Y0317774D01*
X0338547Y0317774D01*
X0337390Y0317294D01*
X0336503Y0316408D01*
X0336024Y0315251D01*
X0336024Y0314373D01*
X0331874Y0310223D01*
X0331874Y0301779D01*
X0331253Y0301158D01*
X0330774Y0300001D01*
X0330774Y0298747D01*
X0331253Y0297590D01*
X0332140Y0296704D01*
X0332815Y0296424D01*
X0325974Y0296424D01*
X0325974Y0296969D01*
X0326594Y0297590D01*
X0327074Y0298747D01*
X0327074Y0300001D01*
X0326594Y0301158D01*
X0325708Y0302044D01*
X0324550Y0302524D01*
X0323297Y0302524D01*
X0322140Y0302044D01*
X0321253Y0301158D01*
X0320774Y0300001D01*
X0320774Y0298747D01*
X0321253Y0297590D01*
X0321874Y0296969D01*
X0321874Y0296424D01*
X0294773Y0296424D01*
X0290974Y0300223D01*
X0290974Y0306969D01*
X0291594Y0307590D01*
X0292074Y0308747D01*
X0292074Y0310001D01*
X0291594Y0311158D01*
X0290708Y0312044D01*
X0289550Y0312524D01*
X0288297Y0312524D01*
X0287140Y0312044D01*
X0286253Y0311158D01*
X0285774Y0310001D01*
X0285774Y0308747D01*
X0286253Y0307590D01*
X0286874Y0306969D01*
X0286874Y0298525D01*
X0288075Y0297324D01*
X0293075Y0292324D01*
X0306874Y0292324D01*
X0306874Y0283525D01*
X0308075Y0282324D01*
X0321276Y0269122D01*
X0320865Y0268952D01*
X0319346Y0267433D01*
X0318924Y0266414D01*
X0318502Y0267433D01*
X0316983Y0268952D01*
X0314998Y0269774D01*
X0312850Y0269774D01*
X0310865Y0268952D01*
X0309346Y0267433D01*
X0308814Y0266150D01*
X0308743Y0266370D01*
X0308371Y0267099D01*
X0307890Y0267762D01*
X0307311Y0268340D01*
X0306649Y0268821D01*
X0305920Y0269193D01*
X0305142Y0269446D01*
X0304424Y0269560D01*
X0304424Y0264874D01*
X0303424Y0264874D01*
X0303424Y0269560D01*
X0302706Y0269446D01*
X0301928Y0269193D01*
X0301198Y0268821D01*
X0300536Y0268340D01*
X0299958Y0267762D01*
X0299476Y0267099D01*
X0299105Y0266370D01*
X0298852Y0265592D01*
X0298738Y0264874D01*
X0303424Y0264874D01*
X0303424Y0263874D01*
X0298738Y0263874D01*
X0298852Y0263156D01*
X0299105Y0262378D01*
X0299476Y0261649D01*
X0299603Y0261474D01*
X0299492Y0261627D02*
X0281024Y0261627D01*
X0281024Y0262625D02*
X0299025Y0262625D01*
X0298778Y0263624D02*
X0281024Y0263624D01*
X0281024Y0264622D02*
X0303424Y0264622D01*
X0303424Y0265621D02*
X0304424Y0265621D01*
X0304424Y0266619D02*
X0303424Y0266619D01*
X0303424Y0267618D02*
X0304424Y0267618D01*
X0304424Y0268616D02*
X0303424Y0268616D01*
X0300916Y0268616D02*
X0281024Y0268616D01*
X0281024Y0267618D02*
X0299853Y0267618D01*
X0299232Y0266619D02*
X0281024Y0266619D01*
X0281024Y0265621D02*
X0298861Y0265621D01*
X0306932Y0268616D02*
X0310529Y0268616D01*
X0309531Y0267618D02*
X0307995Y0267618D01*
X0308616Y0266619D02*
X0309009Y0266619D01*
X0312465Y0269615D02*
X0281024Y0269615D01*
X0281024Y0270613D02*
X0319786Y0270613D01*
X0320784Y0269615D02*
X0315383Y0269615D01*
X0317318Y0268616D02*
X0320529Y0268616D01*
X0319531Y0267618D02*
X0318317Y0267618D01*
X0318839Y0266619D02*
X0319009Y0266619D01*
X0318787Y0271612D02*
X0281024Y0271612D01*
X0281024Y0272610D02*
X0317788Y0272610D01*
X0316790Y0273609D02*
X0281024Y0273609D01*
X0281024Y0274607D02*
X0315791Y0274607D01*
X0314793Y0275606D02*
X0281024Y0275606D01*
X0281024Y0276604D02*
X0313794Y0276604D01*
X0312796Y0277603D02*
X0281024Y0277603D01*
X0281024Y0278601D02*
X0311797Y0278601D01*
X0310799Y0279600D02*
X0281024Y0279600D01*
X0281024Y0280598D02*
X0309800Y0280598D01*
X0308802Y0281597D02*
X0281024Y0281597D01*
X0281024Y0282595D02*
X0307803Y0282595D01*
X0306874Y0283594D02*
X0281024Y0283594D01*
X0281024Y0284592D02*
X0306874Y0284592D01*
X0306874Y0285591D02*
X0281024Y0285591D01*
X0281024Y0286589D02*
X0306874Y0286589D01*
X0306874Y0287588D02*
X0281024Y0287588D01*
X0281024Y0288586D02*
X0306874Y0288586D01*
X0306874Y0289585D02*
X0281024Y0289585D01*
X0281024Y0290583D02*
X0306874Y0290583D01*
X0306874Y0291582D02*
X0281024Y0291582D01*
X0281024Y0292580D02*
X0292818Y0292580D01*
X0291820Y0293579D02*
X0281024Y0293579D01*
X0281024Y0294578D02*
X0290821Y0294578D01*
X0289823Y0295576D02*
X0281024Y0295576D01*
X0281024Y0296575D02*
X0288824Y0296575D01*
X0287826Y0297573D02*
X0281024Y0297573D01*
X0281024Y0298572D02*
X0286874Y0298572D01*
X0286874Y0299570D02*
X0281024Y0299570D01*
X0281024Y0300569D02*
X0286874Y0300569D01*
X0286874Y0301567D02*
X0281024Y0301567D01*
X0281024Y0302566D02*
X0286874Y0302566D01*
X0286874Y0303564D02*
X0281024Y0303564D01*
X0281024Y0304563D02*
X0286874Y0304563D01*
X0286874Y0305561D02*
X0281024Y0305561D01*
X0281024Y0306560D02*
X0286874Y0306560D01*
X0286285Y0307558D02*
X0281024Y0307558D01*
X0281024Y0308557D02*
X0285853Y0308557D01*
X0285774Y0309555D02*
X0281024Y0309555D01*
X0281024Y0310554D02*
X0286003Y0310554D01*
X0286647Y0311552D02*
X0281024Y0311552D01*
X0281024Y0312551D02*
X0334201Y0312551D01*
X0333203Y0311552D02*
X0291200Y0311552D01*
X0291845Y0310554D02*
X0332204Y0310554D01*
X0331874Y0309555D02*
X0292074Y0309555D01*
X0291995Y0308557D02*
X0331874Y0308557D01*
X0331874Y0307558D02*
X0291563Y0307558D01*
X0290974Y0306560D02*
X0331874Y0306560D01*
X0331874Y0305561D02*
X0290974Y0305561D01*
X0290974Y0304563D02*
X0331874Y0304563D01*
X0331874Y0303564D02*
X0290974Y0303564D01*
X0290974Y0302566D02*
X0331874Y0302566D01*
X0331662Y0301567D02*
X0326186Y0301567D01*
X0326839Y0300569D02*
X0331009Y0300569D01*
X0330774Y0299570D02*
X0327074Y0299570D01*
X0327001Y0298572D02*
X0330847Y0298572D01*
X0331270Y0297573D02*
X0326578Y0297573D01*
X0325974Y0296575D02*
X0332451Y0296575D01*
X0335397Y0296575D02*
X0363225Y0296575D01*
X0364224Y0297573D02*
X0336578Y0297573D01*
X0337001Y0298572D02*
X0365222Y0298572D01*
X0366221Y0299570D02*
X0337074Y0299570D01*
X0336839Y0300569D02*
X0366874Y0300569D01*
X0366874Y0301567D02*
X0336186Y0301567D01*
X0335974Y0302566D02*
X0366874Y0302566D01*
X0366874Y0303564D02*
X0335974Y0303564D01*
X0335974Y0304563D02*
X0366874Y0304563D01*
X0366874Y0305561D02*
X0335974Y0305561D01*
X0335974Y0306560D02*
X0366874Y0306560D01*
X0366285Y0307558D02*
X0335974Y0307558D01*
X0336006Y0308557D02*
X0365853Y0308557D01*
X0365774Y0309555D02*
X0337004Y0309555D01*
X0338003Y0310554D02*
X0366003Y0310554D01*
X0366647Y0311552D02*
X0339989Y0311552D01*
X0341555Y0312551D02*
X0366292Y0312551D01*
X0365856Y0313549D02*
X0342138Y0313549D01*
X0342324Y0314548D02*
X0365774Y0314548D01*
X0366000Y0315546D02*
X0342201Y0315546D01*
X0341708Y0316545D02*
X0366640Y0316545D01*
X0371208Y0316545D02*
X0376824Y0316545D01*
X0376824Y0317543D02*
X0340358Y0317543D01*
X0337990Y0317543D02*
X0281024Y0317543D01*
X0281024Y0316545D02*
X0336640Y0316545D01*
X0336146Y0315546D02*
X0281024Y0315546D01*
X0281024Y0314548D02*
X0336024Y0314548D01*
X0335200Y0313549D02*
X0281024Y0313549D01*
X0281024Y0318542D02*
X0376824Y0318542D01*
X0376824Y0319540D02*
X0281024Y0319540D01*
X0281024Y0320539D02*
X0376824Y0320539D01*
X0376824Y0321537D02*
X0281024Y0321537D01*
X0281024Y0322536D02*
X0376824Y0322536D01*
X0376824Y0323534D02*
X0281024Y0323534D01*
X0281024Y0324533D02*
X0376824Y0324533D01*
X0376824Y0325531D02*
X0281024Y0325531D01*
X0281024Y0326530D02*
X0376824Y0326530D01*
X0376824Y0327528D02*
X0281024Y0327528D01*
X0281024Y0328527D02*
X0376824Y0328527D01*
X0376824Y0329525D02*
X0281024Y0329525D01*
X0281024Y0330524D02*
X0376824Y0330524D01*
X0376824Y0331522D02*
X0281024Y0331522D01*
X0281024Y0332521D02*
X0376824Y0332521D01*
X0376824Y0333519D02*
X0281024Y0333519D01*
X0281024Y0334518D02*
X0376824Y0334518D01*
X0376824Y0335516D02*
X0281024Y0335516D01*
X0281024Y0336515D02*
X0376824Y0336515D01*
X0376824Y0337513D02*
X0281024Y0337513D01*
X0281024Y0338512D02*
X0376824Y0338512D01*
X0376824Y0339511D02*
X0281024Y0339511D01*
X0281024Y0340509D02*
X0285796Y0340509D01*
X0283675Y0341508D02*
X0281024Y0341508D01*
X0281024Y0342506D02*
X0282485Y0342506D01*
X0281458Y0343505D02*
X0281024Y0343505D01*
X0292051Y0340509D02*
X0365796Y0340509D01*
X0363675Y0341508D02*
X0294173Y0341508D01*
X0295363Y0342506D02*
X0362485Y0342506D01*
X0361458Y0343505D02*
X0296389Y0343505D01*
X0296236Y0343239D02*
X0296236Y0343239D01*
X0296236Y0343239D01*
X0296966Y0344503D02*
X0360882Y0344503D01*
X0360305Y0345502D02*
X0297542Y0345502D01*
X0297962Y0346500D02*
X0359886Y0346500D01*
X0359955Y0346109D02*
X0359955Y0346109D01*
X0359710Y0347499D02*
X0298138Y0347499D01*
X0298314Y0348497D02*
X0359533Y0348497D01*
X0359379Y0349374D02*
X0359379Y0349374D01*
X0359400Y0349496D02*
X0298447Y0349496D01*
X0298469Y0349374D02*
X0298469Y0349374D01*
X0298271Y0350494D02*
X0359576Y0350494D01*
X0359752Y0351493D02*
X0298095Y0351493D01*
X0297919Y0352491D02*
X0359929Y0352491D01*
X0360446Y0353490D02*
X0297402Y0353490D01*
X0297893Y0352639D02*
X0297893Y0352639D01*
X0296825Y0354488D02*
X0361022Y0354488D01*
X0361599Y0355487D02*
X0296249Y0355487D01*
X0295073Y0356485D02*
X0362775Y0356485D01*
X0361612Y0355509D02*
X0361612Y0355509D01*
X0361612Y0355509D01*
X0375363Y0342506D02*
X0376824Y0342506D01*
X0376236Y0343239D02*
X0376236Y0343239D01*
X0376236Y0343239D01*
X0376389Y0343505D02*
X0376824Y0343505D01*
X0376824Y0341508D02*
X0374173Y0341508D01*
X0372051Y0340509D02*
X0376824Y0340509D01*
X0393229Y0340509D02*
X0398001Y0340509D01*
X0399471Y0339974D02*
X0402786Y0339974D01*
X0405901Y0341108D01*
X0405901Y0341108D01*
X0408440Y0343239D01*
X0408441Y0343239D01*
X0410098Y0346109D01*
X0410098Y0346109D01*
X0410674Y0349374D01*
X0410098Y0352639D01*
X0408441Y0355509D01*
X0408441Y0355509D01*
X0406338Y0357274D01*
X0475920Y0357274D01*
X0473817Y0355509D01*
X0472159Y0352639D01*
X0472159Y0352639D01*
X0471584Y0349374D01*
X0472159Y0346109D01*
X0473817Y0343239D01*
X0473817Y0343239D01*
X0476356Y0341108D01*
X0479471Y0339974D01*
X0482786Y0339974D01*
X0485901Y0341108D01*
X0485901Y0341108D01*
X0488440Y0343239D01*
X0488441Y0343239D01*
X0489029Y0344257D01*
X0489029Y0261474D01*
X0470772Y0261474D01*
X0471529Y0263300D01*
X0471529Y0265448D01*
X0470706Y0267433D01*
X0469187Y0268952D01*
X0467203Y0269774D01*
X0465054Y0269774D01*
X0463070Y0268952D01*
X0461551Y0267433D01*
X0461129Y0266414D01*
X0460706Y0267433D01*
X0459187Y0268952D01*
X0457203Y0269774D01*
X0455054Y0269774D01*
X0453070Y0268952D01*
X0451551Y0267433D01*
X0451129Y0266414D01*
X0450706Y0267433D01*
X0449187Y0268952D01*
X0448179Y0269370D01*
X0448179Y0270223D01*
X0434678Y0283724D01*
X0435255Y0283724D01*
X0436407Y0284201D01*
X0436407Y0283670D01*
X0437403Y0282674D01*
X0441311Y0282674D01*
X0441511Y0282874D01*
X0442775Y0282874D01*
X0442775Y0286749D01*
X0443025Y0286749D01*
X0443025Y0282874D01*
X0444348Y0282874D01*
X0444729Y0282976D01*
X0445071Y0283174D01*
X0445351Y0283453D01*
X0445548Y0283795D01*
X0445650Y0284177D01*
X0445650Y0286749D01*
X0443025Y0286749D01*
X0443025Y0286999D01*
X0445650Y0286999D01*
X0445650Y0289324D01*
X0483978Y0289324D01*
X0485179Y0290525D01*
X0488179Y0293525D01*
X0488179Y0310223D01*
X0486978Y0311424D01*
X0484279Y0314123D01*
X0484279Y0315001D01*
X0483799Y0316158D01*
X0482913Y0317044D01*
X0481755Y0317524D01*
X0480502Y0317524D01*
X0479344Y0317044D01*
X0478458Y0316158D01*
X0477979Y0315001D01*
X0477979Y0313747D01*
X0478458Y0312590D01*
X0479174Y0311874D01*
X0478458Y0311158D01*
X0477979Y0310001D01*
X0477979Y0308747D01*
X0478458Y0307590D01*
X0479079Y0306969D01*
X0479079Y0300223D01*
X0475279Y0296424D01*
X0447238Y0296424D01*
X0447913Y0296704D01*
X0448799Y0297590D01*
X0449279Y0298747D01*
X0449279Y0300001D01*
X0448799Y0301158D01*
X0448179Y0301779D01*
X0448179Y0308525D01*
X0451128Y0311474D01*
X0452005Y0311474D01*
X0453163Y0311954D01*
X0454049Y0312840D01*
X0454529Y0313997D01*
X0454529Y0315251D01*
X0454049Y0316408D01*
X0453163Y0317294D01*
X0452005Y0317774D01*
X0450752Y0317774D01*
X0449594Y0317294D01*
X0448708Y0316408D01*
X0448229Y0315251D01*
X0448229Y0314373D01*
X0444079Y0310223D01*
X0444079Y0301779D01*
X0443458Y0301158D01*
X0442979Y0300001D01*
X0442979Y0298747D01*
X0443458Y0297590D01*
X0444344Y0296704D01*
X0445019Y0296424D01*
X0438179Y0296424D01*
X0438179Y0296969D01*
X0438799Y0297590D01*
X0439279Y0298747D01*
X0439279Y0300001D01*
X0438799Y0301158D01*
X0437913Y0302044D01*
X0436755Y0302524D01*
X0435502Y0302524D01*
X0434344Y0302044D01*
X0433458Y0301158D01*
X0432979Y0300001D01*
X0432979Y0298747D01*
X0433458Y0297590D01*
X0434079Y0296969D01*
X0434079Y0296424D01*
X0406978Y0296424D01*
X0403179Y0300223D01*
X0403179Y0306969D01*
X0403799Y0307590D01*
X0404279Y0308747D01*
X0404279Y0310001D01*
X0403799Y0311158D01*
X0402913Y0312044D01*
X0401755Y0312524D01*
X0400502Y0312524D01*
X0399344Y0312044D01*
X0398458Y0311158D01*
X0397979Y0310001D01*
X0397979Y0308747D01*
X0398458Y0307590D01*
X0399079Y0306969D01*
X0399079Y0298525D01*
X0400279Y0297324D01*
X0405279Y0292324D01*
X0419079Y0292324D01*
X0419079Y0283525D01*
X0420279Y0282324D01*
X0433481Y0269122D01*
X0433070Y0268952D01*
X0431551Y0267433D01*
X0431129Y0266414D01*
X0430706Y0267433D01*
X0429187Y0268952D01*
X0427203Y0269774D01*
X0425054Y0269774D01*
X0423070Y0268952D01*
X0421551Y0267433D01*
X0421019Y0266150D01*
X0420948Y0266370D01*
X0420576Y0267099D01*
X0420095Y0267762D01*
X0419516Y0268340D01*
X0418854Y0268821D01*
X0418125Y0269193D01*
X0417346Y0269446D01*
X0416629Y0269560D01*
X0416629Y0264874D01*
X0415629Y0264874D01*
X0415629Y0269560D01*
X0414911Y0269446D01*
X0414132Y0269193D01*
X0413403Y0268821D01*
X0412741Y0268340D01*
X0412162Y0267762D01*
X0411681Y0267099D01*
X0411310Y0266370D01*
X0411057Y0265592D01*
X0410943Y0264874D01*
X0415629Y0264874D01*
X0415629Y0263874D01*
X0410943Y0263874D01*
X0411057Y0263156D01*
X0411310Y0262378D01*
X0411681Y0261649D01*
X0411808Y0261474D01*
X0393229Y0261474D01*
X0393229Y0344257D01*
X0393817Y0343239D01*
X0393817Y0343239D01*
X0396356Y0341108D01*
X0399471Y0339974D01*
X0396356Y0341108D02*
X0396356Y0341108D01*
X0395880Y0341508D02*
X0393229Y0341508D01*
X0393229Y0342506D02*
X0394690Y0342506D01*
X0393663Y0343505D02*
X0393229Y0343505D01*
X0393229Y0339511D02*
X0489029Y0339511D01*
X0489029Y0340509D02*
X0484256Y0340509D01*
X0486378Y0341508D02*
X0489029Y0341508D01*
X0489029Y0342506D02*
X0487567Y0342506D01*
X0488441Y0343239D02*
X0488441Y0343239D01*
X0488594Y0343505D02*
X0489029Y0343505D01*
X0489029Y0338512D02*
X0393229Y0338512D01*
X0393229Y0337513D02*
X0489029Y0337513D01*
X0489029Y0336515D02*
X0393229Y0336515D01*
X0393229Y0335516D02*
X0489029Y0335516D01*
X0489029Y0334518D02*
X0393229Y0334518D01*
X0393229Y0333519D02*
X0489029Y0333519D01*
X0489029Y0332521D02*
X0393229Y0332521D01*
X0393229Y0331522D02*
X0489029Y0331522D01*
X0489029Y0330524D02*
X0393229Y0330524D01*
X0393229Y0329525D02*
X0489029Y0329525D01*
X0489029Y0328527D02*
X0393229Y0328527D01*
X0393229Y0327528D02*
X0489029Y0327528D01*
X0489029Y0326530D02*
X0393229Y0326530D01*
X0393229Y0325531D02*
X0489029Y0325531D01*
X0489029Y0324533D02*
X0393229Y0324533D01*
X0393229Y0323534D02*
X0489029Y0323534D01*
X0489029Y0322536D02*
X0393229Y0322536D01*
X0393229Y0321537D02*
X0489029Y0321537D01*
X0489029Y0320539D02*
X0393229Y0320539D01*
X0393229Y0319540D02*
X0489029Y0319540D01*
X0489029Y0318542D02*
X0393229Y0318542D01*
X0393229Y0317543D02*
X0450195Y0317543D01*
X0448845Y0316545D02*
X0393229Y0316545D01*
X0393229Y0315546D02*
X0448351Y0315546D01*
X0448229Y0314548D02*
X0393229Y0314548D01*
X0393229Y0313549D02*
X0447405Y0313549D01*
X0446406Y0312551D02*
X0393229Y0312551D01*
X0393229Y0311552D02*
X0398852Y0311552D01*
X0398208Y0310554D02*
X0393229Y0310554D01*
X0393229Y0309555D02*
X0397979Y0309555D01*
X0398058Y0308557D02*
X0393229Y0308557D01*
X0393229Y0307558D02*
X0398490Y0307558D01*
X0399079Y0306560D02*
X0393229Y0306560D01*
X0393229Y0305561D02*
X0399079Y0305561D01*
X0399079Y0304563D02*
X0393229Y0304563D01*
X0393229Y0303564D02*
X0399079Y0303564D01*
X0399079Y0302566D02*
X0393229Y0302566D01*
X0393229Y0301567D02*
X0399079Y0301567D01*
X0399079Y0300569D02*
X0393229Y0300569D01*
X0393229Y0299570D02*
X0399079Y0299570D01*
X0399079Y0298572D02*
X0393229Y0298572D01*
X0393229Y0297573D02*
X0400030Y0297573D01*
X0401029Y0296575D02*
X0393229Y0296575D01*
X0393229Y0295576D02*
X0402027Y0295576D01*
X0403026Y0294578D02*
X0393229Y0294578D01*
X0393229Y0293579D02*
X0404024Y0293579D01*
X0405023Y0292580D02*
X0393229Y0292580D01*
X0393229Y0291582D02*
X0419079Y0291582D01*
X0419079Y0290583D02*
X0393229Y0290583D01*
X0393229Y0289585D02*
X0419079Y0289585D01*
X0419079Y0288586D02*
X0393229Y0288586D01*
X0393229Y0287588D02*
X0419079Y0287588D01*
X0419079Y0286589D02*
X0393229Y0286589D01*
X0393229Y0285591D02*
X0419079Y0285591D01*
X0419079Y0284592D02*
X0393229Y0284592D01*
X0393229Y0283594D02*
X0419079Y0283594D01*
X0420008Y0282595D02*
X0393229Y0282595D01*
X0393229Y0281597D02*
X0421007Y0281597D01*
X0422005Y0280598D02*
X0393229Y0280598D01*
X0393229Y0279600D02*
X0423004Y0279600D01*
X0424002Y0278601D02*
X0393229Y0278601D01*
X0393229Y0277603D02*
X0425001Y0277603D01*
X0425999Y0276604D02*
X0393229Y0276604D01*
X0393229Y0275606D02*
X0426998Y0275606D01*
X0427996Y0274607D02*
X0393229Y0274607D01*
X0393229Y0273609D02*
X0428995Y0273609D01*
X0429993Y0272610D02*
X0393229Y0272610D01*
X0393229Y0271612D02*
X0430992Y0271612D01*
X0431990Y0270613D02*
X0393229Y0270613D01*
X0393229Y0269615D02*
X0424670Y0269615D01*
X0422734Y0268616D02*
X0419136Y0268616D01*
X0420199Y0267618D02*
X0421736Y0267618D01*
X0421214Y0266619D02*
X0420821Y0266619D01*
X0416629Y0266619D02*
X0415629Y0266619D01*
X0415629Y0265621D02*
X0416629Y0265621D01*
X0415629Y0264622D02*
X0393229Y0264622D01*
X0393229Y0263624D02*
X0410983Y0263624D01*
X0411229Y0262625D02*
X0393229Y0262625D01*
X0393229Y0261627D02*
X0411697Y0261627D01*
X0411066Y0265621D02*
X0393229Y0265621D01*
X0393229Y0266619D02*
X0411436Y0266619D01*
X0412058Y0267618D02*
X0393229Y0267618D01*
X0393229Y0268616D02*
X0413121Y0268616D01*
X0415629Y0268616D02*
X0416629Y0268616D01*
X0416629Y0267618D02*
X0415629Y0267618D01*
X0427587Y0269615D02*
X0432989Y0269615D01*
X0432734Y0268616D02*
X0429523Y0268616D01*
X0430522Y0267618D02*
X0431736Y0267618D01*
X0431214Y0266619D02*
X0431044Y0266619D01*
X0441797Y0276604D02*
X0489029Y0276604D01*
X0489029Y0275606D02*
X0442796Y0275606D01*
X0443794Y0274607D02*
X0489029Y0274607D01*
X0489029Y0273609D02*
X0444793Y0273609D01*
X0445791Y0272610D02*
X0489029Y0272610D01*
X0489029Y0271612D02*
X0446790Y0271612D01*
X0447789Y0270613D02*
X0489029Y0270613D01*
X0489029Y0269615D02*
X0467587Y0269615D01*
X0469523Y0268616D02*
X0489029Y0268616D01*
X0489029Y0267618D02*
X0470522Y0267618D01*
X0471044Y0266619D02*
X0489029Y0266619D01*
X0489029Y0265621D02*
X0471457Y0265621D01*
X0471529Y0264622D02*
X0489029Y0264622D01*
X0489029Y0263624D02*
X0471529Y0263624D01*
X0471249Y0262625D02*
X0489029Y0262625D01*
X0489029Y0261627D02*
X0470835Y0261627D01*
X0464670Y0269615D02*
X0457587Y0269615D01*
X0459523Y0268616D02*
X0462734Y0268616D01*
X0461736Y0267618D02*
X0460522Y0267618D01*
X0461044Y0266619D02*
X0461214Y0266619D01*
X0454670Y0269615D02*
X0448179Y0269615D01*
X0449523Y0268616D02*
X0452734Y0268616D01*
X0451736Y0267618D02*
X0450522Y0267618D01*
X0451044Y0266619D02*
X0451214Y0266619D01*
X0440799Y0277603D02*
X0489029Y0277603D01*
X0489029Y0278601D02*
X0439800Y0278601D01*
X0438802Y0279600D02*
X0489029Y0279600D01*
X0489029Y0280598D02*
X0437803Y0280598D01*
X0436805Y0281597D02*
X0489029Y0281597D01*
X0489029Y0282595D02*
X0435806Y0282595D01*
X0436483Y0283594D02*
X0434808Y0283594D01*
X0442775Y0283594D02*
X0443025Y0283594D01*
X0443025Y0284592D02*
X0442775Y0284592D01*
X0442775Y0285591D02*
X0443025Y0285591D01*
X0443025Y0286589D02*
X0442775Y0286589D01*
X0445650Y0286589D02*
X0489029Y0286589D01*
X0489029Y0285591D02*
X0445650Y0285591D01*
X0445650Y0284592D02*
X0489029Y0284592D01*
X0489029Y0283594D02*
X0445432Y0283594D01*
X0445650Y0287588D02*
X0489029Y0287588D01*
X0489029Y0288586D02*
X0445650Y0288586D01*
X0444656Y0296575D02*
X0438179Y0296575D01*
X0438782Y0297573D02*
X0443475Y0297573D01*
X0443051Y0298572D02*
X0439206Y0298572D01*
X0439279Y0299570D02*
X0442979Y0299570D01*
X0443214Y0300569D02*
X0439043Y0300569D01*
X0438390Y0301567D02*
X0443867Y0301567D01*
X0444079Y0302566D02*
X0403179Y0302566D01*
X0403179Y0303564D02*
X0444079Y0303564D01*
X0444079Y0304563D02*
X0403179Y0304563D01*
X0403179Y0305561D02*
X0444079Y0305561D01*
X0444079Y0306560D02*
X0403179Y0306560D01*
X0403768Y0307558D02*
X0444079Y0307558D01*
X0444079Y0308557D02*
X0404200Y0308557D01*
X0404279Y0309555D02*
X0444079Y0309555D01*
X0444409Y0310554D02*
X0404049Y0310554D01*
X0403405Y0311552D02*
X0445408Y0311552D01*
X0448210Y0308557D02*
X0478058Y0308557D01*
X0477979Y0309555D02*
X0449209Y0309555D01*
X0450207Y0310554D02*
X0478208Y0310554D01*
X0478852Y0311552D02*
X0452194Y0311552D01*
X0453760Y0312551D02*
X0478497Y0312551D01*
X0478061Y0313549D02*
X0454343Y0313549D01*
X0454529Y0314548D02*
X0477979Y0314548D01*
X0478205Y0315546D02*
X0454406Y0315546D01*
X0453913Y0316545D02*
X0478845Y0316545D01*
X0483413Y0316545D02*
X0489029Y0316545D01*
X0489029Y0317543D02*
X0452562Y0317543D01*
X0448179Y0307558D02*
X0478490Y0307558D01*
X0479079Y0306560D02*
X0448179Y0306560D01*
X0448179Y0305561D02*
X0479079Y0305561D01*
X0479079Y0304563D02*
X0448179Y0304563D01*
X0448179Y0303564D02*
X0479079Y0303564D01*
X0479079Y0302566D02*
X0448179Y0302566D01*
X0448390Y0301567D02*
X0479079Y0301567D01*
X0479079Y0300569D02*
X0449043Y0300569D01*
X0449279Y0299570D02*
X0478426Y0299570D01*
X0477427Y0298572D02*
X0449206Y0298572D01*
X0448782Y0297573D02*
X0476428Y0297573D01*
X0475430Y0296575D02*
X0447601Y0296575D01*
X0434079Y0296575D02*
X0406827Y0296575D01*
X0405829Y0297573D02*
X0433475Y0297573D01*
X0433051Y0298572D02*
X0404830Y0298572D01*
X0403832Y0299570D02*
X0432979Y0299570D01*
X0433214Y0300569D02*
X0403179Y0300569D01*
X0403179Y0301567D02*
X0433867Y0301567D01*
X0484239Y0289585D02*
X0489029Y0289585D01*
X0489029Y0290583D02*
X0485237Y0290583D01*
X0486236Y0291582D02*
X0489029Y0291582D01*
X0489029Y0292580D02*
X0487234Y0292580D01*
X0488179Y0293579D02*
X0489029Y0293579D01*
X0489029Y0294578D02*
X0488179Y0294578D01*
X0488179Y0295576D02*
X0489029Y0295576D01*
X0489029Y0296575D02*
X0488179Y0296575D01*
X0488179Y0297573D02*
X0489029Y0297573D01*
X0489029Y0298572D02*
X0488179Y0298572D01*
X0488179Y0299570D02*
X0489029Y0299570D01*
X0489029Y0300569D02*
X0488179Y0300569D01*
X0488179Y0301567D02*
X0489029Y0301567D01*
X0489029Y0302566D02*
X0488179Y0302566D01*
X0488179Y0303564D02*
X0489029Y0303564D01*
X0489029Y0304563D02*
X0488179Y0304563D01*
X0488179Y0305561D02*
X0489029Y0305561D01*
X0489029Y0306560D02*
X0488179Y0306560D01*
X0488179Y0307558D02*
X0489029Y0307558D01*
X0489029Y0308557D02*
X0488179Y0308557D01*
X0488179Y0309555D02*
X0489029Y0309555D01*
X0489029Y0310554D02*
X0487848Y0310554D01*
X0486850Y0311552D02*
X0489029Y0311552D01*
X0489029Y0312551D02*
X0485851Y0312551D01*
X0484853Y0313549D02*
X0489029Y0313549D01*
X0489029Y0314548D02*
X0484279Y0314548D01*
X0484053Y0315546D02*
X0489029Y0315546D01*
X0478001Y0340509D02*
X0404256Y0340509D01*
X0406378Y0341508D02*
X0475880Y0341508D01*
X0476356Y0341108D02*
X0476356Y0341108D01*
X0474690Y0342506D02*
X0407567Y0342506D01*
X0408441Y0343239D02*
X0408441Y0343239D01*
X0408594Y0343505D02*
X0473663Y0343505D01*
X0473087Y0344503D02*
X0409171Y0344503D01*
X0409747Y0345502D02*
X0472510Y0345502D01*
X0472159Y0346109D02*
X0472159Y0346109D01*
X0472090Y0346500D02*
X0410167Y0346500D01*
X0410343Y0347499D02*
X0471914Y0347499D01*
X0471738Y0348497D02*
X0410519Y0348497D01*
X0410674Y0349374D02*
X0410674Y0349374D01*
X0410652Y0349496D02*
X0471605Y0349496D01*
X0471584Y0349374D02*
X0471584Y0349374D01*
X0471781Y0350494D02*
X0410476Y0350494D01*
X0410300Y0351493D02*
X0471957Y0351493D01*
X0472133Y0352491D02*
X0410124Y0352491D01*
X0410098Y0352639D02*
X0410098Y0352639D01*
X0409607Y0353490D02*
X0472651Y0353490D01*
X0473227Y0354488D02*
X0409030Y0354488D01*
X0408454Y0355487D02*
X0473804Y0355487D01*
X0473817Y0355509D02*
X0473817Y0355509D01*
X0473817Y0355509D01*
X0474980Y0356485D02*
X0407278Y0356485D01*
X0376824Y0315546D02*
X0371848Y0315546D01*
X0372074Y0314548D02*
X0376824Y0314548D01*
X0376824Y0313549D02*
X0372648Y0313549D01*
X0373646Y0312551D02*
X0376824Y0312551D01*
X0376824Y0311552D02*
X0374645Y0311552D01*
X0375643Y0310554D02*
X0376824Y0310554D01*
X0376824Y0309555D02*
X0375974Y0309555D01*
X0375974Y0308557D02*
X0376824Y0308557D01*
X0376824Y0307558D02*
X0375974Y0307558D01*
X0375974Y0306560D02*
X0376824Y0306560D01*
X0376824Y0305561D02*
X0375974Y0305561D01*
X0375974Y0304563D02*
X0376824Y0304563D01*
X0376824Y0303564D02*
X0375974Y0303564D01*
X0375974Y0302566D02*
X0376824Y0302566D01*
X0376824Y0301567D02*
X0375974Y0301567D01*
X0375974Y0300569D02*
X0376824Y0300569D01*
X0376824Y0299570D02*
X0375974Y0299570D01*
X0375974Y0298572D02*
X0376824Y0298572D01*
X0376824Y0297573D02*
X0375974Y0297573D01*
X0375974Y0296575D02*
X0376824Y0296575D01*
X0376824Y0295576D02*
X0375974Y0295576D01*
X0375974Y0294578D02*
X0376824Y0294578D01*
X0376824Y0293579D02*
X0375974Y0293579D01*
X0376824Y0292580D02*
X0375029Y0292580D01*
X0374031Y0291582D02*
X0376824Y0291582D01*
X0376824Y0290583D02*
X0373032Y0290583D01*
X0372034Y0289585D02*
X0376824Y0289585D01*
X0376824Y0288586D02*
X0333446Y0288586D01*
X0333446Y0287588D02*
X0376824Y0287588D01*
X0376824Y0286589D02*
X0333446Y0286589D01*
X0333446Y0286749D02*
X0333446Y0284177D01*
X0333343Y0283795D01*
X0333146Y0283453D01*
X0332867Y0283174D01*
X0332525Y0282976D01*
X0332143Y0282874D01*
X0330821Y0282874D01*
X0330821Y0286749D01*
X0333446Y0286749D01*
X0333446Y0285591D02*
X0376824Y0285591D01*
X0376824Y0284592D02*
X0333446Y0284592D01*
X0333227Y0283594D02*
X0376824Y0283594D01*
X0376824Y0282595D02*
X0323602Y0282595D01*
X0324278Y0283594D02*
X0322603Y0283594D01*
X0324600Y0281597D02*
X0376824Y0281597D01*
X0376824Y0280598D02*
X0325599Y0280598D01*
X0326597Y0279600D02*
X0376824Y0279600D01*
X0376824Y0278601D02*
X0327596Y0278601D01*
X0328594Y0277603D02*
X0376824Y0277603D01*
X0376824Y0276604D02*
X0329593Y0276604D01*
X0330591Y0275606D02*
X0376824Y0275606D01*
X0376824Y0274607D02*
X0331590Y0274607D01*
X0332588Y0273609D02*
X0376824Y0273609D01*
X0376824Y0272610D02*
X0333587Y0272610D01*
X0334585Y0271612D02*
X0376824Y0271612D01*
X0376824Y0270613D02*
X0335584Y0270613D01*
X0335974Y0269615D02*
X0342465Y0269615D01*
X0340529Y0268616D02*
X0337318Y0268616D01*
X0338317Y0267618D02*
X0339531Y0267618D01*
X0339009Y0266619D02*
X0338839Y0266619D01*
X0345383Y0269615D02*
X0352465Y0269615D01*
X0350529Y0268616D02*
X0347318Y0268616D01*
X0348317Y0267618D02*
X0349531Y0267618D01*
X0349009Y0266619D02*
X0348839Y0266619D01*
X0355383Y0269615D02*
X0376824Y0269615D01*
X0376824Y0268616D02*
X0357318Y0268616D01*
X0358317Y0267618D02*
X0376824Y0267618D01*
X0376824Y0266619D02*
X0358839Y0266619D01*
X0359252Y0265621D02*
X0376824Y0265621D01*
X0376824Y0264622D02*
X0359324Y0264622D01*
X0359324Y0263624D02*
X0376824Y0263624D01*
X0376824Y0262625D02*
X0359044Y0262625D01*
X0358631Y0261627D02*
X0376824Y0261627D01*
X0406338Y0245069D02*
X0408441Y0243305D01*
X0408441Y0243305D01*
X0410098Y0240434D01*
X0410098Y0240434D01*
X0410674Y0237169D01*
X0410674Y0237169D01*
X0410098Y0233905D01*
X0410098Y0233905D01*
X0408441Y0231034D01*
X0408441Y0231034D01*
X0408440Y0231034D01*
X0405901Y0228903D01*
X0405901Y0228903D01*
X0402786Y0227769D01*
X0399471Y0227769D01*
X0396356Y0228903D01*
X0396356Y0228903D01*
X0393817Y0231034D01*
X0393817Y0231034D01*
X0393229Y0232053D01*
X0393229Y0149269D01*
X0411808Y0149269D01*
X0411681Y0149444D01*
X0411310Y0150173D01*
X0411057Y0150952D01*
X0410943Y0151669D01*
X0415629Y0151669D01*
X0415629Y0152669D01*
X0415629Y0157355D01*
X0414911Y0157241D01*
X0414132Y0156988D01*
X0413403Y0156617D01*
X0412741Y0156136D01*
X0412162Y0155557D01*
X0411681Y0154895D01*
X0411310Y0154165D01*
X0411057Y0153387D01*
X0410943Y0152669D01*
X0415629Y0152669D01*
X0416629Y0152669D01*
X0416629Y0157355D01*
X0417346Y0157241D01*
X0418125Y0156988D01*
X0418854Y0156617D01*
X0419516Y0156136D01*
X0420095Y0155557D01*
X0420576Y0154895D01*
X0420948Y0154165D01*
X0421019Y0153945D01*
X0421551Y0155228D01*
X0423070Y0156747D01*
X0425054Y0157569D01*
X0427203Y0157569D01*
X0429187Y0156747D01*
X0430706Y0155228D01*
X0431129Y0154209D01*
X0431551Y0155228D01*
X0433070Y0156747D01*
X0433481Y0156918D01*
X0420279Y0170119D01*
X0419079Y0171320D01*
X0419079Y0180119D01*
X0405279Y0180119D01*
X0400279Y0185119D01*
X0399079Y0186320D01*
X0399079Y0194765D01*
X0398458Y0195385D01*
X0397979Y0196543D01*
X0397979Y0197796D01*
X0398458Y0198954D01*
X0399344Y0199840D01*
X0400502Y0200319D01*
X0401755Y0200319D01*
X0402913Y0199840D01*
X0403799Y0198954D01*
X0404279Y0197796D01*
X0404279Y0196543D01*
X0403799Y0195385D01*
X0403179Y0194765D01*
X0403179Y0188018D01*
X0406978Y0184219D01*
X0434079Y0184219D01*
X0434079Y0184765D01*
X0433458Y0185385D01*
X0432979Y0186543D01*
X0432979Y0187796D01*
X0433458Y0188954D01*
X0434344Y0189840D01*
X0435502Y0190319D01*
X0436755Y0190319D01*
X0437913Y0189840D01*
X0438799Y0188954D01*
X0439279Y0187796D01*
X0439279Y0186543D01*
X0438799Y0185385D01*
X0438179Y0184765D01*
X0438179Y0184219D01*
X0445019Y0184219D01*
X0444344Y0184499D01*
X0443458Y0185385D01*
X0442979Y0186543D01*
X0442979Y0187796D01*
X0443458Y0188954D01*
X0444079Y0189574D01*
X0444079Y0198018D01*
X0448229Y0202168D01*
X0448229Y0203046D01*
X0448708Y0204204D01*
X0449594Y0205090D01*
X0450752Y0205569D01*
X0452005Y0205569D01*
X0453163Y0205090D01*
X0454049Y0204204D01*
X0454529Y0203046D01*
X0454529Y0201793D01*
X0454049Y0200635D01*
X0453163Y0199749D01*
X0452005Y0199269D01*
X0451128Y0199269D01*
X0448179Y0196320D01*
X0448179Y0189574D01*
X0448799Y0188954D01*
X0449279Y0187796D01*
X0449279Y0186543D01*
X0448799Y0185385D01*
X0447913Y0184499D01*
X0447238Y0184219D01*
X0475279Y0184219D01*
X0479079Y0188018D01*
X0479079Y0194765D01*
X0478458Y0195385D01*
X0477979Y0196543D01*
X0477979Y0197796D01*
X0478458Y0198954D01*
X0479174Y0199669D01*
X0478458Y0200385D01*
X0477979Y0201543D01*
X0477979Y0202796D01*
X0478458Y0203954D01*
X0479344Y0204840D01*
X0480502Y0205319D01*
X0481755Y0205319D01*
X0482913Y0204840D01*
X0483799Y0203954D01*
X0484279Y0202796D01*
X0484279Y0201918D01*
X0486978Y0199219D01*
X0488179Y0198018D01*
X0488179Y0181320D01*
X0485179Y0178320D01*
X0483978Y0177119D01*
X0445650Y0177119D01*
X0445650Y0174794D01*
X0443025Y0174794D01*
X0443025Y0174544D01*
X0443025Y0170669D01*
X0444348Y0170669D01*
X0444729Y0170772D01*
X0445071Y0170969D01*
X0445351Y0171248D01*
X0445548Y0171590D01*
X0445650Y0171972D01*
X0445650Y0174544D01*
X0443025Y0174544D01*
X0442775Y0174544D01*
X0442775Y0170669D01*
X0441511Y0170669D01*
X0441311Y0170469D01*
X0437403Y0170469D01*
X0436407Y0171465D01*
X0436407Y0171996D01*
X0435255Y0171519D01*
X0434678Y0171519D01*
X0448179Y0158018D01*
X0448179Y0157165D01*
X0449187Y0156747D01*
X0450706Y0155228D01*
X0451129Y0154209D01*
X0451551Y0155228D01*
X0453070Y0156747D01*
X0455054Y0157569D01*
X0457203Y0157569D01*
X0459187Y0156747D01*
X0460706Y0155228D01*
X0461129Y0154209D01*
X0461551Y0155228D01*
X0463070Y0156747D01*
X0465054Y0157569D01*
X0467203Y0157569D01*
X0469187Y0156747D01*
X0470706Y0155228D01*
X0471529Y0153243D01*
X0471529Y0151095D01*
X0470772Y0149269D01*
X0489029Y0149269D01*
X0489029Y0232053D01*
X0488441Y0231034D01*
X0488441Y0231034D01*
X0488440Y0231034D01*
X0485901Y0228903D01*
X0485901Y0228903D01*
X0482786Y0227769D01*
X0479471Y0227769D01*
X0476356Y0228903D01*
X0476356Y0228903D01*
X0473817Y0231034D01*
X0473817Y0231034D01*
X0472159Y0233905D01*
X0472159Y0233905D01*
X0471584Y0237169D01*
X0471584Y0237169D01*
X0472159Y0240434D01*
X0472159Y0240434D01*
X0473817Y0243305D01*
X0473817Y0243305D01*
X0475920Y0245069D01*
X0406338Y0245069D01*
X0406835Y0244652D02*
X0475422Y0244652D01*
X0474232Y0243653D02*
X0408025Y0243653D01*
X0408816Y0242655D02*
X0473442Y0242655D01*
X0473817Y0243305D02*
X0473817Y0243305D01*
X0472865Y0241656D02*
X0409392Y0241656D01*
X0409969Y0240658D02*
X0472289Y0240658D01*
X0472023Y0239659D02*
X0410235Y0239659D01*
X0410411Y0238661D02*
X0471847Y0238661D01*
X0471671Y0237662D02*
X0410587Y0237662D01*
X0410584Y0236664D02*
X0471673Y0236664D01*
X0471849Y0235665D02*
X0410408Y0235665D01*
X0410232Y0234667D02*
X0472025Y0234667D01*
X0472296Y0233668D02*
X0409961Y0233668D01*
X0409385Y0232670D02*
X0472872Y0232670D01*
X0473449Y0231671D02*
X0408809Y0231671D01*
X0408010Y0230673D02*
X0474247Y0230673D01*
X0475437Y0229674D02*
X0406820Y0229674D01*
X0405277Y0228676D02*
X0476981Y0228676D01*
X0485277Y0228676D02*
X0489029Y0228676D01*
X0489029Y0229674D02*
X0486820Y0229674D01*
X0488010Y0230673D02*
X0489029Y0230673D01*
X0489029Y0231671D02*
X0488809Y0231671D01*
X0489029Y0227677D02*
X0393229Y0227677D01*
X0393229Y0226679D02*
X0489029Y0226679D01*
X0489029Y0225680D02*
X0393229Y0225680D01*
X0393229Y0224682D02*
X0489029Y0224682D01*
X0489029Y0223683D02*
X0393229Y0223683D01*
X0393229Y0222685D02*
X0489029Y0222685D01*
X0489029Y0221686D02*
X0393229Y0221686D01*
X0393229Y0220688D02*
X0489029Y0220688D01*
X0489029Y0219689D02*
X0393229Y0219689D01*
X0393229Y0218691D02*
X0489029Y0218691D01*
X0489029Y0217692D02*
X0393229Y0217692D01*
X0393229Y0216694D02*
X0489029Y0216694D01*
X0489029Y0215695D02*
X0393229Y0215695D01*
X0393229Y0214697D02*
X0489029Y0214697D01*
X0489029Y0213698D02*
X0393229Y0213698D01*
X0393229Y0212700D02*
X0489029Y0212700D01*
X0489029Y0211701D02*
X0393229Y0211701D01*
X0393229Y0210703D02*
X0489029Y0210703D01*
X0489029Y0209704D02*
X0393229Y0209704D01*
X0393229Y0208706D02*
X0489029Y0208706D01*
X0489029Y0207707D02*
X0393229Y0207707D01*
X0393229Y0206709D02*
X0489029Y0206709D01*
X0489029Y0205710D02*
X0393229Y0205710D01*
X0393229Y0204711D02*
X0449216Y0204711D01*
X0448505Y0203713D02*
X0393229Y0203713D01*
X0393229Y0202714D02*
X0448229Y0202714D01*
X0447776Y0201716D02*
X0393229Y0201716D01*
X0393229Y0200717D02*
X0446778Y0200717D01*
X0445779Y0199719D02*
X0403034Y0199719D01*
X0403896Y0198720D02*
X0444781Y0198720D01*
X0444079Y0197722D02*
X0404279Y0197722D01*
X0404279Y0196723D02*
X0444079Y0196723D01*
X0444079Y0195725D02*
X0403940Y0195725D01*
X0403179Y0194726D02*
X0444079Y0194726D01*
X0444079Y0193728D02*
X0403179Y0193728D01*
X0403179Y0192729D02*
X0444079Y0192729D01*
X0444079Y0191731D02*
X0403179Y0191731D01*
X0403179Y0190732D02*
X0444079Y0190732D01*
X0444079Y0189734D02*
X0438019Y0189734D01*
X0438889Y0188735D02*
X0443368Y0188735D01*
X0442979Y0187737D02*
X0439279Y0187737D01*
X0439279Y0186738D02*
X0442979Y0186738D01*
X0443311Y0185740D02*
X0438946Y0185740D01*
X0438179Y0184741D02*
X0444102Y0184741D01*
X0448155Y0184741D02*
X0475801Y0184741D01*
X0476800Y0185740D02*
X0448946Y0185740D01*
X0449279Y0186738D02*
X0477798Y0186738D01*
X0478797Y0187737D02*
X0449279Y0187737D01*
X0448889Y0188735D02*
X0479079Y0188735D01*
X0479079Y0189734D02*
X0448179Y0189734D01*
X0448179Y0190732D02*
X0479079Y0190732D01*
X0479079Y0191731D02*
X0448179Y0191731D01*
X0448179Y0192729D02*
X0479079Y0192729D01*
X0479079Y0193728D02*
X0448179Y0193728D01*
X0448179Y0194726D02*
X0479079Y0194726D01*
X0478317Y0195725D02*
X0448179Y0195725D01*
X0448582Y0196723D02*
X0477979Y0196723D01*
X0477979Y0197722D02*
X0449580Y0197722D01*
X0450579Y0198720D02*
X0478362Y0198720D01*
X0479124Y0199719D02*
X0453091Y0199719D01*
X0454083Y0200717D02*
X0478320Y0200717D01*
X0477979Y0201716D02*
X0454497Y0201716D01*
X0454529Y0202714D02*
X0477979Y0202714D01*
X0478358Y0203713D02*
X0454252Y0203713D01*
X0453541Y0204711D02*
X0479216Y0204711D01*
X0483041Y0204711D02*
X0489029Y0204711D01*
X0489029Y0203713D02*
X0483899Y0203713D01*
X0484279Y0202714D02*
X0489029Y0202714D01*
X0489029Y0201716D02*
X0484481Y0201716D01*
X0485480Y0200717D02*
X0489029Y0200717D01*
X0489029Y0199719D02*
X0486478Y0199719D01*
X0487477Y0198720D02*
X0489029Y0198720D01*
X0489029Y0197722D02*
X0488179Y0197722D01*
X0488179Y0196723D02*
X0489029Y0196723D01*
X0489029Y0195725D02*
X0488179Y0195725D01*
X0488179Y0194726D02*
X0489029Y0194726D01*
X0489029Y0193728D02*
X0488179Y0193728D01*
X0488179Y0192729D02*
X0489029Y0192729D01*
X0489029Y0191731D02*
X0488179Y0191731D01*
X0488179Y0190732D02*
X0489029Y0190732D01*
X0489029Y0189734D02*
X0488179Y0189734D01*
X0488179Y0188735D02*
X0489029Y0188735D01*
X0489029Y0187737D02*
X0488179Y0187737D01*
X0488179Y0186738D02*
X0489029Y0186738D01*
X0489029Y0185740D02*
X0488179Y0185740D01*
X0488179Y0184741D02*
X0489029Y0184741D01*
X0489029Y0183743D02*
X0488179Y0183743D01*
X0488179Y0182744D02*
X0489029Y0182744D01*
X0489029Y0181746D02*
X0488179Y0181746D01*
X0487606Y0180747D02*
X0489029Y0180747D01*
X0489029Y0179749D02*
X0486607Y0179749D01*
X0485609Y0178750D02*
X0489029Y0178750D01*
X0489029Y0177752D02*
X0484610Y0177752D01*
X0489029Y0176753D02*
X0445650Y0176753D01*
X0445650Y0175755D02*
X0489029Y0175755D01*
X0489029Y0174756D02*
X0443025Y0174756D01*
X0443025Y0173758D02*
X0442775Y0173758D01*
X0442775Y0172759D02*
X0443025Y0172759D01*
X0443025Y0171761D02*
X0442775Y0171761D01*
X0442775Y0170762D02*
X0443025Y0170762D01*
X0444694Y0170762D02*
X0489029Y0170762D01*
X0489029Y0169764D02*
X0436433Y0169764D01*
X0437110Y0170762D02*
X0435435Y0170762D01*
X0435838Y0171761D02*
X0436407Y0171761D01*
X0437432Y0168765D02*
X0489029Y0168765D01*
X0489029Y0167767D02*
X0438430Y0167767D01*
X0439429Y0166768D02*
X0489029Y0166768D01*
X0489029Y0165770D02*
X0440427Y0165770D01*
X0441426Y0164771D02*
X0489029Y0164771D01*
X0489029Y0163773D02*
X0442424Y0163773D01*
X0443423Y0162774D02*
X0489029Y0162774D01*
X0489029Y0161776D02*
X0444422Y0161776D01*
X0445420Y0160777D02*
X0489029Y0160777D01*
X0489029Y0159778D02*
X0446419Y0159778D01*
X0447417Y0158780D02*
X0489029Y0158780D01*
X0489029Y0157781D02*
X0448179Y0157781D01*
X0449101Y0156783D02*
X0453156Y0156783D01*
X0452107Y0155784D02*
X0450150Y0155784D01*
X0450890Y0154786D02*
X0451368Y0154786D01*
X0459101Y0156783D02*
X0463156Y0156783D01*
X0462107Y0155784D02*
X0460150Y0155784D01*
X0460890Y0154786D02*
X0461368Y0154786D01*
X0469101Y0156783D02*
X0489029Y0156783D01*
X0489029Y0155784D02*
X0470150Y0155784D01*
X0470890Y0154786D02*
X0489029Y0154786D01*
X0489029Y0153787D02*
X0471303Y0153787D01*
X0471529Y0152789D02*
X0489029Y0152789D01*
X0489029Y0151790D02*
X0471529Y0151790D01*
X0471403Y0150792D02*
X0489029Y0150792D01*
X0489029Y0149793D02*
X0470989Y0149793D01*
X0475920Y0132865D02*
X0473817Y0131100D01*
X0473817Y0131100D01*
X0472159Y0128229D01*
X0471584Y0124965D01*
X0472159Y0121700D01*
X0473817Y0118829D01*
X0476356Y0116698D01*
X0476356Y0116698D01*
X0479471Y0115565D01*
X0482786Y0115565D01*
X0485901Y0116698D01*
X0488440Y0118829D01*
X0488441Y0118829D01*
X0488441Y0118829D01*
X0489029Y0119848D01*
X0489029Y0037065D01*
X0470772Y0037065D01*
X0471529Y0038890D01*
X0471529Y0041039D01*
X0470706Y0043023D01*
X0469187Y0044542D01*
X0467203Y0045365D01*
X0465054Y0045365D01*
X0463070Y0044542D01*
X0461551Y0043023D01*
X0461129Y0042004D01*
X0460706Y0043023D01*
X0459187Y0044542D01*
X0457203Y0045365D01*
X0455054Y0045365D01*
X0453070Y0044542D01*
X0451551Y0043023D01*
X0451129Y0042004D01*
X0450706Y0043023D01*
X0449187Y0044542D01*
X0448179Y0044960D01*
X0448179Y0045814D01*
X0434678Y0059315D01*
X0435255Y0059315D01*
X0436407Y0059792D01*
X0436407Y0059260D01*
X0437403Y0058265D01*
X0441311Y0058265D01*
X0441511Y0058465D01*
X0442775Y0058465D01*
X0442775Y0062339D01*
X0443025Y0062339D01*
X0443025Y0058465D01*
X0444348Y0058465D01*
X0444729Y0058567D01*
X0445071Y0058764D01*
X0445351Y0059044D01*
X0445548Y0059386D01*
X0445650Y0059767D01*
X0445650Y0062340D01*
X0443025Y0062340D01*
X0443025Y0062590D01*
X0445650Y0062590D01*
X0445650Y0064915D01*
X0483978Y0064915D01*
X0485179Y0066115D01*
X0485179Y0066115D01*
X0488179Y0069115D01*
X0488179Y0085814D01*
X0486978Y0087015D01*
X0484279Y0089714D01*
X0484279Y0090591D01*
X0483799Y0091749D01*
X0482913Y0092635D01*
X0481755Y0093115D01*
X0480502Y0093115D01*
X0479344Y0092635D01*
X0478458Y0091749D01*
X0477979Y0090591D01*
X0477979Y0089338D01*
X0478458Y0088180D01*
X0479174Y0087465D01*
X0478458Y0086749D01*
X0477979Y0085591D01*
X0477979Y0084338D01*
X0478458Y0083180D01*
X0479079Y0082560D01*
X0479079Y0075814D01*
X0475279Y0072015D01*
X0447238Y0072015D01*
X0447913Y0072294D01*
X0448799Y0073180D01*
X0449279Y0074338D01*
X0449279Y0075591D01*
X0448799Y0076749D01*
X0448179Y0077369D01*
X0448179Y0084115D01*
X0451128Y0087065D01*
X0452005Y0087065D01*
X0453163Y0087544D01*
X0454049Y0088430D01*
X0454529Y0089588D01*
X0454529Y0090841D01*
X0454049Y0091999D01*
X0453163Y0092885D01*
X0452005Y0093365D01*
X0450752Y0093365D01*
X0449594Y0092885D01*
X0448708Y0091999D01*
X0448229Y0090841D01*
X0448229Y0089964D01*
X0445279Y0087015D01*
X0444079Y0085814D01*
X0444079Y0077369D01*
X0443458Y0076749D01*
X0442979Y0075591D01*
X0442979Y0074338D01*
X0443458Y0073180D01*
X0444344Y0072294D01*
X0445019Y0072015D01*
X0438179Y0072015D01*
X0438179Y0072560D01*
X0438799Y0073180D01*
X0439279Y0074338D01*
X0439279Y0075591D01*
X0438799Y0076749D01*
X0437913Y0077635D01*
X0436755Y0078115D01*
X0435502Y0078115D01*
X0434344Y0077635D01*
X0433458Y0076749D01*
X0432979Y0075591D01*
X0432979Y0074338D01*
X0433458Y0073180D01*
X0434079Y0072560D01*
X0434079Y0072015D01*
X0406978Y0072015D01*
X0403179Y0075814D01*
X0403179Y0082560D01*
X0403799Y0083180D01*
X0404279Y0084338D01*
X0404279Y0085591D01*
X0403799Y0086749D01*
X0402913Y0087635D01*
X0401755Y0088115D01*
X0400502Y0088115D01*
X0399344Y0087635D01*
X0398458Y0086749D01*
X0397979Y0085591D01*
X0397979Y0084338D01*
X0398458Y0083180D01*
X0399079Y0082560D01*
X0399079Y0074115D01*
X0400279Y0072915D01*
X0405279Y0067915D01*
X0393229Y0067915D01*
X0393229Y0066917D02*
X0419079Y0066917D01*
X0419079Y0067915D02*
X0419079Y0059115D01*
X0420279Y0057915D01*
X0433481Y0044713D01*
X0433070Y0044542D01*
X0431551Y0043023D01*
X0431129Y0042004D01*
X0430706Y0043023D01*
X0429187Y0044542D01*
X0427203Y0045365D01*
X0425054Y0045365D01*
X0423070Y0044542D01*
X0421551Y0043023D01*
X0421019Y0041740D01*
X0420948Y0041961D01*
X0420576Y0042690D01*
X0420095Y0043352D01*
X0419516Y0043931D01*
X0418854Y0044412D01*
X0418125Y0044784D01*
X0417346Y0045037D01*
X0416629Y0045150D01*
X0416629Y0040465D01*
X0415629Y0040465D01*
X0415629Y0045150D01*
X0414911Y0045037D01*
X0414132Y0044784D01*
X0413403Y0044412D01*
X0412741Y0043931D01*
X0412162Y0043352D01*
X0411681Y0042690D01*
X0411310Y0041961D01*
X0411057Y0041182D01*
X0410943Y0040465D01*
X0415629Y0040465D01*
X0415629Y0039465D01*
X0410943Y0039465D01*
X0411057Y0038747D01*
X0411310Y0037968D01*
X0411681Y0037239D01*
X0411808Y0037065D01*
X0393229Y0037065D01*
X0393229Y0119848D01*
X0393817Y0118829D01*
X0396356Y0116698D01*
X0396356Y0116698D01*
X0399471Y0115565D01*
X0402786Y0115565D01*
X0405901Y0116698D01*
X0408440Y0118829D01*
X0408441Y0118829D01*
X0408441Y0118829D01*
X0410098Y0121700D01*
X0410674Y0124965D01*
X0410098Y0128229D01*
X0410098Y0128229D01*
X0408441Y0131100D01*
X0406338Y0132865D01*
X0475920Y0132865D01*
X0475865Y0132819D02*
X0406392Y0132819D01*
X0407582Y0131820D02*
X0474675Y0131820D01*
X0473817Y0131100D02*
X0473817Y0131100D01*
X0473656Y0130822D02*
X0408601Y0130822D01*
X0408441Y0131100D02*
X0408441Y0131100D01*
X0409178Y0129823D02*
X0473080Y0129823D01*
X0472503Y0128825D02*
X0409754Y0128825D01*
X0410169Y0127826D02*
X0472088Y0127826D01*
X0472159Y0128229D02*
X0472159Y0128229D01*
X0471912Y0126828D02*
X0410345Y0126828D01*
X0410521Y0125829D02*
X0471736Y0125829D01*
X0471584Y0124965D02*
X0471584Y0124965D01*
X0471607Y0124831D02*
X0410650Y0124831D01*
X0410674Y0124965D02*
X0410674Y0124965D01*
X0410474Y0123832D02*
X0471783Y0123832D01*
X0471959Y0122834D02*
X0410298Y0122834D01*
X0410122Y0121835D02*
X0472135Y0121835D01*
X0472159Y0121700D02*
X0472159Y0121700D01*
X0472658Y0120837D02*
X0409599Y0120837D01*
X0410098Y0121700D02*
X0410098Y0121700D01*
X0409023Y0119838D02*
X0473234Y0119838D01*
X0473811Y0118840D02*
X0408446Y0118840D01*
X0407263Y0117841D02*
X0474994Y0117841D01*
X0473817Y0118829D02*
X0473817Y0118829D01*
X0476184Y0116842D02*
X0406073Y0116842D01*
X0405901Y0116698D02*
X0405901Y0116698D01*
X0403554Y0115844D02*
X0478703Y0115844D01*
X0483554Y0115844D02*
X0489029Y0115844D01*
X0489029Y0116842D02*
X0486073Y0116842D01*
X0485901Y0116698D02*
X0485901Y0116698D01*
X0487263Y0117841D02*
X0489029Y0117841D01*
X0489029Y0118840D02*
X0488446Y0118840D01*
X0489023Y0119838D02*
X0489029Y0119838D01*
X0489029Y0114845D02*
X0393229Y0114845D01*
X0393229Y0113847D02*
X0489029Y0113847D01*
X0489029Y0112848D02*
X0393229Y0112848D01*
X0393229Y0111850D02*
X0489029Y0111850D01*
X0489029Y0110851D02*
X0393229Y0110851D01*
X0393229Y0109853D02*
X0489029Y0109853D01*
X0489029Y0108854D02*
X0393229Y0108854D01*
X0393229Y0107856D02*
X0489029Y0107856D01*
X0489029Y0106857D02*
X0393229Y0106857D01*
X0393229Y0105859D02*
X0489029Y0105859D01*
X0489029Y0104860D02*
X0393229Y0104860D01*
X0393229Y0103862D02*
X0489029Y0103862D01*
X0489029Y0102863D02*
X0393229Y0102863D01*
X0393229Y0101865D02*
X0489029Y0101865D01*
X0489029Y0100866D02*
X0393229Y0100866D01*
X0393229Y0099868D02*
X0489029Y0099868D01*
X0489029Y0098869D02*
X0393229Y0098869D01*
X0393229Y0097871D02*
X0489029Y0097871D01*
X0489029Y0096872D02*
X0393229Y0096872D01*
X0393229Y0095874D02*
X0489029Y0095874D01*
X0489029Y0094875D02*
X0393229Y0094875D01*
X0393229Y0093877D02*
X0489029Y0093877D01*
X0489029Y0092878D02*
X0482326Y0092878D01*
X0483668Y0091880D02*
X0489029Y0091880D01*
X0489029Y0090881D02*
X0484158Y0090881D01*
X0484279Y0089883D02*
X0489029Y0089883D01*
X0489029Y0088884D02*
X0485108Y0088884D01*
X0486107Y0087886D02*
X0489029Y0087886D01*
X0489029Y0086887D02*
X0487105Y0086887D01*
X0488104Y0085889D02*
X0489029Y0085889D01*
X0489029Y0084890D02*
X0488179Y0084890D01*
X0488179Y0083892D02*
X0489029Y0083892D01*
X0489029Y0082893D02*
X0488179Y0082893D01*
X0488179Y0081895D02*
X0489029Y0081895D01*
X0489029Y0080896D02*
X0488179Y0080896D01*
X0488179Y0079898D02*
X0489029Y0079898D01*
X0489029Y0078899D02*
X0488179Y0078899D01*
X0488179Y0077901D02*
X0489029Y0077901D01*
X0489029Y0076902D02*
X0488179Y0076902D01*
X0488179Y0075904D02*
X0489029Y0075904D01*
X0489029Y0074905D02*
X0488179Y0074905D01*
X0488179Y0073907D02*
X0489029Y0073907D01*
X0489029Y0072908D02*
X0488179Y0072908D01*
X0488179Y0071909D02*
X0489029Y0071909D01*
X0489029Y0070911D02*
X0488179Y0070911D01*
X0488179Y0069912D02*
X0489029Y0069912D01*
X0489029Y0068914D02*
X0487977Y0068914D01*
X0486979Y0067915D02*
X0489029Y0067915D01*
X0489029Y0066917D02*
X0485980Y0066917D01*
X0484982Y0065918D02*
X0489029Y0065918D01*
X0489029Y0064920D02*
X0483983Y0064920D01*
X0489029Y0063921D02*
X0445650Y0063921D01*
X0445650Y0062923D02*
X0489029Y0062923D01*
X0489029Y0061924D02*
X0445650Y0061924D01*
X0445650Y0060926D02*
X0489029Y0060926D01*
X0489029Y0059927D02*
X0445650Y0059927D01*
X0445236Y0058929D02*
X0489029Y0058929D01*
X0489029Y0057930D02*
X0436062Y0057930D01*
X0436739Y0058929D02*
X0435063Y0058929D01*
X0437060Y0056932D02*
X0489029Y0056932D01*
X0489029Y0055933D02*
X0438059Y0055933D01*
X0439058Y0054935D02*
X0489029Y0054935D01*
X0489029Y0053936D02*
X0440056Y0053936D01*
X0441055Y0052938D02*
X0489029Y0052938D01*
X0489029Y0051939D02*
X0442053Y0051939D01*
X0443052Y0050941D02*
X0489029Y0050941D01*
X0489029Y0049942D02*
X0444050Y0049942D01*
X0445049Y0048944D02*
X0489029Y0048944D01*
X0489029Y0047945D02*
X0446047Y0047945D01*
X0447046Y0046947D02*
X0489029Y0046947D01*
X0489029Y0045948D02*
X0448044Y0045948D01*
X0448204Y0044950D02*
X0454053Y0044950D01*
X0452478Y0043951D02*
X0449779Y0043951D01*
X0450736Y0042953D02*
X0451521Y0042953D01*
X0458204Y0044950D02*
X0464053Y0044950D01*
X0462478Y0043951D02*
X0459779Y0043951D01*
X0460736Y0042953D02*
X0461521Y0042953D01*
X0468204Y0044950D02*
X0489029Y0044950D01*
X0489029Y0043951D02*
X0469779Y0043951D01*
X0470736Y0042953D02*
X0489029Y0042953D01*
X0489029Y0041954D02*
X0471149Y0041954D01*
X0471529Y0040956D02*
X0489029Y0040956D01*
X0489029Y0039957D02*
X0471529Y0039957D01*
X0471529Y0038959D02*
X0489029Y0038959D01*
X0489029Y0037960D02*
X0471143Y0037960D01*
X0443025Y0058929D02*
X0442775Y0058929D01*
X0442775Y0059927D02*
X0443025Y0059927D01*
X0443025Y0060926D02*
X0442775Y0060926D01*
X0442775Y0061924D02*
X0443025Y0061924D01*
X0443730Y0072908D02*
X0438527Y0072908D01*
X0439100Y0073907D02*
X0443157Y0073907D01*
X0442979Y0074905D02*
X0439279Y0074905D01*
X0439149Y0075904D02*
X0443108Y0075904D01*
X0443611Y0076902D02*
X0438646Y0076902D01*
X0437272Y0077901D02*
X0444079Y0077901D01*
X0444079Y0078899D02*
X0403179Y0078899D01*
X0403179Y0077901D02*
X0434985Y0077901D01*
X0433611Y0076902D02*
X0403179Y0076902D01*
X0403179Y0075904D02*
X0433108Y0075904D01*
X0432979Y0074905D02*
X0404087Y0074905D01*
X0405086Y0073907D02*
X0433157Y0073907D01*
X0433730Y0072908D02*
X0406084Y0072908D01*
X0403282Y0069912D02*
X0393229Y0069912D01*
X0393229Y0068914D02*
X0404280Y0068914D01*
X0405279Y0067915D02*
X0419079Y0067915D01*
X0419079Y0065918D02*
X0393229Y0065918D01*
X0393229Y0064920D02*
X0419079Y0064920D01*
X0419079Y0063921D02*
X0393229Y0063921D01*
X0393229Y0062923D02*
X0419079Y0062923D01*
X0419079Y0061924D02*
X0393229Y0061924D01*
X0393229Y0060926D02*
X0419079Y0060926D01*
X0419079Y0059927D02*
X0393229Y0059927D01*
X0393229Y0058929D02*
X0419265Y0058929D01*
X0420264Y0057930D02*
X0393229Y0057930D01*
X0393229Y0056932D02*
X0421262Y0056932D01*
X0422261Y0055933D02*
X0393229Y0055933D01*
X0393229Y0054935D02*
X0423259Y0054935D01*
X0424258Y0053936D02*
X0393229Y0053936D01*
X0393229Y0052938D02*
X0425256Y0052938D01*
X0426255Y0051939D02*
X0393229Y0051939D01*
X0393229Y0050941D02*
X0427253Y0050941D01*
X0428252Y0049942D02*
X0393229Y0049942D01*
X0393229Y0048944D02*
X0429250Y0048944D01*
X0430249Y0047945D02*
X0393229Y0047945D01*
X0393229Y0046947D02*
X0431247Y0046947D01*
X0432246Y0045948D02*
X0393229Y0045948D01*
X0393229Y0044950D02*
X0414644Y0044950D01*
X0415629Y0044950D02*
X0416629Y0044950D01*
X0417614Y0044950D02*
X0424053Y0044950D01*
X0422478Y0043951D02*
X0419488Y0043951D01*
X0420385Y0042953D02*
X0421521Y0042953D01*
X0421108Y0041954D02*
X0420950Y0041954D01*
X0416629Y0041954D02*
X0415629Y0041954D01*
X0415629Y0040956D02*
X0416629Y0040956D01*
X0415629Y0039957D02*
X0393229Y0039957D01*
X0393229Y0038959D02*
X0411023Y0038959D01*
X0411314Y0037960D02*
X0393229Y0037960D01*
X0393229Y0040956D02*
X0411021Y0040956D01*
X0411307Y0041954D02*
X0393229Y0041954D01*
X0393229Y0042953D02*
X0411872Y0042953D01*
X0412769Y0043951D02*
X0393229Y0043951D01*
X0376824Y0043951D02*
X0357574Y0043951D01*
X0356983Y0044542D02*
X0354998Y0045365D01*
X0352850Y0045365D01*
X0350865Y0044542D01*
X0349346Y0043023D01*
X0348924Y0042004D01*
X0348502Y0043023D01*
X0346983Y0044542D01*
X0344998Y0045365D01*
X0342850Y0045365D01*
X0340865Y0044542D01*
X0339346Y0043023D01*
X0338924Y0042004D01*
X0338502Y0043023D01*
X0336983Y0044542D01*
X0335974Y0044960D01*
X0335974Y0045814D01*
X0322473Y0059315D01*
X0323050Y0059315D01*
X0324202Y0059792D01*
X0324202Y0059260D01*
X0325198Y0058265D01*
X0329106Y0058265D01*
X0329306Y0058465D01*
X0330571Y0058465D01*
X0330571Y0062339D01*
X0330821Y0062339D01*
X0330821Y0062340D02*
X0330821Y0062590D01*
X0333446Y0062590D01*
X0333446Y0064915D01*
X0371773Y0064915D01*
X0372974Y0066115D01*
X0372974Y0066115D01*
X0375974Y0069115D01*
X0375974Y0085814D01*
X0374773Y0087015D01*
X0372074Y0089714D01*
X0372074Y0090591D01*
X0371594Y0091749D01*
X0370708Y0092635D01*
X0369550Y0093115D01*
X0368297Y0093115D01*
X0367140Y0092635D01*
X0366253Y0091749D01*
X0365774Y0090591D01*
X0365774Y0089338D01*
X0366253Y0088180D01*
X0366969Y0087465D01*
X0366253Y0086749D01*
X0365774Y0085591D01*
X0365774Y0084338D01*
X0366253Y0083180D01*
X0366874Y0082560D01*
X0366874Y0075814D01*
X0363075Y0072015D01*
X0335033Y0072015D01*
X0335708Y0072294D01*
X0336594Y0073180D01*
X0337074Y0074338D01*
X0337074Y0075591D01*
X0336594Y0076749D01*
X0335974Y0077369D01*
X0335974Y0084115D01*
X0338923Y0087065D01*
X0339800Y0087065D01*
X0340958Y0087544D01*
X0341844Y0088430D01*
X0342324Y0089588D01*
X0342324Y0090841D01*
X0341844Y0091999D01*
X0340958Y0092885D01*
X0339800Y0093365D01*
X0338547Y0093365D01*
X0337390Y0092885D01*
X0336503Y0091999D01*
X0336024Y0090841D01*
X0336024Y0089964D01*
X0331874Y0085814D01*
X0331874Y0077369D01*
X0331253Y0076749D01*
X0330774Y0075591D01*
X0330774Y0074338D01*
X0331253Y0073180D01*
X0332140Y0072294D01*
X0332814Y0072015D01*
X0325974Y0072015D01*
X0325974Y0072560D01*
X0326594Y0073180D01*
X0327074Y0074338D01*
X0327074Y0075591D01*
X0326594Y0076749D01*
X0325708Y0077635D01*
X0324550Y0078115D01*
X0323297Y0078115D01*
X0322140Y0077635D01*
X0321253Y0076749D01*
X0320774Y0075591D01*
X0320774Y0074338D01*
X0321253Y0073180D01*
X0321874Y0072560D01*
X0321874Y0072015D01*
X0294773Y0072015D01*
X0290974Y0075814D01*
X0290974Y0082560D01*
X0291594Y0083180D01*
X0292074Y0084338D01*
X0292074Y0085591D01*
X0291594Y0086749D01*
X0290708Y0087635D01*
X0289550Y0088115D01*
X0288297Y0088115D01*
X0287140Y0087635D01*
X0286253Y0086749D01*
X0285774Y0085591D01*
X0285774Y0084338D01*
X0286253Y0083180D01*
X0286874Y0082560D01*
X0286874Y0074115D01*
X0288075Y0072915D01*
X0293075Y0067915D01*
X0306874Y0067915D01*
X0306874Y0059115D01*
X0308075Y0057915D01*
X0321276Y0044713D01*
X0320865Y0044542D01*
X0319346Y0043023D01*
X0318924Y0042004D01*
X0318502Y0043023D01*
X0316983Y0044542D01*
X0314998Y0045365D01*
X0312850Y0045365D01*
X0310865Y0044542D01*
X0309346Y0043023D01*
X0308814Y0041740D01*
X0308743Y0041961D01*
X0308371Y0042690D01*
X0307890Y0043352D01*
X0307311Y0043931D01*
X0306649Y0044412D01*
X0305920Y0044784D01*
X0305142Y0045037D01*
X0304424Y0045150D01*
X0304424Y0040465D01*
X0303424Y0040465D01*
X0303424Y0045150D01*
X0302706Y0045037D01*
X0301928Y0044784D01*
X0301198Y0044412D01*
X0300536Y0043931D01*
X0299958Y0043352D01*
X0299476Y0042690D01*
X0299105Y0041961D01*
X0298852Y0041182D01*
X0298738Y0040465D01*
X0303424Y0040465D01*
X0303424Y0039465D01*
X0298738Y0039465D01*
X0298852Y0038747D01*
X0299105Y0037968D01*
X0299476Y0037239D01*
X0299603Y0037065D01*
X0281024Y0037065D01*
X0281024Y0119848D01*
X0281612Y0118829D01*
X0284151Y0116698D01*
X0287266Y0115565D01*
X0290581Y0115565D01*
X0293696Y0116698D01*
X0296236Y0118829D01*
X0296236Y0118829D01*
X0296236Y0118829D01*
X0297893Y0121700D01*
X0298469Y0124965D01*
X0297893Y0128229D01*
X0297893Y0128229D01*
X0296236Y0131100D01*
X0294133Y0132865D01*
X0363715Y0132865D01*
X0361612Y0131100D01*
X0361612Y0131100D01*
X0361612Y0131100D01*
X0359955Y0128229D01*
X0359379Y0124965D01*
X0359379Y0124965D01*
X0359955Y0121700D01*
X0361612Y0118829D01*
X0364151Y0116698D01*
X0367266Y0115565D01*
X0370581Y0115565D01*
X0373696Y0116698D01*
X0376236Y0118829D01*
X0376236Y0118829D01*
X0376236Y0118829D01*
X0376824Y0119848D01*
X0376824Y0037065D01*
X0358568Y0037065D01*
X0359324Y0038890D01*
X0359324Y0041039D01*
X0358502Y0043023D01*
X0356983Y0044542D01*
X0356000Y0044950D02*
X0376824Y0044950D01*
X0376824Y0045948D02*
X0335839Y0045948D01*
X0336000Y0044950D02*
X0341848Y0044950D01*
X0340274Y0043951D02*
X0337574Y0043951D01*
X0338531Y0042953D02*
X0339317Y0042953D01*
X0334841Y0046947D02*
X0376824Y0046947D01*
X0376824Y0047945D02*
X0333842Y0047945D01*
X0332844Y0048944D02*
X0376824Y0048944D01*
X0376824Y0049942D02*
X0331845Y0049942D01*
X0330847Y0050941D02*
X0376824Y0050941D01*
X0376824Y0051939D02*
X0329848Y0051939D01*
X0328850Y0052938D02*
X0376824Y0052938D01*
X0376824Y0053936D02*
X0327851Y0053936D01*
X0326853Y0054935D02*
X0376824Y0054935D01*
X0376824Y0055933D02*
X0325854Y0055933D01*
X0324856Y0056932D02*
X0376824Y0056932D01*
X0376824Y0057930D02*
X0323857Y0057930D01*
X0324534Y0058929D02*
X0322859Y0058929D01*
X0330571Y0058929D02*
X0330821Y0058929D01*
X0330821Y0058465D02*
X0330821Y0062339D01*
X0330821Y0062340D02*
X0333446Y0062340D01*
X0333446Y0059767D01*
X0333343Y0059386D01*
X0333146Y0059044D01*
X0332867Y0058764D01*
X0332525Y0058567D01*
X0332143Y0058465D01*
X0330821Y0058465D01*
X0330821Y0059927D02*
X0330571Y0059927D01*
X0330571Y0060926D02*
X0330821Y0060926D01*
X0330821Y0061924D02*
X0330571Y0061924D01*
X0333446Y0061924D02*
X0376824Y0061924D01*
X0376824Y0060926D02*
X0333446Y0060926D01*
X0333446Y0059927D02*
X0376824Y0059927D01*
X0376824Y0058929D02*
X0333031Y0058929D01*
X0333446Y0062923D02*
X0376824Y0062923D01*
X0376824Y0063921D02*
X0333446Y0063921D01*
X0331526Y0072908D02*
X0326322Y0072908D01*
X0326895Y0073907D02*
X0330953Y0073907D01*
X0330774Y0074905D02*
X0327074Y0074905D01*
X0326944Y0075904D02*
X0330903Y0075904D01*
X0331407Y0076902D02*
X0326441Y0076902D01*
X0325067Y0077901D02*
X0331874Y0077901D01*
X0331874Y0078899D02*
X0290974Y0078899D01*
X0290974Y0077901D02*
X0322781Y0077901D01*
X0321407Y0076902D02*
X0290974Y0076902D01*
X0290974Y0075904D02*
X0320903Y0075904D01*
X0320774Y0074905D02*
X0291883Y0074905D01*
X0292881Y0073907D02*
X0320953Y0073907D01*
X0321526Y0072908D02*
X0293880Y0072908D01*
X0291077Y0069912D02*
X0281024Y0069912D01*
X0281024Y0068914D02*
X0292075Y0068914D01*
X0293074Y0067915D02*
X0281024Y0067915D01*
X0281024Y0066917D02*
X0306874Y0066917D01*
X0306874Y0065918D02*
X0281024Y0065918D01*
X0281024Y0064920D02*
X0306874Y0064920D01*
X0306874Y0063921D02*
X0281024Y0063921D01*
X0281024Y0062923D02*
X0306874Y0062923D01*
X0306874Y0061924D02*
X0281024Y0061924D01*
X0281024Y0060926D02*
X0306874Y0060926D01*
X0306874Y0059927D02*
X0281024Y0059927D01*
X0281024Y0058929D02*
X0307060Y0058929D01*
X0308059Y0057930D02*
X0281024Y0057930D01*
X0281024Y0056932D02*
X0309057Y0056932D01*
X0310056Y0055933D02*
X0281024Y0055933D01*
X0281024Y0054935D02*
X0311055Y0054935D01*
X0312053Y0053936D02*
X0281024Y0053936D01*
X0281024Y0052938D02*
X0313052Y0052938D01*
X0314050Y0051939D02*
X0281024Y0051939D01*
X0281024Y0050941D02*
X0315049Y0050941D01*
X0316047Y0049942D02*
X0281024Y0049942D01*
X0281024Y0048944D02*
X0317046Y0048944D01*
X0318044Y0047945D02*
X0281024Y0047945D01*
X0281024Y0046947D02*
X0319043Y0046947D01*
X0320041Y0045948D02*
X0281024Y0045948D01*
X0281024Y0044950D02*
X0302439Y0044950D01*
X0303424Y0044950D02*
X0304424Y0044950D01*
X0305409Y0044950D02*
X0311848Y0044950D01*
X0310274Y0043951D02*
X0307284Y0043951D01*
X0308180Y0042953D02*
X0309317Y0042953D01*
X0308903Y0041954D02*
X0308745Y0041954D01*
X0304424Y0041954D02*
X0303424Y0041954D01*
X0303424Y0040956D02*
X0304424Y0040956D01*
X0303424Y0039957D02*
X0281024Y0039957D01*
X0281024Y0038959D02*
X0298818Y0038959D01*
X0299109Y0037960D02*
X0281024Y0037960D01*
X0281024Y0040956D02*
X0298816Y0040956D01*
X0299103Y0041954D02*
X0281024Y0041954D01*
X0281024Y0042953D02*
X0299667Y0042953D01*
X0300564Y0043951D02*
X0281024Y0043951D01*
X0264619Y0043951D02*
X0245369Y0043951D01*
X0246326Y0042953D02*
X0264619Y0042953D01*
X0264619Y0041954D02*
X0246740Y0041954D01*
X0247119Y0040956D02*
X0264619Y0040956D01*
X0264619Y0039957D02*
X0247119Y0039957D01*
X0247119Y0038959D02*
X0264619Y0038959D01*
X0264619Y0037960D02*
X0246734Y0037960D01*
X0237112Y0042953D02*
X0236326Y0042953D01*
X0235369Y0043951D02*
X0238069Y0043951D01*
X0239643Y0044950D02*
X0233795Y0044950D01*
X0229643Y0044950D02*
X0223795Y0044950D01*
X0223635Y0045948D02*
X0264619Y0045948D01*
X0264619Y0044950D02*
X0243795Y0044950D01*
X0228069Y0043951D02*
X0225369Y0043951D01*
X0226326Y0042953D02*
X0227112Y0042953D01*
X0222636Y0046947D02*
X0264619Y0046947D01*
X0264619Y0047945D02*
X0221638Y0047945D01*
X0220639Y0048944D02*
X0264619Y0048944D01*
X0264619Y0049942D02*
X0219641Y0049942D01*
X0218642Y0050941D02*
X0264619Y0050941D01*
X0264619Y0051939D02*
X0217644Y0051939D01*
X0216645Y0052938D02*
X0264619Y0052938D01*
X0264619Y0053936D02*
X0215647Y0053936D01*
X0214648Y0054935D02*
X0264619Y0054935D01*
X0264619Y0055933D02*
X0213650Y0055933D01*
X0212651Y0056932D02*
X0264619Y0056932D01*
X0264619Y0057930D02*
X0211653Y0057930D01*
X0212329Y0058929D02*
X0210654Y0058929D01*
X0218366Y0058929D02*
X0218616Y0058929D01*
X0218616Y0059927D02*
X0218366Y0059927D01*
X0218366Y0060926D02*
X0218616Y0060926D01*
X0218616Y0061924D02*
X0218366Y0061924D01*
X0221241Y0061924D02*
X0264619Y0061924D01*
X0264619Y0060926D02*
X0221241Y0060926D01*
X0221241Y0059927D02*
X0264619Y0059927D01*
X0264619Y0058929D02*
X0220826Y0058929D01*
X0221241Y0062923D02*
X0264619Y0062923D01*
X0264619Y0063921D02*
X0221241Y0063921D01*
X0219321Y0072908D02*
X0214117Y0072908D01*
X0214690Y0073907D02*
X0218748Y0073907D01*
X0218569Y0074905D02*
X0214869Y0074905D01*
X0214740Y0075904D02*
X0218699Y0075904D01*
X0219202Y0076902D02*
X0214236Y0076902D01*
X0212862Y0077901D02*
X0219669Y0077901D01*
X0219669Y0078899D02*
X0178769Y0078899D01*
X0178769Y0077901D02*
X0210576Y0077901D01*
X0209202Y0076902D02*
X0178769Y0076902D01*
X0178769Y0075904D02*
X0208699Y0075904D01*
X0208569Y0074905D02*
X0179678Y0074905D01*
X0180676Y0073907D02*
X0208748Y0073907D01*
X0209321Y0072908D02*
X0181675Y0072908D01*
X0178769Y0079898D02*
X0219669Y0079898D01*
X0219669Y0080896D02*
X0178769Y0080896D01*
X0178769Y0081895D02*
X0219669Y0081895D01*
X0219669Y0082893D02*
X0179102Y0082893D01*
X0179684Y0083892D02*
X0219669Y0083892D01*
X0219669Y0084890D02*
X0179869Y0084890D01*
X0179746Y0085889D02*
X0219744Y0085889D01*
X0220743Y0086887D02*
X0179251Y0086887D01*
X0152414Y0115844D02*
X0146940Y0115844D01*
X0149459Y0116842D02*
X0152414Y0116842D01*
X0152414Y0117841D02*
X0150649Y0117841D01*
X0151826Y0118829D02*
X0151826Y0118829D01*
X0151832Y0118840D02*
X0152414Y0118840D01*
X0152409Y0119838D02*
X0152414Y0119838D01*
X0152414Y0149269D02*
X0134158Y0149269D01*
X0134914Y0151095D01*
X0134914Y0153243D01*
X0134092Y0155228D01*
X0132573Y0156747D01*
X0130589Y0157569D01*
X0128440Y0157569D01*
X0126456Y0156747D01*
X0124937Y0155228D01*
X0124514Y0154209D01*
X0124092Y0155228D01*
X0122573Y0156747D01*
X0120589Y0157569D01*
X0118440Y0157569D01*
X0116456Y0156747D01*
X0114937Y0155228D01*
X0114514Y0154209D01*
X0114092Y0155228D01*
X0112573Y0156747D01*
X0111564Y0157165D01*
X0111564Y0158018D01*
X0098064Y0171519D01*
X0098641Y0171519D01*
X0099793Y0171996D01*
X0099793Y0171465D01*
X0100789Y0170469D01*
X0104697Y0170469D01*
X0104897Y0170669D01*
X0106161Y0170669D01*
X0106161Y0174544D01*
X0106411Y0174544D01*
X0106411Y0170669D01*
X0107734Y0170669D01*
X0108115Y0170772D01*
X0108457Y0170969D01*
X0108736Y0171248D01*
X0108934Y0171590D01*
X0109036Y0171972D01*
X0109036Y0174544D01*
X0106411Y0174544D01*
X0106411Y0174794D01*
X0109036Y0174794D01*
X0109036Y0177119D01*
X0147364Y0177119D01*
X0148564Y0178320D01*
X0151564Y0181320D01*
X0151564Y0198018D01*
X0150364Y0199219D01*
X0147664Y0201918D01*
X0147664Y0202796D01*
X0147185Y0203954D01*
X0146299Y0204840D01*
X0145141Y0205319D01*
X0143888Y0205319D01*
X0142730Y0204840D01*
X0141844Y0203954D01*
X0141364Y0202796D01*
X0141364Y0201543D01*
X0141844Y0200385D01*
X0142560Y0199669D01*
X0141844Y0198954D01*
X0141364Y0197796D01*
X0141364Y0196543D01*
X0141844Y0195385D01*
X0142464Y0194765D01*
X0142464Y0188018D01*
X0138665Y0184219D01*
X0110624Y0184219D01*
X0111299Y0184499D01*
X0112185Y0185385D01*
X0112664Y0186543D01*
X0112664Y0187796D01*
X0112185Y0188954D01*
X0111564Y0189574D01*
X0111564Y0196320D01*
X0114514Y0199269D01*
X0115391Y0199269D01*
X0116549Y0199749D01*
X0117435Y0200635D01*
X0117914Y0201793D01*
X0117914Y0203046D01*
X0117435Y0204204D01*
X0116549Y0205090D01*
X0115391Y0205569D01*
X0114138Y0205569D01*
X0112980Y0205090D01*
X0112094Y0204204D01*
X0111614Y0203046D01*
X0111614Y0202168D01*
X0107464Y0198018D01*
X0107464Y0189574D01*
X0106844Y0188954D01*
X0106364Y0187796D01*
X0106364Y0186543D01*
X0106844Y0185385D01*
X0107730Y0184499D01*
X0108405Y0184219D01*
X0101564Y0184219D01*
X0101564Y0184765D01*
X0102185Y0185385D01*
X0102664Y0186543D01*
X0102664Y0187796D01*
X0102185Y0188954D01*
X0101299Y0189840D01*
X0100141Y0190319D01*
X0098888Y0190319D01*
X0097730Y0189840D01*
X0096844Y0188954D01*
X0096364Y0187796D01*
X0096364Y0186543D01*
X0096844Y0185385D01*
X0097464Y0184765D01*
X0097464Y0184219D01*
X0070364Y0184219D01*
X0066564Y0188018D01*
X0066564Y0194765D01*
X0067185Y0195385D01*
X0067664Y0196543D01*
X0067664Y0197796D01*
X0067185Y0198954D01*
X0066299Y0199840D01*
X0065141Y0200319D01*
X0063888Y0200319D01*
X0062730Y0199840D01*
X0061844Y0198954D01*
X0061364Y0197796D01*
X0061364Y0196543D01*
X0061844Y0195385D01*
X0062464Y0194765D01*
X0062464Y0186320D01*
X0063665Y0185119D01*
X0068665Y0180119D01*
X0082464Y0180119D01*
X0082464Y0171320D01*
X0083665Y0170119D01*
X0096867Y0156918D01*
X0096456Y0156747D01*
X0094937Y0155228D01*
X0094514Y0154209D01*
X0094092Y0155228D01*
X0092573Y0156747D01*
X0090589Y0157569D01*
X0088440Y0157569D01*
X0086456Y0156747D01*
X0084937Y0155228D01*
X0084405Y0153945D01*
X0084333Y0154165D01*
X0083962Y0154895D01*
X0083481Y0155557D01*
X0082902Y0156136D01*
X0082240Y0156617D01*
X0081511Y0156988D01*
X0080732Y0157241D01*
X0080014Y0157355D01*
X0080014Y0152669D01*
X0079014Y0152669D01*
X0079014Y0151669D01*
X0074329Y0151669D01*
X0074442Y0150952D01*
X0074695Y0150173D01*
X0075067Y0149444D01*
X0075194Y0149269D01*
X0056614Y0149269D01*
X0056614Y0232053D01*
X0057203Y0231034D01*
X0059742Y0228903D01*
X0062857Y0227769D01*
X0066172Y0227769D01*
X0069287Y0228903D01*
X0071826Y0231034D01*
X0073484Y0233905D01*
X0074059Y0237169D01*
X0073484Y0240434D01*
X0071826Y0243305D01*
X0069723Y0245069D01*
X0139305Y0245069D01*
X0137203Y0243305D01*
X0137203Y0243305D01*
X0137203Y0243305D01*
X0135545Y0240434D01*
X0135545Y0240434D01*
X0134969Y0237169D01*
X0135545Y0233905D01*
X0135545Y0233905D01*
X0137203Y0231034D01*
X0139742Y0228903D01*
X0142857Y0227769D01*
X0146172Y0227769D01*
X0149287Y0228903D01*
X0151826Y0231034D01*
X0152414Y0232053D01*
X0152414Y0149269D01*
X0152414Y0149793D02*
X0134375Y0149793D01*
X0134789Y0150792D02*
X0152414Y0150792D01*
X0152414Y0151790D02*
X0134914Y0151790D01*
X0134914Y0152789D02*
X0152414Y0152789D01*
X0152414Y0153787D02*
X0134689Y0153787D01*
X0134276Y0154786D02*
X0152414Y0154786D01*
X0152414Y0155784D02*
X0133536Y0155784D01*
X0132487Y0156783D02*
X0152414Y0156783D01*
X0152414Y0157781D02*
X0111564Y0157781D01*
X0110803Y0158780D02*
X0152414Y0158780D01*
X0152414Y0159778D02*
X0109804Y0159778D01*
X0108806Y0160777D02*
X0152414Y0160777D01*
X0152414Y0161776D02*
X0107807Y0161776D01*
X0106809Y0162774D02*
X0152414Y0162774D01*
X0152414Y0163773D02*
X0105810Y0163773D01*
X0104812Y0164771D02*
X0152414Y0164771D01*
X0152414Y0165770D02*
X0103813Y0165770D01*
X0102815Y0166768D02*
X0152414Y0166768D01*
X0152414Y0167767D02*
X0101816Y0167767D01*
X0100818Y0168765D02*
X0152414Y0168765D01*
X0152414Y0169764D02*
X0099819Y0169764D01*
X0100496Y0170762D02*
X0098821Y0170762D01*
X0099224Y0171761D02*
X0099793Y0171761D01*
X0106161Y0171761D02*
X0106411Y0171761D01*
X0106411Y0172759D02*
X0106161Y0172759D01*
X0106161Y0173758D02*
X0106411Y0173758D01*
X0106411Y0174756D02*
X0152414Y0174756D01*
X0152414Y0173758D02*
X0109036Y0173758D01*
X0109036Y0172759D02*
X0152414Y0172759D01*
X0152414Y0171761D02*
X0108979Y0171761D01*
X0108080Y0170762D02*
X0152414Y0170762D01*
X0152414Y0175755D02*
X0109036Y0175755D01*
X0109036Y0176753D02*
X0152414Y0176753D01*
X0152414Y0177752D02*
X0147996Y0177752D01*
X0148994Y0178750D02*
X0152414Y0178750D01*
X0152414Y0179749D02*
X0149993Y0179749D01*
X0150991Y0180747D02*
X0152414Y0180747D01*
X0152414Y0181746D02*
X0151564Y0181746D01*
X0151564Y0182744D02*
X0152414Y0182744D01*
X0152414Y0183743D02*
X0151564Y0183743D01*
X0151564Y0184741D02*
X0152414Y0184741D01*
X0152414Y0185740D02*
X0151564Y0185740D01*
X0151564Y0186738D02*
X0152414Y0186738D01*
X0152414Y0187737D02*
X0151564Y0187737D01*
X0151564Y0188735D02*
X0152414Y0188735D01*
X0152414Y0189734D02*
X0151564Y0189734D01*
X0151564Y0190732D02*
X0152414Y0190732D01*
X0152414Y0191731D02*
X0151564Y0191731D01*
X0151564Y0192729D02*
X0152414Y0192729D01*
X0152414Y0193728D02*
X0151564Y0193728D01*
X0151564Y0194726D02*
X0152414Y0194726D01*
X0152414Y0195725D02*
X0151564Y0195725D01*
X0151564Y0196723D02*
X0152414Y0196723D01*
X0152414Y0197722D02*
X0151564Y0197722D01*
X0150862Y0198720D02*
X0152414Y0198720D01*
X0152414Y0199719D02*
X0149864Y0199719D01*
X0148865Y0200717D02*
X0152414Y0200717D01*
X0152414Y0201716D02*
X0147867Y0201716D01*
X0147664Y0202714D02*
X0152414Y0202714D01*
X0152414Y0203713D02*
X0147285Y0203713D01*
X0146427Y0204711D02*
X0152414Y0204711D01*
X0152414Y0205710D02*
X0056614Y0205710D01*
X0056614Y0206709D02*
X0152414Y0206709D01*
X0152414Y0207707D02*
X0056614Y0207707D01*
X0056614Y0208706D02*
X0152414Y0208706D01*
X0152414Y0209704D02*
X0056614Y0209704D01*
X0056614Y0210703D02*
X0152414Y0210703D01*
X0152414Y0211701D02*
X0056614Y0211701D01*
X0056614Y0212700D02*
X0152414Y0212700D01*
X0152414Y0213698D02*
X0056614Y0213698D01*
X0056614Y0214697D02*
X0152414Y0214697D01*
X0152414Y0215695D02*
X0056614Y0215695D01*
X0056614Y0216694D02*
X0152414Y0216694D01*
X0152414Y0217692D02*
X0056614Y0217692D01*
X0056614Y0218691D02*
X0152414Y0218691D01*
X0152414Y0219689D02*
X0056614Y0219689D01*
X0056614Y0220688D02*
X0152414Y0220688D01*
X0152414Y0221686D02*
X0056614Y0221686D01*
X0056614Y0222685D02*
X0152414Y0222685D01*
X0152414Y0223683D02*
X0056614Y0223683D01*
X0056614Y0224682D02*
X0152414Y0224682D01*
X0152414Y0225680D02*
X0056614Y0225680D01*
X0056614Y0226679D02*
X0152414Y0226679D01*
X0152414Y0227677D02*
X0056614Y0227677D01*
X0056614Y0228676D02*
X0060366Y0228676D01*
X0059742Y0228903D02*
X0059742Y0228903D01*
X0058823Y0229674D02*
X0056614Y0229674D01*
X0056614Y0230673D02*
X0057633Y0230673D01*
X0057203Y0231034D02*
X0057203Y0231034D01*
X0056835Y0231671D02*
X0056614Y0231671D01*
X0068662Y0228676D02*
X0140366Y0228676D01*
X0139742Y0228903D02*
X0139742Y0228903D01*
X0138823Y0229674D02*
X0070206Y0229674D01*
X0069287Y0228903D02*
X0069287Y0228903D01*
X0071396Y0230673D02*
X0137633Y0230673D01*
X0137203Y0231034D02*
X0137203Y0231034D01*
X0136834Y0231671D02*
X0072194Y0231671D01*
X0071826Y0231034D02*
X0071826Y0231034D01*
X0071826Y0231034D01*
X0072771Y0232670D02*
X0136258Y0232670D01*
X0135682Y0233668D02*
X0073347Y0233668D01*
X0073484Y0233905D02*
X0073484Y0233905D01*
X0073618Y0234667D02*
X0135411Y0234667D01*
X0135235Y0235665D02*
X0073794Y0235665D01*
X0073970Y0236664D02*
X0135059Y0236664D01*
X0134969Y0237169D02*
X0134969Y0237169D01*
X0135056Y0237662D02*
X0073972Y0237662D01*
X0074059Y0237169D02*
X0074059Y0237169D01*
X0073796Y0238661D02*
X0135232Y0238661D01*
X0135409Y0239659D02*
X0073620Y0239659D01*
X0073484Y0240434D02*
X0073484Y0240434D01*
X0073354Y0240658D02*
X0135674Y0240658D01*
X0136251Y0241656D02*
X0072778Y0241656D01*
X0072201Y0242655D02*
X0136827Y0242655D01*
X0137618Y0243653D02*
X0071411Y0243653D01*
X0071826Y0243305D02*
X0071826Y0243305D01*
X0070221Y0244652D02*
X0138808Y0244652D01*
X0134158Y0261474D02*
X0134914Y0263300D01*
X0134914Y0265448D01*
X0134092Y0267433D01*
X0132573Y0268952D01*
X0130589Y0269774D01*
X0128440Y0269774D01*
X0126456Y0268952D01*
X0124937Y0267433D01*
X0124514Y0266414D01*
X0124092Y0267433D01*
X0122573Y0268952D01*
X0120589Y0269774D01*
X0118440Y0269774D01*
X0116456Y0268952D01*
X0114937Y0267433D01*
X0114514Y0266414D01*
X0114092Y0267433D01*
X0112573Y0268952D01*
X0111564Y0269370D01*
X0111564Y0270223D01*
X0098064Y0283724D01*
X0098641Y0283724D01*
X0099793Y0284201D01*
X0099793Y0283670D01*
X0100789Y0282674D01*
X0104697Y0282674D01*
X0104897Y0282874D01*
X0106161Y0282874D01*
X0106161Y0286749D01*
X0106411Y0286749D01*
X0106411Y0282874D01*
X0107734Y0282874D01*
X0108115Y0282976D01*
X0108457Y0283174D01*
X0108736Y0283453D01*
X0108934Y0283795D01*
X0109036Y0284177D01*
X0109036Y0286749D01*
X0106411Y0286749D01*
X0106411Y0286999D01*
X0109036Y0286999D01*
X0109036Y0289324D01*
X0147364Y0289324D01*
X0148564Y0290525D01*
X0151564Y0293525D01*
X0151564Y0310223D01*
X0150364Y0311424D01*
X0147664Y0314123D01*
X0147664Y0315001D01*
X0147185Y0316158D01*
X0146299Y0317044D01*
X0145141Y0317524D01*
X0143888Y0317524D01*
X0142730Y0317044D01*
X0141844Y0316158D01*
X0141364Y0315001D01*
X0141364Y0313747D01*
X0141844Y0312590D01*
X0142560Y0311874D01*
X0141844Y0311158D01*
X0141364Y0310001D01*
X0141364Y0308747D01*
X0141844Y0307590D01*
X0142464Y0306969D01*
X0142464Y0300223D01*
X0138665Y0296424D01*
X0110624Y0296424D01*
X0111299Y0296704D01*
X0112185Y0297590D01*
X0112664Y0298747D01*
X0112664Y0300001D01*
X0112185Y0301158D01*
X0111564Y0301779D01*
X0111564Y0308525D01*
X0114514Y0311474D01*
X0115391Y0311474D01*
X0116549Y0311954D01*
X0117435Y0312840D01*
X0117914Y0313997D01*
X0117914Y0315251D01*
X0117435Y0316408D01*
X0116549Y0317294D01*
X0115391Y0317774D01*
X0114138Y0317774D01*
X0112980Y0317294D01*
X0112094Y0316408D01*
X0111614Y0315251D01*
X0111614Y0314373D01*
X0107464Y0310223D01*
X0107464Y0301779D01*
X0106844Y0301158D01*
X0106364Y0300001D01*
X0106364Y0298747D01*
X0106844Y0297590D01*
X0107730Y0296704D01*
X0108405Y0296424D01*
X0101564Y0296424D01*
X0101564Y0296969D01*
X0102185Y0297590D01*
X0102664Y0298747D01*
X0102664Y0300001D01*
X0102185Y0301158D01*
X0101299Y0302044D01*
X0100141Y0302524D01*
X0098888Y0302524D01*
X0097730Y0302044D01*
X0096844Y0301158D01*
X0096364Y0300001D01*
X0096364Y0298747D01*
X0096844Y0297590D01*
X0097464Y0296969D01*
X0097464Y0296424D01*
X0070364Y0296424D01*
X0066564Y0300223D01*
X0066564Y0306969D01*
X0067185Y0307590D01*
X0067664Y0308747D01*
X0067664Y0310001D01*
X0067185Y0311158D01*
X0066299Y0312044D01*
X0065141Y0312524D01*
X0063888Y0312524D01*
X0062730Y0312044D01*
X0061844Y0311158D01*
X0061364Y0310001D01*
X0061364Y0308747D01*
X0061844Y0307590D01*
X0062464Y0306969D01*
X0062464Y0298525D01*
X0063665Y0297324D01*
X0068665Y0292324D01*
X0082464Y0292324D01*
X0082464Y0283525D01*
X0083665Y0282324D01*
X0096867Y0269122D01*
X0096456Y0268952D01*
X0094937Y0267433D01*
X0094514Y0266414D01*
X0094092Y0267433D01*
X0092573Y0268952D01*
X0090589Y0269774D01*
X0088440Y0269774D01*
X0086456Y0268952D01*
X0084937Y0267433D01*
X0084405Y0266150D01*
X0084333Y0266370D01*
X0083962Y0267099D01*
X0083481Y0267762D01*
X0082902Y0268340D01*
X0082240Y0268821D01*
X0081511Y0269193D01*
X0080732Y0269446D01*
X0080014Y0269560D01*
X0080014Y0264874D01*
X0079014Y0264874D01*
X0079014Y0263874D01*
X0074329Y0263874D01*
X0074442Y0263156D01*
X0074695Y0262378D01*
X0075067Y0261649D01*
X0075194Y0261474D01*
X0056614Y0261474D01*
X0056614Y0344257D01*
X0057203Y0343239D01*
X0057203Y0343239D01*
X0059742Y0341108D01*
X0062857Y0339974D01*
X0066172Y0339974D01*
X0069287Y0341108D01*
X0071826Y0343239D01*
X0073484Y0346109D01*
X0074059Y0349374D01*
X0073484Y0352639D01*
X0071826Y0355509D01*
X0071826Y0355509D01*
X0069723Y0357274D01*
X0139305Y0357274D01*
X0137203Y0355509D01*
X0137203Y0355509D01*
X0135545Y0352639D01*
X0135545Y0352639D01*
X0134969Y0349374D01*
X0135545Y0346109D01*
X0137203Y0343239D01*
X0137203Y0343239D01*
X0139742Y0341108D01*
X0142857Y0339974D01*
X0146172Y0339974D01*
X0149287Y0341108D01*
X0151826Y0343239D01*
X0152414Y0344257D01*
X0152414Y0261474D01*
X0134158Y0261474D01*
X0134221Y0261627D02*
X0152414Y0261627D01*
X0152414Y0262625D02*
X0134635Y0262625D01*
X0134914Y0263624D02*
X0152414Y0263624D01*
X0152414Y0264622D02*
X0134914Y0264622D01*
X0134843Y0265621D02*
X0152414Y0265621D01*
X0152414Y0266619D02*
X0134429Y0266619D01*
X0133907Y0267618D02*
X0152414Y0267618D01*
X0152414Y0268616D02*
X0132909Y0268616D01*
X0130973Y0269615D02*
X0152414Y0269615D01*
X0152414Y0270613D02*
X0111174Y0270613D01*
X0111564Y0269615D02*
X0118056Y0269615D01*
X0116120Y0268616D02*
X0112909Y0268616D01*
X0113907Y0267618D02*
X0115121Y0267618D01*
X0114600Y0266619D02*
X0114429Y0266619D01*
X0120973Y0269615D02*
X0128056Y0269615D01*
X0126120Y0268616D02*
X0122909Y0268616D01*
X0123907Y0267618D02*
X0125121Y0267618D01*
X0124599Y0266619D02*
X0124429Y0266619D01*
X0110176Y0271612D02*
X0152414Y0271612D01*
X0152414Y0272610D02*
X0109177Y0272610D01*
X0108179Y0273609D02*
X0152414Y0273609D01*
X0152414Y0274607D02*
X0107180Y0274607D01*
X0106182Y0275606D02*
X0152414Y0275606D01*
X0152414Y0276604D02*
X0105183Y0276604D01*
X0104185Y0277603D02*
X0152414Y0277603D01*
X0152414Y0278601D02*
X0103186Y0278601D01*
X0102188Y0279600D02*
X0152414Y0279600D01*
X0152414Y0280598D02*
X0101189Y0280598D01*
X0100191Y0281597D02*
X0152414Y0281597D01*
X0152414Y0282595D02*
X0099192Y0282595D01*
X0099869Y0283594D02*
X0098194Y0283594D01*
X0106161Y0283594D02*
X0106411Y0283594D01*
X0106411Y0284592D02*
X0106161Y0284592D01*
X0106161Y0285591D02*
X0106411Y0285591D01*
X0106411Y0286589D02*
X0106161Y0286589D01*
X0109036Y0286589D02*
X0152414Y0286589D01*
X0152414Y0285591D02*
X0109036Y0285591D01*
X0109036Y0284592D02*
X0152414Y0284592D01*
X0152414Y0283594D02*
X0108818Y0283594D01*
X0109036Y0287588D02*
X0152414Y0287588D01*
X0152414Y0288586D02*
X0109036Y0288586D01*
X0108042Y0296575D02*
X0101564Y0296575D01*
X0102168Y0297573D02*
X0106861Y0297573D01*
X0106437Y0298572D02*
X0102592Y0298572D01*
X0102664Y0299570D02*
X0106364Y0299570D01*
X0106600Y0300569D02*
X0102429Y0300569D01*
X0101776Y0301567D02*
X0107253Y0301567D01*
X0107464Y0302566D02*
X0066564Y0302566D01*
X0066564Y0303564D02*
X0107464Y0303564D01*
X0107464Y0304563D02*
X0066564Y0304563D01*
X0066564Y0305561D02*
X0107464Y0305561D01*
X0107464Y0306560D02*
X0066564Y0306560D01*
X0067153Y0307558D02*
X0107464Y0307558D01*
X0107464Y0308557D02*
X0067585Y0308557D01*
X0067664Y0309555D02*
X0107464Y0309555D01*
X0107795Y0310554D02*
X0067435Y0310554D01*
X0066791Y0311552D02*
X0108793Y0311552D01*
X0109792Y0312551D02*
X0056614Y0312551D01*
X0056614Y0313549D02*
X0110791Y0313549D01*
X0111614Y0314548D02*
X0056614Y0314548D01*
X0056614Y0315546D02*
X0111737Y0315546D01*
X0112230Y0316545D02*
X0056614Y0316545D01*
X0056614Y0317543D02*
X0113581Y0317543D01*
X0115948Y0317543D02*
X0152414Y0317543D01*
X0152414Y0316545D02*
X0146798Y0316545D01*
X0147438Y0315546D02*
X0152414Y0315546D01*
X0152414Y0314548D02*
X0147664Y0314548D01*
X0148238Y0313549D02*
X0152414Y0313549D01*
X0152414Y0312551D02*
X0149237Y0312551D01*
X0150235Y0311552D02*
X0152414Y0311552D01*
X0152414Y0310554D02*
X0151234Y0310554D01*
X0151564Y0309555D02*
X0152414Y0309555D01*
X0152414Y0308557D02*
X0151564Y0308557D01*
X0151564Y0307558D02*
X0152414Y0307558D01*
X0152414Y0306560D02*
X0151564Y0306560D01*
X0151564Y0305561D02*
X0152414Y0305561D01*
X0152414Y0304563D02*
X0151564Y0304563D01*
X0151564Y0303564D02*
X0152414Y0303564D01*
X0152414Y0302566D02*
X0151564Y0302566D01*
X0151564Y0301567D02*
X0152414Y0301567D01*
X0152414Y0300569D02*
X0151564Y0300569D01*
X0151564Y0299570D02*
X0152414Y0299570D01*
X0152414Y0298572D02*
X0151564Y0298572D01*
X0151564Y0297573D02*
X0152414Y0297573D01*
X0152414Y0296575D02*
X0151564Y0296575D01*
X0151564Y0295576D02*
X0152414Y0295576D01*
X0152414Y0294578D02*
X0151564Y0294578D01*
X0151564Y0293579D02*
X0152414Y0293579D01*
X0152414Y0292580D02*
X0150620Y0292580D01*
X0149622Y0291582D02*
X0152414Y0291582D01*
X0152414Y0290583D02*
X0148623Y0290583D01*
X0147625Y0289585D02*
X0152414Y0289585D01*
X0139814Y0297573D02*
X0112168Y0297573D01*
X0112592Y0298572D02*
X0140813Y0298572D01*
X0141811Y0299570D02*
X0112664Y0299570D01*
X0112429Y0300569D02*
X0142464Y0300569D01*
X0142464Y0301567D02*
X0111776Y0301567D01*
X0111564Y0302566D02*
X0142464Y0302566D01*
X0142464Y0303564D02*
X0111564Y0303564D01*
X0111564Y0304563D02*
X0142464Y0304563D01*
X0142464Y0305561D02*
X0111564Y0305561D01*
X0111564Y0306560D02*
X0142464Y0306560D01*
X0141876Y0307558D02*
X0111564Y0307558D01*
X0111596Y0308557D02*
X0141443Y0308557D01*
X0141364Y0309555D02*
X0112595Y0309555D01*
X0113593Y0310554D02*
X0141594Y0310554D01*
X0142238Y0311552D02*
X0115580Y0311552D01*
X0117146Y0312551D02*
X0141883Y0312551D01*
X0141447Y0313549D02*
X0117729Y0313549D01*
X0117914Y0314548D02*
X0141364Y0314548D01*
X0141590Y0315546D02*
X0117792Y0315546D01*
X0117298Y0316545D02*
X0142230Y0316545D01*
X0152414Y0318542D02*
X0056614Y0318542D01*
X0056614Y0319540D02*
X0152414Y0319540D01*
X0152414Y0320539D02*
X0056614Y0320539D01*
X0056614Y0321537D02*
X0152414Y0321537D01*
X0152414Y0322536D02*
X0056614Y0322536D01*
X0056614Y0323534D02*
X0152414Y0323534D01*
X0152414Y0324533D02*
X0056614Y0324533D01*
X0056614Y0325531D02*
X0152414Y0325531D01*
X0152414Y0326530D02*
X0056614Y0326530D01*
X0056614Y0327528D02*
X0152414Y0327528D01*
X0152414Y0328527D02*
X0056614Y0328527D01*
X0056614Y0329525D02*
X0152414Y0329525D01*
X0152414Y0330524D02*
X0056614Y0330524D01*
X0056614Y0331522D02*
X0152414Y0331522D01*
X0152414Y0332521D02*
X0056614Y0332521D01*
X0056614Y0333519D02*
X0152414Y0333519D01*
X0152414Y0334518D02*
X0056614Y0334518D01*
X0056614Y0335516D02*
X0152414Y0335516D01*
X0152414Y0336515D02*
X0056614Y0336515D01*
X0056614Y0337513D02*
X0152414Y0337513D01*
X0152414Y0338512D02*
X0056614Y0338512D01*
X0056614Y0339511D02*
X0152414Y0339511D01*
X0152414Y0340509D02*
X0147642Y0340509D01*
X0149287Y0341108D02*
X0149287Y0341108D01*
X0149763Y0341508D02*
X0152414Y0341508D01*
X0152414Y0342506D02*
X0150953Y0342506D01*
X0151980Y0343505D02*
X0152414Y0343505D01*
X0141387Y0340509D02*
X0067642Y0340509D01*
X0069287Y0341108D02*
X0069287Y0341108D01*
X0069763Y0341508D02*
X0139266Y0341508D01*
X0139742Y0341108D02*
X0139742Y0341108D01*
X0138076Y0342506D02*
X0070953Y0342506D01*
X0071826Y0343239D02*
X0071826Y0343239D01*
X0071826Y0343239D01*
X0071980Y0343505D02*
X0137049Y0343505D01*
X0136472Y0344503D02*
X0072556Y0344503D01*
X0073133Y0345502D02*
X0135896Y0345502D01*
X0135545Y0346109D02*
X0135545Y0346109D01*
X0135476Y0346500D02*
X0073553Y0346500D01*
X0073484Y0346109D02*
X0073484Y0346109D01*
X0073729Y0347499D02*
X0135300Y0347499D01*
X0135124Y0348497D02*
X0073905Y0348497D01*
X0074059Y0349374D02*
X0074059Y0349374D01*
X0074038Y0349496D02*
X0134991Y0349496D01*
X0134969Y0349374D02*
X0134969Y0349374D01*
X0135167Y0350494D02*
X0073862Y0350494D01*
X0073686Y0351493D02*
X0135343Y0351493D01*
X0135519Y0352491D02*
X0073510Y0352491D01*
X0073484Y0352639D02*
X0073484Y0352639D01*
X0072992Y0353490D02*
X0136036Y0353490D01*
X0136613Y0354488D02*
X0072416Y0354488D01*
X0071839Y0355487D02*
X0137189Y0355487D01*
X0137203Y0355509D02*
X0137203Y0355509D01*
X0138365Y0356485D02*
X0070663Y0356485D01*
X0057049Y0343505D02*
X0056614Y0343505D01*
X0056614Y0342506D02*
X0058076Y0342506D01*
X0059266Y0341508D02*
X0056614Y0341508D01*
X0056614Y0340509D02*
X0061387Y0340509D01*
X0059742Y0341108D02*
X0059742Y0341108D01*
X0062238Y0311552D02*
X0056614Y0311552D01*
X0056614Y0310554D02*
X0061594Y0310554D01*
X0061364Y0309555D02*
X0056614Y0309555D01*
X0056614Y0308557D02*
X0061443Y0308557D01*
X0061876Y0307558D02*
X0056614Y0307558D01*
X0056614Y0306560D02*
X0062464Y0306560D01*
X0062464Y0305561D02*
X0056614Y0305561D01*
X0056614Y0304563D02*
X0062464Y0304563D01*
X0062464Y0303564D02*
X0056614Y0303564D01*
X0056614Y0302566D02*
X0062464Y0302566D01*
X0062464Y0301567D02*
X0056614Y0301567D01*
X0056614Y0300569D02*
X0062464Y0300569D01*
X0062464Y0299570D02*
X0056614Y0299570D01*
X0056614Y0298572D02*
X0062464Y0298572D01*
X0063416Y0297573D02*
X0056614Y0297573D01*
X0056614Y0296575D02*
X0064415Y0296575D01*
X0065413Y0295576D02*
X0056614Y0295576D01*
X0056614Y0294578D02*
X0066412Y0294578D01*
X0067410Y0293579D02*
X0056614Y0293579D01*
X0056614Y0292580D02*
X0068409Y0292580D01*
X0070213Y0296575D02*
X0097464Y0296575D01*
X0096861Y0297573D02*
X0069215Y0297573D01*
X0068216Y0298572D02*
X0096437Y0298572D01*
X0096364Y0299570D02*
X0067218Y0299570D01*
X0066564Y0300569D02*
X0096600Y0300569D01*
X0097253Y0301567D02*
X0066564Y0301567D01*
X0056614Y0291582D02*
X0082464Y0291582D01*
X0082464Y0290583D02*
X0056614Y0290583D01*
X0056614Y0289585D02*
X0082464Y0289585D01*
X0082464Y0288586D02*
X0056614Y0288586D01*
X0056614Y0287588D02*
X0082464Y0287588D01*
X0082464Y0286589D02*
X0056614Y0286589D01*
X0056614Y0285591D02*
X0082464Y0285591D01*
X0082464Y0284592D02*
X0056614Y0284592D01*
X0056614Y0283594D02*
X0082464Y0283594D01*
X0083394Y0282595D02*
X0056614Y0282595D01*
X0056614Y0281597D02*
X0084392Y0281597D01*
X0085391Y0280598D02*
X0056614Y0280598D01*
X0056614Y0279600D02*
X0086389Y0279600D01*
X0087388Y0278601D02*
X0056614Y0278601D01*
X0056614Y0277603D02*
X0088386Y0277603D01*
X0089385Y0276604D02*
X0056614Y0276604D01*
X0056614Y0275606D02*
X0090384Y0275606D01*
X0091382Y0274607D02*
X0056614Y0274607D01*
X0056614Y0273609D02*
X0092381Y0273609D01*
X0093379Y0272610D02*
X0056614Y0272610D01*
X0056614Y0271612D02*
X0094378Y0271612D01*
X0095376Y0270613D02*
X0056614Y0270613D01*
X0056614Y0269615D02*
X0088056Y0269615D01*
X0086120Y0268616D02*
X0082522Y0268616D01*
X0083585Y0267618D02*
X0085121Y0267618D01*
X0084599Y0266619D02*
X0084207Y0266619D01*
X0080014Y0266619D02*
X0079014Y0266619D01*
X0079014Y0265621D02*
X0080014Y0265621D01*
X0079014Y0264874D02*
X0079014Y0269560D01*
X0078297Y0269446D01*
X0077518Y0269193D01*
X0076789Y0268821D01*
X0076127Y0268340D01*
X0075548Y0267762D01*
X0075067Y0267099D01*
X0074695Y0266370D01*
X0074442Y0265592D01*
X0074329Y0264874D01*
X0079014Y0264874D01*
X0079014Y0264622D02*
X0056614Y0264622D01*
X0056614Y0263624D02*
X0074368Y0263624D01*
X0074615Y0262625D02*
X0056614Y0262625D01*
X0056614Y0261627D02*
X0075083Y0261627D01*
X0074452Y0265621D02*
X0056614Y0265621D01*
X0056614Y0266619D02*
X0074822Y0266619D01*
X0075444Y0267618D02*
X0056614Y0267618D01*
X0056614Y0268616D02*
X0076507Y0268616D01*
X0079014Y0268616D02*
X0080014Y0268616D01*
X0080014Y0267618D02*
X0079014Y0267618D01*
X0090973Y0269615D02*
X0096375Y0269615D01*
X0096120Y0268616D02*
X0092909Y0268616D01*
X0093907Y0267618D02*
X0095121Y0267618D01*
X0094599Y0266619D02*
X0094429Y0266619D01*
X0110987Y0296575D02*
X0138816Y0296575D01*
X0168819Y0296575D02*
X0176619Y0296575D01*
X0175870Y0297324D02*
X0180870Y0292324D01*
X0194669Y0292324D01*
X0194669Y0283525D01*
X0195870Y0282324D01*
X0209072Y0269122D01*
X0208660Y0268952D01*
X0207141Y0267433D01*
X0206719Y0266414D01*
X0206297Y0267433D01*
X0204778Y0268952D01*
X0202793Y0269774D01*
X0200645Y0269774D01*
X0198660Y0268952D01*
X0197141Y0267433D01*
X0196610Y0266150D01*
X0196538Y0266370D01*
X0196167Y0267099D01*
X0195685Y0267762D01*
X0195107Y0268340D01*
X0194445Y0268821D01*
X0193715Y0269193D01*
X0192937Y0269446D01*
X0192219Y0269560D01*
X0192219Y0264874D01*
X0191219Y0264874D01*
X0191219Y0263874D01*
X0186534Y0263874D01*
X0186647Y0263156D01*
X0186900Y0262378D01*
X0187272Y0261649D01*
X0187399Y0261474D01*
X0168819Y0261474D01*
X0168819Y0344257D01*
X0169407Y0343239D01*
X0169407Y0343239D01*
X0171947Y0341108D01*
X0175062Y0339974D01*
X0178377Y0339974D01*
X0181492Y0341108D01*
X0184031Y0343239D01*
X0185689Y0346109D01*
X0185689Y0346109D01*
X0186264Y0349374D01*
X0185689Y0352639D01*
X0184031Y0355509D01*
X0181928Y0357274D01*
X0251510Y0357274D01*
X0249407Y0355509D01*
X0247750Y0352639D01*
X0247750Y0352639D01*
X0247174Y0349374D01*
X0247174Y0349374D01*
X0247750Y0346109D01*
X0249407Y0343239D01*
X0251947Y0341108D01*
X0255062Y0339974D01*
X0258377Y0339974D01*
X0261492Y0341108D01*
X0264031Y0343239D01*
X0264619Y0344257D01*
X0264619Y0261474D01*
X0246363Y0261474D01*
X0247119Y0263300D01*
X0247119Y0265448D01*
X0246297Y0267433D01*
X0244778Y0268952D01*
X0242793Y0269774D01*
X0240645Y0269774D01*
X0238660Y0268952D01*
X0237141Y0267433D01*
X0236719Y0266414D01*
X0236297Y0267433D01*
X0234778Y0268952D01*
X0232793Y0269774D01*
X0230645Y0269774D01*
X0228660Y0268952D01*
X0227141Y0267433D01*
X0226719Y0266414D01*
X0226297Y0267433D01*
X0224778Y0268952D01*
X0223769Y0269370D01*
X0223769Y0270223D01*
X0210268Y0283724D01*
X0210846Y0283724D01*
X0211998Y0284201D01*
X0211998Y0283670D01*
X0212993Y0282674D01*
X0216902Y0282674D01*
X0217102Y0282874D01*
X0218366Y0282874D01*
X0218366Y0286749D01*
X0218616Y0286749D01*
X0218616Y0286999D01*
X0221241Y0286999D01*
X0221241Y0289324D01*
X0259568Y0289324D01*
X0260769Y0290525D01*
X0263769Y0293525D01*
X0263769Y0310223D01*
X0262568Y0311424D01*
X0259869Y0314123D01*
X0259869Y0315001D01*
X0259390Y0316158D01*
X0258503Y0317044D01*
X0257346Y0317524D01*
X0256093Y0317524D01*
X0254935Y0317044D01*
X0254049Y0316158D01*
X0253569Y0315001D01*
X0253569Y0313747D01*
X0254049Y0312590D01*
X0254764Y0311874D01*
X0254049Y0311158D01*
X0253569Y0310001D01*
X0253569Y0308747D01*
X0254049Y0307590D01*
X0254669Y0306969D01*
X0254669Y0300223D01*
X0250870Y0296424D01*
X0222829Y0296424D01*
X0223503Y0296704D01*
X0224390Y0297590D01*
X0224869Y0298747D01*
X0224869Y0300001D01*
X0224390Y0301158D01*
X0223769Y0301779D01*
X0223769Y0308525D01*
X0226718Y0311474D01*
X0227596Y0311474D01*
X0228753Y0311954D01*
X0229640Y0312840D01*
X0230119Y0313997D01*
X0230119Y0315251D01*
X0229640Y0316408D01*
X0228753Y0317294D01*
X0227596Y0317774D01*
X0226343Y0317774D01*
X0225185Y0317294D01*
X0224299Y0316408D01*
X0223819Y0315251D01*
X0223819Y0314373D01*
X0219669Y0310223D01*
X0219669Y0301779D01*
X0219049Y0301158D01*
X0218569Y0300001D01*
X0218569Y0298747D01*
X0219049Y0297590D01*
X0219935Y0296704D01*
X0220610Y0296424D01*
X0213769Y0296424D01*
X0213769Y0296969D01*
X0214390Y0297590D01*
X0214869Y0298747D01*
X0214869Y0300001D01*
X0214390Y0301158D01*
X0213503Y0302044D01*
X0212346Y0302524D01*
X0211093Y0302524D01*
X0209935Y0302044D01*
X0209049Y0301158D01*
X0208569Y0300001D01*
X0208569Y0298747D01*
X0209049Y0297590D01*
X0209669Y0296969D01*
X0209669Y0296424D01*
X0182568Y0296424D01*
X0178769Y0300223D01*
X0178769Y0306969D01*
X0179390Y0307590D01*
X0179869Y0308747D01*
X0179869Y0310001D01*
X0179390Y0311158D01*
X0178503Y0312044D01*
X0177346Y0312524D01*
X0176093Y0312524D01*
X0174935Y0312044D01*
X0174049Y0311158D01*
X0173569Y0310001D01*
X0173569Y0308747D01*
X0174049Y0307590D01*
X0174669Y0306969D01*
X0174669Y0298525D01*
X0175870Y0297324D01*
X0175621Y0297573D02*
X0168819Y0297573D01*
X0168819Y0298572D02*
X0174669Y0298572D01*
X0174669Y0299570D02*
X0168819Y0299570D01*
X0168819Y0300569D02*
X0174669Y0300569D01*
X0174669Y0301567D02*
X0168819Y0301567D01*
X0168819Y0302566D02*
X0174669Y0302566D01*
X0174669Y0303564D02*
X0168819Y0303564D01*
X0168819Y0304563D02*
X0174669Y0304563D01*
X0174669Y0305561D02*
X0168819Y0305561D01*
X0168819Y0306560D02*
X0174669Y0306560D01*
X0174080Y0307558D02*
X0168819Y0307558D01*
X0168819Y0308557D02*
X0173648Y0308557D01*
X0173569Y0309555D02*
X0168819Y0309555D01*
X0168819Y0310554D02*
X0173798Y0310554D01*
X0174443Y0311552D02*
X0168819Y0311552D01*
X0168819Y0312551D02*
X0221997Y0312551D01*
X0222995Y0313549D02*
X0168819Y0313549D01*
X0168819Y0314548D02*
X0223819Y0314548D01*
X0223942Y0315546D02*
X0168819Y0315546D01*
X0168819Y0316545D02*
X0224435Y0316545D01*
X0225786Y0317543D02*
X0168819Y0317543D01*
X0168819Y0318542D02*
X0264619Y0318542D01*
X0264619Y0319540D02*
X0168819Y0319540D01*
X0168819Y0320539D02*
X0264619Y0320539D01*
X0264619Y0321537D02*
X0168819Y0321537D01*
X0168819Y0322536D02*
X0264619Y0322536D01*
X0264619Y0323534D02*
X0168819Y0323534D01*
X0168819Y0324533D02*
X0264619Y0324533D01*
X0264619Y0325531D02*
X0168819Y0325531D01*
X0168819Y0326530D02*
X0264619Y0326530D01*
X0264619Y0327528D02*
X0168819Y0327528D01*
X0168819Y0328527D02*
X0264619Y0328527D01*
X0264619Y0329525D02*
X0168819Y0329525D01*
X0168819Y0330524D02*
X0264619Y0330524D01*
X0264619Y0331522D02*
X0168819Y0331522D01*
X0168819Y0332521D02*
X0264619Y0332521D01*
X0264619Y0333519D02*
X0168819Y0333519D01*
X0168819Y0334518D02*
X0264619Y0334518D01*
X0264619Y0335516D02*
X0168819Y0335516D01*
X0168819Y0336515D02*
X0264619Y0336515D01*
X0264619Y0337513D02*
X0168819Y0337513D01*
X0168819Y0338512D02*
X0264619Y0338512D01*
X0264619Y0339511D02*
X0168819Y0339511D01*
X0168819Y0340509D02*
X0173592Y0340509D01*
X0171947Y0341108D02*
X0171947Y0341108D01*
X0171470Y0341508D02*
X0168819Y0341508D01*
X0168819Y0342506D02*
X0170280Y0342506D01*
X0169254Y0343505D02*
X0168819Y0343505D01*
X0179847Y0340509D02*
X0253592Y0340509D01*
X0251947Y0341108D02*
X0251947Y0341108D01*
X0251470Y0341508D02*
X0181968Y0341508D01*
X0181492Y0341108D02*
X0181492Y0341108D01*
X0183158Y0342506D02*
X0250280Y0342506D01*
X0249254Y0343505D02*
X0184185Y0343505D01*
X0184031Y0343239D02*
X0184031Y0343239D01*
X0184031Y0343239D01*
X0184761Y0344503D02*
X0248677Y0344503D01*
X0248101Y0345502D02*
X0185338Y0345502D01*
X0185757Y0346500D02*
X0247681Y0346500D01*
X0247505Y0347499D02*
X0185933Y0347499D01*
X0186110Y0348497D02*
X0247329Y0348497D01*
X0247196Y0349496D02*
X0186243Y0349496D01*
X0186264Y0349374D02*
X0186264Y0349374D01*
X0186067Y0350494D02*
X0247372Y0350494D01*
X0247548Y0351493D02*
X0185891Y0351493D01*
X0185715Y0352491D02*
X0247724Y0352491D01*
X0248241Y0353490D02*
X0185197Y0353490D01*
X0185689Y0352639D02*
X0185689Y0352639D01*
X0184621Y0354488D02*
X0248818Y0354488D01*
X0249394Y0355487D02*
X0184044Y0355487D01*
X0182868Y0356485D02*
X0250570Y0356485D01*
X0249407Y0355509D02*
X0249407Y0355509D01*
X0249407Y0355509D01*
X0263158Y0342506D02*
X0264619Y0342506D01*
X0264031Y0343239D02*
X0264031Y0343239D01*
X0264031Y0343239D01*
X0264185Y0343505D02*
X0264619Y0343505D01*
X0264619Y0341508D02*
X0261968Y0341508D01*
X0261492Y0341108D02*
X0261492Y0341108D01*
X0259847Y0340509D02*
X0264619Y0340509D01*
X0264619Y0317543D02*
X0228153Y0317543D01*
X0229503Y0316545D02*
X0254435Y0316545D01*
X0253795Y0315546D02*
X0229997Y0315546D01*
X0230119Y0314548D02*
X0253569Y0314548D01*
X0253651Y0313549D02*
X0229933Y0313549D01*
X0229351Y0312551D02*
X0254088Y0312551D01*
X0254443Y0311552D02*
X0227784Y0311552D01*
X0225798Y0310554D02*
X0253798Y0310554D01*
X0253569Y0309555D02*
X0224799Y0309555D01*
X0223801Y0308557D02*
X0253648Y0308557D01*
X0254080Y0307558D02*
X0223769Y0307558D01*
X0223769Y0306560D02*
X0254669Y0306560D01*
X0254669Y0305561D02*
X0223769Y0305561D01*
X0223769Y0304563D02*
X0254669Y0304563D01*
X0254669Y0303564D02*
X0223769Y0303564D01*
X0223769Y0302566D02*
X0254669Y0302566D01*
X0254669Y0301567D02*
X0223981Y0301567D01*
X0224634Y0300569D02*
X0254669Y0300569D01*
X0254016Y0299570D02*
X0224869Y0299570D01*
X0224796Y0298572D02*
X0253018Y0298572D01*
X0252019Y0297573D02*
X0224373Y0297573D01*
X0223192Y0296575D02*
X0251021Y0296575D01*
X0259829Y0289585D02*
X0264619Y0289585D01*
X0264619Y0290583D02*
X0260828Y0290583D01*
X0261826Y0291582D02*
X0264619Y0291582D01*
X0264619Y0292580D02*
X0262825Y0292580D01*
X0263769Y0293579D02*
X0264619Y0293579D01*
X0264619Y0294578D02*
X0263769Y0294578D01*
X0263769Y0295576D02*
X0264619Y0295576D01*
X0264619Y0296575D02*
X0263769Y0296575D01*
X0263769Y0297573D02*
X0264619Y0297573D01*
X0264619Y0298572D02*
X0263769Y0298572D01*
X0263769Y0299570D02*
X0264619Y0299570D01*
X0264619Y0300569D02*
X0263769Y0300569D01*
X0263769Y0301567D02*
X0264619Y0301567D01*
X0264619Y0302566D02*
X0263769Y0302566D01*
X0263769Y0303564D02*
X0264619Y0303564D01*
X0264619Y0304563D02*
X0263769Y0304563D01*
X0263769Y0305561D02*
X0264619Y0305561D01*
X0264619Y0306560D02*
X0263769Y0306560D01*
X0263769Y0307558D02*
X0264619Y0307558D01*
X0264619Y0308557D02*
X0263769Y0308557D01*
X0263769Y0309555D02*
X0264619Y0309555D01*
X0264619Y0310554D02*
X0263439Y0310554D01*
X0262440Y0311552D02*
X0264619Y0311552D01*
X0264619Y0312551D02*
X0261442Y0312551D01*
X0260443Y0313549D02*
X0264619Y0313549D01*
X0264619Y0314548D02*
X0259869Y0314548D01*
X0259643Y0315546D02*
X0264619Y0315546D01*
X0264619Y0316545D02*
X0259003Y0316545D01*
X0290974Y0301567D02*
X0321662Y0301567D01*
X0321009Y0300569D02*
X0290974Y0300569D01*
X0291627Y0299570D02*
X0320774Y0299570D01*
X0320847Y0298572D02*
X0292625Y0298572D01*
X0293624Y0297573D02*
X0321270Y0297573D01*
X0321874Y0296575D02*
X0294622Y0296575D01*
X0264619Y0288586D02*
X0221241Y0288586D01*
X0221241Y0287588D02*
X0264619Y0287588D01*
X0264619Y0286589D02*
X0221241Y0286589D01*
X0221241Y0286749D02*
X0221241Y0284177D01*
X0221139Y0283795D01*
X0220941Y0283453D01*
X0220662Y0283174D01*
X0220320Y0282976D01*
X0219938Y0282874D01*
X0218616Y0282874D01*
X0218616Y0286749D01*
X0221241Y0286749D01*
X0221241Y0285591D02*
X0264619Y0285591D01*
X0264619Y0284592D02*
X0221241Y0284592D01*
X0221022Y0283594D02*
X0264619Y0283594D01*
X0264619Y0282595D02*
X0211397Y0282595D01*
X0212073Y0283594D02*
X0210398Y0283594D01*
X0212395Y0281597D02*
X0264619Y0281597D01*
X0264619Y0280598D02*
X0213394Y0280598D01*
X0214392Y0279600D02*
X0264619Y0279600D01*
X0264619Y0278601D02*
X0215391Y0278601D01*
X0216389Y0277603D02*
X0264619Y0277603D01*
X0264619Y0276604D02*
X0217388Y0276604D01*
X0218387Y0275606D02*
X0264619Y0275606D01*
X0264619Y0274607D02*
X0219385Y0274607D01*
X0220384Y0273609D02*
X0264619Y0273609D01*
X0264619Y0272610D02*
X0221382Y0272610D01*
X0222381Y0271612D02*
X0264619Y0271612D01*
X0264619Y0270613D02*
X0223379Y0270613D01*
X0223769Y0269615D02*
X0230260Y0269615D01*
X0228325Y0268616D02*
X0225114Y0268616D01*
X0226112Y0267618D02*
X0227326Y0267618D01*
X0226804Y0266619D02*
X0226634Y0266619D01*
X0233178Y0269615D02*
X0240260Y0269615D01*
X0238325Y0268616D02*
X0235114Y0268616D01*
X0236112Y0267618D02*
X0237326Y0267618D01*
X0236804Y0266619D02*
X0236634Y0266619D01*
X0243178Y0269615D02*
X0264619Y0269615D01*
X0264619Y0268616D02*
X0245114Y0268616D01*
X0246112Y0267618D02*
X0264619Y0267618D01*
X0264619Y0266619D02*
X0246634Y0266619D01*
X0247048Y0265621D02*
X0264619Y0265621D01*
X0264619Y0264622D02*
X0247119Y0264622D01*
X0247119Y0263624D02*
X0264619Y0263624D01*
X0264619Y0262625D02*
X0246840Y0262625D01*
X0246426Y0261627D02*
X0264619Y0261627D01*
X0264399Y0231671D02*
X0264619Y0231671D01*
X0264031Y0231034D02*
X0264031Y0231034D01*
X0264031Y0231034D01*
X0263601Y0230673D02*
X0264619Y0230673D01*
X0264619Y0229674D02*
X0262411Y0229674D01*
X0261492Y0228903D02*
X0261492Y0228903D01*
X0260867Y0228676D02*
X0264619Y0228676D01*
X0281024Y0228676D02*
X0284776Y0228676D01*
X0283232Y0229674D02*
X0281024Y0229674D01*
X0281024Y0230673D02*
X0282042Y0230673D01*
X0281244Y0231671D02*
X0281024Y0231671D01*
X0281024Y0204711D02*
X0337011Y0204711D01*
X0336300Y0203713D02*
X0281024Y0203713D01*
X0281024Y0202714D02*
X0336024Y0202714D01*
X0335571Y0201716D02*
X0281024Y0201716D01*
X0281024Y0200717D02*
X0334573Y0200717D01*
X0333574Y0199719D02*
X0290829Y0199719D01*
X0291691Y0198720D02*
X0332576Y0198720D01*
X0331874Y0197722D02*
X0292074Y0197722D01*
X0292074Y0196723D02*
X0331874Y0196723D01*
X0331874Y0195725D02*
X0291735Y0195725D01*
X0290974Y0194726D02*
X0331874Y0194726D01*
X0331874Y0193728D02*
X0290974Y0193728D01*
X0290974Y0192729D02*
X0331874Y0192729D01*
X0331874Y0191731D02*
X0290974Y0191731D01*
X0290974Y0190732D02*
X0331874Y0190732D01*
X0331874Y0189734D02*
X0325814Y0189734D01*
X0326685Y0188735D02*
X0331163Y0188735D01*
X0330774Y0187737D02*
X0327074Y0187737D01*
X0327074Y0186738D02*
X0330774Y0186738D01*
X0331106Y0185740D02*
X0326741Y0185740D01*
X0325974Y0184741D02*
X0331897Y0184741D01*
X0335951Y0184741D02*
X0363597Y0184741D01*
X0364595Y0185740D02*
X0336741Y0185740D01*
X0337074Y0186738D02*
X0365594Y0186738D01*
X0366592Y0187737D02*
X0337074Y0187737D01*
X0336685Y0188735D02*
X0366874Y0188735D01*
X0366874Y0189734D02*
X0335974Y0189734D01*
X0335974Y0190732D02*
X0366874Y0190732D01*
X0366874Y0191731D02*
X0335974Y0191731D01*
X0335974Y0192729D02*
X0366874Y0192729D01*
X0366874Y0193728D02*
X0335974Y0193728D01*
X0335974Y0194726D02*
X0366874Y0194726D01*
X0366113Y0195725D02*
X0335974Y0195725D01*
X0336377Y0196723D02*
X0365774Y0196723D01*
X0365774Y0197722D02*
X0337376Y0197722D01*
X0338374Y0198720D02*
X0366157Y0198720D01*
X0366919Y0199719D02*
X0340886Y0199719D01*
X0341878Y0200717D02*
X0366116Y0200717D01*
X0365774Y0201716D02*
X0342292Y0201716D01*
X0342324Y0202714D02*
X0365774Y0202714D01*
X0366154Y0203713D02*
X0342048Y0203713D01*
X0341336Y0204711D02*
X0367011Y0204711D01*
X0370836Y0204711D02*
X0376824Y0204711D01*
X0376824Y0203713D02*
X0371694Y0203713D01*
X0372074Y0202714D02*
X0376824Y0202714D01*
X0376824Y0201716D02*
X0372276Y0201716D01*
X0373275Y0200717D02*
X0376824Y0200717D01*
X0376824Y0199719D02*
X0374273Y0199719D01*
X0375272Y0198720D02*
X0376824Y0198720D01*
X0376824Y0197722D02*
X0375974Y0197722D01*
X0375974Y0196723D02*
X0376824Y0196723D01*
X0376824Y0195725D02*
X0375974Y0195725D01*
X0375974Y0194726D02*
X0376824Y0194726D01*
X0376824Y0193728D02*
X0375974Y0193728D01*
X0375974Y0192729D02*
X0376824Y0192729D01*
X0376824Y0191731D02*
X0375974Y0191731D01*
X0375974Y0190732D02*
X0376824Y0190732D01*
X0376824Y0189734D02*
X0375974Y0189734D01*
X0375974Y0188735D02*
X0376824Y0188735D01*
X0376824Y0187737D02*
X0375974Y0187737D01*
X0375974Y0186738D02*
X0376824Y0186738D01*
X0376824Y0185740D02*
X0375974Y0185740D01*
X0375974Y0184741D02*
X0376824Y0184741D01*
X0376824Y0183743D02*
X0375974Y0183743D01*
X0375974Y0182744D02*
X0376824Y0182744D01*
X0376824Y0181746D02*
X0375974Y0181746D01*
X0375401Y0180747D02*
X0376824Y0180747D01*
X0376824Y0179749D02*
X0374402Y0179749D01*
X0373404Y0178750D02*
X0376824Y0178750D01*
X0376824Y0177752D02*
X0372405Y0177752D01*
X0376824Y0176753D02*
X0333446Y0176753D01*
X0333446Y0175755D02*
X0376824Y0175755D01*
X0376824Y0174756D02*
X0330821Y0174756D01*
X0330821Y0173758D02*
X0330571Y0173758D01*
X0330571Y0172759D02*
X0330821Y0172759D01*
X0330821Y0171761D02*
X0330571Y0171761D01*
X0330571Y0170762D02*
X0330821Y0170762D01*
X0332489Y0170762D02*
X0376824Y0170762D01*
X0376824Y0169764D02*
X0324229Y0169764D01*
X0324905Y0170762D02*
X0323230Y0170762D01*
X0323633Y0171761D02*
X0324202Y0171761D01*
X0325227Y0168765D02*
X0376824Y0168765D01*
X0376824Y0167767D02*
X0326226Y0167767D01*
X0327224Y0166768D02*
X0376824Y0166768D01*
X0376824Y0165770D02*
X0328223Y0165770D01*
X0329221Y0164771D02*
X0376824Y0164771D01*
X0376824Y0163773D02*
X0330220Y0163773D01*
X0331218Y0162774D02*
X0376824Y0162774D01*
X0376824Y0161776D02*
X0332217Y0161776D01*
X0333215Y0160777D02*
X0376824Y0160777D01*
X0376824Y0159778D02*
X0334214Y0159778D01*
X0335212Y0158780D02*
X0376824Y0158780D01*
X0376824Y0157781D02*
X0335974Y0157781D01*
X0336896Y0156783D02*
X0340951Y0156783D01*
X0339902Y0155784D02*
X0337945Y0155784D01*
X0338685Y0154786D02*
X0339163Y0154786D01*
X0346896Y0156783D02*
X0350951Y0156783D01*
X0349902Y0155784D02*
X0347945Y0155784D01*
X0348685Y0154786D02*
X0349163Y0154786D01*
X0356896Y0156783D02*
X0376824Y0156783D01*
X0376824Y0155784D02*
X0357945Y0155784D01*
X0358685Y0154786D02*
X0376824Y0154786D01*
X0376824Y0153787D02*
X0359099Y0153787D01*
X0359324Y0152789D02*
X0376824Y0152789D01*
X0376824Y0151790D02*
X0359324Y0151790D01*
X0359198Y0150792D02*
X0376824Y0150792D01*
X0376824Y0149793D02*
X0358785Y0149793D01*
X0363660Y0132819D02*
X0294188Y0132819D01*
X0295377Y0131820D02*
X0362470Y0131820D01*
X0361451Y0130822D02*
X0296396Y0130822D01*
X0296236Y0131100D02*
X0296236Y0131100D01*
X0296973Y0129823D02*
X0360875Y0129823D01*
X0360298Y0128825D02*
X0297549Y0128825D01*
X0297964Y0127826D02*
X0359883Y0127826D01*
X0359955Y0128229D02*
X0359955Y0128229D01*
X0359707Y0126828D02*
X0298140Y0126828D01*
X0298316Y0125829D02*
X0359531Y0125829D01*
X0359402Y0124831D02*
X0298445Y0124831D01*
X0298469Y0124965D02*
X0298469Y0124965D01*
X0298269Y0123832D02*
X0359579Y0123832D01*
X0359755Y0122834D02*
X0298093Y0122834D01*
X0297917Y0121835D02*
X0359931Y0121835D01*
X0359955Y0121700D02*
X0359955Y0121700D01*
X0360453Y0120837D02*
X0297395Y0120837D01*
X0297893Y0121700D02*
X0297893Y0121700D01*
X0296818Y0119838D02*
X0361029Y0119838D01*
X0361606Y0118840D02*
X0296242Y0118840D01*
X0295058Y0117841D02*
X0362790Y0117841D01*
X0361612Y0118829D02*
X0361612Y0118829D01*
X0363980Y0116842D02*
X0293868Y0116842D01*
X0293696Y0116698D02*
X0293696Y0116698D01*
X0291349Y0115844D02*
X0366499Y0115844D01*
X0364151Y0116698D02*
X0364151Y0116698D01*
X0371349Y0115844D02*
X0376824Y0115844D01*
X0376824Y0116842D02*
X0373868Y0116842D01*
X0373696Y0116698D02*
X0373696Y0116698D01*
X0375058Y0117841D02*
X0376824Y0117841D01*
X0376824Y0118840D02*
X0376242Y0118840D01*
X0376818Y0119838D02*
X0376824Y0119838D01*
X0376824Y0114845D02*
X0281024Y0114845D01*
X0281024Y0113847D02*
X0376824Y0113847D01*
X0376824Y0112848D02*
X0281024Y0112848D01*
X0281024Y0111850D02*
X0376824Y0111850D01*
X0376824Y0110851D02*
X0281024Y0110851D01*
X0281024Y0109853D02*
X0376824Y0109853D01*
X0376824Y0108854D02*
X0281024Y0108854D01*
X0281024Y0107856D02*
X0376824Y0107856D01*
X0376824Y0106857D02*
X0281024Y0106857D01*
X0281024Y0105859D02*
X0376824Y0105859D01*
X0376824Y0104860D02*
X0281024Y0104860D01*
X0281024Y0103862D02*
X0376824Y0103862D01*
X0376824Y0102863D02*
X0281024Y0102863D01*
X0281024Y0101865D02*
X0376824Y0101865D01*
X0376824Y0100866D02*
X0281024Y0100866D01*
X0281024Y0099868D02*
X0376824Y0099868D01*
X0376824Y0098869D02*
X0281024Y0098869D01*
X0281024Y0097871D02*
X0376824Y0097871D01*
X0376824Y0096872D02*
X0281024Y0096872D01*
X0281024Y0095874D02*
X0376824Y0095874D01*
X0376824Y0094875D02*
X0281024Y0094875D01*
X0281024Y0093877D02*
X0376824Y0093877D01*
X0376824Y0092878D02*
X0370121Y0092878D01*
X0371463Y0091880D02*
X0376824Y0091880D01*
X0376824Y0090881D02*
X0371954Y0090881D01*
X0372074Y0089883D02*
X0376824Y0089883D01*
X0376824Y0088884D02*
X0372903Y0088884D01*
X0373902Y0087886D02*
X0376824Y0087886D01*
X0376824Y0086887D02*
X0374900Y0086887D01*
X0375899Y0085889D02*
X0376824Y0085889D01*
X0376824Y0084890D02*
X0375974Y0084890D01*
X0375974Y0083892D02*
X0376824Y0083892D01*
X0376824Y0082893D02*
X0375974Y0082893D01*
X0375974Y0081895D02*
X0376824Y0081895D01*
X0376824Y0080896D02*
X0375974Y0080896D01*
X0375974Y0079898D02*
X0376824Y0079898D01*
X0376824Y0078899D02*
X0375974Y0078899D01*
X0375974Y0077901D02*
X0376824Y0077901D01*
X0376824Y0076902D02*
X0375974Y0076902D01*
X0375974Y0075904D02*
X0376824Y0075904D01*
X0376824Y0074905D02*
X0375974Y0074905D01*
X0375974Y0073907D02*
X0376824Y0073907D01*
X0376824Y0072908D02*
X0375974Y0072908D01*
X0375974Y0071909D02*
X0376824Y0071909D01*
X0376824Y0070911D02*
X0375974Y0070911D01*
X0375974Y0069912D02*
X0376824Y0069912D01*
X0376824Y0068914D02*
X0375772Y0068914D01*
X0374774Y0067915D02*
X0376824Y0067915D01*
X0376824Y0066917D02*
X0373775Y0066917D01*
X0372777Y0065918D02*
X0376824Y0065918D01*
X0376824Y0064920D02*
X0371778Y0064920D01*
X0363968Y0072908D02*
X0336322Y0072908D01*
X0336895Y0073907D02*
X0364967Y0073907D01*
X0365965Y0074905D02*
X0337074Y0074905D01*
X0336944Y0075904D02*
X0366874Y0075904D01*
X0366874Y0076902D02*
X0336441Y0076902D01*
X0335974Y0077901D02*
X0366874Y0077901D01*
X0366874Y0078899D02*
X0335974Y0078899D01*
X0335974Y0079898D02*
X0366874Y0079898D01*
X0366874Y0080896D02*
X0335974Y0080896D01*
X0335974Y0081895D02*
X0366874Y0081895D01*
X0366541Y0082893D02*
X0335974Y0082893D01*
X0335974Y0083892D02*
X0365959Y0083892D01*
X0365774Y0084890D02*
X0336749Y0084890D01*
X0337747Y0085889D02*
X0365897Y0085889D01*
X0366392Y0086887D02*
X0338746Y0086887D01*
X0341300Y0087886D02*
X0366548Y0087886D01*
X0365962Y0088884D02*
X0342032Y0088884D01*
X0342324Y0089883D02*
X0365774Y0089883D01*
X0365894Y0090881D02*
X0342307Y0090881D01*
X0341894Y0091880D02*
X0366384Y0091880D01*
X0367727Y0092878D02*
X0340965Y0092878D01*
X0337383Y0092878D02*
X0281024Y0092878D01*
X0281024Y0091880D02*
X0336454Y0091880D01*
X0336040Y0090881D02*
X0281024Y0090881D01*
X0281024Y0089883D02*
X0335943Y0089883D01*
X0334944Y0088884D02*
X0281024Y0088884D01*
X0281024Y0087886D02*
X0287745Y0087886D01*
X0286392Y0086887D02*
X0281024Y0086887D01*
X0281024Y0085889D02*
X0285897Y0085889D01*
X0285774Y0084890D02*
X0281024Y0084890D01*
X0281024Y0083892D02*
X0285959Y0083892D01*
X0286541Y0082893D02*
X0281024Y0082893D01*
X0281024Y0081895D02*
X0286874Y0081895D01*
X0286874Y0080896D02*
X0281024Y0080896D01*
X0281024Y0079898D02*
X0286874Y0079898D01*
X0286874Y0078899D02*
X0281024Y0078899D01*
X0281024Y0077901D02*
X0286874Y0077901D01*
X0286874Y0076902D02*
X0281024Y0076902D01*
X0281024Y0075904D02*
X0286874Y0075904D01*
X0286874Y0074905D02*
X0281024Y0074905D01*
X0281024Y0073907D02*
X0287083Y0073907D01*
X0288081Y0072908D02*
X0281024Y0072908D01*
X0281024Y0071909D02*
X0289080Y0071909D01*
X0290078Y0070911D02*
X0281024Y0070911D01*
X0290974Y0079898D02*
X0331874Y0079898D01*
X0331874Y0080896D02*
X0290974Y0080896D01*
X0290974Y0081895D02*
X0331874Y0081895D01*
X0331874Y0082893D02*
X0291307Y0082893D01*
X0291889Y0083892D02*
X0331874Y0083892D01*
X0331874Y0084890D02*
X0292074Y0084890D01*
X0291951Y0085889D02*
X0331949Y0085889D01*
X0332947Y0086887D02*
X0291456Y0086887D01*
X0290103Y0087886D02*
X0333946Y0087886D01*
X0286499Y0115844D02*
X0281024Y0115844D01*
X0281024Y0116842D02*
X0283980Y0116842D01*
X0284151Y0116698D02*
X0284151Y0116698D01*
X0282790Y0117841D02*
X0281024Y0117841D01*
X0281024Y0118840D02*
X0281606Y0118840D01*
X0281612Y0118829D02*
X0281612Y0118829D01*
X0281030Y0119838D02*
X0281024Y0119838D01*
X0264619Y0119838D02*
X0264614Y0119838D01*
X0264619Y0118840D02*
X0264037Y0118840D01*
X0264619Y0117841D02*
X0262853Y0117841D01*
X0261663Y0116842D02*
X0264619Y0116842D01*
X0264619Y0115844D02*
X0259144Y0115844D01*
X0261492Y0116698D02*
X0261492Y0116698D01*
X0264619Y0092878D02*
X0257916Y0092878D01*
X0259259Y0091880D02*
X0264619Y0091880D01*
X0264619Y0090881D02*
X0259749Y0090881D01*
X0259869Y0089883D02*
X0264619Y0089883D01*
X0264619Y0088884D02*
X0260699Y0088884D01*
X0261697Y0087886D02*
X0264619Y0087886D01*
X0264619Y0086887D02*
X0262696Y0086887D01*
X0263694Y0085889D02*
X0264619Y0085889D01*
X0264619Y0084890D02*
X0263769Y0084890D01*
X0263769Y0083892D02*
X0264619Y0083892D01*
X0264619Y0082893D02*
X0263769Y0082893D01*
X0263769Y0081895D02*
X0264619Y0081895D01*
X0264619Y0080896D02*
X0263769Y0080896D01*
X0263769Y0079898D02*
X0264619Y0079898D01*
X0264619Y0078899D02*
X0263769Y0078899D01*
X0263769Y0077901D02*
X0264619Y0077901D01*
X0264619Y0076902D02*
X0263769Y0076902D01*
X0263769Y0075904D02*
X0264619Y0075904D01*
X0264619Y0074905D02*
X0263769Y0074905D01*
X0263769Y0073907D02*
X0264619Y0073907D01*
X0264619Y0072908D02*
X0263769Y0072908D01*
X0263769Y0071909D02*
X0264619Y0071909D01*
X0264619Y0070911D02*
X0263769Y0070911D01*
X0263769Y0069912D02*
X0264619Y0069912D01*
X0264619Y0068914D02*
X0263568Y0068914D01*
X0262569Y0067915D02*
X0264619Y0067915D01*
X0264619Y0066917D02*
X0261571Y0066917D01*
X0260572Y0065918D02*
X0264619Y0065918D01*
X0264619Y0064920D02*
X0259574Y0064920D01*
X0251763Y0072908D02*
X0224117Y0072908D01*
X0224690Y0073907D02*
X0252762Y0073907D01*
X0253760Y0074905D02*
X0224869Y0074905D01*
X0224740Y0075904D02*
X0254669Y0075904D01*
X0254669Y0076902D02*
X0224236Y0076902D01*
X0223769Y0077901D02*
X0254669Y0077901D01*
X0254669Y0078899D02*
X0223769Y0078899D01*
X0223769Y0079898D02*
X0254669Y0079898D01*
X0254669Y0080896D02*
X0223769Y0080896D01*
X0223769Y0081895D02*
X0254669Y0081895D01*
X0254336Y0082893D02*
X0223769Y0082893D01*
X0223769Y0083892D02*
X0253754Y0083892D01*
X0253569Y0084890D02*
X0224544Y0084890D01*
X0225542Y0085889D02*
X0253692Y0085889D01*
X0254187Y0086887D02*
X0226541Y0086887D01*
X0229095Y0087886D02*
X0254343Y0087886D01*
X0253757Y0088884D02*
X0229828Y0088884D01*
X0230119Y0089883D02*
X0253569Y0089883D01*
X0253689Y0090881D02*
X0230103Y0090881D01*
X0229689Y0091880D02*
X0254180Y0091880D01*
X0255522Y0092878D02*
X0228760Y0092878D01*
X0208835Y0044950D02*
X0203795Y0044950D01*
X0205369Y0043951D02*
X0208069Y0043951D01*
X0207112Y0042953D02*
X0206326Y0042953D01*
X0188359Y0043951D02*
X0168819Y0043951D01*
X0168819Y0042953D02*
X0187463Y0042953D01*
X0186898Y0041954D02*
X0168819Y0041954D01*
X0168819Y0040956D02*
X0186611Y0040956D01*
X0303424Y0042953D02*
X0304424Y0042953D01*
X0304424Y0043951D02*
X0303424Y0043951D01*
X0316000Y0044950D02*
X0321040Y0044950D01*
X0320274Y0043951D02*
X0317574Y0043951D01*
X0318531Y0042953D02*
X0319317Y0042953D01*
X0346000Y0044950D02*
X0351848Y0044950D01*
X0350274Y0043951D02*
X0347574Y0043951D01*
X0348531Y0042953D02*
X0349317Y0042953D01*
X0358531Y0042953D02*
X0376824Y0042953D01*
X0376824Y0041954D02*
X0358945Y0041954D01*
X0359324Y0040956D02*
X0376824Y0040956D01*
X0376824Y0039957D02*
X0359324Y0039957D01*
X0359324Y0038959D02*
X0376824Y0038959D01*
X0376824Y0037960D02*
X0358939Y0037960D01*
X0393229Y0070911D02*
X0402283Y0070911D01*
X0401285Y0071909D02*
X0393229Y0071909D01*
X0393229Y0072908D02*
X0400286Y0072908D01*
X0399288Y0073907D02*
X0393229Y0073907D01*
X0393229Y0074905D02*
X0399079Y0074905D01*
X0399079Y0075904D02*
X0393229Y0075904D01*
X0393229Y0076902D02*
X0399079Y0076902D01*
X0399079Y0077901D02*
X0393229Y0077901D01*
X0393229Y0078899D02*
X0399079Y0078899D01*
X0399079Y0079898D02*
X0393229Y0079898D01*
X0393229Y0080896D02*
X0399079Y0080896D01*
X0399079Y0081895D02*
X0393229Y0081895D01*
X0393229Y0082893D02*
X0398745Y0082893D01*
X0398163Y0083892D02*
X0393229Y0083892D01*
X0393229Y0084890D02*
X0397979Y0084890D01*
X0398102Y0085889D02*
X0393229Y0085889D01*
X0393229Y0086887D02*
X0398596Y0086887D01*
X0399949Y0087886D02*
X0393229Y0087886D01*
X0393229Y0088884D02*
X0447149Y0088884D01*
X0446151Y0087886D02*
X0402308Y0087886D01*
X0403661Y0086887D02*
X0445152Y0086887D01*
X0445279Y0087015D02*
X0445279Y0087015D01*
X0444154Y0085889D02*
X0404155Y0085889D01*
X0404279Y0084890D02*
X0444079Y0084890D01*
X0444079Y0083892D02*
X0404094Y0083892D01*
X0403512Y0082893D02*
X0444079Y0082893D01*
X0444079Y0081895D02*
X0403179Y0081895D01*
X0403179Y0080896D02*
X0444079Y0080896D01*
X0444079Y0079898D02*
X0403179Y0079898D01*
X0393229Y0089883D02*
X0448148Y0089883D01*
X0448245Y0090881D02*
X0393229Y0090881D01*
X0393229Y0091880D02*
X0448659Y0091880D01*
X0449587Y0092878D02*
X0393229Y0092878D01*
X0393229Y0115844D02*
X0398703Y0115844D01*
X0396184Y0116842D02*
X0393229Y0116842D01*
X0393229Y0117841D02*
X0394994Y0117841D01*
X0393817Y0118829D02*
X0393817Y0118829D01*
X0393811Y0118840D02*
X0393229Y0118840D01*
X0393229Y0119838D02*
X0393234Y0119838D01*
X0393229Y0149793D02*
X0411503Y0149793D01*
X0411109Y0150792D02*
X0393229Y0150792D01*
X0393229Y0151790D02*
X0415629Y0151790D01*
X0415629Y0152789D02*
X0416629Y0152789D01*
X0416629Y0153787D02*
X0415629Y0153787D01*
X0415629Y0154786D02*
X0416629Y0154786D01*
X0416629Y0155784D02*
X0415629Y0155784D01*
X0415629Y0156783D02*
X0416629Y0156783D01*
X0418528Y0156783D02*
X0423156Y0156783D01*
X0422107Y0155784D02*
X0419867Y0155784D01*
X0420631Y0154786D02*
X0421368Y0154786D01*
X0429101Y0156783D02*
X0433156Y0156783D01*
X0432617Y0157781D02*
X0393229Y0157781D01*
X0393229Y0156783D02*
X0413729Y0156783D01*
X0412390Y0155784D02*
X0393229Y0155784D01*
X0393229Y0154786D02*
X0411626Y0154786D01*
X0411187Y0153787D02*
X0393229Y0153787D01*
X0393229Y0152789D02*
X0410962Y0152789D01*
X0393229Y0158780D02*
X0431619Y0158780D01*
X0430620Y0159778D02*
X0393229Y0159778D01*
X0393229Y0160777D02*
X0429622Y0160777D01*
X0428623Y0161776D02*
X0393229Y0161776D01*
X0393229Y0162774D02*
X0427625Y0162774D01*
X0426626Y0163773D02*
X0393229Y0163773D01*
X0393229Y0164771D02*
X0425628Y0164771D01*
X0424629Y0165770D02*
X0393229Y0165770D01*
X0393229Y0166768D02*
X0423631Y0166768D01*
X0422632Y0167767D02*
X0393229Y0167767D01*
X0393229Y0168765D02*
X0421634Y0168765D01*
X0420635Y0169764D02*
X0393229Y0169764D01*
X0393229Y0170762D02*
X0419637Y0170762D01*
X0419079Y0171761D02*
X0393229Y0171761D01*
X0393229Y0172759D02*
X0419079Y0172759D01*
X0419079Y0173758D02*
X0393229Y0173758D01*
X0393229Y0174756D02*
X0419079Y0174756D01*
X0419079Y0175755D02*
X0393229Y0175755D01*
X0393229Y0176753D02*
X0419079Y0176753D01*
X0419079Y0177752D02*
X0393229Y0177752D01*
X0393229Y0178750D02*
X0419079Y0178750D01*
X0419079Y0179749D02*
X0393229Y0179749D01*
X0393229Y0180747D02*
X0404652Y0180747D01*
X0403653Y0181746D02*
X0393229Y0181746D01*
X0393229Y0182744D02*
X0402655Y0182744D01*
X0401656Y0183743D02*
X0393229Y0183743D01*
X0393229Y0184741D02*
X0400657Y0184741D01*
X0399659Y0185740D02*
X0393229Y0185740D01*
X0393229Y0186738D02*
X0399079Y0186738D01*
X0399079Y0187737D02*
X0393229Y0187737D01*
X0393229Y0188735D02*
X0399079Y0188735D01*
X0399079Y0189734D02*
X0393229Y0189734D01*
X0393229Y0190732D02*
X0399079Y0190732D01*
X0399079Y0191731D02*
X0393229Y0191731D01*
X0393229Y0192729D02*
X0399079Y0192729D01*
X0399079Y0193728D02*
X0393229Y0193728D01*
X0393229Y0194726D02*
X0399079Y0194726D01*
X0398317Y0195725D02*
X0393229Y0195725D01*
X0393229Y0196723D02*
X0397979Y0196723D01*
X0397979Y0197722D02*
X0393229Y0197722D01*
X0393229Y0198720D02*
X0398362Y0198720D01*
X0399223Y0199719D02*
X0393229Y0199719D01*
X0403179Y0189734D02*
X0434238Y0189734D01*
X0433368Y0188735D02*
X0403179Y0188735D01*
X0403460Y0187737D02*
X0432979Y0187737D01*
X0432979Y0186738D02*
X0404459Y0186738D01*
X0405457Y0185740D02*
X0433311Y0185740D01*
X0434079Y0184741D02*
X0406456Y0184741D01*
X0376824Y0173758D02*
X0333446Y0173758D01*
X0333446Y0172759D02*
X0376824Y0172759D01*
X0376824Y0171761D02*
X0333389Y0171761D01*
X0319414Y0158780D02*
X0281024Y0158780D01*
X0281024Y0159778D02*
X0318416Y0159778D01*
X0317417Y0160777D02*
X0281024Y0160777D01*
X0281024Y0161776D02*
X0316419Y0161776D01*
X0315420Y0162774D02*
X0281024Y0162774D01*
X0281024Y0163773D02*
X0314421Y0163773D01*
X0313423Y0164771D02*
X0281024Y0164771D01*
X0281024Y0165770D02*
X0312424Y0165770D01*
X0311426Y0166768D02*
X0281024Y0166768D01*
X0281024Y0167767D02*
X0310427Y0167767D01*
X0309429Y0168765D02*
X0281024Y0168765D01*
X0281024Y0169764D02*
X0308430Y0169764D01*
X0307432Y0170762D02*
X0281024Y0170762D01*
X0281024Y0171761D02*
X0306874Y0171761D01*
X0306874Y0172759D02*
X0281024Y0172759D01*
X0281024Y0173758D02*
X0306874Y0173758D01*
X0306874Y0174756D02*
X0281024Y0174756D01*
X0281024Y0175755D02*
X0306874Y0175755D01*
X0306874Y0176753D02*
X0281024Y0176753D01*
X0281024Y0177752D02*
X0306874Y0177752D01*
X0306874Y0178750D02*
X0281024Y0178750D01*
X0281024Y0179749D02*
X0306874Y0179749D01*
X0293253Y0185740D02*
X0321106Y0185740D01*
X0320774Y0186738D02*
X0292254Y0186738D01*
X0291255Y0187737D02*
X0320774Y0187737D01*
X0321163Y0188735D02*
X0290974Y0188735D01*
X0290974Y0189734D02*
X0322034Y0189734D01*
X0321874Y0184741D02*
X0294251Y0184741D01*
X0291448Y0181746D02*
X0281024Y0181746D01*
X0281024Y0182744D02*
X0290450Y0182744D01*
X0289451Y0183743D02*
X0281024Y0183743D01*
X0281024Y0184741D02*
X0288453Y0184741D01*
X0287454Y0185740D02*
X0281024Y0185740D01*
X0281024Y0186738D02*
X0286874Y0186738D01*
X0286874Y0187737D02*
X0281024Y0187737D01*
X0281024Y0188735D02*
X0286874Y0188735D01*
X0286874Y0189734D02*
X0281024Y0189734D01*
X0281024Y0190732D02*
X0286874Y0190732D01*
X0286874Y0191731D02*
X0281024Y0191731D01*
X0281024Y0192729D02*
X0286874Y0192729D01*
X0286874Y0193728D02*
X0281024Y0193728D01*
X0281024Y0194726D02*
X0286874Y0194726D01*
X0286113Y0195725D02*
X0281024Y0195725D01*
X0281024Y0196723D02*
X0285774Y0196723D01*
X0285774Y0197722D02*
X0281024Y0197722D01*
X0281024Y0198720D02*
X0286157Y0198720D01*
X0287019Y0199719D02*
X0281024Y0199719D01*
X0281024Y0180747D02*
X0292447Y0180747D01*
X0281024Y0157781D02*
X0320413Y0157781D01*
X0320951Y0156783D02*
X0316896Y0156783D01*
X0317945Y0155784D02*
X0319902Y0155784D01*
X0319163Y0154786D02*
X0318685Y0154786D01*
X0310951Y0156783D02*
X0306323Y0156783D01*
X0307663Y0155784D02*
X0309902Y0155784D01*
X0309163Y0154786D02*
X0308427Y0154786D01*
X0304424Y0154786D02*
X0303424Y0154786D01*
X0303424Y0155784D02*
X0304424Y0155784D01*
X0304424Y0156783D02*
X0303424Y0156783D01*
X0301525Y0156783D02*
X0281024Y0156783D01*
X0281024Y0155784D02*
X0300185Y0155784D01*
X0299421Y0154786D02*
X0281024Y0154786D01*
X0281024Y0153787D02*
X0298982Y0153787D01*
X0298757Y0152789D02*
X0281024Y0152789D01*
X0281024Y0151790D02*
X0303424Y0151790D01*
X0303424Y0152789D02*
X0304424Y0152789D01*
X0304424Y0153787D02*
X0303424Y0153787D01*
X0298904Y0150792D02*
X0281024Y0150792D01*
X0281024Y0149793D02*
X0299298Y0149793D01*
X0198747Y0156783D02*
X0194118Y0156783D01*
X0195458Y0155784D02*
X0197698Y0155784D01*
X0196958Y0154786D02*
X0196222Y0154786D01*
X0192219Y0154786D02*
X0191219Y0154786D01*
X0191219Y0155784D02*
X0192219Y0155784D01*
X0192219Y0156783D02*
X0191219Y0156783D01*
X0191219Y0153787D02*
X0192219Y0153787D01*
X0192219Y0152789D02*
X0191219Y0152789D01*
X0191219Y0151790D02*
X0168819Y0151790D01*
X0168819Y0180747D02*
X0180242Y0180747D01*
X0179244Y0181746D02*
X0168819Y0181746D01*
X0168819Y0182744D02*
X0178245Y0182744D01*
X0177247Y0183743D02*
X0168819Y0183743D01*
X0168819Y0184741D02*
X0176248Y0184741D01*
X0175250Y0185740D02*
X0168819Y0185740D01*
X0168819Y0186738D02*
X0174669Y0186738D01*
X0174669Y0187737D02*
X0168819Y0187737D01*
X0168819Y0188735D02*
X0174669Y0188735D01*
X0174669Y0189734D02*
X0168819Y0189734D01*
X0168819Y0190732D02*
X0174669Y0190732D01*
X0174669Y0191731D02*
X0168819Y0191731D01*
X0168819Y0192729D02*
X0174669Y0192729D01*
X0174669Y0193728D02*
X0168819Y0193728D01*
X0168819Y0194726D02*
X0174669Y0194726D01*
X0173908Y0195725D02*
X0168819Y0195725D01*
X0168819Y0196723D02*
X0173569Y0196723D01*
X0173569Y0197722D02*
X0168819Y0197722D01*
X0168819Y0198720D02*
X0173952Y0198720D01*
X0142510Y0199719D02*
X0116477Y0199719D01*
X0117469Y0200717D02*
X0141706Y0200717D01*
X0141364Y0201716D02*
X0117883Y0201716D01*
X0117914Y0202714D02*
X0141364Y0202714D01*
X0141744Y0203713D02*
X0117638Y0203713D01*
X0116927Y0204711D02*
X0142602Y0204711D01*
X0141747Y0198720D02*
X0113965Y0198720D01*
X0112966Y0197722D02*
X0141364Y0197722D01*
X0141364Y0196723D02*
X0111968Y0196723D01*
X0111564Y0195725D02*
X0141703Y0195725D01*
X0142464Y0194726D02*
X0111564Y0194726D01*
X0111564Y0193728D02*
X0142464Y0193728D01*
X0142464Y0192729D02*
X0111564Y0192729D01*
X0111564Y0191731D02*
X0142464Y0191731D01*
X0142464Y0190732D02*
X0111564Y0190732D01*
X0111564Y0189734D02*
X0142464Y0189734D01*
X0142464Y0188735D02*
X0112275Y0188735D01*
X0112664Y0187737D02*
X0142183Y0187737D01*
X0141184Y0186738D02*
X0112664Y0186738D01*
X0112332Y0185740D02*
X0140186Y0185740D01*
X0139187Y0184741D02*
X0111541Y0184741D01*
X0107488Y0184741D02*
X0101564Y0184741D01*
X0102332Y0185740D02*
X0106697Y0185740D01*
X0106364Y0186738D02*
X0102664Y0186738D01*
X0102664Y0187737D02*
X0106364Y0187737D01*
X0106754Y0188735D02*
X0102275Y0188735D01*
X0101405Y0189734D02*
X0107464Y0189734D01*
X0107464Y0190732D02*
X0066564Y0190732D01*
X0066564Y0189734D02*
X0097624Y0189734D01*
X0096754Y0188735D02*
X0066564Y0188735D01*
X0066846Y0187737D02*
X0096364Y0187737D01*
X0096364Y0186738D02*
X0067845Y0186738D01*
X0068843Y0185740D02*
X0096697Y0185740D01*
X0097464Y0184741D02*
X0069842Y0184741D01*
X0067039Y0181746D02*
X0056614Y0181746D01*
X0056614Y0182744D02*
X0066040Y0182744D01*
X0065042Y0183743D02*
X0056614Y0183743D01*
X0056614Y0184741D02*
X0064043Y0184741D01*
X0063045Y0185740D02*
X0056614Y0185740D01*
X0056614Y0186738D02*
X0062464Y0186738D01*
X0062464Y0187737D02*
X0056614Y0187737D01*
X0056614Y0188735D02*
X0062464Y0188735D01*
X0062464Y0189734D02*
X0056614Y0189734D01*
X0056614Y0190732D02*
X0062464Y0190732D01*
X0062464Y0191731D02*
X0056614Y0191731D01*
X0056614Y0192729D02*
X0062464Y0192729D01*
X0062464Y0193728D02*
X0056614Y0193728D01*
X0056614Y0194726D02*
X0062464Y0194726D01*
X0061703Y0195725D02*
X0056614Y0195725D01*
X0056614Y0196723D02*
X0061364Y0196723D01*
X0061364Y0197722D02*
X0056614Y0197722D01*
X0056614Y0198720D02*
X0061747Y0198720D01*
X0062609Y0199719D02*
X0056614Y0199719D01*
X0056614Y0200717D02*
X0110163Y0200717D01*
X0109165Y0199719D02*
X0066420Y0199719D01*
X0067281Y0198720D02*
X0108166Y0198720D01*
X0107464Y0197722D02*
X0067664Y0197722D01*
X0067664Y0196723D02*
X0107464Y0196723D01*
X0107464Y0195725D02*
X0067326Y0195725D01*
X0066564Y0194726D02*
X0107464Y0194726D01*
X0107464Y0193728D02*
X0066564Y0193728D01*
X0066564Y0192729D02*
X0107464Y0192729D01*
X0107464Y0191731D02*
X0066564Y0191731D01*
X0068037Y0180747D02*
X0056614Y0180747D01*
X0056614Y0179749D02*
X0082464Y0179749D01*
X0082464Y0178750D02*
X0056614Y0178750D01*
X0056614Y0177752D02*
X0082464Y0177752D01*
X0082464Y0176753D02*
X0056614Y0176753D01*
X0056614Y0175755D02*
X0082464Y0175755D01*
X0082464Y0174756D02*
X0056614Y0174756D01*
X0056614Y0173758D02*
X0082464Y0173758D01*
X0082464Y0172759D02*
X0056614Y0172759D01*
X0056614Y0171761D02*
X0082464Y0171761D01*
X0083022Y0170762D02*
X0056614Y0170762D01*
X0056614Y0169764D02*
X0084021Y0169764D01*
X0085019Y0168765D02*
X0056614Y0168765D01*
X0056614Y0167767D02*
X0086018Y0167767D01*
X0087017Y0166768D02*
X0056614Y0166768D01*
X0056614Y0165770D02*
X0088015Y0165770D01*
X0089014Y0164771D02*
X0056614Y0164771D01*
X0056614Y0163773D02*
X0090012Y0163773D01*
X0091011Y0162774D02*
X0056614Y0162774D01*
X0056614Y0161776D02*
X0092009Y0161776D01*
X0093008Y0160777D02*
X0056614Y0160777D01*
X0056614Y0159778D02*
X0094006Y0159778D01*
X0095005Y0158780D02*
X0056614Y0158780D01*
X0056614Y0157781D02*
X0096003Y0157781D01*
X0096542Y0156783D02*
X0092487Y0156783D01*
X0093536Y0155784D02*
X0095493Y0155784D01*
X0094753Y0154786D02*
X0094275Y0154786D01*
X0086542Y0156783D02*
X0081914Y0156783D01*
X0083253Y0155784D02*
X0085493Y0155784D01*
X0084753Y0154786D02*
X0084017Y0154786D01*
X0080014Y0154786D02*
X0079014Y0154786D01*
X0079014Y0155784D02*
X0080014Y0155784D01*
X0080014Y0156783D02*
X0079014Y0156783D01*
X0079014Y0157355D02*
X0078297Y0157241D01*
X0077518Y0156988D01*
X0076789Y0156617D01*
X0076127Y0156136D01*
X0075548Y0155557D01*
X0075067Y0154895D01*
X0074695Y0154165D01*
X0074442Y0153387D01*
X0074329Y0152669D01*
X0079014Y0152669D01*
X0079014Y0157355D01*
X0077115Y0156783D02*
X0056614Y0156783D01*
X0056614Y0155784D02*
X0075776Y0155784D01*
X0075012Y0154786D02*
X0056614Y0154786D01*
X0056614Y0153787D02*
X0074573Y0153787D01*
X0074348Y0152789D02*
X0056614Y0152789D01*
X0056614Y0151790D02*
X0079014Y0151790D01*
X0079014Y0152789D02*
X0080014Y0152789D01*
X0080014Y0153787D02*
X0079014Y0153787D01*
X0074494Y0150792D02*
X0056614Y0150792D01*
X0056614Y0149793D02*
X0074889Y0149793D01*
X0106161Y0170762D02*
X0106411Y0170762D01*
X0112487Y0156783D02*
X0116542Y0156783D01*
X0115493Y0155784D02*
X0113536Y0155784D01*
X0114275Y0154786D02*
X0114753Y0154786D01*
X0122487Y0156783D02*
X0126542Y0156783D01*
X0125493Y0155784D02*
X0123536Y0155784D01*
X0124276Y0154786D02*
X0124753Y0154786D01*
X0111162Y0201716D02*
X0056614Y0201716D01*
X0056614Y0202714D02*
X0111614Y0202714D01*
X0111891Y0203713D02*
X0056614Y0203713D01*
X0056614Y0204711D02*
X0112602Y0204711D01*
X0148662Y0228676D02*
X0152414Y0228676D01*
X0152414Y0229674D02*
X0150206Y0229674D01*
X0149287Y0228903D02*
X0149287Y0228903D01*
X0151396Y0230673D02*
X0152414Y0230673D01*
X0151826Y0231034D02*
X0151826Y0231034D01*
X0151826Y0231034D01*
X0152194Y0231671D02*
X0152414Y0231671D01*
X0168819Y0261627D02*
X0187288Y0261627D01*
X0186820Y0262625D02*
X0168819Y0262625D01*
X0168819Y0263624D02*
X0186573Y0263624D01*
X0186534Y0264874D02*
X0191219Y0264874D01*
X0191219Y0269560D01*
X0190501Y0269446D01*
X0189723Y0269193D01*
X0188994Y0268821D01*
X0188332Y0268340D01*
X0187753Y0267762D01*
X0187272Y0267099D01*
X0186900Y0266370D01*
X0186647Y0265592D01*
X0186534Y0264874D01*
X0186657Y0265621D02*
X0168819Y0265621D01*
X0168819Y0266619D02*
X0187027Y0266619D01*
X0187648Y0267618D02*
X0168819Y0267618D01*
X0168819Y0268616D02*
X0188711Y0268616D01*
X0191219Y0268616D02*
X0192219Y0268616D01*
X0192219Y0267618D02*
X0191219Y0267618D01*
X0191219Y0266619D02*
X0192219Y0266619D01*
X0192219Y0265621D02*
X0191219Y0265621D01*
X0191219Y0264622D02*
X0168819Y0264622D01*
X0168819Y0269615D02*
X0200260Y0269615D01*
X0198325Y0268616D02*
X0194727Y0268616D01*
X0195790Y0267618D02*
X0197326Y0267618D01*
X0196804Y0266619D02*
X0196411Y0266619D01*
X0203178Y0269615D02*
X0208579Y0269615D01*
X0208325Y0268616D02*
X0205114Y0268616D01*
X0206112Y0267618D02*
X0207326Y0267618D01*
X0206804Y0266619D02*
X0206634Y0266619D01*
X0207581Y0270613D02*
X0168819Y0270613D01*
X0168819Y0271612D02*
X0206582Y0271612D01*
X0205584Y0272610D02*
X0168819Y0272610D01*
X0168819Y0273609D02*
X0204585Y0273609D01*
X0203587Y0274607D02*
X0168819Y0274607D01*
X0168819Y0275606D02*
X0202588Y0275606D01*
X0201590Y0276604D02*
X0168819Y0276604D01*
X0168819Y0277603D02*
X0200591Y0277603D01*
X0199593Y0278601D02*
X0168819Y0278601D01*
X0168819Y0279600D02*
X0198594Y0279600D01*
X0197596Y0280598D02*
X0168819Y0280598D01*
X0168819Y0281597D02*
X0196597Y0281597D01*
X0195599Y0282595D02*
X0168819Y0282595D01*
X0168819Y0283594D02*
X0194669Y0283594D01*
X0194669Y0284592D02*
X0168819Y0284592D01*
X0168819Y0285591D02*
X0194669Y0285591D01*
X0194669Y0286589D02*
X0168819Y0286589D01*
X0168819Y0287588D02*
X0194669Y0287588D01*
X0194669Y0288586D02*
X0168819Y0288586D01*
X0168819Y0289585D02*
X0194669Y0289585D01*
X0194669Y0290583D02*
X0168819Y0290583D01*
X0168819Y0291582D02*
X0194669Y0291582D01*
X0182418Y0296575D02*
X0209669Y0296575D01*
X0209065Y0297573D02*
X0181419Y0297573D01*
X0180421Y0298572D02*
X0208642Y0298572D01*
X0208569Y0299570D02*
X0179422Y0299570D01*
X0178769Y0300569D02*
X0208804Y0300569D01*
X0209457Y0301567D02*
X0178769Y0301567D01*
X0178769Y0302566D02*
X0219669Y0302566D01*
X0219669Y0303564D02*
X0178769Y0303564D01*
X0178769Y0304563D02*
X0219669Y0304563D01*
X0219669Y0305561D02*
X0178769Y0305561D01*
X0178769Y0306560D02*
X0219669Y0306560D01*
X0219669Y0307558D02*
X0179358Y0307558D01*
X0179790Y0308557D02*
X0219669Y0308557D01*
X0219669Y0309555D02*
X0179869Y0309555D01*
X0179640Y0310554D02*
X0220000Y0310554D01*
X0220998Y0311552D02*
X0178996Y0311552D01*
X0177618Y0295576D02*
X0168819Y0295576D01*
X0168819Y0294578D02*
X0178617Y0294578D01*
X0179615Y0293579D02*
X0168819Y0293579D01*
X0168819Y0292580D02*
X0180614Y0292580D01*
X0213769Y0296575D02*
X0220246Y0296575D01*
X0219065Y0297573D02*
X0214373Y0297573D01*
X0214796Y0298572D02*
X0218642Y0298572D01*
X0218569Y0299570D02*
X0214869Y0299570D01*
X0214634Y0300569D02*
X0218804Y0300569D01*
X0219457Y0301567D02*
X0213981Y0301567D01*
X0218366Y0286589D02*
X0218616Y0286589D01*
X0218616Y0285591D02*
X0218366Y0285591D01*
X0218366Y0284592D02*
X0218616Y0284592D01*
X0218616Y0283594D02*
X0218366Y0283594D01*
X0330571Y0283594D02*
X0330821Y0283594D01*
X0330821Y0284592D02*
X0330571Y0284592D01*
X0330571Y0285591D02*
X0330821Y0285591D01*
X0330821Y0286589D02*
X0330571Y0286589D01*
X0393229Y0231671D02*
X0393449Y0231671D01*
X0393229Y0230673D02*
X0394247Y0230673D01*
X0393229Y0229674D02*
X0395437Y0229674D01*
X0396981Y0228676D02*
X0393229Y0228676D01*
X0445650Y0173758D02*
X0489029Y0173758D01*
X0489029Y0172759D02*
X0445650Y0172759D01*
X0445594Y0171761D02*
X0489029Y0171761D01*
X0432107Y0155784D02*
X0430150Y0155784D01*
X0430890Y0154786D02*
X0431368Y0154786D01*
X0453170Y0092878D02*
X0479931Y0092878D01*
X0478589Y0091880D02*
X0454098Y0091880D01*
X0454512Y0090881D02*
X0478099Y0090881D01*
X0477979Y0089883D02*
X0454529Y0089883D01*
X0454237Y0088884D02*
X0478167Y0088884D01*
X0478753Y0087886D02*
X0453504Y0087886D01*
X0450950Y0086887D02*
X0478596Y0086887D01*
X0478102Y0085889D02*
X0449952Y0085889D01*
X0448953Y0084890D02*
X0477979Y0084890D01*
X0478163Y0083892D02*
X0448179Y0083892D01*
X0448179Y0082893D02*
X0478745Y0082893D01*
X0479079Y0081895D02*
X0448179Y0081895D01*
X0448179Y0080896D02*
X0479079Y0080896D01*
X0479079Y0079898D02*
X0448179Y0079898D01*
X0448179Y0078899D02*
X0479079Y0078899D01*
X0479079Y0077901D02*
X0448179Y0077901D01*
X0448646Y0076902D02*
X0479079Y0076902D01*
X0479079Y0075904D02*
X0449149Y0075904D01*
X0449279Y0074905D02*
X0478170Y0074905D01*
X0477171Y0073907D02*
X0449100Y0073907D01*
X0448527Y0072908D02*
X0476173Y0072908D01*
X0433244Y0044950D02*
X0428204Y0044950D01*
X0429779Y0043951D02*
X0432478Y0043951D01*
X0431521Y0042953D02*
X0430736Y0042953D01*
X0416629Y0042953D02*
X0415629Y0042953D01*
X0415629Y0043951D02*
X0416629Y0043951D01*
M02*
